<?xml version="1.0" encoding="utf-8"?>
<!-- Generator: Adobe Illustrator 18.1.0, SVG Export Plug-In . SVG Version: 6.00 Build 0)  -->
<svg version="1.1" id="Слой_1" xmlns="http://www.w3.org/2000/svg" xmlns:xlink="http://www.w3.org/1999/xlink" x="0px" y="0px"
	 viewBox="0 0 257.367 54.606" enable-background="new 0 0 257.367 54.606" xml:space="preserve">
<g>
	<path fill="#54666F" d="M247.401,46.446c-0.019-0.693-0.053-1.256-0.324-1.884c-0.131-0.269-0.353-0.706-0.944-1.168
		c-1.169-0.946-2.576-1.014-3.034-1.045c-0.353-0.033-0.714-0.052-1.084-0.052c-2.505,0-3.876,0.711-4.637,1.472
		c-0.304,0.321-0.88,0.984-0.88,2.151c0,1.931,1.491,2.692,2.078,2.929c0.476,0.203,1.017,0.304,1.506,0.389l3.086,0.407
		c0.577,0.084,1.373,0.188,1.762,0.714c0.101,0.117,0.253,0.388,0.253,0.778c0,0.168-0.018,0.473-0.253,0.811
		c-0.115,0.171-0.286,0.339-0.473,0.459c-0.901,0.56-2.442,0.56-2.608,0.56c-1.676,0-2.63-0.575-2.997-1.205
		c-0.293-0.44-0.293-0.997-0.306-1.148l-2.468-0.018c0.084,0.81,0.165,1.523,0.572,2.235c0.967,1.622,3.297,1.998,5.061,1.998
		c0.473,0,0.95-0.021,1.403-0.072c0.682-0.065,1.288-0.166,1.952-0.389c0.639-0.237,2.704-1.099,2.704-3.456
		c0-0.573-0.133-0.998-0.201-1.202c-0.238-0.688-0.813-1.639-2.503-2.062c-0.356-0.102-0.712-0.152-1.087-0.22l-2.64-0.356
		c-0.44-0.049-1.286-0.166-1.694-0.356c-0.524-0.253-0.627-0.728-0.627-0.963c0-0.645,0.524-1.017,0.677-1.12
		c0.574-0.37,1.713-0.524,2.403-0.524c0.152,0,2.153-0.049,2.73,1.237c0.135,0.271,0.171,0.508,0.187,1.1H247.401z M220.724,42.634
		V54.52h2.233v-8.244l-0.087-2.051l1.138,1.831c0.305,0.475,0.591,0.949,0.914,1.423c0.523,0.792,1.085,1.573,1.624,2.368
		c0.525,0.781,1.05,1.558,1.592,2.354c0.525,0.777,1.052,1.56,1.594,2.357h3.383V42.686h-2.079v7.856l0.084,2.035l-1.406-2.288
		c-0.44-0.678-0.862-1.37-1.319-2.047c-0.407-0.61-0.851-1.237-1.253-1.849c-0.312-0.456-0.597-0.897-0.885-1.352
		c-0.525-0.778-1.101-1.594-1.659-2.39L220.724,42.634z M206.885,48.426c0-1.455,0.459-2.268,0.85-2.774
		c1.1-1.389,2.806-1.512,3.386-1.512c1.951,0,2.966,1.015,3.386,1.663c0.511,0.794,0.726,1.863,0.726,2.83
		c0,1.83-0.861,2.963-1.403,3.422c-0.725,0.661-1.846,0.949-2.863,0.949c-1.776,0-2.776-0.949-3.17-1.46
		C207.157,50.68,206.885,49.478,206.885,48.426z M204.332,48.562c0,2.457,1.096,4.742,3.435,5.756
		c1.253,0.525,2.982,0.593,3.319,0.593c0.339,0,0.88-0.018,1.642-0.154c1.051-0.183,1.645-0.453,2.074-0.691
		c1.995-1.084,2.955-3.216,2.955-5.419c0-1.474-0.438-3.184-1.418-4.3c-0.356-0.408-0.779-0.747-1.239-1.035
		c-0.689-0.422-1.877-1.05-3.96-1.05c-2.425,0-3.965,0.846-4.691,1.439C205.634,44.361,204.332,45.905,204.332,48.562z
		 M201.406,42.669h-2.516v11.871h2.516V42.669z M184.088,42.655v1.994h4.943v9.91h2.521v-9.874h4.944v-2.03H184.088z
		 M179.334,48.953c-0.019,1.066-0.071,2.116-0.813,2.964c-0.411,0.44-1.17,1.035-2.644,1.05c-2.167,0-3.015-1.458-3.252-2.219
		c-0.174-0.492-0.185-1.066-0.206-1.607v-6.507h-2.57v6.216c0.034,0.899,0.05,1.814,0.338,2.692c0.272,0.85,0.677,1.359,0.933,1.628
		c1.218,1.337,3.013,1.576,3.554,1.639c0.321,0.035,0.845,0.07,1.172,0.07c0.625,0,1.286-0.102,1.471-0.133
		c0.254-0.052,0.928-0.153,1.626-0.46c0.592-0.268,1.149-0.678,1.594-1.15c1.196-1.319,1.245-3.032,1.264-3.605
		c0.016-0.256,0.033-0.495,0.033-0.731v-6.148h-2.501V48.953z M158.524,42.669v11.89h9.324v-1.965h-6.755v-9.925H158.524z
		 M144.681,48.426c0-1.455,0.462-2.268,0.851-2.774c1.102-1.389,2.809-1.512,3.385-1.512c1.952,0,2.964,1.015,3.388,1.663
		c0.509,0.794,0.727,1.863,0.727,2.83c0,1.83-0.862,2.963-1.402,3.422c-0.729,0.661-1.851,0.949-2.863,0.949
		c-1.782,0-2.782-0.949-3.168-1.46C144.955,50.68,144.681,49.478,144.681,48.426z M142.126,48.562c0,2.457,1.104,4.742,3.439,5.756
		c1.253,0.525,2.98,0.593,3.32,0.593c0.337,0,0.878-0.018,1.645-0.154c1.051-0.183,1.641-0.453,2.065-0.691
		c1.995-1.084,2.962-3.216,2.962-5.419c0-1.474-0.442-3.184-1.423-4.3c-0.353-0.408-0.776-0.747-1.234-1.035
		c-0.692-0.422-1.882-1.05-3.965-1.05c-2.421,0-3.965,0.846-4.693,1.439C143.432,44.361,142.126,45.905,142.126,48.562z
		 M139.458,46.446c-0.017-0.693-0.051-1.256-0.323-1.884c-0.133-0.269-0.352-0.706-0.947-1.168c-1.166-0.946-2.57-1.014-3.03-1.045
		c-0.356-0.033-0.714-0.052-1.082-0.052c-2.508,0-3.88,0.711-4.641,1.472c-0.305,0.321-0.884,0.984-0.884,2.151
		c0,1.931,1.495,2.692,2.086,2.929c0.475,0.203,1.016,0.304,1.504,0.389l3.085,0.407c0.576,0.084,1.371,0.188,1.76,0.714
		c0.102,0.117,0.258,0.388,0.258,0.778c0,0.168-0.017,0.473-0.258,0.811c-0.114,0.171-0.284,0.339-0.473,0.459
		c-0.895,0.56-2.437,0.56-2.607,0.56c-1.68,0-2.629-0.575-3-1.205c-0.289-0.44-0.289-0.997-0.307-1.148l-2.466-0.018
		c0.086,0.81,0.168,1.523,0.574,2.235c0.965,1.622,3.3,1.998,5.063,1.998c0.475,0,0.95-0.021,1.406-0.072
		c0.679-0.065,1.288-0.166,1.947-0.389c0.641-0.237,2.709-1.099,2.709-3.456c0-0.573-0.139-0.998-0.207-1.202
		c-0.236-0.688-0.812-1.639-2.502-2.062c-0.356-0.102-0.709-0.152-1.085-0.22l-2.64-0.356c-0.441-0.049-1.289-0.166-1.696-0.356
		c-0.527-0.253-0.627-0.728-0.627-0.963c0-0.645,0.528-1.017,0.678-1.12c0.574-0.37,1.714-0.524,2.403-0.524
		c0.158,0,2.156-0.049,2.731,1.237c0.135,0.271,0.168,0.508,0.185,1.1H139.458z M109.642,42.672v11.887h9.546v-1.946h-6.989v-3.355
		h6.348v-1.948h-6.348v-2.695h6.632v-1.942H109.642z M94.854,42.655v1.994H99.8v9.91h2.52v-9.874h4.943v-2.03H94.854z
		 M87.993,44.466l2.677,5.553h-5.436L87.993,44.466z M86.437,42.669L80.373,54.52h2.659l1.269-2.553h7.265l1.256,2.591h2.741
		c-0.949-1.957-1.9-3.91-2.865-5.873c-0.981-2.006-1.977-4.017-2.979-6.017H86.437z M68.889,42.672v11.887h9.551v-1.946h-6.996
		v-3.355h6.354v-1.948h-6.354v-2.695h6.639v-1.942H68.889z M60.295,44.6c0.965,0.03,1.457,0.068,1.895,0.271
		c0.766,0.338,0.865,1.036,0.865,1.336c0,0.204-0.017,0.611-0.375,1.019c-0.503,0.591-1.218,0.641-1.995,0.696h-3.643V44.6H60.295z
		 M65.308,51.202c-0.069-0.554-0.155-1.066-0.542-1.52c-0.321-0.361-0.693-0.576-1.661-0.896c0.136-0.033,0.783-0.225,1.238-0.527
		c0.423-0.289,1.267-1.051,1.267-2.458c0-1.588-1.237-2.319-1.673-2.556c-1.12-0.558-2.358-0.574-3.606-0.591h-5.845v11.885h2.572
		v-4.692h3.238c1.031,0,2.015,0.049,2.418,1.167c0.124,0.359,0.155,0.797,0.172,0.899l0.053,0.916
		c0.031,0.573,0.031,0.761,0.287,1.71h2.688c-0.235-0.304-0.289-0.408-0.354-0.796L65.308,51.202z M51.722,46.446
		c-0.015-0.169-0.15-1.035-0.438-1.643c-0.254-0.509-0.563-0.831-0.71-1c-0.304-0.32-0.662-0.557-0.799-0.639
		c-1.302-0.815-3.334-0.815-3.619-0.815c-0.662,0-1.392,0.082-1.576,0.1c-3.099,0.424-4.212,2.051-4.728,3.271
		c-0.218,0.54-0.537,1.489-0.555,2.893c0,2.135,0.644,4,2.471,5.148c1.657,1.031,3.505,1.031,4.133,1.031
		c1.252,0,2.336-0.187,3.418-0.693c1.066-0.494,1.557-1.048,1.849-1.487c0.523-0.833,0.592-1.731,0.621-2.051h-2.536
		c-0.121,0.474-0.239,0.898-0.576,1.319c-0.644,0.781-1.863,1.003-2.866,1.003c-1.063,0-2.166-0.29-2.892-1.085
		c-1.05-1.168-1.082-2.879-1.082-3.29c0-1.963,0.828-3.604,2.79-4.096c0.422-0.119,0.914-0.169,1.355-0.169
		c1.66,0,2.643,0.778,2.949,1.341c0.201,0.321,0.22,0.726,0.22,0.862H51.722z M20.803,42.672v11.887h9.549v-1.946h-6.99v-3.355
		h6.343v-1.948h-6.343v-2.695h6.639v-1.942H20.803z M5.908,49.797c-0.116,0.407-0.236,0.811-0.337,1.218
		c-0.136,0.511-0.238,1.038-0.338,1.561c-0.101-0.492-0.187-0.967-0.307-1.457c-0.101-0.457-0.216-0.931-0.335-1.39
		c-0.258-1.014-0.528-2.015-0.784-2.998c-0.184-0.764-0.369-1.523-0.571-2.286c-0.156-0.574-0.321-1.172-0.494-1.76H0l1.912,6.03
		l1.83,5.859h3.095l2.118-8.315L9.346,44.5l0.475,2.012l2.168,8.093h2.994c0.288-0.897,0.56-1.811,0.832-2.728
		c0.373-1.229,0.729-2.504,1.084-3.758l1.607-5.383h-2.37l-1.997,7.788l-0.489,2.083l-0.49-2.098
		c-0.278-1.017-0.568-2.018-0.82-3.031c-0.232-0.916-0.451-1.828-0.69-2.744c-0.171-0.675-0.358-1.358-0.563-2.032l-3.254-0.017
		L5.908,49.797z"/>
	<path fill="#54666F" d="M252.943,1.618v3.465h0.596V3.717h0.486c0.325,0,0.555,0.035,0.687,0.112
		c0.228,0.13,0.336,0.393,0.336,0.796v0.274l0.013,0.112l0.008,0.039l0.006,0.033h0.563l-0.022-0.044l-0.022-0.179l-0.008-0.259
		v-0.25c0-0.175-0.063-0.354-0.189-0.541c-0.12-0.179-0.325-0.293-0.6-0.334c0.217-0.034,0.383-0.091,0.507-0.169
		c0.223-0.146,0.334-0.377,0.334-0.685c0-0.435-0.18-0.734-0.535-0.879c-0.202-0.08-0.517-0.125-0.946-0.125H252.943z
		 M255.047,2.676c0,0.267-0.122,0.448-0.361,0.542c-0.134,0.054-0.326,0.08-0.591,0.08h-0.556V2.039h0.524
		c0.343,0,0.596,0.04,0.75,0.13C254.966,2.253,255.047,2.424,255.047,2.676z M257.367,3.358c0-0.868-0.3-1.607-0.919-2.22
		c-0.616-0.61-1.357-0.914-2.238-0.914c-0.865,0-1.603,0.305-2.213,0.914c-0.617,0.613-0.923,1.352-0.923,2.22
		c0,0.873,0.303,1.618,0.914,2.237c0.614,0.611,1.351,0.923,2.223,0.923c0.881,0,1.621-0.312,2.238-0.923
		C257.067,4.973,257.367,4.229,257.367,3.358z M254.223,0.642c0.754,0,1.391,0.268,1.93,0.804c0.53,0.522,0.795,1.166,0.795,1.913
		c0,0.76-0.265,1.408-0.795,1.936c-0.524,0.536-1.172,0.8-1.93,0.8c-0.756,0-1.411-0.264-1.938-0.8
		c-0.528-0.528-0.791-1.177-0.791-1.936c0-0.748,0.263-1.392,0.791-1.913C252.826,0.91,253.47,0.642,254.223,0.642z"/>
	<polygon fill="#54666F" points="0.902,0 31.653,0 31.653,6.154 14.499,25.366 31.653,25.366 31.653,31.641 0,31.641 0,25.366 
		16.934,6.154 0.902,6.154 	"/>
	<polygon fill="#54666F" points="222.514,0 237.722,18.897 237.722,0 247.222,0 247.222,31.641 237.722,31.641 222.363,12.545 
		222.363,31.641 212.84,31.641 212.84,0 	"/>
	<rect x="194.778" y="-0.002" fill="#54666F" width="10.856" height="31.644"/>
	<polygon fill="#54666F" points="168.566,0 179.404,0 179.404,25.368 191.155,25.368 191.155,31.641 168.566,31.641 168.566,15.825 
			"/>
	<polygon fill="#54666F" points="37.948,0 63.3,0 63.3,6.276 48.798,6.276 48.798,12.693 62.385,12.693 62.385,18.971 
		48.798,18.971 48.798,25.32 64.187,25.32 64.187,31.641 37.948,31.641 37.948,15.835 	"/>
	<path fill="#54666F" d="M87.261,16.062c-1.295,1.301-4.147,1.265-4.147,1.265l-1.773,0.033V6.4h1.773c0,0,2.351-0.08,3.431,0.627
		c1.635,1.098,2.059,2.675,2.059,4.502C88.603,13.35,88.51,14.799,87.261,16.062 M90.683,0.878
		c-2.684-0.883-8.756-0.876-8.756-0.876h-4.622v0.003l-7.059-0.003v31.639H81.34v-7.48c1.169-0.027,2.286-0.039,2.915-0.039
		c1.655,0,4.644-0.367,6.699-1.118c5.375-1.957,8.162-6.431,8.162-11.05C99.116,7.182,96.645,2.817,90.683,0.878z"/>
	<polygon fill="#54666F" points="136.378,0 161.723,0 161.723,6.276 147.219,6.276 147.219,12.693 160.804,12.693 160.804,18.971 
		147.219,18.971 147.219,25.32 162.622,25.32 162.622,31.641 136.378,31.641 136.378,15.835 	"/>
	<path fill="#54666F" d="M120.266,16.062c-1.293,1.301-4.146,1.265-4.146,1.265l-1.786,0.033V6.4h1.786c0,0,2.341-0.08,3.428,0.627
		c1.634,1.098,2.063,2.675,2.063,4.502C121.611,13.35,121.515,14.799,120.266,16.062 M123.683,0.878
		c-2.686-0.883-8.747-0.876-8.747-0.876h-4.632v0.003l-7.045-0.003v31.639h11.077v-7.48c1.177-0.027,2.303-0.039,2.925-0.039
		c1.66,0,4.645-0.367,6.694-1.118c5.373-1.957,8.161-6.431,8.161-11.05C132.115,7.182,129.656,2.817,123.683,0.878z"/>
</g>
</svg>
