<svg xmlns="http://www.w3.org/2000/svg" viewBox="0 0 257.367 54.606"><path d="M247.401 46.446c-.019-.693-.053-1.256-.324-1.884a3.075 3.075 0 0 0-.944-1.168c-1.169-.946-2.576-1.014-3.034-1.045a11.628 11.628 0 0 0-1.084-.052c-2.505 0-3.876.711-4.637 1.472-.304.321-.88.984-.88 2.151 0 1.931 1.491 2.692 2.078 2.929.476.203 1.017.304 1.506.389l3.086.407c.577.084 1.373.188 1.762.714.101.117.253.388.253.778 0 .168-.017.473-.253.811a1.685 1.685 0 0 1-.473.459c-.901.56-2.442.56-2.608.56-1.676 0-2.63-.575-2.997-1.205-.293-.44-.293-.997-.306-1.148l-2.468-.018c.084.81.165 1.523.572 2.235.967 1.622 3.297 1.998 5.061 1.998.473 0 .95-.021 1.403-.072.682-.065 1.288-.166 1.952-.389.639-.237 2.704-1.099 2.704-3.456 0-.573-.133-.998-.201-1.202-.238-.688-.813-1.639-2.503-2.062-.356-.102-.712-.152-1.087-.22l-2.64-.356c-.44-.049-1.286-.166-1.694-.356a1.072 1.072 0 0 1-.627-.963c0-.645.524-1.017.677-1.12.574-.37 1.713-.524 2.403-.524.152 0 2.153-.049 2.73 1.237.135.271.171.508.187 1.1h2.386zm-26.677-3.812V54.52h2.233v-8.244l-.087-2.051 1.138 1.831c.305.475.591.949.914 1.423.523.792 1.085 1.573 1.624 2.368.525.781 1.05 1.558 1.592 2.354.525.777 1.052 1.56 1.594 2.357h3.383V42.686h-2.079v7.856l.084 2.035-1.406-2.288c-.44-.678-.862-1.37-1.319-2.047-.407-.61-.851-1.237-1.253-1.849a44.562 44.562 0 0 1-.885-1.352c-.525-.778-1.101-1.594-1.659-2.39l-3.874-.017zm-13.839 5.792c0-1.455.459-2.268.85-2.774 1.1-1.389 2.806-1.512 3.386-1.512 1.951 0 2.966 1.015 3.386 1.663.511.794.726 1.863.726 2.83 0 1.83-.861 2.963-1.403 3.422-.725.661-1.846.949-2.863.949-1.776 0-2.776-.949-3.17-1.46-.64-.864-.912-2.066-.912-3.118zm-2.553.136c0 2.457 1.096 4.742 3.435 5.756 1.253.525 2.982.593 3.319.593.339 0 .88-.018 1.642-.154 1.051-.183 1.645-.453 2.074-.691 1.995-1.084 2.955-3.216 2.955-5.419 0-1.474-.438-3.184-1.418-4.3a5.502 5.502 0 0 0-1.239-1.035c-.689-.422-1.877-1.05-3.96-1.05-2.425 0-3.965.846-4.691 1.439-.815.66-2.117 2.204-2.117 4.861zm-2.926-5.893h-2.516V54.54h2.516V42.669zm-17.318-.014v1.994h4.943v9.91h2.521v-9.874h4.944v-2.03h-12.408zm-4.754 6.298c-.019 1.066-.071 2.116-.813 2.964-.411.44-1.17 1.035-2.644 1.05-2.167 0-3.015-1.458-3.252-2.219-.174-.492-.185-1.066-.206-1.607v-6.507h-2.57v6.216c.034.899.05 1.814.338 2.692.272.85.677 1.359.933 1.628 1.218 1.337 3.013 1.576 3.554 1.639.321.035.845.07 1.172.07.625 0 1.286-.102 1.471-.133.254-.052.928-.153 1.626-.46a5.169 5.169 0 0 0 1.594-1.15c1.196-1.319 1.245-3.032 1.264-3.605.016-.256.033-.495.033-.731v-6.148h-2.501v6.301zm-20.81-6.284v11.89h9.324v-1.965h-6.755v-9.925h-2.569zm-13.843 5.757c0-1.455.462-2.268.851-2.774 1.102-1.389 2.809-1.512 3.385-1.512 1.952 0 2.964 1.015 3.388 1.663.509.794.727 1.863.727 2.83 0 1.83-.862 2.963-1.402 3.422-.729.661-1.851.949-2.863.949-1.782 0-2.782-.949-3.168-1.46-.644-.864-.918-2.066-.918-3.118zm-2.555.136c0 2.457 1.104 4.742 3.439 5.756 1.253.525 2.98.593 3.32.593.337 0 .878-.018 1.645-.154 1.051-.183 1.641-.453 2.065-.691 1.995-1.084 2.962-3.216 2.962-5.419 0-1.474-.442-3.184-1.423-4.3a5.454 5.454 0 0 0-1.234-1.035c-.692-.422-1.882-1.05-3.965-1.05-2.421 0-3.965.846-4.693 1.439-.81.66-2.116 2.204-2.116 4.861zm-2.668-2.116c-.017-.693-.051-1.256-.323-1.884a3.071 3.071 0 0 0-.947-1.168c-1.166-.946-2.57-1.014-3.03-1.045a11.668 11.668 0 0 0-1.082-.052c-2.509 0-3.88.711-4.641 1.472-.305.321-.884.984-.884 2.151 0 1.931 1.495 2.692 2.086 2.929.475.203 1.016.304 1.504.389l3.085.407c.576.084 1.371.188 1.76.714.102.117.258.388.258.778 0 .168-.017.473-.258.811a1.646 1.646 0 0 1-.473.459c-.895.56-2.437.56-2.607.56-1.68 0-2.629-.575-3-1.205-.289-.44-.289-.997-.307-1.148l-2.466-.018c.086.81.168 1.523.574 2.235.965 1.622 3.3 1.998 5.063 1.998.475 0 .95-.021 1.406-.072.679-.065 1.288-.166 1.947-.389.641-.237 2.709-1.099 2.709-3.456 0-.573-.139-.998-.207-1.202-.236-.688-.812-1.639-2.502-2.062-.356-.102-.709-.152-1.085-.22l-2.64-.356c-.441-.049-1.289-.166-1.696-.356a1.067 1.067 0 0 1-.627-.963c0-.645.528-1.017.678-1.12.574-.37 1.714-.524 2.403-.524.158 0 2.156-.049 2.731 1.237.135.271.168.508.185 1.1h2.386zm-29.816-3.774v11.887h9.546v-1.946h-6.989v-3.355h6.348V47.31h-6.348v-2.695h6.632v-1.942h-9.189zm-14.788-.017v1.994H99.8v9.91h2.52v-9.874h4.943v-2.03H94.854zm-6.861 1.811l2.677 5.553h-5.436l2.759-5.553zm-1.556-1.797L80.373 54.52h2.659l1.269-2.553h7.265l1.256 2.591h2.741c-.949-1.957-1.9-3.91-2.865-5.873a699.488 699.488 0 0 0-2.979-6.017h-3.282zm-17.548.003v11.887h9.551v-1.946h-6.996v-3.355h6.354V47.31h-6.354v-2.695h6.639v-1.942h-9.194zM60.295 44.6c.965.03 1.457.068 1.895.271.766.338.865 1.036.865 1.336 0 .204-.017.611-.375 1.019-.503.591-1.218.641-1.995.696h-3.643V44.6h3.253zm5.013 6.602c-.069-.554-.155-1.066-.542-1.52-.321-.361-.693-.576-1.661-.896.136-.033.783-.225 1.238-.527a2.917 2.917 0 0 0 1.267-2.458c0-1.588-1.237-2.319-1.673-2.556-1.12-.558-2.358-.574-3.606-.591h-5.845v11.885h2.572v-4.692h3.238c1.031 0 2.015.049 2.418 1.167.124.359.155.797.172.899l.053.916c.031.573.031.761.287 1.71h2.688c-.235-.304-.289-.408-.354-.796l-.252-2.541zm-13.586-4.756c-.015-.169-.15-1.035-.438-1.643-.254-.509-.563-.831-.71-1a4.115 4.115 0 0 0-.799-.639c-1.302-.815-3.334-.815-3.619-.815-.662 0-1.392.082-1.576.1-3.099.424-4.212 2.051-4.728 3.271-.218.54-.537 1.489-.555 2.893 0 2.135.644 4 2.471 5.148 1.657 1.031 3.505 1.031 4.133 1.031 1.252 0 2.336-.187 3.418-.693 1.066-.494 1.557-1.048 1.849-1.487.523-.833.592-1.731.621-2.051h-2.536c-.121.474-.239.898-.576 1.319-.644.781-1.863 1.003-2.866 1.003-1.063 0-2.166-.29-2.892-1.085-1.05-1.168-1.082-2.879-1.082-3.29 0-1.963.828-3.604 2.79-4.096a5.183 5.183 0 0 1 1.355-.169c1.66 0 2.643.778 2.949 1.341.201.321.22.726.22.862h2.571zm-30.919-3.774v11.887h9.549v-1.946h-6.99v-3.355h6.343V47.31h-6.343v-2.695h6.639v-1.942h-9.198zM5.908 49.797c-.116.407-.236.811-.337 1.218a22.548 22.548 0 0 0-.338 1.561c-.101-.492-.187-.967-.307-1.457a40.016 40.016 0 0 0-.335-1.39c-.258-1.014-.528-2.015-.784-2.998-.184-.764-.369-1.523-.571-2.286a88.512 88.512 0 0 0-.494-1.76H0l1.912 6.03 1.83 5.859h3.095l2.118-8.315.391-1.759.475 2.012 2.168 8.093h2.994c.288-.897.56-1.811.832-2.728.373-1.229.729-2.504 1.084-3.758l1.607-5.383h-2.37l-1.997 7.788-.489 2.083-.49-2.098c-.278-1.017-.568-2.018-.82-3.031-.232-.916-.451-1.828-.69-2.744a44.87 44.87 0 0 0-.563-2.032l-3.254-.017-1.925 7.112zM252.943 1.618v3.465h.596V3.717h.486c.325 0 .555.035.687.112.228.13.336.393.336.796v.274l.013.112.008.039.006.033h.563l-.022-.044-.022-.179-.008-.259v-.25c0-.175-.063-.354-.189-.541-.121-.179-.325-.293-.6-.334.217-.034.383-.091.507-.169.223-.146.334-.377.334-.685 0-.435-.18-.734-.535-.879-.202-.08-.517-.125-.946-.125h-1.214zm2.104 1.058c0 .267-.122.448-.361.542-.134.054-.326.08-.591.08h-.556V2.039h.524c.343 0 .596.04.75.13.153.084.234.255.234.507zm2.32.682c0-.868-.3-1.607-.919-2.22-.616-.61-1.357-.914-2.238-.914-.865 0-1.603.305-2.213.914a3.011 3.011 0 0 0-.923 2.22c0 .873.303 1.618.914 2.237.614.611 1.351.923 2.223.923a3.06 3.06 0 0 0 2.238-.923 3.05 3.05 0 0 0 .918-2.237zM254.223.642c.754 0 1.391.268 1.93.804.53.522.795 1.166.795 1.913 0 .76-.265 1.408-.795 1.936-.524.536-1.172.8-1.93.8-.756 0-1.411-.264-1.938-.8-.528-.528-.791-1.177-.791-1.936 0-.748.263-1.392.791-1.913a2.654 2.654 0 0 1 1.938-.804zM.902 0h30.751v6.154L14.499 25.366h17.154v6.275H0v-6.275L16.934 6.154H.902zm221.612 0l15.208 18.897V0h9.5v31.641h-9.5l-15.359-19.096v19.096h-9.523V0zm-27.736-.002h10.856v31.644h-10.856zM168.566 0h10.838v25.368h11.751v6.273h-22.589V15.825zM37.948 0H63.3v6.276H48.798v6.417h13.587v6.278H48.798v6.349h15.389v6.321H37.948V15.835zm49.313 16.062c-1.295 1.301-4.147 1.265-4.147 1.265l-1.773.033V6.4h1.773s2.351-.08 3.431.627c1.635 1.098 2.059 2.675 2.059 4.502-.001 1.821-.094 3.27-1.343 4.533M90.683.878c-2.684-.883-8.756-.876-8.756-.876h-4.622v.003L70.246.002v31.639H81.34v-7.48c1.169-.027 2.286-.039 2.915-.039 1.655 0 4.644-.367 6.699-1.118 5.375-1.957 8.162-6.431 8.162-11.05 0-4.772-2.471-9.137-8.433-11.076zM136.378 0h25.345v6.276h-14.504v6.417h13.585v6.278h-13.585v6.349h15.403v6.321h-26.244V15.835zm-16.112 16.062c-1.293 1.301-4.146 1.265-4.146 1.265l-1.786.033V6.4h1.786s2.341-.08 3.428.627c1.634 1.098 2.063 2.675 2.063 4.502 0 1.821-.096 3.27-1.345 4.533M123.683.878c-2.686-.883-8.747-.876-8.747-.876h-4.632v.003l-7.045-.003v31.639h11.077v-7.48c1.177-.027 2.303-.039 2.925-.039 1.66 0 4.645-.367 6.694-1.118 5.373-1.957 8.161-6.431 8.161-11.05-.001-4.772-2.46-9.137-8.433-11.076z"/></svg>