<?xml version="1.0" encoding="utf-8"?>
<!-- Generator: Adobe Illustrator 18.1.0, SVG Export Plug-In . SVG Version: 6.00 Build 0)  -->
<svg version="1.1" id="Шар_1" xmlns="http://www.w3.org/2000/svg" xmlns:xlink="http://www.w3.org/1999/xlink" x="0px" y="0px"
	 viewBox="0 0 142.33 94.324" enable-background="new 0 0 142.33 94.324" xml:space="preserve">
<g>
	<g>
		<g>
			<path fill="#1BA3DD" d="M71.293,94.324c-39.126,0-71.015-21.079-71.086-46.99C0.137,21.316,32.045,0.061,71.335-0.047h0.298
				c39.125,0,71.012,21.079,71.083,46.99c0.07,26.018-31.836,47.273-71.124,47.381H71.293z M71.632,1.906H71.34
				C33.127,2.011,2.093,22.388,2.16,47.328c0.068,24.837,31.081,45.043,69.133,45.043h0.293
				c38.211-0.105,69.243-20.482,69.177-45.422C140.694,22.112,109.683,1.906,71.632,1.906z"/>
		</g>
		<g>
			<g>
				<path fill-rule="evenodd" clip-rule="evenodd" fill="#1BA3DD" d="M91.647,9.686c-17.11-0.415-32.262,2.323-44.482,7.878
					c-5.872,2.669-11.574,5.892-15.897,10.682c-4.122,4.566-8.017,10.365-8.005,18.821c0.005,7.851,2.736,13.761,6.401,18.381
					c3.605,4.55,9.184,7.651,14.533,10.002c9.88,4.35,19.057,6.998,30.882,9.227c1.64,0.31,5.634,0.746,7.446,1.01
					c-19.796,1.086-36.254-1.833-49.321-8.713c-4.547-2.396-8.816-5.617-12.16-9.716c-4.275-5.224-8.002-12.161-6.983-21.758
					c0.739-6.939,4.262-12.921,8.11-17.128c10.921-11.941,24.769-17.34,42.744-19.47C73.226,7.921,83.593,8.28,91.647,9.686z"/>
				<path fill-rule="evenodd" clip-rule="evenodd" fill="#1BA3DD" d="M81.094,25.112c0.063,0,0.128,0,0.193,0
					c4.626,2.51,8.92,6.535,14.626,8.51c1.803,0.627,4.378,1.003,5.501,2.174c0.669,0.701,0.898,1.7,1.808,2.184
					c1.229,0.653,2.732,0.842,3.981,1.184c3.896,1.057,7.017,3.201,10.163,5.441c4.254,3.026,7.695,5.798,10.932,10.016
					c-2.184-0.581-3.822-2.619-5.7-4.163c-1.762-1.445-3.683-2.892-5.703-4.361c-1.869-1.354-3.721-2.831-6.171-3.86
					c-2.371-0.996-5.176-2.189-7.871-1.768c-0.774,0.118-1.909,0.725-1.896,1.293c0.024,0.954,2.913,1.606,3.793,1.782
					c1.305,0.259,2.722,0.108,3.134,1.285c-1.983,0.334-3.835-0.498-5.308,0.013c-0.668,0.228-0.992,0.913-1.417,1.196
					c-1.259,0.837-4.552,1.701-6.635,0.519c-0.381-0.218-0.685-1.076-1.522-1.19c-0.95-0.131-2.127,0.843-3.221,0.606
					c0.271-1.034,0.732-2.245,1.51-2.69c1.302-0.747,3.401-0.064,4.929-0.71c0.757-0.321,2.435-2.429,2.645-3.287
					c0.046-0.189,0.289-1.626,0.184-1.993c-0.277-0.961-4.055-1.228-5.787-1.077c-0.795,0.07-1.976,0.364-2.651,0.702
					c-1.186,0.599-1.763,1.872-3.312,2.097c-1.954-2.29,1.527-3.719,1.591-5.57c0.063-1.619-2.05-2.92-2.943-3.774
					c-1.264-1.203-2.066-2.378-3.52-3.069c-0.662,0.064-0.433,1.069-0.471,1.787c-0.586,0.547-1.827,0.638-1.887,1.498
					c-0.093,1.24,2.407,1.465,2.184,2.878c-0.374,0.678-0.807,0.396-1.324,0.602c-1.59,0.627-3.421,2.36-4.161,3.789
					c-0.54,1.04-0.302,2.191-0.844,3.582c-0.437,1.126-1.824,2.152-2.744,2.894c-1.04,0.841-2.102,1.867-3.498,2.099
					c-0.017-1.789,1.602-2.228,2.929-3.294c0.721-0.58,1.873-1.546,1.89-2.292c0.019-1.078-1.219-1.257-0.764-2.581
					c0.471-1.388,3.553-1.481,3.78-3.293c-1.143-0.799-2.882,0.105-3.788,0.708c-2.277,1.507-4.182,4.417-6.432,6.081
					c-0.876,0.648-2.131,0.906-3.221,1.503c-0.796,0.44-1.361,1.21-1.891,1.892c-0.759,0.987-1.154,2.21-2.359,2.496
					c-1.8-0.763-3.804,0.153-5.88,0.015c-1.15-0.97-1.94-1.972-3.892-1.477c-2.823,0.707-4.885,3.52-7.096,4.29
					c0.469-1.109,1.426-2.01,2.36-3.087c1.156-1.328,2.25-3.345,4.73-3.295c4.415,1.491,7.406-0.741,9.949-2.915
					c4.252-3.625,8.47-8.716,12.575-12.067c0.843,0.095,1.396,0.553,2.09,0.89c0.571,0.279,1.496,0.838,2.085,0.791
					C78.122,29.986,79.678,25.995,81.094,25.112z"/>
				<path fill-rule="evenodd" clip-rule="evenodd" fill="#1BA3DD" d="M128.973,58.2c0.416,1.043-0.632,1.891-1.323,2.49
					c-0.688,0.601-1.703,1.496-2.651,1.299c-0.256-0.336,0.015-0.79,0.092-1.095c-0.794-0.993-2.068-1.474-3.228-2.082
					c-0.875,1.069,0.144,3.205,0.579,4.178c0.317,0.066,0.879-0.131,1.041,0.097c0.115,1.431-1.752,3.05-3.022,2.397
					c0.798-1.349-0.035-4.736-0.685-6.666c-0.336-0.991-1.734-2.14-0.957-3.278c1.285-1.882,4.153,0.237,5.595,0.98
					c1.325,0.683,2.569,1.365,3.515,1.882C128.396,58.462,128.429,58.063,128.973,58.2z"/>
				<path fill-rule="evenodd" clip-rule="evenodd" fill="#1BA3DD" d="M41.754,59.929c1.059,0.487,2.365-0.424,2.554-1.498
					c1.221,0.233,3.527,1.112,3.327,2.971c-0.694,0.332-1.146-0.27-1.61-0.493c-1.112-0.063-1.93,0.177-2.468,0.706
					c0.132,1.512,0.133,3.978,0.491,5.366c0.162,0.639,0.872,1.677-0.091,1.889c-0.994,0.223-2.231-1.813-3.043-1.977
					c-0.111-1.505-0.031-3.219-0.579-4.277c-1.221,0.119-0.925,1.443-0.937,2.392c-0.854,0.442-1.716-0.408-2.373-0.89
					c-0.631-0.462-1.743-0.886-1.526-2.084c2.464-0.703,3.154-3.259,4.349-5.284c-0.004-0.431-0.219-0.63-0.194-1.093
					c0.168-0.091,0.158-0.369,0.379-0.4c0.885,0.025,3.756,1.464,3.514,2.675C43.359,58.878,41.553,58.37,41.754,59.929z"/>
				<path fill-rule="evenodd" clip-rule="evenodd" fill="#1BA3DD" d="M119.038,65.987c0.153,1.296-1.093,1.615-1.798,1.989
					c-0.763,0.406-1.611,1.093-2.65,1.001c-0.403-0.503-0.007-0.958,0.188-1.393c-0.038-0.131-0.174-0.155-0.195-0.295
					c-1.005-0.185-3.166,0.564-3.022,1.897c0.254,0.408,0.82-0.124,1.04,0.295c0.101,1.464-1.86,2.151-3.218,2.099
					c-0.311-0.647,0.278-0.966,0.467-1.395c0.029-1.865,0.222-3.831-0.014-5.668c-0.121-0.962-0.771-1.646-0.668-2.486
					c0.109-0.918,1.207-1.422,2.176-1.196c2.275,0.515,4.687,3.899,6.651,5.05C118.342,65.917,118.834,65.799,119.038,65.987z
					 M111.164,64.416c-0.146,0.581-0.186,1.741,0.102,2.186c0.767-0.155,1.417-0.438,1.799-0.998
					C112.553,65.094,111.957,64.31,111.164,64.416z"/>
				<path fill-rule="evenodd" clip-rule="evenodd" fill="#1BA3DD" d="M56.485,73.612c-1.068,0.79-3.302-0.112-4.267-0.681
					c-0.385-0.229-0.805-0.704-0.858-1.091c0.153-0.408,0.698-0.401,1.137-0.503c-0.015-1.611-1.781-1.375-2.756-1.981
					c-0.345,0-0.36,0.35-0.566,0.495c-0.12,0.602,0.71,0.713,0.477,1.093c-0.088,0.574-0.744,0.433-1.137,0.404
					c-0.931-0.077-2.455-0.813-2.374-1.783c0.21-0.278,0.776-0.183,1.139-0.303c2.116-1.72,3.911-3.787,5.291-6.279
					c4.032-0.465,2.252,6.702,3.25,9.534C55.99,73.009,56.486,73.121,56.485,73.612z M50.781,67.958
					c0.463,0.412,1.131,0.605,1.804,0.792c0.439-0.607-0.088-1.626-0.195-2.285C51.437,66.527,51.162,67.298,50.781,67.958z"/>
				<path fill-rule="evenodd" clip-rule="evenodd" fill="#1BA3DD" d="M107.495,74.471c-0.835,1.094-1.627-0.503-2.466-0.691
					c-0.9-0.205-2.065,0.442-3.034,0.707c-1.055,0.288-1.905,0.403-2.842,0.801c-0.524,0.74-0.503,2.055-1.89,1.895
					c-0.351-0.512-0.803-1.202-0.578-2.088C96.8,74.65,97.484,74.346,97.633,74c0.255-0.585,0.468-2.21,0.653-3.381
					c0.137-0.862,0.291-2.023,0.18-3.087c-0.04-0.361-0.231-0.727-0.189-1.095c0.109-1.061,1.196-1.374,2.083-1.201
					c1.167,0.235,2.201,1.923,3.04,2.978c1.231,1.557,1.817,3.239,3.613,3.768C107.283,72.686,107.764,73.509,107.495,74.471z
					 M99.989,69.712c-0.343,1.006-0.854,2.343-0.556,3.685c1.142-0.095,2.044-0.445,2.934-0.802
					C102.164,71.481,101.04,69.866,99.989,69.712z"/>
				<path fill-rule="evenodd" clip-rule="evenodd" fill="#1BA3DD" d="M64.912,70.108c1.308-0.818,1.591-2.703,2.837-3.589
					c1.354,0.058,2.956,0.017,3.033,0.992c0.053,0.586-0.7,0.68-0.942,1.191c-0.558,1.178-0.554,4.178-0.646,5.874
					c0.048,0.481,0.847,0.696,0.479,1.287c-0.643,0.481-4.02,0.411-4.27-0.482c-0.189-0.682,0.49-0.673,0.759-1.198
					c0.343-0.687,0.529-2.003,0.083-2.687c-1.289,0.738-1.521,3.106-2.742,3.588c-0.961-1.006-0.687-3.33-1.714-4.269
					c-0.647,0.396-0.574,2.038-0.564,2.786c-0.011,0.547,0.637,0.399,0.574,0.996c-0.547,0.951-3.183,0.55-3.319-0.49
					c-0.002-0.363,0.587-0.187,0.853-0.502c0.428-0.516,0.653-2.297,0.838-3.583c0.262-1.798,0.344-3.011-0.67-3.875
					c0.418-1.07,2.823-0.576,3.601-0.213C63.845,67.18,63.867,69.188,64.912,70.108z"/>
				<path fill-rule="evenodd" clip-rule="evenodd" fill="#1BA3DD" d="M78.095,71.267c0.969-1.242-0.563-2.352-0.484-2.982
					c0.158-1.206,4.631-0.824,4.646,0.385c0.009,0.477-0.829,0.692-1.04,1.295c-0.055,0.168,0.029,0.549,0.002,0.796
					c-0.141,1.385-0.689,3.489-0.457,4.577c0.094,0.442,0.65,0.71,0.666,1.093c0.058,1.458-4.493,0.878-4.648-0.088
					c-0.12-0.771,0.931-0.985,1.135-1.594c0.151-0.443,0.158-0.827-0.1-1.592c-1.925,0.657-4.342,0.767-4.934-1.08
					c-0.277-0.872,0.267-1.889-0.006-2.984c-0.121-0.477-0.825-0.805-0.668-1.391c0.273-1.022,4.509-0.774,4.646,0.291
					c0.113,0.852-1.597,1.269-1.128,2.982C76.002,72.002,77.179,71.871,78.095,71.267z"/>
				<path fill-rule="evenodd" clip-rule="evenodd" fill="#1BA3DD" d="M94.887,75.597c-0.038,1.57-7.306,2.207-4.55-0.185
					c-0.589-1.536-5.579,0.166-2.556,1.201c0.182,1.238-3.663,1.583-3.792,0.605c-0.076-0.585,0.587-0.568,0.944-0.895
					c0.379-1.651,1.67-4.049,1.782-6.273c0.032-0.587-0.219-1.303-0.003-1.79c0.309-0.703,1.341-0.624,2.087-0.605
					C91.474,69.622,92.16,73.687,94.887,75.597z M87.86,71.339c-0.204,0.597-0.662,1.406-0.464,2.09
					c0.5,0.17,1.375-0.067,1.894-0.203C89.09,72.303,88.724,71.555,87.86,71.339z"/>
			</g>
		</g>
	</g>
</g>
</svg>
