<?xml version="1.0" encoding="utf-8"?>
<!-- Generator: Adobe Illustrator 18.1.0, SVG Export Plug-In . SVG Version: 6.00 Build 0)  -->
<svg version="1.1" id="Слой_1" xmlns="http://www.w3.org/2000/svg" xmlns:xlink="http://www.w3.org/1999/xlink" x="0px" y="0px"
	 viewBox="0 0 233.846 40.749" enable-background="new 0 0 233.846 40.749" xml:space="preserve">
<path fill-rule="evenodd" clip-rule="evenodd" d="M221.053,30.837v-6.122h-19.64c-3.686,0-3.953,6.122,0.185,6.122H221.053
	 M223.031,0.027c6.936,0,10.815,3.871,10.815,10.808l-0.007,29.907h-35.126c-7.922,0-11.437-5.582-11.437-13.148
	c0-7.388,2.886-12.791,11.349-12.791h22.43v-2.908c0,0,0-1.949-1.984-1.949h-69.883c-3.065,0-2.914,4.857,0.109,4.857h22.301
	c6.854-0.015,12.163,5.225,12.163,13.147c0,6.758-7.204,12.82-12.163,12.792h-48.37c-3.01-4.461-9.922-13.367-9.922-13.367
	l-10.613,13.373l-50.063-0.006c-6.97,0-10.829-3.859-10.829-10.808v-5.226l-16.855,0.007l0.099,3.687
	c0,1.505-0.021,2.271,2.165,2.435h7.921v9.912l-11.964-0.006c-7.039,0-10.914-3.872-10.914-10.808v-5.219L0,24.708v-9.904h12.252
	V0.027h12.792v14.776h16.756v-3.968C41.799,3.899,45.582,0,52.7,0h23.333c7.107,0,10.931,3.899,10.931,10.747v13.968H54.485v6.122
	h40.999l11.17-12.436L91.883,0.027h14.409l7.207,9.919l6.844-9.919h14.602l-14.42,18.018l10.097,12.792h37.103
	c4.33,0,4.33-6.13,0-6.13h-20.713c-6.04,0-12.067-3.783-12.067-12.422C134.944,3.995,140.527,0,147.1,0L223.031,0.027z
	 M54.591,14.803h21.442v-3.421c0-1.081-0.725-1.436-1.984-1.436H56.483c-1.262,0-1.892,0.629-1.892,1.888V14.803z"/>
</svg>
