<svg xmlns="http://www.w3.org/2000/svg" viewBox="0 0 304.492 54.606"><path d="M256.177 0h-.283v54.535h2.807l-.006-47.724 44.571 47.795h1.226V.009L301.788 0l-.002 49.24zm-92.899 27.425c0-13.669 11.249-24.753 24.573-24.753 13.354 0 24.59 11.084 24.59 24.753 0 13.678-11.236 24.76-24.59 24.76-13.324-.001-24.573-11.082-24.573-24.76M187.851 0c-14.78 0-27.476 12.276-27.476 27.425 0 15.147 12.696 27.435 27.476 27.435 14.795 0 27.5-12.289 27.5-27.435 0-15.149-12.705-27.425-27.5-27.425m-58.475 0h-3.095l-15.525 33.465-7 15.495-7.004-15.495L81.207 0h-3.099l25.486 54.875h.291zM11.395 36.873l7.324-15.788 6.993-15.514 7.083 15.545 7.267 15.786-28.667-.029zM25.868 0h-.313L.087 54.535H3.19l7.103-15.291 30.842-.009 7.123 15.299h3.095L25.868 0z" fill="#010101"/></svg>