<?xml version="1.0" encoding="utf-8"?>
<!-- Generator: Adobe Illustrator 18.1.0, SVG Export Plug-In . SVG Version: 6.00 Build 0)  -->
<svg version="1.1" id="Слой_1" xmlns="http://www.w3.org/2000/svg" xmlns:xlink="http://www.w3.org/1999/xlink" x="0px" y="0px"
	 viewBox="0 0 319.347 93.307" enable-background="new 0 0 319.347 93.307" xml:space="preserve">
<g>
	<path d="M281.405,41.106h-10.841v17.672c0,5.038,2.711,5.967,6.187,5.967c1.218,0,2.528-0.183,3.853-0.359l0.801,7.929
		c-2.817,0.494-6.615,0.922-9.085,0.922c-7.486,0-14.108-2.554-14.108-11.58V41.106h-6.286v-7.789h6.286v-8.602l12.352-3.461v12.063
		h10.841V41.106z"/>
	<path d="M248.158,72.442H235.81V47.31c0-3.681-1.606-5.733-5.832-5.733c-3.187,0-5.272,1.511-7.588,3.33v27.535h-12.366V33.316
		h12.026v3.443c4.017-2.667,8.653-4.372,13.658-4.372c7.841,0,12.451,4.822,12.451,12.176V72.442z"/>
	<path d="M185.1,0c-6.271,10.446-3.575,19.874-9.663,25.893c-4.91,4.83-9.472,4.69-14.836,4.69c-1.851,0-5.473,0.161-6.977,1.222
		c-0.863-2.733-1.27-5.766-1.27-8.66c0-4.939,1.123-9.377,4.771-12.919C164.066,3.384,176.63,1.204,185.1,0"/>
	<path d="M118.27,72.442h-12.363V47.31c0-3.681-1.57-5.733-5.817-5.733c-3.205,0-5.269,1.511-7.603,3.33v27.535H80.131V33.316
		h12.015v3.443c4.025-2.667,8.646-4.372,13.651-4.372c7.877,0,12.473,4.822,12.473,12.176V72.442z"/>
	<path d="M77.583,33.315L57.768,80.689c-3.066,7.288-9.172,12.619-17.485,12.619c-4.16,0-6.37-0.53-9.099-1.138l1.756-7.797
		c2.206,0.476,3.842,0.681,5.349,0.681c4.98,0,7.632-4.167,10.04-9.882l1.178-2.729L34.118,33.315h13.27l7.248,19.366
		c0.856,2.356,1.346,4.767,1.712,6.447c0.483-1.698,1.379-4.53,2.265-6.783l7.435-19.029H77.583z"/>
	<path d="M33.949,59.933c0,8.514-8.013,13.175-17.525,13.175c-6.169,0-11.163-1.002-16.424-3.088l3.373-7.921
		c3.132,1.248,7.654,2.645,11.313,2.645c2.872,0,6.893-0.359,6.893-3.783c0-1.595-1.039-2.433-2.931-2.996
		c-2.371-0.673-6-1.295-8.393-1.935c-5.042-1.372-9.213-3.999-9.213-11.254c0-8.06,6.984-13.073,16.563-13.073
		c6.315,0,10.336,0.838,13.87,1.851l-3.147,7.91c-1.548-0.71-5.953-1.734-9.074-1.734c-3.414,0-5.733,1.273-5.733,3.359
		c0,0.981,0.629,2.247,2.455,2.843c1.928,0.607,4.998,1.164,7.581,1.727C28.816,48.789,33.949,51.763,33.949,59.933"/>
	<path d="M307.346,62.004V54.77c-5.741-0.11-11.075,0.461-11.075,5.839c0,3.329,2.861,4.365,4.998,4.365
		C303.845,64.975,305.809,63.705,307.346,62.004 M319.347,72.442h-11.653v-3.117c-3.029,2.645-6.952,3.907-11.338,3.907
		c-7.383,0-12.451-3.505-12.451-10.896c0-12.974,13.153-14.99,23.441-15.026V46.29c0-3.238-1.255-5.529-7.113-5.529
		c-3.962,0-8.466,1.954-11.455,3.684l-3.007-7.237c5.254-2.799,11.781-4.822,17.95-4.822c9.48,0,15.626,4.482,15.626,12.279V72.442z
		"/>
	<path d="M191.898,47.657c0.216-4.317-1.979-7.006-6.289-7.006c-4.167,0-6.648,3.008-7.369,7.006H191.898z M204.608,51.44
		c0,1.306-0.051,2.642-0.113,3.995h-26.346c0.091,5.708,3,9.081,11.437,9.081c3.703,0,8.199-1.668,10.135-2.982l3.271,7.208
		c-5.444,2.934-11.335,4.493-17.847,4.493c-12.377,0-20.053-7.826-20.053-20.284c0-12.703,10.069-20.566,20.99-20.566
		C199.65,32.385,204.608,40.193,204.608,51.44"/>
	<path d="M152.759,78.854c0-3.19-2.612-4.354-5.265-4.354h-10.826c-1.661,0.926-4.211,2.964-4.211,5.623
		c0,3.425,4.705,5.726,10.266,5.726C148.485,85.85,152.759,83.252,152.759,78.854 M149.488,45.253c0-3.274-1.844-5.971-5.953-5.971
		c-3.739,0-6.048,3.125-6.048,5.971c0,3.289,2.074,5.96,5.814,5.96C147.446,51.213,149.488,48.491,149.488,45.253 M165.103,77.248
		c0,11.408-11.558,16.687-22.962,16.746c-10.032,0.066-19.702-2.799-19.702-12.264c0-4.438,3.995-7.409,6.421-8.942
		c-1.357-0.768-2.565-1.376-3.6-2.546c-1.12-1.248-2.009-3.04-2.009-6.063c0-3.831,3.414-7.369,7.588-9.652
		c-2.309-1.204-5.378-3.106-5.378-9.505c0-8.346,8.046-12.747,18.557-12.747c8.913,0,17.489,2.1,17.489,12.389
		c0,9.831-9.414,13.431-18.908,13.431c-1.753,0-3.351-0.296-4.888-0.589c-1.024,0.542-3.026,1.881-3.026,3.355
		c0,2.985,4.171,3.439,6.055,3.439h9.791C159.619,64.3,165.103,68.617,165.103,77.248"/>
</g>
</svg>
