<svg xmlns="http://www.w3.org/2000/svg" viewBox="0 0 216.092 54.606"><path d="M59.491 13.741h106.361a8.959 8.959 0 0 1-1.006-4.107H58.321a19.623 19.623 0 0 1 1.17 4.107z"/><path d="M193.675 9.633h-8.006a8.98 8.98 0 0 1-1.004 4.107h9.01c10.097 0 18.311 8.215 18.311 18.312s-8.214 18.311-18.311 18.311H42.531c-8.375 0-15.437-5.662-17.61-13.349h-4.238C22.95 46.99 31.876 54.466 42.53 54.466h151.144c12.36 0 22.417-10.054 22.417-22.415.001-12.361-10.056-22.418-22.416-22.418z"/><path d="M75.661 23.578c2.406 0 3.319 1.493 3.775 3.152h7.385c-1.078-6.513-5.601-9.625-11.201-9.625-3.444 0-6.058 1.161-8.215 3.32-3.112 3.11-2.987 7.26-2.987 11.699 0 4.441-.125 8.587 2.987 11.699 2.157 2.159 4.771 3.32 8.215 3.32 5.6 0 10.123-3.112 11.201-9.625h-7.385c-.457 1.659-1.37 3.154-3.775 3.154-1.328 0-2.324-.542-2.863-1.246-.664-.874-1.12-1.908-1.12-7.302s.456-6.43 1.12-7.302c.539-.706 1.535-1.244 2.863-1.244zm11.984.249h7.261v23.067h7.26V23.827h7.26v-6.473H87.645zm36.881-6.473h-11.701v29.54h7.26V36.357h4.441c5.89 0 10.08-3.984 10.08-9.501s-4.233-9.502-10.08-9.502zm-.334 12.488h-4.107v-5.973h4.107c1.825 0 3.152 1.285 3.152 2.986 0 1.7-1.327 2.987-3.152 2.987zm24.056-12.736c-3.359 0-6.098 1.078-8.215 3.32-2.323 2.406-2.986 4.894-2.986 10.661v2.159c0 3.609.04 7.508 2.986 10.578 2.159 2.242 4.856 3.32 8.3 3.32 3.359 0 6.096-1.078 8.215-3.32 2.863-2.984 2.986-6.679 2.986-10.497V29.51c0-4.273-.913-6.928-2.986-9.085-2.159-2.241-4.898-3.319-8.3-3.319zm4.025 15.808c0 3.775-.289 5.434-1.078 6.428-.664.832-1.742 1.332-2.903 1.332s-2.24-.5-2.905-1.332c-.787-.993-1.078-2.652-1.078-6.428V30.88c0-2.78.291-4.979 1.078-6.015.666-.832 1.702-1.287 2.905-1.287 1.204 0 2.24.455 2.903 1.287.789 1.036 1.078 3.235 1.078 6.015v2.034zm23.063-16.97c3.195 0 7.013-1.41 7.138-6.307h-4.939c-.085 1.659-1.038 2.199-2.199 2.199s-2.114-.54-2.197-2.199H168.2c.125 4.897 3.941 6.307 7.136 6.307zm5.105 1.41l-9.461 16.098V17.354h-7.26v29.54h6.347l9.459-16.099v16.099h7.26v-29.54zM39.928 0H17.134C7.687 0 0 7.689 0 17.137c0 9.45 7.687 17.137 17.134 17.137h22.794c9.449 0 17.138-7.687 17.138-17.137C57.066 7.689 49.377 0 39.928 0zM25.662 11.618h-8.029v3.093h6.86v4.054h-6.86v3.248h8.029v4.054H13.085V7.564h12.576v4.054zm17.67 14.449h-4.547V15.982l-5.926 10.084h-3.975V7.564h4.546v10.084l5.925-10.084h3.976v18.503z"/></svg>