<?xml version="1.0" encoding="utf-8"?>
<!-- Generator: Adobe Illustrator 18.1.0, SVG Export Plug-In . SVG Version: 6.00 Build 0)  -->
<svg version="1.1" id="Шар_1" xmlns="http://www.w3.org/2000/svg" xmlns:xlink="http://www.w3.org/1999/xlink" x="0px" y="0px"
	 viewBox="0 0 120.4 121.192" enable-background="new 0 0 120.4 121.192" xml:space="preserve">
<g>
	<g>
		<path fill="#3EC0C5" d="M102.874,18.008c-0.811-4.595-4.957-7.749-9.261-7.044c-4.304,0.705-7.135,5.002-6.324,9.597
			s4.957,7.749,9.261,7.044C100.854,26.9,103.685,22.603,102.874,18.008z"/>
		<path fill="#3EC0C5" d="M104.448,30.55c-4.324,1.844-10.306,0.709-21.893-0.377c-3.743-0.351-14.178-1.699-20.436-1.985
			c-21.502-0.981-27.03,1.959-27.03,1.959s24.098-1.544,44.57,11.04c9.655,5.935,15.063,21.406,12.995,30.705
			c-2.349,10.562-4.919,13.241-8.977,18.911c-10.957,15.312-16.283,18.106-16.283,18.106s20.543-9.151,30.479-25.65
			c6.785-11.266,5.533-22.962,6.054-23.639c1.403-1.821,4.567,3.018,4.932,6.84c0.577,6.042,0.287,18.609,0.287,18.609
			s9.812-13.53,9.185-26.556c-0.626-13.025-5.114-19.716-5.114-19.716s8.559-10.662,6.993-23.136
			c-0.851-6.782-7.828-15.189-7.828-15.189S121.67,23.207,104.448,30.55z"/>
		<path fill="#ED1C24" d="M62.375,68.524H44.324v-17.6c0-4.184-3.329-7.576-7.436-7.576h-3.6c-4.107,0-7.436,3.392-7.436,7.576v17.6
			H7.801C3.492,68.524,0,71.732,0,75.69v3.47c0,3.958,3.492,7.166,7.801,7.166h18.05v17.6c0,4.184,3.329,7.576,7.436,7.576h3.6
			c4.107,0,7.436-3.392,7.436-7.576v-17.6h18.051c4.308,0,7.801-3.209,7.801-7.166v-3.47C70.176,71.732,66.683,68.524,62.375,68.524
			z"/>
		<g>
			<g>
				<path fill-rule="evenodd" clip-rule="evenodd" fill="#ED1C24" d="M64.836,3.219c-33.771,0-61.157,26.407-61.157,58.97
					c0,0.183,0.073,0.3,0.078,0.482l3.604-0.005c-0.005-0.159-0.013-0.317-0.013-0.476c0-30.617,25.735-55.431,57.487-55.431
					c6.67,0,13.069,1.107,19.025,3.121l1.277,0.529l0.336-3.738C79.026,4.441,72.08,3.219,64.836,3.219z"/>
				<path fill-rule="evenodd" clip-rule="evenodd" fill="#ED1C24" d="M21.116,98.144c-1.795-2.024-3.451-4.167-4.931-6.429
					c0,0-3.575,1.252-3.575,1.14c2.132,3.37,4.648,6.476,7.427,9.345L21.116,98.144z"/>
				<path fill-rule="evenodd" clip-rule="evenodd" fill="#ED1C24" d="M116.921,85.548c-9.407,18.232-29.528,32.072-52.085,32.072
					c-6.878,0-13.469-1.171-19.579-3.309l-4.369,2.133c7.356,3.026,15.445,4.714,23.948,4.714c22.755,0,42.579-11.983,53.103-29.758
					L116.921,85.548z"/>
			</g>
		</g>
	</g>
</g>
</svg>
