<svg xmlns="http://www.w3.org/2000/svg" viewBox="0 0 51.529 95.421"><path fill="#FFF" d="M49.593.12L37.232.101C23.346.101 14.37 9.309 14.37 23.558v10.817H1.94a1.94 1.94 0 0 0-1.941 1.941V51.99c0 1.07.871 1.941 1.941 1.941h12.43v39.543c0 1.07.871 1.941 1.946 1.941h16.21a1.945 1.945 0 0 0 1.946-1.941V53.931h14.531a1.941 1.941 0 0 0 1.942-1.941l.009-15.673a1.94 1.94 0 0 0-1.946-1.941H34.472v-9.17c0-4.406 1.051-6.644 6.789-6.644l8.328-.005a1.94 1.94 0 0 0 1.941-1.941V2.067A1.945 1.945 0 0 0 49.593.12zm0 0"/></svg>