<?xml version="1.0" encoding="utf-8"?>
<!-- Generator: Adobe Illustrator 18.1.0, SVG Export Plug-In . SVG Version: 6.00 Build 0)  -->
<svg version="1.1" id="Слой_1" xmlns="http://www.w3.org/2000/svg" xmlns:xlink="http://www.w3.org/1999/xlink" x="0px" y="0px"
	 viewBox="0 0 51.529 95.421" enable-background="new 0 0 51.529 95.421" xml:space="preserve">
<path fill="#FFFFFF" d="M49.593,0.12L37.232,0.101c-13.886,0-22.862,9.208-22.862,23.457v10.817H1.94
	c-1.07,0-1.941,0.866-1.941,1.941V51.99c0,1.07,0.871,1.941,1.941,1.941h12.43v39.543c0,1.07,0.871,1.941,1.946,1.941h16.21
	c1.075,0,1.946-0.871,1.946-1.941V53.931h14.531c1.075,0,1.942-0.871,1.942-1.941l0.009-15.673c0-0.513-0.208-1.007-0.571-1.375
	c-0.363-0.363-0.856-0.566-1.375-0.566H34.472v-9.17c0-4.406,1.051-6.644,6.789-6.644l8.328-0.005c1.075,0,1.941-0.871,1.941-1.941
	V2.067C51.529,0.991,50.663,0.125,49.593,0.12L49.593,0.12z M49.593,0.12"/>
</svg>
