<?xml version="1.0" encoding="utf-8"?>
<!-- Generator: Adobe Illustrator 18.1.0, SVG Export Plug-In . SVG Version: 6.00 Build 0)  -->
<svg version="1.1" id="Слой_1" xmlns="http://www.w3.org/2000/svg" xmlns:xlink="http://www.w3.org/1999/xlink" x="0px" y="0px"
	 viewBox="0 0 95.667 95.421" enable-background="new 0 0 95.667 95.421" xml:space="preserve">
<g>
	<path fill="#FFFFFF" d="M79.904,0.054H15.763c-8.608,0-15.585,6.977-15.585,15.585v64.141c0,8.608,6.977,15.585,15.585,15.585
		h64.141c8.607,0,15.585-6.977,15.585-15.585V15.64C95.489,7.032,88.512,0.054,79.904,0.054z M47.833,70.86
		c-12.785,0-23.149-10.365-23.149-23.149s10.365-23.149,23.149-23.149c12.785,0,23.149,10.365,23.149,23.149
		S60.618,70.86,47.833,70.86z M76.507,25.716c-4.152,0-7.518-3.366-7.518-7.518c0-4.152,3.366-7.518,7.518-7.518
		c4.152,0,7.518,3.366,7.518,7.518C84.025,22.35,80.659,25.716,76.507,25.716z"/>
</g>
</svg>
