<svg xmlns="http://www.w3.org/2000/svg" viewBox="0 0 79.5 95.421"><path fill="#FFF" d="M67.249 69.78h-5.238l.025-3.038a2.469 2.469 0 0 1 2.464-2.458h.337a2.473 2.473 0 0 1 2.469 2.458l-.057 3.038zm-19.642-6.517c-1.325 0-2.413.896-2.413 1.988v14.787c0 1.092 1.088 1.982 2.413 1.982 1.336 0 2.422-.89 2.422-1.982V65.251c0-1.092-1.086-1.988-2.422-1.988zm31.893-8.27v28.135c0 6.75-5.854 12.272-13.006 12.272H13.006C5.849 95.4 0 89.877 0 83.128V54.993c0-6.75 5.849-12.272 13.006-12.272h53.488c7.152 0 13.006 5.522 13.006 12.272zM16.573 86.182V56.546h6.63v-4.39l-17.675-.025v4.317l5.517.015v29.72h5.528zm19.875-25.221H30.92v15.827c0 2.288.139 3.432-.005 3.836-.45 1.226-2.469 2.531-3.261.134-.13-.419-.016-1.687-.016-3.861l-.02-15.936h-5.497l.016 15.683c.005 2.406-.057 4.198.021 5.015.134 1.439.082 3.115 1.418 4.073 2.49 1.791 7.257-.269 8.447-2.832l-.011 3.271 4.441.005V60.961h-.005zm17.685 18.126l-.009-13.178c-.005-5.015-3.763-8.022-8.862-3.964l.026-9.793-5.523.011-.026 33.803 4.539-.068.413-2.107c5.803 5.326 9.452 1.677 9.442-4.704zm17.303-1.751l-4.146.027c-.005.16-.011.351-.011.559v2.313c0 1.236-1.024 2.241-2.267 2.241H64.2c-1.242 0-2.267-1.004-2.267-2.241v-6.087h9.492v-3.571c0-2.609-.068-5.218-.28-6.714-.682-4.72-7.307-5.471-10.657-3.053a6.235 6.235 0 0 0-2.319 3.126c-.47 1.355-.704 3.209-.704 5.569v7.852c.002 13.058 15.861 11.211 13.971-.021zM50.174 34.699a3.757 3.757 0 0 0 1.33 1.676c.59.42 1.351.627 2.262.627.798 0 1.501-.212 2.117-.657.611-.445 1.128-1.102 1.548-1.982l-.103 2.168h6.164V10.326h-4.85v20.393a2.02 2.02 0 0 1-2.025 2.007c-1.106 0-2.018-.9-2.018-2.007V10.326h-5.061v17.676c0 2.251.041 3.752.109 4.513.067.754.242 1.479.527 2.184zM31.499 19.896c0-2.516.213-4.477.627-5.896.419-1.412 1.175-2.545 2.267-3.4 1.086-.859 2.479-1.289 4.176-1.289 1.424 0 2.645.28 3.665.828 1.03.549 1.817 1.263 2.365 2.148a8.553 8.553 0 0 1 1.143 2.728c.203.947.306 2.37.306 4.29v6.63c0 2.427-.098 4.219-.285 5.352a8.426 8.426 0 0 1-1.216 3.184c-.616.983-1.407 1.713-2.37 2.178-.973.477-2.086.704-3.343.704-1.403 0-2.589-.191-3.562-.6-.978-.398-1.734-1.008-2.272-1.817-.543-.807-.926-1.79-1.159-2.935-.233-1.149-.342-2.873-.342-5.165v-6.94zm4.825 10.408c0 1.485 1.108 2.696 2.454 2.696 1.345 0 2.442-1.211 2.442-2.696V16.356c0-1.48-1.097-2.692-2.442-2.692-1.346 0-2.454 1.212-2.454 2.692v13.948zm-17.049 7.045h5.813l.005-20.098L31.96.036h-6.356L21.95 12.821 18.249 0h-6.294l7.309 17.261.011 20.088zm0 0"/></svg>