<?xml version="1.0" encoding="utf-8"?>
<!-- Generator: Adobe Illustrator 18.1.0, SVG Export Plug-In . SVG Version: 6.00 Build 0)  -->
<svg version="1.1" id="Слой_1" xmlns="http://www.w3.org/2000/svg" xmlns:xlink="http://www.w3.org/1999/xlink" x="0px" y="0px"
	 viewBox="0 0 79.5 95.421" enable-background="new 0 0 79.5 95.421" xml:space="preserve">
<g>
	<path fill="#FFFFFF" d="M67.249,69.78h-5.238l0.025-3.038c0-1.35,1.108-2.458,2.464-2.458h0.337c1.356,0,2.469,1.108,2.469,2.458
		L67.249,69.78z M47.607,63.263c-1.325,0-2.413,0.896-2.413,1.988v14.787c0,1.092,1.088,1.982,2.413,1.982
		c1.336,0,2.422-0.89,2.422-1.982V65.251C50.029,64.159,48.943,63.263,47.607,63.263L47.607,63.263z M79.5,54.993v28.135
		c0,6.75-5.854,12.272-13.006,12.272H13.006C5.849,95.4,0,89.877,0,83.128V54.993c0-6.75,5.849-12.272,13.006-12.272h53.488
		C73.646,42.721,79.5,48.243,79.5,54.993L79.5,54.993z M16.573,86.182V56.546h6.63v-4.39L5.528,52.131v4.317l5.517,0.015v29.72
		H16.573z M36.448,60.961H30.92v15.827c0,2.288,0.139,3.432-0.005,3.836c-0.45,1.226-2.469,2.531-3.261,0.134
		c-0.13-0.419-0.016-1.687-0.016-3.861l-0.02-15.936h-5.497l0.016,15.683c0.005,2.406-0.057,4.198,0.021,5.015
		c0.134,1.439,0.082,3.115,1.418,4.073c2.49,1.791,7.257-0.269,8.447-2.832l-0.011,3.271l4.441,0.005V60.961H36.448z M54.133,79.087
		l-0.009-13.178c-0.005-5.015-3.763-8.022-8.862-3.964l0.026-9.793l-5.523,0.011l-0.026,33.803l4.539-0.068l0.413-2.107
		C50.494,89.117,54.143,85.468,54.133,79.087L54.133,79.087z M71.436,77.336l-4.146,0.027c-0.005,0.16-0.011,0.351-0.011,0.559
		v2.313c0,1.236-1.024,2.241-2.267,2.241H64.2c-1.242,0-2.267-1.004-2.267-2.241v-6.087h9.492v-3.571
		c0-2.609-0.068-5.218-0.28-6.714c-0.682-4.72-7.307-5.471-10.657-3.053c-1.051,0.755-1.852,1.765-2.319,3.126
		c-0.47,1.355-0.704,3.209-0.704,5.569v7.852C57.467,90.415,73.326,88.568,71.436,77.336L71.436,77.336z M50.174,34.699
		c0.285,0.688,0.725,1.252,1.33,1.676c0.59,0.42,1.351,0.627,2.262,0.627c0.798,0,1.501-0.212,2.117-0.657
		c0.611-0.445,1.128-1.102,1.548-1.982l-0.103,2.168h6.164V10.326h-4.85v20.393c0,1.108-0.912,2.007-2.025,2.007
		c-1.106,0-2.018-0.9-2.018-2.007V10.326h-5.061v17.676c0,2.251,0.041,3.752,0.109,4.513C49.714,33.269,49.889,33.994,50.174,34.699
		L50.174,34.699z M31.499,19.896c0-2.516,0.213-4.477,0.627-5.896c0.419-1.412,1.175-2.545,2.267-3.4
		c1.086-0.859,2.479-1.289,4.176-1.289c1.424,0,2.645,0.28,3.665,0.828c1.03,0.549,1.817,1.263,2.365,2.148
		c0.559,0.885,0.937,1.797,1.143,2.728c0.203,0.947,0.306,2.37,0.306,4.29v6.63c0,2.427-0.098,4.219-0.285,5.352
		c-0.187,1.14-0.59,2.196-1.216,3.184c-0.616,0.983-1.407,1.713-2.37,2.178c-0.973,0.477-2.086,0.704-3.343,0.704
		c-1.403,0-2.589-0.191-3.562-0.6c-0.978-0.398-1.734-1.008-2.272-1.817c-0.543-0.807-0.926-1.79-1.159-2.935
		c-0.233-1.149-0.342-2.873-0.342-5.165V19.896z M36.324,30.304c0,1.485,1.108,2.696,2.454,2.696c1.345,0,2.442-1.211,2.442-2.696
		V16.356c0-1.48-1.097-2.692-2.442-2.692c-1.346,0-2.454,1.212-2.454,2.692V30.304z M19.275,37.349h5.813l0.005-20.098L31.96,0.036
		h-6.356L21.95,12.821L18.249,0h-6.294l7.309,17.261L19.275,37.349z M19.275,37.349"/>
</g>
</svg>
