<svg xmlns="http://www.w3.org/2000/svg" viewBox="0 0 319.347 93.307"><path fill="#009A66" d="M185.1 0c-6.271 10.446-3.575 19.874-9.663 25.893-4.91 4.83-9.472 4.69-14.836 4.69-1.851 0-5.473.161-6.977 1.222-.863-2.733-1.27-5.766-1.27-8.66 0-4.939 1.123-9.377 4.771-12.919C164.066 3.384 176.63 1.204 185.1 0"/><g fill="#004795"><path d="M281.405 41.106h-10.841v17.672c0 5.038 2.711 5.967 6.187 5.967 1.218 0 2.528-.183 3.853-.359l.801 7.929c-2.817.494-6.615.922-9.085.922-7.486 0-14.108-2.554-14.108-11.58V41.106h-6.286v-7.789h6.286v-8.602l12.352-3.461v12.063h10.841v7.789zm-33.247 31.336H235.81V47.31c0-3.681-1.606-5.733-5.832-5.733-3.187 0-5.272 1.511-7.588 3.33v27.535h-12.366V33.316h12.026v3.443c4.017-2.667 8.653-4.372 13.658-4.372 7.841 0 12.451 4.822 12.451 12.176v27.879zm-129.888 0h-12.363V47.31c0-3.681-1.57-5.733-5.817-5.733-3.205 0-5.269 1.511-7.603 3.33v27.535H80.131V33.316h12.015v3.443c4.025-2.667 8.646-4.372 13.651-4.372 7.877 0 12.473 4.822 12.473 12.176v27.879zM77.583 33.315L57.768 80.689c-3.066 7.288-9.172 12.619-17.485 12.619-4.16 0-6.37-.53-9.099-1.138l1.756-7.797c2.206.476 3.842.681 5.349.681 4.98 0 7.632-4.167 10.04-9.882l1.178-2.729-15.389-39.128h13.27l7.248 19.366c.856 2.356 1.346 4.767 1.712 6.447.483-1.698 1.379-4.53 2.265-6.783l7.435-19.029h11.535z"/><path d="M33.949 59.933c0 8.514-8.013 13.175-17.525 13.175-6.169 0-11.163-1.002-16.424-3.088l3.373-7.921c3.132 1.248 7.654 2.645 11.313 2.645 2.872 0 6.893-.359 6.893-3.783 0-1.595-1.039-2.433-2.931-2.996-2.371-.673-6-1.295-8.393-1.935-5.042-1.372-9.213-3.999-9.213-11.254 0-8.06 6.984-13.073 16.563-13.073 6.315 0 10.336.838 13.87 1.851l-3.147 7.91c-1.548-.71-5.953-1.734-9.074-1.734-3.414 0-5.733 1.273-5.733 3.359 0 .981.629 2.247 2.455 2.843 1.928.607 4.998 1.164 7.581 1.727 5.259 1.13 10.392 4.104 10.392 12.274m273.397 2.071V54.77c-5.741-.11-11.075.461-11.075 5.839 0 3.329 2.861 4.365 4.998 4.365 2.576.001 4.54-1.269 6.077-2.97m12.001 10.438h-11.653v-3.117c-3.029 2.645-6.952 3.907-11.338 3.907-7.383 0-12.451-3.505-12.451-10.896 0-12.974 13.153-14.99 23.441-15.026v-1.02c0-3.238-1.255-5.529-7.113-5.529-3.962 0-8.466 1.954-11.455 3.684l-3.007-7.237c5.254-2.799 11.781-4.822 17.95-4.822 9.48 0 15.626 4.482 15.626 12.279v27.777zM191.898 47.657c.216-4.317-1.979-7.006-6.289-7.006-4.167 0-6.648 3.008-7.369 7.006h13.658zm12.71 3.783c0 1.306-.051 2.642-.113 3.995h-26.346c.091 5.708 3 9.081 11.437 9.081 3.703 0 8.199-1.668 10.135-2.982l3.271 7.208c-5.444 2.934-11.335 4.493-17.847 4.493-12.377 0-20.053-7.826-20.053-20.284 0-12.703 10.069-20.566 20.99-20.566 13.568 0 18.526 7.808 18.526 19.055m-51.849 27.414c0-3.19-2.612-4.354-5.265-4.354h-10.826c-1.661.926-4.211 2.964-4.211 5.623 0 3.425 4.705 5.726 10.266 5.726 5.762.001 10.036-2.597 10.036-6.995m-3.271-33.601c0-3.274-1.844-5.971-5.953-5.971-3.739 0-6.048 3.125-6.048 5.971 0 3.289 2.075 5.96 5.814 5.96 4.145 0 6.187-2.722 6.187-5.96m15.615 31.995c0 11.408-11.558 16.687-22.962 16.746-10.032.066-19.702-2.799-19.702-12.264 0-4.438 3.995-7.409 6.421-8.942-1.357-.768-2.565-1.376-3.6-2.546-1.12-1.248-2.009-3.04-2.009-6.063 0-3.831 3.414-7.369 7.588-9.652-2.309-1.204-5.378-3.106-5.378-9.505 0-8.346 8.046-12.747 18.557-12.747 8.913 0 17.489 2.1 17.489 12.389 0 9.831-9.414 13.431-18.908 13.431-1.753 0-3.351-.296-4.888-.589-1.024.542-3.026 1.881-3.026 3.355 0 2.985 4.171 3.439 6.055 3.439h9.791c9.088 0 14.572 4.317 14.572 12.948"/></g></svg>