<svg xmlns="http://www.w3.org/2000/svg" viewBox="0 0 142.33 94.324"><path fill="#1BA3DD" d="M71.293 94.324C32.167 94.324.278 73.245.207 47.334.137 21.316 32.045.061 71.335-.047h.298c39.125 0 71.012 21.079 71.083 46.99.07 26.018-31.836 47.273-71.124 47.381h-.299zm.339-92.418h-.292C33.127 2.011 2.093 22.388 2.16 47.328c.068 24.837 31.081 45.043 69.133 45.043h.293c38.211-.105 69.243-20.482 69.177-45.422-.069-24.837-31.08-45.043-69.131-45.043z"/><g fill-rule="evenodd" clip-rule="evenodd" fill="#1BA3DD"><path d="M91.647 9.686c-17.11-.415-32.262 2.323-44.482 7.878-5.872 2.669-11.574 5.892-15.897 10.682-4.122 4.566-8.017 10.365-8.005 18.821.005 7.851 2.736 13.761 6.401 18.381 3.605 4.55 9.184 7.651 14.533 10.002 9.88 4.35 19.057 6.998 30.882 9.227 1.64.31 5.634.746 7.446 1.01-19.796 1.086-36.254-1.833-49.321-8.713-4.547-2.396-8.816-5.617-12.16-9.716-4.275-5.224-8.002-12.161-6.983-21.758.739-6.939 4.262-12.921 8.11-17.128 10.921-11.941 24.769-17.34 42.744-19.47 8.311-.981 18.678-.622 26.732.784z"/><path d="M81.094 25.112h.193c4.626 2.51 8.92 6.535 14.626 8.51 1.803.627 4.378 1.003 5.501 2.174.669.701.898 1.7 1.808 2.184 1.229.653 2.732.842 3.981 1.184 3.896 1.057 7.017 3.201 10.163 5.441 4.254 3.026 7.695 5.798 10.932 10.016-2.184-.581-3.822-2.619-5.7-4.163-1.762-1.445-3.683-2.892-5.703-4.361-1.869-1.354-3.721-2.831-6.171-3.86-2.371-.996-5.176-2.189-7.871-1.768-.774.118-1.909.725-1.896 1.293.024.954 2.913 1.606 3.793 1.782 1.305.259 2.722.108 3.134 1.285-1.983.334-3.835-.498-5.308.013-.668.228-.992.913-1.417 1.196-1.259.837-4.552 1.701-6.635.519-.381-.218-.685-1.076-1.522-1.19-.95-.131-2.127.843-3.221.606.271-1.034.732-2.245 1.51-2.69 1.302-.747 3.401-.064 4.929-.71.757-.321 2.435-2.429 2.645-3.287.046-.189.289-1.626.184-1.993-.277-.961-4.055-1.228-5.787-1.077-.795.07-1.976.364-2.651.702-1.186.599-1.763 1.872-3.312 2.097-1.954-2.29 1.527-3.719 1.591-5.57.063-1.619-2.05-2.92-2.943-3.774-1.264-1.203-2.066-2.378-3.52-3.069-.662.064-.433 1.069-.471 1.787-.586.547-1.827.638-1.887 1.498-.093 1.24 2.407 1.465 2.184 2.878-.374.678-.807.396-1.324.602-1.59.627-3.421 2.36-4.161 3.789-.54 1.04-.302 2.191-.844 3.582-.437 1.126-1.824 2.152-2.744 2.894-1.04.841-2.102 1.867-3.498 2.099-.017-1.789 1.602-2.228 2.929-3.294.721-.58 1.873-1.546 1.89-2.292.019-1.078-1.219-1.257-.764-2.581.471-1.388 3.553-1.481 3.78-3.293-1.143-.799-2.882.105-3.788.708-2.277 1.507-4.182 4.417-6.432 6.081-.876.648-2.131.906-3.221 1.503-.796.44-1.361 1.21-1.891 1.892-.759.987-1.154 2.21-2.359 2.496-1.8-.763-3.804.153-5.88.015-1.15-.97-1.94-1.972-3.892-1.477-2.823.707-4.885 3.52-7.096 4.29.469-1.109 1.426-2.01 2.36-3.087 1.156-1.328 2.25-3.345 4.73-3.295 4.415 1.491 7.406-.741 9.949-2.915 4.252-3.625 8.47-8.716 12.575-12.067.843.095 1.396.553 2.09.89.571.279 1.496.838 2.085.791 1.375-.11 2.931-4.101 4.347-4.984zM128.973 58.2c.416 1.043-.632 1.891-1.323 2.49-.688.601-1.703 1.496-2.651 1.299-.256-.336.015-.79.092-1.095-.794-.993-2.068-1.474-3.228-2.082-.875 1.069.144 3.205.579 4.178.317.066.879-.131 1.041.097.115 1.431-1.752 3.05-3.022 2.397.798-1.349-.035-4.736-.685-6.666-.336-.991-1.734-2.14-.957-3.278 1.285-1.882 4.153.237 5.595.98 1.325.683 2.569 1.365 3.515 1.882.467.06.5-.339 1.044-.202zm-87.219 1.729c1.059.487 2.365-.424 2.554-1.498 1.221.233 3.527 1.112 3.327 2.971-.694.332-1.146-.27-1.61-.493-1.112-.063-1.93.177-2.468.706.132 1.512.133 3.978.491 5.366.162.639.872 1.677-.091 1.889-.994.223-2.231-1.813-3.043-1.977-.111-1.505-.031-3.219-.579-4.277-1.221.119-.925 1.443-.937 2.392-.854.442-1.716-.408-2.373-.89-.631-.462-1.743-.886-1.526-2.084 2.464-.703 3.154-3.259 4.349-5.284-.004-.431-.219-.63-.194-1.093.168-.091.158-.369.379-.4.885.025 3.756 1.464 3.514 2.675-.188.946-1.994.438-1.793 1.997zm77.284 6.058c.153 1.296-1.093 1.615-1.798 1.989-.763.406-1.611 1.093-2.65 1.001-.403-.503-.007-.958.188-1.393-.038-.131-.174-.155-.195-.295-1.005-.185-3.166.564-3.022 1.897.254.408.82-.124 1.04.295.101 1.464-1.86 2.151-3.218 2.099-.311-.647.278-.966.467-1.395.029-1.865.222-3.831-.014-5.668-.121-.962-.771-1.646-.668-2.486.109-.918 1.207-1.422 2.176-1.196 2.275.515 4.687 3.899 6.651 5.05.347.032.839-.086 1.043.102zm-7.874-1.571c-.146.581-.186 1.741.102 2.186.767-.155 1.417-.438 1.799-.998-.512-.51-1.108-1.294-1.901-1.188zm-54.679 9.196c-1.068.79-3.302-.112-4.267-.681-.385-.229-.805-.704-.858-1.091.153-.408.698-.401 1.137-.503-.015-1.611-1.781-1.375-2.756-1.981-.345 0-.36.35-.566.495-.12.602.71.713.477 1.093-.088.574-.744.433-1.137.404-.931-.077-2.455-.813-2.374-1.783.21-.278.776-.183 1.139-.303 2.116-1.72 3.911-3.787 5.291-6.279 4.032-.465 2.252 6.702 3.25 9.534.169.492.665.604.664 1.095zm-5.704-5.654c.463.412 1.131.605 1.804.792.439-.607-.088-1.626-.195-2.285-.953.062-1.228.833-1.609 1.493zm56.714 6.513c-.835 1.094-1.627-.503-2.466-.691-.9-.205-2.065.442-3.034.707-1.055.288-1.905.403-2.842.801-.524.74-.503 2.055-1.89 1.895-.351-.512-.803-1.202-.578-2.088.115-.445.799-.749.948-1.095.255-.585.468-2.21.653-3.381.137-.862.291-2.023.18-3.087-.04-.361-.231-.727-.189-1.095.109-1.061 1.196-1.374 2.083-1.201 1.167.235 2.201 1.923 3.04 2.978 1.231 1.557 1.817 3.239 3.613 3.768.27.704.751 1.527.482 2.489zm-7.506-4.759c-.343 1.006-.854 2.343-.556 3.685 1.142-.095 2.044-.445 2.934-.802-.203-1.114-1.327-2.729-2.378-2.883zm-35.077.396c1.308-.818 1.591-2.703 2.837-3.589 1.354.058 2.956.017 3.033.992.053.586-.7.68-.942 1.191-.558 1.178-.554 4.178-.646 5.874.048.481.847.696.479 1.287-.643.481-4.02.411-4.27-.482-.189-.682.49-.673.759-1.198.343-.687.529-2.003.083-2.687-1.289.738-1.521 3.106-2.742 3.588-.961-1.006-.687-3.33-1.714-4.269-.647.396-.574 2.038-.564 2.786-.011.547.637.399.574.996-.547.951-3.183.55-3.319-.49-.002-.363.587-.187.853-.502.428-.516.653-2.297.838-3.583.262-1.798.344-3.011-.67-3.875.418-1.07 2.823-.576 3.601-.213.743 1.246.765 3.254 1.81 4.174zm13.183 1.159c.969-1.242-.563-2.352-.484-2.982.158-1.206 4.631-.824 4.646.385.009.477-.829.692-1.04 1.295-.055.168.029.549.002.796-.141 1.385-.689 3.489-.457 4.577.094.442.65.71.666 1.093.058 1.458-4.493.878-4.648-.088-.12-.771.931-.985 1.135-1.594.151-.443.158-.827-.1-1.592-1.925.657-4.342.767-4.934-1.08-.277-.872.267-1.889-.006-2.984-.121-.477-.825-.805-.668-1.391.273-1.022 4.509-.774 4.646.291.113.852-1.597 1.269-1.128 2.982.277 1.027 1.454.896 2.37.292zm16.792 4.33c-.038 1.57-7.306 2.207-4.55-.185-.589-1.536-5.579.166-2.556 1.201.182 1.238-3.663 1.583-3.792.605-.076-.585.587-.568.944-.895.379-1.651 1.67-4.049 1.782-6.273.032-.587-.219-1.303-.003-1.79.309-.703 1.341-.624 2.087-.605 2.675 1.967 3.361 6.032 6.088 7.942zm-7.027-4.258c-.204.597-.662 1.406-.464 2.09.5.17 1.375-.067 1.894-.203-.2-.923-.566-1.671-1.43-1.887z"/></g></svg>