<?xml version="1.0" encoding="utf-8"?>
<!-- Generator: Adobe Illustrator 18.1.0, SVG Export Plug-In . SVG Version: 6.00 Build 0)  -->
<svg version="1.1" id="Слой_1" xmlns="http://www.w3.org/2000/svg" xmlns:xlink="http://www.w3.org/1999/xlink" x="0px" y="0px"
	 viewBox="0 0 304.492 54.606" enable-background="new 0 0 304.492 54.606" xml:space="preserve">
<g>
	<polygon fill="#6D6E71" points="256.177,0 255.894,0 255.894,54.535 258.701,54.535 258.695,6.811 303.266,54.606 304.492,54.606 
		304.492,0.009 301.788,0 301.786,49.24 	"/>
	<path fill="#6D6E71" d="M163.278,27.425L163.278,27.425c0-13.669,11.249-24.753,24.573-24.753c13.354,0,24.59,11.084,24.59,24.753
		c0,13.678-11.236,24.76-24.59,24.76C174.527,52.184,163.278,41.103,163.278,27.425 M187.851,0
		c-14.78,0-27.476,12.276-27.476,27.425c0,15.147,12.696,27.435,27.476,27.435c14.795,0,27.5-12.289,27.5-27.435
		C215.351,12.276,202.646,0,187.851,0"/>
	<polygon fill="#6D6E71" points="129.376,0 126.281,0 110.756,33.465 103.756,48.96 96.752,33.465 81.207,0 78.108,0 
		103.594,54.875 103.885,54.875 	"/>
	<path fill="#6D6E71" d="M11.395,36.873L11.395,36.873l7.324-15.788l6.993-15.514l7.083,15.545l7.267,15.786L11.395,36.873z
		 M25.868,0h-0.313L0.087,54.535H3.19l7.103-15.291l30.842-0.009l7.123,15.299h3.095L25.868,0z"/>
</g>
</svg>
