<?xml version="1.0" encoding="utf-8"?>
<!-- Generator: Adobe Illustrator 18.1.0, SVG Export Plug-In . SVG Version: 6.00 Build 0)  -->
<svg version="1.1" id="Шар_1" xmlns="http://www.w3.org/2000/svg" xmlns:xlink="http://www.w3.org/1999/xlink" x="0px" y="0px"
	 viewBox="0 0 148.434 121.192" enable-background="new 0 0 148.434 121.192" xml:space="preserve">
<path d="M62.005,7.824c0.143-0.077,0.279-0.171,0.403-0.301c0.13-0.125,0.189-0.265,0.193-0.418
	c0.004-0.152-0.029-0.295-0.101-0.431c-0.098-0.212-0.239-0.349-0.426-0.407c-0.178-0.057-0.372-0.04-0.566,0.055
	c-0.087,0.041-0.175,0.104-0.263,0.185l0.658,1.361C61.947,7.847,61.979,7.833,62.005,7.824"/>
<path d="M91.404,44.118c-0.407-0.36-0.784-0.572-1.138-0.629c-0.349-0.061-0.623,0.028-0.825,0.263
	c-0.185,0.208-0.25,0.479-0.175,0.81c0.077,0.334,0.334,0.703,0.795,1.098c0.423,0.375,0.813,0.586,1.158,0.633
	c0.34,0.045,0.611-0.049,0.805-0.268c0.194-0.223,0.25-0.501,0.163-0.844C92.094,44.846,91.834,44.493,91.404,44.118"/>
<path d="M59.351,49.073c-0.177-0.041-0.324-0.027-0.458,0.046c-0.132,0.072-0.24,0.175-0.324,0.299
	c-0.135,0.194-0.181,0.387-0.135,0.575c0.037,0.185,0.148,0.344,0.334,0.465c0.079,0.049,0.175,0.095,0.289,0.136l0.847-1.254
	c-0.045-0.031-0.067-0.054-0.093-0.065C59.674,49.184,59.522,49.119,59.351,49.073"/>
<path d="M69.107,5.473c0.643-0.092,0.932-0.413,0.848-0.965c-0.038-0.244-0.12-0.417-0.246-0.521
	c-0.137-0.106-0.279-0.143-0.425-0.124c-0.11,0.016-0.234,0.061-0.389,0.134c0.014,0.189,0.033,0.387,0.067,0.593
	C68.984,4.761,69.032,5.054,69.107,5.473"/>
<path d="M58.994,11.395c0.332,0.135,0.623,0.114,0.872-0.07c0.229-0.163,0.343-0.416,0.35-0.754c0-0.344-0.175-0.757-0.529-1.248
	c-0.336-0.46-0.67-0.75-0.99-0.868c-0.326-0.12-0.613-0.095-0.853,0.082c-0.242,0.175-0.352,0.434-0.342,0.783
	c0.014,0.349,0.189,0.752,0.525,1.214C58.347,10.974,58.667,11.263,58.994,11.395"/>
<path d="M97.617,30.209l-1.231-0.564l-0.041,0.998c0.152-0.043,0.353-0.112,0.621-0.208C97.251,30.333,97.469,30.254,97.617,30.209"
	/>
<path d="M52.414,43.714c-0.121,0.084-0.187,0.185-0.203,0.305c-0.017,0.112,0.002,0.212,0.063,0.299
	c0.051,0.073,0.123,0.116,0.22,0.134c0.09,0.014,0.183-0.008,0.271-0.073c0.159-0.11,0.244-0.369,0.269-0.764
	C52.78,43.569,52.575,43.601,52.414,43.714"/>
<path d="M54.854,42.346c-0.121-0.171-0.336-0.3-0.648-0.394c-0.263,0.529-0.423,1.069-0.471,1.631c0.343,0.1,0.62,0.073,0.836-0.082
	c0.169-0.121,0.293-0.295,0.369-0.524C55.014,42.75,54.986,42.537,54.854,42.346"/>
<path d="M69.39,5.636c-0.069,0.013-0.147,0.029-0.253,0.055c0.043,0.393,0.077,0.719,0.124,0.984
	c0.049,0.344,0.086,0.541,0.126,0.588c0.033,0.049,0.124,0.059,0.271,0.042c0.275-0.042,0.46-0.143,0.574-0.305
	c0.11-0.161,0.153-0.368,0.117-0.619c-0.033-0.252-0.132-0.446-0.294-0.592C69.894,5.649,69.668,5.6,69.39,5.636"/>
<path d="M72.61,51.257c-0.273,0-0.519,0.127-0.727,0.397c-0.207,0.273-0.313,0.713-0.315,1.319c-0.005,0.57,0.085,0.999,0.273,1.289
	c0.197,0.291,0.442,0.436,0.731,0.442c0.305,0.002,0.547-0.141,0.746-0.43c0.194-0.285,0.294-0.716,0.298-1.282
	c0.008-0.546-0.081-0.971-0.264-1.277C73.174,51.415,72.922,51.261,72.61,51.257"/>
<path d="M72.857,2.014c-15.013,0-27.177,12.162-27.177,27.171c0,14.999,12.164,27.169,27.177,27.169
	c15.001,0,27.16-12.169,27.16-27.169C100.018,14.175,87.859,2.014,72.857,2.014 M97.993,26.168c0.121-0.054,0.184-0.177,0.17-0.363
	l-0.009-0.077c-0.005-0.065,0.019-0.103,0.076-0.106c0.052-0.006,0.083,0.047,0.097,0.157l0.224,3.103l-0.841,0.207l-0.043,0.01
	c-0.052,0.005-0.078-0.016-0.078-0.051c0-0.025,0.01-0.053,0.051-0.084c0.218-0.158,0.381-0.336,0.491-0.529
	c0.114-0.191,0.152-0.49,0.124-0.897c-0.018-0.283-0.065-0.436-0.13-0.463c-0.059-0.031-0.519-0.014-1.388,0.049
	c0.02,0.208,0.047,0.368,0.083,0.478c0.037,0.112,0.099,0.194,0.169,0.248c0.079,0.06,0.22,0.104,0.419,0.137
	c0.053,0.01,0.08,0.031,0.086,0.061c0.004,0.058-0.033,0.087-0.1,0.093l-0.906,0.045c-0.315,0.017-0.482,0.022-0.505,0.014
	c-0.025-0.01-0.04-0.032-0.04-0.06c-0.004-0.049,0.031-0.081,0.11-0.094c0.167-0.033,0.303-0.101,0.397-0.211
	c0.098-0.104,0.124-0.34,0.104-0.697l-1.051,0.075c-0.203,0.017-0.348,0.043-0.429,0.075c-0.082,0.037-0.134,0.086-0.172,0.145
	c-0.024,0.06-0.031,0.155-0.027,0.277c0.004,0.092,0.004,0.149-0.004,0.177c-0.01,0.023-0.032,0.038-0.069,0.039
	c-0.059,0.004-0.09-0.033-0.101-0.122c-0.007-0.076-0.007-0.224-0.011-0.438c0-0.183-0.005-0.322-0.014-0.413L94.58,26.06
	c-0.004-0.089,0.023-0.138,0.07-0.141c0.059-0.002,0.081,0.051,0.097,0.164c0.017,0.189,0.116,0.297,0.287,0.325
	c0.161,0.024,0.753,0,1.784-0.079C97.479,26.282,97.869,26.227,97.993,26.168 M95.962,21.271c0.196,0.102,0.327,0.259,0.403,0.471
	c0.06,0.212,0.049,0.419-0.059,0.618c-0.106,0.198-0.26,0.33-0.471,0.399c-0.219,0.065-0.417,0.049-0.621-0.053
	c-0.197-0.109-0.33-0.263-0.395-0.474c-0.071-0.215-0.054-0.423,0.055-0.618c0.102-0.198,0.259-0.33,0.471-0.397
	C95.557,21.15,95.763,21.166,95.962,21.271 M93.825,14.57c-0.023-0.055-0.013-0.093,0.018-0.118
	c0.051-0.029,0.092-0.014,0.127,0.045l0.33,0.594l1.18,1.954c-0.216,0.204-0.439,0.406-0.662,0.609
	c-0.043,0.027-0.087,0.02-0.108-0.027c-0.017-0.025-0.017-0.067,0.016-0.128c0.137-0.311,0.204-0.558,0.2-0.745
	c-0.009-0.187-0.088-0.407-0.251-0.667c-0.08-0.145-0.175-0.275-0.285-0.395c-0.301,0.14-0.623,0.315-0.967,0.521
	c-0.051,0.033-0.15,0.097-0.283,0.181l0.106,0.187c0.069,0.113,0.146,0.204,0.224,0.268c0.087,0.063,0.191,0.091,0.332,0.091
	c0.134-0.006,0.218-0.014,0.253-0.024c0.063-0.015,0.101-0.004,0.128,0.031c0.022,0.045,0.018,0.077-0.019,0.104
	c-0.008,0.006-0.028,0.008-0.042,0.014c-0.111,0.043-0.414,0.214-0.919,0.517c-0.063,0.041-0.124,0.082-0.17,0.135
	c-0.018,0.01-0.028,0.018-0.042,0.028c-0.04,0.028-0.08,0.013-0.116-0.036c-0.023-0.04,0.009-0.093,0.08-0.161
	c0.132-0.127,0.204-0.268,0.216-0.429c0.001-0.163-0.069-0.368-0.21-0.619c-0.276,0.155-0.456,0.262-0.545,0.314
	c-0.364,0.222-0.584,0.358-0.647,0.413c-0.063,0.051-0.09,0.128-0.09,0.222c0,0.101,0.049,0.23,0.152,0.401
	c0.373,0.613,0.815,0.898,1.322,0.859c0.065-0.008,0.116,0.01,0.138,0.038c0.025,0.049,0.016,0.08-0.016,0.107
	c-0.027,0.016-0.065,0.03-0.113,0.044l-0.787,0.263l-0.528-0.878c-0.15-0.247-0.279-0.479-0.399-0.697
	c-0.116-0.222-0.215-0.39-0.296-0.514c-0.08-0.133-0.204-0.333-0.391-0.595c-0.025-0.034-0.043-0.058-0.047-0.075
	c-0.053-0.077-0.049-0.126,0.004-0.158c0.043-0.027,0.09-0.012,0.126,0.049c0.094,0.16,0.202,0.238,0.318,0.24
	c0.116,0.006,0.304-0.075,0.565-0.231l1.252-0.739c0.421-0.258,0.682-0.419,0.772-0.49c0.093-0.07,0.144-0.135,0.15-0.206
	C93.904,14.806,93.882,14.706,93.825,14.57 M56.987,41.205c-2.535-3.34-4.045-7.508-4.045-12.02c0-4.479,1.486-8.61,3.976-11.938
	c0.826,0.095,1.648,0.399,2.467,0.912c0.736-0.082,1.474-0.114,2.37,0.12c-0.075,0.116-0.134,0.247-0.155,0.384
	c-0.005,0.025-0.005,0.058-0.01,0.086c-0.277,0.023-0.538,0.07-0.788,0.143c0.24,0.018,0.491,0.004,0.793-0.082
	c0.01,0.13,0.049,0.266,0.128,0.383c-0.24,0.09-0.47,0.201-0.688,0.321c0.203,0.234,0.386,0.475,0.539,0.719
	c0.129-0.242,0.301-0.483,0.499-0.727c0.08,0.045,0.179,0.069,0.274,0.084c-0.193,0.561-0.287,1.073-0.316,1.576
	c0.171,0.482,0.259,0.985,0.259,1.51v0.222c0.109,0.307,0.249,0.621,0.423,0.937c1.23,2.146,3.492,2.555,4.163,4.191
	c0.513-1.34,0.558-2.256,0.32-2.986c0.207,0.371,0.41,0.572,0.605,0.391c1.305-1.169,1.002-2.665,3.093-3.52
	c-0.501-0.141-0.428-0.784-0.069-1.175c-1.156-0.312-1.637-0.472-2.911-0.733c-0.538-0.122-1.009-0.983-2.001-0.399
	c-0.134,0.065-0.202,0.159-0.249,0.268c-0.942-0.222-1.103-1.141-1.122-1.575c0.216,0.239,0.369,0.368,0.407,0.401
	c0.485,0.391,0.989,0.334,1.287,0.086c0.376,0.399,1.14,0.518,1.592,0.743c0.416,0.199,3.062,0.973,3.122,0.902
	c0.645-0.679,0.249-2.741,0-4.31h-2.942c-0.008,0.01-0.028,0.023-0.04,0.031c-0.45,0.291-1.305,0.902-1.709,1.437
	c-0.024-0.028-0.056-0.047-0.085-0.071c-0.368-0.254-0.865-0.161-1.122,0.202c-0.008,0.014-0.016,0.032-0.028,0.043
	c-0.055-0.049-0.098-0.102-0.153-0.157c0.024-0.024,0.04-0.054,0.055-0.086c0.14-0.272,0.025-0.605-0.249-0.737
	c-0.157-0.081-0.354-0.073-0.505,0.008c-0.152-0.222-0.277-0.448-0.393-0.67H63.27c0.069,0.209,0.145,0.403,0.226,0.589
	c0.043,0.181,0.037,0.38,0.004,0.562c-0.098-0.21-0.315-0.336-0.551-0.312c0.164-0.267,0.26-0.58,0.281-0.839H62.72
	c-0.119,0.152-0.263,0.222-0.432,0.152c-0.112-0.053-0.217-0.073-0.32-0.061c-0.021-0.014-0.038-0.027-0.058-0.036
	c-0.061-0.031-0.125-0.047-0.188-0.054h-0.101c-0.183,0.02-0.351,0.124-0.443,0.301c-0.136,0.272-0.024,0.598,0.242,0.734
	c0.129,0.243,0.421,0.434,0.904,0.318c0.047-0.012,0.088-0.033,0.134-0.051c-0.008,0.063-0.008,0.132,0.008,0.196
	c0.022,0.113,0.083,0.205,0.15,0.274c-0.236-0.04-0.444,0.019-0.607,0.131c-0.693-0.714-1.313-1.391-1.959-1.902h-2.213
	c3.647-4.191,9.022-6.845,15.023-6.845c6.008,0,11.401,2.671,15.052,6.89c-0.198,0.192-0.416,0.325-0.571,0.403
	c0.086-0.202,0.146-0.358,0.175-0.448H85.74c0.033,0.02,0.098,0.031,0.204,0.043c-1.305,3.781-4.575,3.897-5.982,3.758
	c-1.034-0.368-2.198-1.33-2.198-1.33l-0.006,0.013c-0.33-0.929-0.762-1.537-1.152-1.173c-0.644,0.566-1.273,1.497-2.081,1.987
	c-0.454,0.267-1.164,0.795-1.378,1.158c-0.7,1.207,2.02,1.627,2.718,1.896c0.059,0.026,0.131,0.063,0.221,0.111v-4.277h0.983
	l0.635,0.421l0.134,0.09l1.521,1.014l0.244,0.161l2.209,1.472L82,21.581l0.279,0.268l2.061,1.963
	c0.201,0.063,0.331,0.071,0.362,0.009c0.156-0.384-0.149-0.995-0.375-1.362c0.081,0.011,0.153,0.022,0.226,0.025
	c0.218,0.036,0.46,0.228,0.305,0.456c-0.124,0.179-0.042,0.371,0.107,0.468c0.032,0.017,0.061,0.027,0.103,0.031
	c-0.092,0.304-0.175,0.734-0.103,0.965l0.162,0.149c0.033,0.006,0.071,0.006,0.12-0.005c0.242-0.056,0.461-0.133,0.682-0.235
	c0.179-0.074,0.553-0.195,0.566-0.461c0-0.038-0.037-0.087-0.076-0.138c0.021-0.008,0.045-0.024,0.072-0.035
	c0.029,0.027,0.052,0.051,0.075,0.075c0.09,0.086,0.124-0.049,0.273-0.051c0.032-0.329,0.01-0.616-0.041-0.924
	c-0.01-0.037-0.018-0.1-0.025-0.163c0.049,0.022,0.088,0.045,0.134,0.073c0.067,0.307,0.208,0.571-0.004,1.007
	c0.135-0.069,0.246,0.086,0.246,0.239c0.044-0.02,0.082-0.039,0.112-0.059c0.021,0.022,0.039,0.045,0.063,0.065
	c-0.085,0.047-0.144,0.081-0.144,0.088c-0.008,0.357,0.354,0.285,0.643,0.574c0.252,0.25,0.755-0.203,0.839-0.499
	c0.05-0.197,0.158-0.36,0.063-0.513c-0.08-0.132-0.191-0.146-0.312-0.118c0.006-0.097,0-0.197-0.025-0.311
	c-0.07-0.285-0.3-0.506-0.574-0.657c-0.004-0.012-0.008-0.022-0.014-0.031c-0.067-0.169-0.485-0.295-0.727-0.267
	c0.189-0.063,0.37-0.135,0.549-0.216c0.575-0.128,1.344,0.117,1.189,0.831c-0.051,0.228-0.006,0.433,0.082,0.594v-1.765
	c-0.163-0.018-0.33-0.018-0.486-0.004c0.06-0.047,0.106-0.11,0.156-0.195c0.122-0.088,0.234-0.169,0.33-0.248v-0.338v-0.784v-0.258
	v-0.023v-1.376V18.14v-0.122V17.46v-0.051c2.434,3.295,3.864,7.368,3.864,11.776c0,10.99-8.909,19.897-19.897,19.897
	c-5.961,0-11.309-2.61-14.955-6.76c0.094,0,0.174-0.017,0.251-0.064c0.814-0.474,0.808-1.067,0.958-1.798
	C58.402,40.864,57.697,41.113,56.987,41.205 M63.746,19.574c0.03,0.024,0.057,0.04,0.079,0.045c0.148,0.056,0.32,0.002,0.397-0.139
	c0.091-0.151,0.04-0.351-0.112-0.442c-0.137-0.078-0.301-0.045-0.405,0.063c-0.046-0.059-0.085-0.141-0.098-0.236
	c0.222-0.448,0.286-1.018,0.231-1.441c-0.001-0.031-0.01-0.063-0.015-0.092c0.047,0.07,0.088,0.134,0.128,0.196
	c0.014,0.022,0.022,0.042,0.037,0.063c0.179,0.267,0.362,0.491,0.515,0.662c-0.132,0.771,0.057,1.792,0.519,2.221
	c0.263,0.248,0.556,0.393,0.828,0.458c0.158,0.375,0.336,0.77,0.413,1.13c0.089,0.468,0.36,1.586,0.678,2.417
	c-0.847-1.433-2.887-2.205-4.12-4.953c0.073-0.022,0.156-0.047,0.235-0.086c0.215-0.11,0.383-0.287,0.509-0.503
	C63.526,19.128,63.508,19.417,63.746,19.574 M88.521,20.346c-0.199,0.168-0.342,0.334-0.419,0.49
	c-0.045,0.088-0.067,0.164-0.091,0.244c-1.031,0.831-2.115,1.128-3.136,1.134c1.409-0.077-0.354-1.673-2.475-2.101
	c0.47-0.057,0.905-0.146,1.297-0.273c0,0.004,0,0.004,0,0.004c0.214-0.061,0.511,0.024,0.462,0.295
	c-0.041,0.208,0.116,0.355,0.285,0.38c0.184,0.031,0.465-0.18,0.275-0.538c-0.104-0.21-0.393-0.283-0.621-0.283
	c0.163-0.061,0.324-0.134,0.471-0.209c0.281-0.088,0.666,0,0.618,0.354c-0.028,0.283,0.189,0.461,0.423,0.483
	c0.245,0.026,0.595-0.283,0.314-0.74c-0.179-0.305-0.653-0.358-0.973-0.305c0.148-0.087-0.312,0.072-0.177-0.02
	c0.413-0.193,1.63-0.375,1.62,0.183c-0.006,0.44,0.359,0.682,0.725,0.674c0.374-0.003,0.867-0.525,0.362-1.192
	c-0.348-0.448-1.132-0.438-1.612-0.285c-0.023,0.008-0.051,0.015-0.072,0.026c0.191-0.164,0.36-0.336,0.513-0.504
	c0.232-0.178,0.56-0.282,0.841-0.254c0.049,0.027,0.116,0.045,0.212,0.055c0.179,0.077,0.316,0.226,0.367,0.477
	c0.097,0.463,0.474,0.68,0.857,0.694c-0.067,0.047-0.128,0.104-0.179,0.176C88.189,19.645,88.238,20.079,88.521,20.346
	 M85.882,23.167c-0.013,0.032-0.022,0.07-0.026,0.102c-0.015-0.009-0.038-0.022-0.049-0.036c-0.144-0.114-0.242-0.238-0.383-0.261
	c-0.047-0.207-0.252-0.369-0.448-0.456c0.179,0.004,0.348,0.004,0.513-0.003c0.069,0.008,0.142,0.031,0.202,0.055
	c-0.066,0.063-0.119,0.135-0.106,0.208C85.624,22.996,85.74,23.08,85.882,23.167 M85.865,22.438
	c-0.08-0.017-0.175-0.036-0.092-0.051c0.045,0,0.108,0,0.179,0.008c-0.01,0.008-0.027,0.014-0.037,0.014
	C85.901,22.416,85.891,22.428,85.865,22.438 M84.408,22.194c-0.089-0.006-0.181-0.014-0.268-0.024
	c-0.009-0.01-0.009-0.014-0.009-0.014C84.227,22.176,84.319,22.186,84.408,22.194 M88.231,16.546
	c-0.024,0.036-0.032,0.077-0.036,0.118c-0.015,0.153,0.081,0.295,0.214,0.344c-0.029,0.067-0.086,0.137-0.171,0.187
	c-0.281-0.014-0.572,0.035-0.836,0.115c-0.037,0.015-0.072,0.024-0.1,0.038c-0.175,0.063-0.341,0.132-0.481,0.212
	c-0.023,0.018-0.049,0.037-0.078,0.054c0.263-0.369,0.448-0.72,0.569-0.995c0.244-0.059,0.495-0.163,0.731-0.291
	C88.106,16.398,88.171,16.473,88.231,16.546 M88.323,17.2c0.094-0.02,0.222-0.059,0.321-0.134c0.084,0.108,0.165,0.216,0.247,0.33
	C88.723,17.283,88.528,17.219,88.323,17.2 M90.781,11.443c0.093-0.104,0.138-0.192,0.138-0.262c0-0.066-0.034-0.141-0.091-0.227
	c-0.037-0.057-0.059-0.094-0.059-0.112c0-0.018,0.005-0.04,0.025-0.06c0.047-0.037,0.09-0.021,0.151,0.04l0.568,0.704
	c0.063,0.063,0.13,0.134,0.21,0.211c0.126,0.126,0.222,0.228,0.289,0.304c0.061,0.073,0.074,0.127,0.037,0.162
	c-0.037,0.031-0.09,0.02-0.137-0.03c-0.094-0.102-0.199-0.145-0.312-0.137c-0.108,0.01-0.271,0.094-0.502,0.265
	c-0.217,0.171-0.454,0.365-0.7,0.582c-0.409,0.35-0.663,0.605-0.771,0.765c-0.104,0.16-0.139,0.336-0.113,0.534
	c0.031,0.201,0.129,0.405,0.316,0.614c0.187,0.21,0.369,0.33,0.554,0.363c0.181,0.025,0.391-0.024,0.618-0.147
	c0.229-0.13,0.603-0.423,1.13-0.883c0.3-0.265,0.498-0.476,0.582-0.629c0.067-0.15,0.061-0.291-0.024-0.413
	c-0.063-0.094-0.073-0.153-0.041-0.192c0.041-0.034,0.095-0.02,0.154,0.051c0.025,0.031,0.071,0.088,0.135,0.171
	c0.053,0.088,0.128,0.171,0.204,0.255c0.067,0.083,0.148,0.169,0.244,0.26c0.073,0.066,0.116,0.115,0.143,0.145
	c0.062,0.071,0.075,0.123,0.028,0.157c-0.028,0.027-0.071,0.019-0.126-0.024c-0.067-0.067-0.158-0.102-0.261-0.106
	c-0.109-0.008-0.247,0.04-0.389,0.139c-0.153,0.106-0.505,0.399-1.066,0.889c-0.372,0.326-0.67,0.515-0.9,0.587
	c-0.235,0.073-0.472,0.055-0.727-0.049c-0.25-0.102-0.492-0.295-0.73-0.566c-0.188-0.214-0.326-0.413-0.426-0.603
	c-0.103-0.189-0.158-0.362-0.158-0.52c0-0.161,0.034-0.303,0.1-0.435c0.07-0.129,0.203-0.281,0.399-0.451l1.144-0.985
	C90.573,11.676,90.695,11.551,90.781,11.443 M88.875,9.064c0.483,0.377,0.745,0.817,0.794,1.319c0.045,0.498-0.087,0.95-0.403,1.347
	c-0.132,0.167-0.285,0.307-0.464,0.421c-0.169,0.112-0.369,0.201-0.571,0.253c-0.215,0.054-0.441,0.077-0.687,0.073
	c-0.245-0.01-0.496-0.038-0.764-0.1l-0.878-0.201c0.083,0.047,0.136,0.087,0.171,0.116c0.102,0.075,0.176,0.171,0.249,0.287
	c0.067,0.12,0.155,0.309,0.253,0.57c0.067,0.183,0.124,0.293,0.148,0.334c0.017,0.036,0.056,0.079,0.119,0.124
	c0.157,0.13,0.368,0.151,0.616,0.07c0.055-0.019,0.099-0.017,0.137,0.009c0.047,0.042,0.051,0.096,0.01,0.151
	c-0.042,0.051-0.216,0.097-0.531,0.139c-0.318,0.048-0.603-0.031-0.861-0.239c-0.245-0.191-0.436-0.478-0.575-0.853
	c-0.095-0.275-0.171-0.468-0.21-0.572c-0.051-0.102-0.105-0.181-0.16-0.23c-0.08-0.057-0.155-0.08-0.224-0.063
	c-0.077,0.014-0.152,0.072-0.242,0.177c-0.083,0.1-0.164,0.155-0.222,0.165c-0.069,0.012-0.135-0.01-0.208-0.073
	c-0.061-0.047-0.104-0.105-0.11-0.178c-0.018-0.073,0-0.134,0.043-0.189c0.179-0.226,0.657-0.232,1.421-0.024
	c0.497,0.136,0.816,0.213,0.96,0.244c-0.162-0.077-0.281-0.15-0.382-0.23c-0.222-0.177-0.403-0.413-0.521-0.696
	c-0.127-0.287-0.167-0.597-0.119-0.931c0.049-0.334,0.183-0.64,0.409-0.927c0.336-0.423,0.78-0.662,1.329-0.722
	C87.957,8.576,88.448,8.722,88.875,9.064 M85.33,7.014c-0.023-0.061-0.083-0.132-0.199-0.212c-0.055-0.042-0.075-0.083-0.051-0.128
	c0.033-0.045,0.075-0.049,0.135-0.01c0.053,0.032,0.167,0.105,0.336,0.219c0.135,0.086,0.236,0.155,0.318,0.202l0.757,0.421
	c0.063,0.039,0.083,0.076,0.054,0.12c-0.024,0.042-0.063,0.045-0.128,0.018c-0.134-0.063-0.23-0.084-0.293-0.079
	c-0.067,0.01-0.147,0.07-0.244,0.182c-0.1,0.114-0.275,0.394-0.538,0.836c-0.311,0.514-0.529,0.915-0.68,1.205
	c-0.149,0.289-0.216,0.479-0.206,0.577c0.012,0.092,0.069,0.175,0.185,0.242c0.083,0.049,0.106,0.093,0.083,0.134
	c-0.033,0.057-0.094,0.061-0.179,0.01c-0.024-0.016-0.058-0.036-0.104-0.069c-0.289-0.198-0.493-0.332-0.605-0.4
	c-0.249-0.141-0.435-0.241-0.556-0.296c-0.071-0.031-0.112-0.055-0.143-0.067c-0.058-0.037-0.073-0.078-0.046-0.128
	c0.022-0.035,0.061-0.045,0.114-0.02c0.152,0.066,0.264,0.079,0.348,0.048c0.085-0.028,0.204-0.153,0.336-0.372
	c0.152-0.221,0.36-0.566,0.638-1.047c0.302-0.497,0.485-0.839,0.576-1.018C85.313,7.2,85.345,7.079,85.33,7.014 M80.392,8.481
	c0.012-0.051,0.059-0.061,0.132-0.031c0.15,0.063,0.278,0.08,0.383,0.049c0.107-0.032,0.2-0.114,0.272-0.246
	c0.078-0.132,0.213-0.431,0.412-0.901c0.306-0.734,0.548-1.346,0.693-1.829C82,5.404,81.79,5.329,81.646,5.296
	c-0.129-0.032-0.284-0.018-0.443,0.039c-0.164,0.058-0.316,0.152-0.461,0.289c-0.058,0.053-0.109,0.069-0.144,0.055
	c-0.067-0.028-0.078-0.065-0.06-0.118c0.009-0.015,0.07-0.124,0.181-0.328c0.113-0.205,0.208-0.372,0.296-0.499
	c0.883,0.404,1.553,0.698,1.988,0.883c0.326,0.137,0.689,0.278,1.094,0.424c0.143,0.053,0.261,0.1,0.348,0.138
	c0.039,0.015,0.096,0.039,0.176,0.076c-0.013,0.077-0.068,0.23-0.137,0.46l-0.135,0.426c-0.03,0.067-0.064,0.089-0.132,0.065
	c-0.039-0.017-0.063-0.076-0.067-0.177c-0.01-0.167-0.047-0.324-0.098-0.47C83.987,6.416,83.899,6.3,83.771,6.21
	c-0.124-0.089-0.338-0.203-0.653-0.337c-0.145,0.254-0.3,0.584-0.469,0.982c-0.166,0.408-0.326,0.807-0.47,1.192
	c-0.144,0.383-0.218,0.619-0.228,0.708c-0.011,0.088,0,0.161,0.042,0.22c0.035,0.058,0.155,0.141,0.34,0.238
	c0.069,0.029,0.095,0.07,0.077,0.114c-0.019,0.049-0.061,0.061-0.119,0.039l-0.075-0.037l-0.531-0.242
	c-0.417-0.175-0.683-0.285-0.766-0.317l-0.332-0.125c-0.025-0.01-0.079-0.033-0.165-0.073C80.389,8.551,80.372,8.517,80.392,8.481
	 M76.248,6.23l0.328-1.469c0.041-0.206,0.069-0.379,0.073-0.517c0.012-0.135-0.008-0.232-0.049-0.284
	c-0.04-0.053-0.11-0.099-0.208-0.13c-0.059-0.023-0.101-0.043-0.108-0.059c-0.024-0.014-0.024-0.035-0.016-0.065
	c0.016-0.051,0.051-0.072,0.138-0.055l0.882,0.22c0.081,0.021,0.181,0.036,0.293,0.051c0.173,0.024,0.312,0.047,0.413,0.068
	c0.088,0.022,0.134,0.055,0.12,0.111c-0.014,0.047-0.053,0.064-0.124,0.054c-0.135-0.023-0.246,0.004-0.33,0.077
	c-0.088,0.07-0.163,0.243-0.24,0.511c-0.076,0.269-0.156,0.562-0.222,0.888c-0.114,0.525-0.169,0.88-0.158,1.073
	c0.014,0.191,0.09,0.355,0.225,0.495c0.146,0.144,0.35,0.246,0.622,0.303c0.271,0.061,0.489,0.049,0.654-0.042
	c0.17-0.086,0.299-0.245,0.409-0.483c0.114-0.242,0.242-0.696,0.387-1.378c0.091-0.399,0.118-0.684,0.091-0.851
	c-0.034-0.169-0.123-0.274-0.27-0.318c-0.106-0.037-0.157-0.082-0.143-0.132c0.015-0.059,0.069-0.071,0.147-0.055
	c0.043,0.01,0.116,0.033,0.211,0.065c0.107,0.031,0.206,0.053,0.324,0.082c0.102,0.022,0.212,0.04,0.35,0.06
	c0.097,0.012,0.165,0.021,0.2,0.029c0.087,0.022,0.127,0.059,0.116,0.11c-0.003,0.043-0.051,0.061-0.11,0.053
	c-0.099-0.01-0.189,0.018-0.28,0.075c-0.094,0.063-0.171,0.175-0.226,0.347c-0.063,0.172-0.175,0.622-0.325,1.345
	c-0.11,0.479-0.228,0.817-0.376,1.012c-0.141,0.193-0.346,0.321-0.614,0.394c-0.262,0.065-0.564,0.058-0.924-0.019
	c-0.279-0.064-0.51-0.135-0.699-0.231c-0.191-0.093-0.334-0.202-0.431-0.33c-0.094-0.125-0.157-0.263-0.181-0.405
	C76.171,6.687,76.189,6.489,76.248,6.23 M72.169,4.014c0.399-0.377,0.888-0.56,1.47-0.544c0.377,0.012,0.707,0.097,0.988,0.259
	c0.275,0.158,0.503,0.389,0.669,0.679c0.165,0.294,0.246,0.613,0.233,0.953c-0.017,0.528-0.22,0.99-0.632,1.383
	c-0.407,0.401-0.903,0.591-1.481,0.574c-0.532-0.014-0.977-0.197-1.342-0.545c-0.369-0.348-0.54-0.807-0.522-1.381
	C71.568,4.851,71.766,4.391,72.169,4.014 M67.612,3.987c0.043-0.017,0.165-0.041,0.367-0.067c0.38-0.052,0.72-0.118,1.044-0.189
	c0.188-0.043,0.34-0.07,0.458-0.088c0.34-0.047,0.629-0.014,0.849,0.108c0.231,0.124,0.363,0.312,0.399,0.572
	c0.065,0.435-0.22,0.796-0.847,1.08c0.401,0.029,0.708,0.11,0.916,0.252c0.222,0.143,0.348,0.343,0.383,0.599
	c0.034,0.214-0.009,0.419-0.124,0.61c-0.109,0.192-0.273,0.33-0.468,0.419c-0.199,0.088-0.487,0.161-0.881,0.216
	c-0.099,0.011-0.246,0.027-0.448,0.049c-0.169,0.013-0.304,0.027-0.399,0.042c-0.123,0.017-0.297,0.049-0.503,0.093
	c-0.095,0.024-0.152,0.038-0.189,0.043c-0.068,0.006-0.115-0.014-0.122-0.065c-0.004-0.042,0.022-0.071,0.083-0.087
	c0.111-0.031,0.194-0.065,0.245-0.1c0.047-0.029,0.082-0.077,0.107-0.142c0.032-0.065,0.032-0.167,0.009-0.297l-0.164-1.311
	c-0.059-0.406-0.108-0.729-0.15-0.97c-0.049-0.244-0.086-0.399-0.124-0.465c-0.027-0.069-0.066-0.114-0.11-0.135
	c-0.051-0.023-0.12-0.03-0.202-0.023c-0.075,0.01-0.117,0.003-0.143-0.006c-0.026-0.008-0.038-0.029-0.046-0.054
	C67.549,4.028,67.569,4.001,67.612,3.987 M60.086,6.837c0.485-0.227,0.883-0.434,1.201-0.619c0.145-0.079,0.273-0.146,0.393-0.207
	c0.385-0.187,0.727-0.253,1.02-0.206c0.295,0.045,0.495,0.196,0.618,0.442c0.078,0.169,0.102,0.34,0.063,0.525
	c-0.041,0.181-0.12,0.34-0.249,0.48c-0.122,0.141-0.285,0.268-0.486,0.387c0.246-0.077,0.468-0.1,0.673-0.063
	c0.191,0.036,0.404,0.193,0.633,0.474c0.216,0.259,0.385,0.421,0.509,0.473c0.126,0.056,0.261,0.053,0.41-0.006
	c0.08-0.034,0.142-0.025,0.16,0.02c0.006,0.014,0.006,0.024,0.006,0.035c0.008-0.014,0.021-0.031,0.047-0.043
	c0.146-0.071,0.237-0.146,0.27-0.232c0.03-0.079,0.008-0.245-0.069-0.5c-0.069-0.251-0.191-0.64-0.362-1.165
	c-0.188-0.548-0.32-0.913-0.399-1.098c-0.086-0.179-0.157-0.284-0.214-0.309c-0.065-0.031-0.163-0.027-0.289,0.006
	c-0.072,0.016-0.116,0-0.131-0.053c-0.014-0.045,0.009-0.08,0.076-0.102c0.063-0.019,0.197-0.056,0.392-0.112
	c0.151-0.042,0.271-0.075,0.363-0.105l0.812-0.295c0.068-0.023,0.114-0.011,0.128,0.035c0.013,0.045-0.006,0.082-0.069,0.11
	c-0.134,0.062-0.22,0.118-0.258,0.171c-0.029,0.053-0.047,0.157-0.024,0.299c0.024,0.155,0.118,0.472,0.281,0.965
	c0.183,0.562,0.341,0.998,0.46,1.301c0.118,0.299,0.218,0.476,0.299,0.535c0.079,0.049,0.183,0.056,0.313,0.017
	c0.08-0.031,0.134-0.022,0.153,0.028c0.017,0.059-0.02,0.109-0.112,0.138c-0.029,0.008-0.07,0.022-0.118,0.037
	c-0.348,0.088-0.576,0.152-0.699,0.192c-0.276,0.09-0.47,0.167-0.6,0.224c-0.061,0.029-0.109,0.047-0.134,0.057
	c-0.069,0.023-0.108,0.008-0.128-0.043c-0.001-0.015-0.001-0.035,0.006-0.047c-0.014,0.039-0.069,0.078-0.16,0.122L63.878,9.15
	c-0.156-0.054-0.309-0.198-0.476-0.442c-0.207-0.312-0.371-0.524-0.486-0.638c-0.118-0.112-0.243-0.175-0.369-0.185
	c-0.132-0.01-0.263,0.018-0.403,0.081c-0.037,0.02-0.086,0.047-0.15,0.087c0.288,0.594,0.466,0.961,0.535,1.098
	c0.071,0.138,0.144,0.221,0.226,0.262c0.08,0.034,0.194,0.019,0.343-0.042c0.074-0.038,0.128-0.028,0.151,0.018
	c0.022,0.046,0,0.086-0.069,0.117l-0.791,0.358c-0.105,0.05-0.237,0.122-0.394,0.208c-0.151,0.082-0.246,0.132-0.286,0.149
	c-0.069,0.034-0.114,0.028-0.139-0.021c-0.024-0.045-0.006-0.086,0.059-0.114c0.095-0.045,0.171-0.114,0.226-0.201
	c0.057-0.086,0-0.307-0.169-0.66l-0.234-0.472l-0.437-0.916c-0.23-0.471-0.384-0.749-0.482-0.833c-0.088-0.085-0.224-0.085-0.41,0
	c-0.069,0.033-0.118,0.023-0.141-0.024C59.959,6.933,59.99,6.884,60.086,6.837 M56.932,9.673c0.083-0.543,0.36-0.987,0.826-1.323
	c0.308-0.224,0.625-0.358,0.944-0.401c0.32-0.047,0.637,0,0.947,0.132c0.31,0.134,0.565,0.336,0.768,0.613
	c0.304,0.426,0.421,0.92,0.344,1.482c-0.08,0.558-0.352,1.011-0.823,1.354c-0.437,0.311-0.897,0.439-1.397,0.389
	c-0.504-0.053-0.924-0.308-1.264-0.775C56.96,10.704,56.842,10.217,56.932,9.673 M54.444,11.257
	c0.047-0.047,0.147-0.139,0.304-0.273c0.117-0.102,0.21-0.187,0.279-0.25l0.605-0.617c0.053-0.055,0.095-0.061,0.134-0.024
	c0.029,0.034,0.024,0.076-0.016,0.127c-0.094,0.114-0.145,0.203-0.155,0.262c-0.01,0.069,0.027,0.159,0.108,0.287
	c0.085,0.123,0.303,0.371,0.661,0.745c0.417,0.428,0.747,0.752,0.981,0.973c0.242,0.22,0.405,0.338,0.499,0.353
	c0.098,0.016,0.192-0.024,0.287-0.116c0.064-0.066,0.116-0.08,0.151-0.043c0.047,0.046,0.034,0.104-0.041,0.174
	c-0.018,0.02-0.049,0.047-0.088,0.082c-0.274,0.228-0.456,0.389-0.551,0.478c-0.204,0.199-0.348,0.348-0.438,0.456
	c-0.042,0.055-0.072,0.095-0.1,0.118c-0.049,0.045-0.095,0.051-0.129,0.01c-0.028-0.033-0.022-0.069,0.012-0.114
	c0.1-0.128,0.146-0.236,0.141-0.322c-0.012-0.089-0.1-0.232-0.273-0.427c-0.175-0.194-0.454-0.493-0.837-0.89
	c-0.41-0.419-0.684-0.694-0.839-0.822c-0.148-0.122-0.258-0.187-0.32-0.187c-0.069,0.002-0.155,0.043-0.258,0.127
	c-0.057,0.047-0.102,0.051-0.137,0.014C54.387,11.345,54.394,11.304,54.444,11.257 M52.023,14.138l1.961-2.411l0.753,0.428
	l0.033,0.022c0.047,0.034,0.054,0.071,0.03,0.095c-0.015,0.021-0.043,0.029-0.096,0.021c-0.267-0.029-0.509-0.014-0.72,0.049
	c-0.209,0.063-0.444,0.251-0.71,0.568c-0.175,0.22-0.247,0.36-0.222,0.423c0.022,0.063,0.369,0.367,1.041,0.917
	c0.132-0.164,0.222-0.297,0.268-0.4c0.051-0.109,0.067-0.205,0.045-0.299c-0.018-0.092-0.087-0.222-0.205-0.385
	c-0.038-0.045-0.042-0.077-0.022-0.104c0.033-0.039,0.084-0.039,0.135,0.006l0.69,0.584c0.235,0.202,0.359,0.312,0.373,0.34
	c0.008,0.022,0.008,0.045-0.014,0.068c-0.033,0.038-0.075,0.036-0.142-0.005c-0.15-0.095-0.294-0.136-0.435-0.127
	c-0.139,0.018-0.326,0.161-0.554,0.439l0.813,0.667c0.156,0.131,0.281,0.21,0.368,0.246c0.084,0.027,0.157,0.035,0.224,0.006
	c0.049-0.025,0.126-0.084,0.211-0.178c0.056-0.069,0.097-0.109,0.122-0.122c0.023-0.012,0.049-0.006,0.077,0.013
	c0.045,0.04,0.041,0.091-0.01,0.157c-0.049,0.059-0.15,0.171-0.293,0.332c-0.125,0.132-0.218,0.236-0.273,0.307L54.93,16.5
	c-0.054,0.072-0.109,0.092-0.15,0.055c-0.04-0.033-0.024-0.09,0.041-0.183c0.112-0.149,0.124-0.294,0.018-0.424
	c-0.102-0.135-0.55-0.527-1.345-1.174c-0.517-0.423-0.837-0.652-0.972-0.697c-0.126-0.042-0.25,0.008-0.367,0.153l-0.047,0.059
	c-0.041,0.055-0.079,0.063-0.13,0.028C51.938,14.283,51.95,14.223,52.023,14.138 M50.549,18.663c0.1-0.203,0.249-0.343,0.46-0.417
	c0.212-0.077,0.416-0.067,0.621,0.032c0.199,0.09,0.334,0.246,0.412,0.453c0.073,0.213,0.065,0.419-0.033,0.622
	c-0.092,0.2-0.246,0.339-0.456,0.416c-0.21,0.073-0.413,0.061-0.617-0.036c-0.201-0.092-0.338-0.243-0.415-0.455
	C50.446,19.067,50.454,18.865,50.549,18.663 M47.699,23.741c0.043-0.21,0.169-0.471,0.369-0.794
	c-0.022-0.027-0.051-0.059-0.098-0.093c-0.051-0.042-0.075-0.079-0.061-0.116c0.01-0.049,0.055-0.066,0.137-0.061l0.772,0.07
	l0.1,0.01c0.049,0.01,0.067,0.037,0.054,0.09c-0.005,0.037-0.019,0.059-0.042,0.073c-0.022,0.014-0.083,0.031-0.189,0.059
	c-0.187,0.042-0.357,0.135-0.53,0.295c-0.173,0.153-0.281,0.321-0.316,0.503c-0.042,0.181-0.021,0.341,0.053,0.482
	c0.079,0.141,0.191,0.229,0.346,0.261c0.126,0.026,0.247-0.003,0.373-0.092c0.126-0.091,0.264-0.279,0.425-0.573
	c0.249-0.462,0.495-0.759,0.736-0.889c0.244-0.125,0.489-0.161,0.749-0.11c0.252,0.059,0.456,0.171,0.6,0.334
	c0.151,0.168,0.256,0.347,0.315,0.547c0.064,0.2,0.064,0.44,0,0.711c-0.033,0.157-0.088,0.316-0.173,0.472
	c-0.085,0.159-0.189,0.316-0.316,0.476c0.036,0.045,0.08,0.09,0.146,0.132c0.067,0.043,0.096,0.09,0.086,0.136
	c-0.009,0.045-0.064,0.063-0.164,0.047l-1.02-0.139c-0.047-0.008-0.075-0.01-0.079-0.012c-0.057-0.012-0.077-0.045-0.069-0.1
	c0.012-0.04,0.069-0.073,0.164-0.087c0.302-0.053,0.564-0.159,0.794-0.307c0.224-0.149,0.366-0.353,0.421-0.613
	c0.052-0.212,0.025-0.401-0.073-0.566c-0.102-0.161-0.232-0.259-0.399-0.292c-0.159-0.037-0.314-0.008-0.454,0.09
	c-0.14,0.098-0.295,0.297-0.47,0.593c-0.169,0.289-0.316,0.499-0.443,0.631c-0.124,0.129-0.277,0.224-0.456,0.278
	c-0.18,0.058-0.357,0.068-0.523,0.026c-0.286-0.057-0.506-0.226-0.66-0.491C47.648,24.45,47.611,24.122,47.699,23.741
	 M47.257,27.384c0.018-0.355,0.031-0.749,0.037-1.177c0.003-0.151,0.004-0.278,0.01-0.373c0-0.04,0.008-0.1,0.018-0.192
	c0.072-0.009,0.231-0.014,0.471-0.022l0.455-0.016c0.074,0.008,0.106,0.038,0.1,0.102c0,0.046-0.049,0.085-0.139,0.128
	c-0.16,0.061-0.297,0.144-0.415,0.251c-0.112,0.106-0.192,0.228-0.24,0.376c-0.043,0.141-0.068,0.387-0.094,0.729
	c0.287,0.045,0.646,0.082,1.081,0.112c0.436,0.024,0.864,0.038,1.279,0.049c0.412,0.008,0.663,0.002,0.745-0.02
	c0.087-0.015,0.153-0.052,0.193-0.112c0.047-0.054,0.08-0.191,0.11-0.406c0.01-0.069,0.037-0.106,0.08-0.106
	c0.055,0.004,0.08,0.041,0.079,0.104l-0.01,0.077l-0.051,0.586c-0.028,0.455-0.042,0.733-0.043,0.83l-0.008,0.356
	c0,0.029-0.008,0.084-0.015,0.174c-0.013,0.043-0.038,0.063-0.079,0.06c-0.047-0.002-0.077-0.04-0.069-0.112
	c0.006-0.164-0.019-0.295-0.082-0.384c-0.065-0.088-0.173-0.148-0.323-0.173c-0.15-0.03-0.478-0.061-0.984-0.093
	c-0.8-0.049-1.452-0.063-1.955-0.043c-0.024,0.309-0.024,0.533-0.004,0.67c0.019,0.145,0.082,0.281,0.184,0.417
	c0.105,0.134,0.245,0.244,0.423,0.336c0.067,0.039,0.102,0.075,0.096,0.116c0,0.064-0.033,0.098-0.088,0.093
	c-0.014-0.003-0.135-0.022-0.364-0.056c-0.232-0.037-0.421-0.079-0.568-0.118C47.166,28.576,47.225,27.854,47.257,27.384
	 M48.162,35.301c-0.033,0.055-0.041,0.153-0.023,0.284c0.01,0.075-0.01,0.112-0.063,0.127c-0.049,0.012-0.079-0.016-0.095-0.085
	c-0.014-0.064-0.039-0.198-0.072-0.401c-0.027-0.151-0.045-0.279-0.069-0.366l-0.212-0.841c-0.018-0.072,0-0.113,0.049-0.127
	c0.043-0.006,0.07,0.019,0.095,0.082c0.051,0.14,0.102,0.23,0.149,0.27c0.051,0.042,0.152,0.057,0.302,0.051
	c0.146-0.004,0.474-0.061,0.977-0.175c0.582-0.135,1.032-0.245,1.341-0.334c0.316-0.093,0.505-0.169,0.564-0.246
	c0.061-0.071,0.073-0.175,0.049-0.303c-0.014-0.065-0.014-0.112,0.012-0.133c-0.004,0-0.004,0.002-0.004,0.002
	c-0.054,0.005-0.089-0.048-0.102-0.158c-0.03-0.188-0.124-0.297-0.293-0.318c-0.166-0.02-0.761,0.024-1.779,0.13
	c-0.66,0.069-1.058,0.135-1.175,0.196c-0.122,0.061-0.173,0.183-0.153,0.37l0.008,0.079c0.01,0.064-0.013,0.103-0.073,0.108
	c-0.052,0.004-0.084-0.047-0.094-0.155l-0.327-3.093l0.836-0.234l0.038-0.006c0.056-0.01,0.081,0.008,0.089,0.047
	c0.002,0.023-0.02,0.052-0.061,0.082c-0.202,0.17-0.362,0.35-0.465,0.545c-0.111,0.197-0.141,0.493-0.095,0.898
	c0.025,0.279,0.07,0.435,0.137,0.462c0.061,0.027,0.521,0,1.386-0.093c-0.022-0.208-0.056-0.366-0.093-0.473
	c-0.043-0.109-0.102-0.193-0.176-0.246c-0.08-0.051-0.222-0.095-0.427-0.122c-0.053-0.01-0.079-0.03-0.084-0.055
	c-0.006-0.059,0.026-0.091,0.1-0.1l0.896-0.073c0.313-0.029,0.484-0.036,0.506-0.029c0.026,0.012,0.037,0.029,0.042,0.063
	c0.005,0.045-0.03,0.081-0.102,0.093c-0.169,0.04-0.309,0.115-0.395,0.223c-0.091,0.108-0.118,0.341-0.083,0.703l1.046-0.112
	c0.205-0.022,0.35-0.049,0.431-0.089c0.084-0.035,0.139-0.088,0.161-0.15c0.022-0.059,0.031-0.153,0.022-0.277
	c-0.004-0.09-0.004-0.147,0-0.171c0.01-0.026,0.033-0.041,0.067-0.047c0.061-0.003,0.098,0.036,0.1,0.12
	c0.012,0.075,0.022,0.222,0.027,0.439c0.008,0.183,0.019,0.322,0.029,0.413l0.12,0.888c0.005,0.057-0.002,0.1-0.024,0.12
	c0.061-0.01,0.1,0.031,0.128,0.126c0.004,0.027,0.01,0.069,0.02,0.119c0.055,0.352,0.094,0.589,0.123,0.715
	c0.063,0.279,0.12,0.482,0.163,0.613c0.024,0.067,0.038,0.115,0.043,0.144c0.018,0.07,0,0.11-0.057,0.122
	c-0.038,0.011-0.069-0.012-0.095-0.069c-0.053-0.153-0.122-0.247-0.199-0.289c-0.081-0.037-0.253-0.035-0.509,0.014
	c-0.257,0.045-0.655,0.131-1.195,0.253c-0.566,0.128-0.945,0.222-1.13,0.289C48.303,35.183,48.194,35.242,48.162,35.301
	 M49.924,39.597c-0.499-0.204-0.867-0.613-1.105-1.222c-0.077-0.213-0.121-0.419-0.139-0.61c-0.012-0.194-0.012-0.418,0-0.675
	c0-0.053-0.008-0.095-0.02-0.122c-0.01-0.037-0.049-0.056-0.104-0.056c-0.077,0.003-0.121-0.017-0.139-0.061
	c-0.015-0.043,0.026-0.095,0.136-0.15l0.737-0.366c0.033-0.019,0.061-0.031,0.084-0.039c0.053-0.026,0.086-0.008,0.108,0.039
	c0.018,0.043,0,0.091-0.051,0.144c-0.23,0.25-0.392,0.517-0.483,0.812c-0.095,0.287-0.086,0.583,0.027,0.874
	c0.142,0.375,0.412,0.611,0.808,0.701c0.398,0.097,0.808,0.058,1.241-0.11c0.479-0.179,0.825-0.446,1.044-0.8
	c0.216-0.348,0.259-0.688,0.139-1.002c-0.051-0.14-0.135-0.265-0.25-0.379c-0.12-0.116-0.216-0.18-0.306-0.197
	c-0.084-0.008-0.199,0.01-0.33,0.061c-0.293,0.114-0.476,0.194-0.543,0.247c-0.059,0.053-0.095,0.11-0.104,0.176
	c-0.004,0.067,0.009,0.187,0.052,0.364c0.025,0.067,0.01,0.108-0.035,0.126c-0.051,0.02-0.089,0-0.112-0.063l-0.152-0.399
	l-0.493-1.213c-0.02-0.051-0.012-0.086,0.041-0.104c0.022-0.011,0.043-0.011,0.063,0.008c0.012,0.018,0.065,0.086,0.142,0.202
	c0.055,0.089,0.112,0.134,0.159,0.144c0.057,0.012,0.33-0.071,0.824-0.24c0.107-0.037,0.17-0.059,0.187-0.061
	c0.013,0,0.11,0.08,0.293,0.246c0.192,0.161,0.349,0.344,0.484,0.542c0.135,0.194,0.24,0.405,0.327,0.617
	c0.137,0.368,0.189,0.711,0.155,1.056c-0.033,0.338-0.147,0.645-0.341,0.917c-0.189,0.274-0.467,0.482-0.824,0.616
	C50.936,39.817,50.433,39.808,49.924,39.597 M53.699,43.765c-0.081,0.429-0.228,0.719-0.45,0.875
	c-0.174,0.124-0.375,0.163-0.597,0.124c-0.222-0.044-0.401-0.163-0.537-0.352c-0.132-0.181-0.179-0.364-0.157-0.543
	c0.022-0.185,0.098-0.314,0.222-0.403c0.193-0.134,0.486-0.157,0.88-0.055c0.027-0.454,0.171-0.961,0.439-1.528
	c-0.303,0.018-0.557,0.095-0.751,0.234c-0.163,0.114-0.196,0.254-0.096,0.421c0.037,0.07,0.037,0.121,0,0.148
	c-0.043,0.03-0.097,0-0.152-0.086l-0.32-0.47c-0.065-0.094-0.143-0.195-0.242-0.307c-0.038-0.051-0.069-0.09-0.083-0.112
	c-0.041-0.053-0.037-0.096,0.006-0.124c0.031-0.021,0.074-0.007,0.134,0.042c0.098,0.082,0.185,0.141,0.266,0.163
	c0.077,0.026,0.152,0.031,0.226,0.031c0.063-0.005,0.249-0.035,0.559-0.083c0.19-0.031,0.369-0.049,0.532-0.049
	c0.265-0.474,0.338-0.8,0.218-0.963c-0.043-0.069-0.121-0.128-0.231-0.164c-0.056-0.027-0.095-0.044-0.102-0.058
	c-0.037-0.047-0.032-0.083,0.014-0.114c0.043-0.033,0.169,0.004,0.377,0.102c0.21,0.1,0.366,0.228,0.48,0.381
	c0.082,0.127,0.117,0.256,0.102,0.4c-0.008,0.141-0.058,0.309-0.139,0.504c0.554,0.155,0.939,0.384,1.157,0.699
	c0.173,0.24,0.236,0.483,0.21,0.737c-0.031,0.252-0.163,0.458-0.391,0.621c-0.136,0.092-0.299,0.152-0.493,0.183
	C54.583,44.045,54.22,43.962,53.699,43.765 M57.398,47.801c-0.045,0.18-0.126,0.34-0.24,0.463c-0.198,0.219-0.454,0.328-0.761,0.322
	c-0.312,0-0.609-0.137-0.9-0.401c-0.153-0.146-0.322-0.383-0.501-0.715c-0.033,0-0.075,0.014-0.124,0.031
	c-0.061,0.027-0.108,0.027-0.135,0c-0.033-0.031-0.028-0.086,0.02-0.155l0.448-0.633l0.057-0.08
	c0.031-0.037,0.068-0.037,0.104-0.002c0.031,0.025,0.041,0.049,0.041,0.073c0.005,0.027-0.014,0.09-0.043,0.194
	c-0.056,0.18-0.056,0.382-0.012,0.603c0.045,0.226,0.142,0.405,0.275,0.533c0.14,0.123,0.281,0.189,0.445,0.19
	c0.163,0.006,0.293-0.049,0.403-0.166c0.084-0.095,0.118-0.217,0.108-0.366c-0.017-0.155-0.108-0.371-0.283-0.658
	c-0.277-0.448-0.409-0.808-0.397-1.081c0.006-0.279,0.103-0.51,0.279-0.7c0.175-0.195,0.369-0.311,0.589-0.358
	c0.216-0.045,0.426-0.045,0.627,0.006c0.204,0.045,0.412,0.163,0.617,0.358c0.124,0.104,0.226,0.235,0.322,0.385
	c0.097,0.151,0.181,0.322,0.254,0.511c0.053-0.004,0.116-0.028,0.181-0.059c0.077-0.035,0.128-0.042,0.164-0.01
	c0.035,0.031,0.021,0.089-0.046,0.174l-0.627,0.809c-0.033,0.038-0.054,0.056-0.055,0.065c-0.04,0.042-0.077,0.042-0.117,0
	c-0.03-0.022-0.03-0.088,0.007-0.183c0.103-0.283,0.15-0.564,0.132-0.837c-0.02-0.27-0.122-0.492-0.313-0.671
	c-0.167-0.153-0.344-0.224-0.531-0.216c-0.189,0.003-0.345,0.063-0.454,0.189c-0.114,0.122-0.167,0.27-0.151,0.44
	c0.019,0.168,0.111,0.409,0.279,0.704c0.169,0.294,0.271,0.527,0.322,0.702C57.437,47.438,57.437,47.613,57.398,47.801
	 M60.324,50.122c-0.293,0.433-0.452,0.71-0.481,0.832c-0.028,0.125,0.045,0.241,0.208,0.357c0.063,0.045,0.08,0.09,0.055,0.134
	c-0.033,0.047-0.092,0.039-0.181-0.02c-0.437-0.295-0.818-0.539-1.14-0.727c-0.142-0.085-0.267-0.162-0.372-0.232
	c-0.358-0.242-0.588-0.499-0.696-0.777c-0.106-0.279-0.084-0.531,0.077-0.757c0.102-0.155,0.242-0.261,0.414-0.318
	c0.183-0.056,0.36-0.066,0.544-0.027c0.182,0.034,0.372,0.114,0.581,0.224c-0.195-0.171-0.321-0.352-0.391-0.54
	c-0.075-0.193-0.043-0.455,0.086-0.798c0.116-0.311,0.169-0.537,0.153-0.674c-0.01-0.136-0.084-0.254-0.212-0.352
	c-0.071-0.055-0.089-0.103-0.061-0.144c0.033-0.042,0.107-0.029,0.222,0.051l0.888,0.632c0.028,0.156-0.015,0.365-0.147,0.635
	c-0.165,0.336-0.266,0.584-0.307,0.741c-0.035,0.16-0.033,0.297,0.028,0.416c0.055,0.116,0.143,0.217,0.272,0.301
	c0.034,0.023,0.085,0.056,0.15,0.095c0.373-0.552,0.602-0.893,0.683-1.022c0.082-0.126,0.118-0.238,0.107-0.323
	c-0.006-0.09-0.078-0.182-0.206-0.271c-0.068-0.055-0.087-0.106-0.058-0.147c0.029-0.04,0.076-0.04,0.132,0l0.708,0.503
	c0.095,0.068,0.222,0.146,0.382,0.245c0.143,0.081,0.234,0.139,0.275,0.163c0.061,0.043,0.077,0.087,0.047,0.136
	c-0.027,0.041-0.073,0.043-0.128,0.003c-0.084-0.059-0.187-0.09-0.289-0.096c-0.106-0.004-0.263,0.156-0.485,0.478l-0.291,0.44
	L60.324,50.122z M63.42,52.82c0.031,0.059,0.108,0.128,0.231,0.208c0.05,0.031,0.067,0.066,0.05,0.108
	c-0.024,0.055-0.068,0.065-0.132,0.033l-0.607-0.298l-2.065-0.969c0.066-0.291,0.137-0.582,0.207-0.875
	c0.025-0.047,0.061-0.061,0.108-0.04c0.026,0.012,0.049,0.052,0.059,0.114c0.057,0.336,0.141,0.578,0.252,0.727
	c0.106,0.151,0.3,0.287,0.574,0.421c0.155,0.066,0.306,0.121,0.463,0.167c0.173-0.291,0.336-0.617,0.503-0.975
	c0.029-0.059,0.077-0.161,0.142-0.313l-0.195-0.09c-0.122-0.06-0.232-0.091-0.34-0.095c-0.098-0.011-0.208,0.026-0.324,0.109
	c-0.106,0.079-0.175,0.132-0.201,0.157c-0.037,0.051-0.079,0.064-0.116,0.047c-0.049-0.023-0.061-0.055-0.043-0.097
	c0.01-0.007,0.012-0.021,0.027-0.034c0.069-0.098,0.226-0.413,0.466-0.94c0.037-0.07,0.061-0.142,0.076-0.206
	c0.004-0.023,0.004-0.038,0.017-0.046c0.021-0.053,0.056-0.059,0.11-0.039c0.039,0.017,0.041,0.075,0.029,0.179
	c-0.042,0.173-0.02,0.33,0.065,0.471c0.081,0.138,0.255,0.272,0.51,0.394c0.144-0.281,0.24-0.47,0.279-0.557
	c0.181-0.395,0.281-0.631,0.305-0.707c0.023-0.077,0.004-0.159-0.051-0.24c-0.054-0.078-0.171-0.158-0.348-0.241
	c-0.653-0.306-1.183-0.293-1.575,0.027c-0.056,0.041-0.102,0.055-0.139,0.041c-0.045-0.022-0.063-0.053-0.041-0.097
	c0.01-0.026,0.033-0.059,0.063-0.098l0.509-0.66l0.924,0.431c0.267,0.124,0.502,0.243,0.725,0.36
	c0.228,0.114,0.399,0.199,0.529,0.258c0.144,0.066,0.364,0.158,0.664,0.273c0.034,0.017,0.063,0.027,0.077,0.035
	c0.077,0.033,0.113,0.081,0.079,0.134c-0.022,0.047-0.061,0.058-0.122,0.025c-0.171-0.073-0.299-0.082-0.401-0.017
	c-0.098,0.063-0.211,0.236-0.336,0.511l-0.629,1.309c-0.206,0.454-0.33,0.734-0.368,0.841C63.394,52.678,63.392,52.758,63.42,52.82
	 M70.204,54.815c-0.009,0.029-0.022,0.049-0.049,0.053c-0.027,0.004-0.08-0.004-0.173-0.026l-0.694-0.168
	c-0.082-0.02-0.196-0.042-0.34-0.069c-0.202-0.033-0.361-0.063-0.473-0.089c-0.063-0.01-0.098-0.047-0.083-0.102
	c0.01-0.049,0.059-0.069,0.142-0.053c0.077,0.006,0.149-0.006,0.228-0.035c0.075-0.041,0.116-0.088,0.134-0.165
	c0.014-0.057,0.014-0.132-0.004-0.226c-0.014-0.1-0.083-0.453-0.209-1.067l-0.236-1.126l-0.961,1.472
	c0.024,0.09,0.052,0.243,0.089,0.465c0.037,0.218,0.08,0.357,0.115,0.405c0.042,0.053,0.116,0.096,0.222,0.135
	c0.063,0.027,0.087,0.06,0.077,0.106c-0.01,0.024-0.022,0.042-0.051,0.047c-0.026,0.004-0.108-0.008-0.248-0.042l-0.648-0.165
	l-0.549-0.104c-0.184-0.043-0.291-0.073-0.312-0.081c-0.022-0.01-0.028-0.033-0.022-0.075c0.014-0.049,0.051-0.067,0.118-0.049
	c0.118,0.026,0.216,0.016,0.287-0.029c0.067-0.048,0.114-0.109,0.135-0.189c0.049-0.226-0.053-0.988-0.301-2.292
	c-0.162,0.232-0.381,0.566-0.654,0.996c-0.272,0.431-0.437,0.68-0.466,0.749c-0.037,0.067-0.065,0.13-0.08,0.199
	c-0.026,0.104-0.006,0.185,0.047,0.248c0.049,0.064,0.11,0.1,0.169,0.117c0.091,0.028,0.136,0.063,0.128,0.111
	c-0.015,0.049-0.061,0.063-0.148,0.045l-0.46-0.118c-0.183-0.041-0.346-0.07-0.479-0.091c-0.073-0.01-0.125-0.017-0.157-0.023
	c-0.071-0.016-0.099-0.049-0.084-0.104c0.004-0.045,0.049-0.063,0.132-0.051c0.077,0.008,0.146,0,0.208-0.022
	c0.067-0.022,0.154-0.08,0.257-0.187c0.114-0.098,0.281-0.33,0.521-0.694l0.747-1.13l0.752-1.159l0.201,0.045
	c0.017,0.096,0.079,0.533,0.19,1.312c0.055,0.403,0.126,0.83,0.204,1.28l0.735-1.146l0.667-1.041l0.201,0.047l0.339,1.698
	c0.142,0.674,0.255,1.174,0.33,1.492c0.087,0.326,0.159,0.524,0.218,0.603c0.059,0.081,0.135,0.143,0.22,0.189
	C70.184,54.742,70.213,54.773,70.204,54.815 M73.981,54.333c-0.388,0.386-0.87,0.574-1.446,0.57c-0.384-0.004-0.716-0.082-1-0.24
	c-0.283-0.153-0.506-0.379-0.673-0.671c-0.175-0.292-0.258-0.607-0.255-0.949c0.005-0.524,0.206-0.992,0.601-1.393
	c0.401-0.406,0.888-0.603,1.47-0.599c0.53,0.002,0.983,0.179,1.356,0.518c0.373,0.34,0.562,0.802,0.548,1.376
	C74.579,53.487,74.375,53.948,73.981,54.333 M78.512,54.292l-0.932,0.122c-0.146,0.02-0.342,0.063-0.596,0.116
	c-0.088,0.02-0.155,0.034-0.186,0.039c-0.081,0.014-0.125-0.007-0.129-0.058c-0.006-0.034,0-0.056,0.025-0.073
	c0.023-0.018,0.082-0.042,0.183-0.073c0.114-0.037,0.206-0.08,0.242-0.136c0.047-0.057,0.075-0.139,0.075-0.257
	c-0.006-0.124-0.043-0.381-0.106-0.781l-0.279-1.7c-0.041-0.26-0.091-0.411-0.139-0.452c-0.055-0.042-0.139-0.055-0.274-0.034
	c-0.3,0.047-0.524,0.109-0.664,0.181c-0.144,0.071-0.269,0.183-0.383,0.329c-0.114,0.145-0.225,0.375-0.331,0.697
	c-0.025,0.067-0.05,0.1-0.086,0.104c-0.051,0.008-0.073-0.013-0.087-0.066c-0.015-0.124-0.015-0.523,0-1.204
	c0.476-0.049,1.199-0.157,2.174-0.32c0.34-0.054,0.623-0.11,0.836-0.164c0.045-0.009,0.085-0.021,0.114-0.021
	c0.067-0.014,0.106,0.01,0.11,0.065c0.007,0.024,0,0.045-0.014,0.057c-0.015,0.012-0.06,0.032-0.129,0.054
	c-0.112,0.034-0.197,0.086-0.253,0.146c-0.05,0.063-0.081,0.144-0.091,0.251c-0.01,0.104,0.019,0.369,0.084,0.781
	c0.063,0.421,0.147,0.914,0.231,1.486c0.046,0.231,0.087,0.394,0.142,0.494c0.043,0.096,0.102,0.165,0.175,0.2
	c0.07,0.039,0.165,0.051,0.281,0.039c0.077-0.012,0.118,0.014,0.126,0.069C78.64,54.241,78.602,54.275,78.512,54.292 M82.13,53.146
	l-2.964,0.946l-0.393-0.769l-0.023-0.035c-0.007-0.053-0.004-0.086,0.037-0.097c0.019-0.01,0.051,0.004,0.088,0.031
	c0.211,0.173,0.419,0.291,0.631,0.358c0.212,0.059,0.505,0.027,0.898-0.094c0.27-0.087,0.409-0.158,0.428-0.227
	c0.014-0.069-0.113-0.517-0.381-1.34c-0.195,0.061-0.348,0.124-0.444,0.187c-0.101,0.061-0.168,0.137-0.197,0.226
	c-0.037,0.088-0.051,0.234-0.037,0.438c0,0.054-0.007,0.086-0.038,0.097c-0.053,0.015-0.094-0.01-0.114-0.08l-0.261-0.863
	c-0.085-0.301-0.13-0.462-0.122-0.491c0.006-0.022,0.013-0.04,0.049-0.049c0.037-0.014,0.078,0.013,0.114,0.082
	c0.07,0.161,0.17,0.275,0.293,0.341c0.13,0.068,0.364,0.042,0.703-0.066l-0.32-1.001c-0.057-0.193-0.116-0.332-0.175-0.401
	c-0.051-0.075-0.11-0.118-0.175-0.13c-0.063-0.013-0.161,0-0.275,0.033c-0.092,0.028-0.145,0.04-0.173,0.036
	c-0.028-0.002-0.042-0.022-0.055-0.056c-0.022-0.058,0.013-0.1,0.092-0.121c0.075-0.026,0.212-0.065,0.429-0.118
	c0.175-0.047,0.306-0.084,0.401-0.108l0.834-0.302c0.088-0.028,0.141-0.016,0.159,0.039c0.014,0.047-0.029,0.091-0.139,0.125
	c-0.173,0.07-0.258,0.184-0.249,0.355c0.02,0.165,0.181,0.739,0.495,1.715c0.201,0.634,0.343,1.002,0.429,1.112
	c0.084,0.105,0.216,0.132,0.395,0.073l0.071-0.023c0.059-0.023,0.108-0.004,0.121,0.049C82.279,53.07,82.234,53.109,82.13,53.146
	 M86.099,50.903c-0.099,0.291-0.314,0.534-0.66,0.723c-0.19,0.104-0.471,0.187-0.837,0.248c-0.012,0.034-0.012,0.074-0.012,0.132
	c0.005,0.064-0.009,0.105-0.041,0.125c-0.045,0.028-0.093,0.004-0.141-0.062l-0.458-0.627l-0.057-0.077
	c-0.025-0.045-0.016-0.083,0.027-0.104c0.041-0.018,0.063-0.021,0.084-0.018c0.028,0.01,0.078,0.045,0.174,0.109
	c0.149,0.109,0.344,0.173,0.566,0.197c0.224,0.029,0.423-0.002,0.589-0.094c0.166-0.09,0.265-0.208,0.33-0.359
	c0.049-0.152,0.045-0.295-0.039-0.433c-0.059-0.109-0.167-0.184-0.311-0.218c-0.151-0.037-0.385-0.012-0.711,0.061
	c-0.515,0.122-0.9,0.134-1.156,0.036c-0.262-0.1-0.453-0.259-0.58-0.486c-0.126-0.23-0.175-0.452-0.148-0.674
	c0.028-0.224,0.095-0.419,0.205-0.6c0.107-0.173,0.282-0.334,0.532-0.472c0.135-0.077,0.295-0.136,0.468-0.181
	c0.173-0.041,0.365-0.067,0.566-0.072c0.01-0.058,0.01-0.122,0.006-0.195c-0.016-0.082,0-0.135,0.039-0.16
	c0.04-0.025,0.086,0.01,0.152,0.095l0.562,0.857c0.029,0.038,0.042,0.063,0.047,0.069c0.028,0.051,0.017,0.086-0.031,0.112
	c-0.035,0.023-0.098,0-0.176-0.061c-0.23-0.193-0.486-0.323-0.753-0.391c-0.264-0.073-0.5-0.042-0.737,0.085
	c-0.189,0.106-0.32,0.253-0.379,0.432c-0.047,0.181-0.038,0.346,0.047,0.494c0.077,0.148,0.202,0.24,0.369,0.281
	c0.167,0.037,0.421,0.025,0.759-0.045c0.326-0.061,0.582-0.091,0.766-0.084c0.181,0.008,0.348,0.061,0.511,0.161
	c0.167,0.098,0.281,0.22,0.366,0.369C86.183,50.338,86.198,50.609,86.099,50.903 M90.243,48.205l-0.735,0.543
	c-0.063,0.049-0.137,0.116-0.222,0.189c-0.125,0.122-0.231,0.214-0.316,0.273c-0.079,0.059-0.13,0.073-0.161,0.026
	c-0.034-0.036-0.024-0.081,0.041-0.13c0.1-0.093,0.151-0.191,0.142-0.305c0-0.11-0.077-0.28-0.238-0.511
	c-0.154-0.231-0.336-0.476-0.537-0.739c-0.336-0.423-0.575-0.692-0.728-0.804c-0.159-0.114-0.33-0.161-0.528-0.142
	c-0.205,0.014-0.413,0.108-0.632,0.279c-0.217,0.174-0.345,0.35-0.387,0.532c-0.041,0.183,0,0.392,0.119,0.628
	c0.114,0.235,0.385,0.627,0.809,1.175c0.257,0.32,0.455,0.524,0.601,0.607c0.152,0.085,0.288,0.085,0.413,0.003
	c0.102-0.061,0.165-0.071,0.201-0.03c0.031,0.043,0.01,0.095-0.059,0.148c-0.029,0.034-0.094,0.071-0.175,0.128
	c-0.092,0.055-0.185,0.122-0.267,0.191c-0.09,0.067-0.182,0.141-0.282,0.229c-0.065,0.069-0.116,0.115-0.143,0.136
	c-0.079,0.061-0.132,0.067-0.167,0.023c-0.028-0.034-0.02-0.075,0.035-0.121c0.064-0.067,0.106-0.153,0.119-0.262
	c0.012-0.108-0.027-0.242-0.123-0.395c-0.091-0.157-0.368-0.528-0.829-1.114c-0.304-0.382-0.483-0.693-0.54-0.926
	c-0.063-0.236-0.031-0.478,0.09-0.719c0.114-0.246,0.316-0.481,0.603-0.708c0.216-0.171,0.43-0.305,0.615-0.389
	c0.2-0.087,0.381-0.132,0.539-0.126c0.159,0.01,0.304,0.049,0.428,0.123c0.126,0.069,0.267,0.212,0.431,0.417l0.922,1.196
	c0.129,0.163,0.239,0.295,0.343,0.386c0.101,0.096,0.189,0.141,0.258,0.146c0.069,0.003,0.139-0.022,0.23-0.079
	c0.062-0.035,0.1-0.053,0.116-0.053c0.019,0,0.034,0.014,0.059,0.033C90.325,48.109,90.312,48.158,90.243,48.205 M92.149,46.189
	c-0.244,0.284-0.527,0.481-0.825,0.596c-0.309,0.118-0.62,0.145-0.954,0.083c-0.33-0.063-0.625-0.205-0.878-0.428
	c-0.401-0.346-0.628-0.804-0.671-1.37c-0.047-0.562,0.124-1.066,0.501-1.503c0.354-0.399,0.775-0.627,1.278-0.688
	c0.498-0.061,0.969,0.098,1.403,0.479c0.411,0.354,0.627,0.81,0.665,1.354C92.708,45.265,92.529,45.753,92.149,46.189
	 M95.594,41.198l-0.509,0.791c-0.069,0.126-0.165,0.303-0.289,0.533c-0.046,0.082-0.071,0.139-0.087,0.171
	c-0.049,0.065-0.092,0.085-0.133,0.058c-0.028-0.014-0.04-0.035-0.03-0.063c0-0.027,0.016-0.092,0.057-0.187
	c0.047-0.118,0.065-0.21,0.047-0.277c-0.007-0.073-0.056-0.143-0.151-0.216c-0.094-0.078-0.311-0.218-0.663-0.426l-1.476-0.885
	c-0.229-0.13-0.381-0.19-0.44-0.182c-0.071,0.017-0.13,0.077-0.197,0.185c-0.159,0.266-0.259,0.478-0.296,0.631
	c-0.029,0.153-0.029,0.32,0.009,0.503c0.035,0.181,0.144,0.417,0.32,0.704c0.034,0.057,0.042,0.1,0.024,0.135
	c-0.024,0.038-0.063,0.048-0.106,0.02c-0.106-0.066-0.408-0.324-0.92-0.78c0.259-0.391,0.645-1.014,1.158-1.865
	c0.175-0.301,0.312-0.54,0.407-0.74c0.025-0.051,0.041-0.083,0.057-0.107c0.037-0.061,0.075-0.077,0.126-0.048
	c0.018,0.019,0.031,0.032,0.031,0.054s-0.014,0.069-0.042,0.135c-0.051,0.112-0.066,0.205-0.051,0.283
	c0.014,0.081,0.055,0.155,0.132,0.23c0.081,0.077,0.291,0.222,0.648,0.444c0.369,0.215,0.799,0.478,1.296,0.774
	c0.203,0.12,0.352,0.189,0.459,0.218c0.106,0.022,0.196,0.022,0.275-0.01c0.067-0.03,0.139-0.09,0.202-0.187
	c0.05-0.071,0.091-0.091,0.142-0.06C95.64,41.063,95.64,41.118,95.594,41.198 M97.434,36.93l-0.364,0.835
	c-0.031,0.081-0.069,0.173-0.098,0.282c-0.055,0.168-0.096,0.299-0.136,0.393c-0.041,0.09-0.075,0.122-0.132,0.104
	c-0.047-0.017-0.057-0.067-0.035-0.134c0.047-0.132,0.035-0.242-0.022-0.336c-0.055-0.095-0.208-0.206-0.468-0.328
	c-0.242-0.118-0.523-0.24-0.825-0.368c-0.509-0.197-0.845-0.309-1.034-0.328c-0.189-0.025-0.371,0.021-0.533,0.139
	c-0.163,0.113-0.293,0.299-0.397,0.554c-0.105,0.262-0.128,0.48-0.078,0.659c0.063,0.177,0.199,0.338,0.417,0.485
	c0.218,0.148,0.642,0.348,1.289,0.605c0.38,0.152,0.661,0.232,0.827,0.23c0.174,0,0.288-0.073,0.356-0.208
	c0.053-0.1,0.107-0.141,0.162-0.118c0.049,0.017,0.052,0.072,0.021,0.157c-0.011,0.038-0.045,0.105-0.096,0.197
	c-0.051,0.095-0.096,0.195-0.141,0.298c-0.033,0.098-0.075,0.209-0.108,0.334c-0.032,0.097-0.053,0.161-0.067,0.191
	c-0.035,0.092-0.076,0.122-0.13,0.102c-0.043-0.01-0.049-0.055-0.029-0.119c0.024-0.093,0.016-0.187-0.027-0.285
	c-0.054-0.104-0.152-0.197-0.307-0.281c-0.163-0.09-0.584-0.274-1.27-0.548c-0.46-0.186-0.763-0.361-0.936-0.536
	c-0.163-0.173-0.261-0.393-0.285-0.664c-0.022-0.276,0.042-0.578,0.179-0.916c0.098-0.261,0.212-0.478,0.34-0.65
	c0.121-0.171,0.258-0.297,0.395-0.372c0.141-0.073,0.289-0.11,0.43-0.11c0.141,0,0.34,0.049,0.591,0.149l1.385,0.572
	c0.196,0.077,0.359,0.134,0.498,0.163c0.134,0.025,0.23,0.025,0.293-0.006c0.061-0.029,0.116-0.088,0.165-0.18
	c0.03-0.061,0.054-0.095,0.073-0.102c0.015-0.01,0.04-0.01,0.063,0C97.459,36.808,97.469,36.855,97.434,36.93 M94.75,32.581
	c0.014,0.057,0.05,0.11,0.099,0.153c0.051,0.046,0.147,0.085,0.283,0.113l1.282,0.302c0.405,0.091,0.72,0.155,0.965,0.199
	c0.238,0.041,0.405,0.061,0.478,0.057c0.071-0.012,0.122-0.034,0.163-0.068c0.032-0.033,0.063-0.094,0.087-0.175
	c0.023-0.074,0.043-0.119,0.06-0.135c0.014-0.02,0.042-0.024,0.073-0.02c0.037,0.01,0.05,0.036,0.05,0.08
	c0,0.045-0.013,0.171-0.06,0.369c-0.081,0.366-0.152,0.715-0.188,1.042c-0.031,0.189-0.054,0.344-0.081,0.46
	c-0.07,0.338-0.207,0.592-0.405,0.758c-0.19,0.174-0.413,0.228-0.666,0.174c-0.431-0.097-0.676-0.484-0.723-1.17
	c-0.162,0.362-0.348,0.621-0.554,0.774c-0.212,0.151-0.441,0.201-0.696,0.146c-0.206-0.047-0.385-0.159-0.523-0.336
	c-0.139-0.172-0.214-0.369-0.229-0.583c-0.012-0.212,0.025-0.513,0.11-0.898c0.016-0.094,0.058-0.24,0.106-0.438
	c0.045-0.164,0.079-0.293,0.096-0.388c0.034-0.123,0.062-0.292,0.093-0.509c0.008-0.092,0.018-0.152,0.026-0.187
	c0.009-0.017,0.013-0.032,0.023-0.049c0-0.051,0.009-0.141,0.029-0.287c0.027-0.194,0.045-0.359,0.049-0.493
	c0.014-0.128,0.014-0.297,0.014-0.505c-0.011-0.161-0.011-0.263,0-0.311c0-0.091,0.032-0.128,0.083-0.126
	c0.045,0,0.063,0.033,0.067,0.094c0.01,0.231,0.094,0.352,0.253,0.362c0.079,0.002,0.215-0.019,0.421-0.078
	c0.201-0.056,0.397-0.121,0.565-0.189c0.008-0.121,0.012-0.217,0.018-0.285c0.02-0.377,0.033-0.674,0.043-0.883
	c-0.435-0.186-0.723-0.284-0.869-0.294c-0.098-0.006-0.185,0.031-0.244,0.108c-0.061,0.079-0.098,0.163-0.116,0.257
	c-0.004,0.07-0.042,0.111-0.092,0.104c-0.051-0.003-0.078-0.043-0.073-0.12c0-0.031,0.014-0.11,0.032-0.236
	c0.022-0.168,0.029-0.289,0.041-0.362c0.006-0.147,0.006-0.291-0.011-0.424c0-0.036,0-0.061,0-0.087c0-0.065,0.033-0.102,0.09-0.097
	c0.042,0,0.069,0.026,0.077,0.073c0.027,0.114,0.06,0.203,0.106,0.269c0.041,0.068,0.124,0.142,0.259,0.223
	c0.132,0.082,0.34,0.183,0.623,0.3c0.643,0.272,1.521,0.664,2.614,1.192l-0.012,0.192c-0.549,0.216-1.413,0.525-2.602,0.911
	c-0.533,0.179-0.869,0.305-0.985,0.38c-0.12,0.068-0.197,0.196-0.232,0.366c0,0.025-0.009,0.039-0.017,0.053
	C94.741,32.455,94.741,32.534,94.75,32.581"/>
<path d="M94.604,33.603c-0.055,0.014-0.098,0.094-0.132,0.243c-0.066,0.265-0.037,0.476,0.081,0.644
	c0.109,0.161,0.291,0.273,0.533,0.322c0.256,0.057,0.472,0.036,0.663-0.067c0.19-0.104,0.312-0.289,0.369-0.57
	c0.018-0.061,0.025-0.143,0.045-0.251c-0.387-0.1-0.703-0.179-0.966-0.236C94.855,33.61,94.661,33.583,94.604,33.603"/>
<path d="M86.595,11.901c0.211,0.173,0.479,0.214,0.812,0.128c0.334-0.085,0.681-0.364,1.057-0.838
	c0.357-0.45,0.549-0.843,0.575-1.192c0.033-0.344-0.077-0.611-0.306-0.796c-0.232-0.183-0.513-0.218-0.849-0.116
	c-0.329,0.108-0.674,0.383-1.025,0.831c-0.339,0.426-0.533,0.815-0.574,1.168C86.245,11.436,86.341,11.709,86.595,11.901"/>
<path d="M96.988,35.098c0.24,0.054,0.426,0.037,0.576-0.049c0.141-0.082,0.232-0.203,0.263-0.352c0.02-0.11,0.03-0.242,0.01-0.407
	c-0.189-0.056-0.377-0.107-0.58-0.149c-0.171-0.042-0.462-0.097-0.878-0.172C96.235,34.603,96.439,34.977,96.988,35.098"/>
<path d="M73.487,7.111c0.278,0.01,0.526-0.121,0.735-0.385c0.215-0.265,0.326-0.701,0.346-1.307
	c0.014-0.572-0.069-1.003-0.255-1.296c-0.185-0.295-0.428-0.446-0.723-0.453c-0.295-0.01-0.55,0.126-0.747,0.414
	c-0.206,0.283-0.309,0.708-0.329,1.276c-0.009,0.55,0.057,0.974,0.243,1.279C72.931,6.945,73.18,7.104,73.487,7.111"/>
<path d="M72.857,0.997c-15.548,0-28.193,12.646-28.193,28.187c0,15.538,12.645,28.185,28.193,28.185
	c15.532,0,28.173-12.647,28.173-28.185C101.03,13.643,88.389,0.997,72.857,0.997 M72.857,56.784
	c-15.224,0-27.603-12.386-27.603-27.6c0-15.222,12.38-27.604,27.603-27.604c15.216,0,27.59,12.382,27.59,27.604
	C100.447,44.399,88.073,56.784,72.857,56.784"/>
<path d="M72.857,0.137c-16.025,0-29.054,13.03-29.054,29.048c0,16.01,13.029,29.04,29.054,29.04c16.003,0,29.033-13.03,29.033-29.04
	C101.891,13.167,88.861,0.137,72.857,0.137 M72.857,57.783c-15.776,0-28.607-12.832-28.607-28.598
	c0-15.77,12.832-28.602,28.607-28.602c15.762,0,28.592,12.832,28.592,28.602C101.45,44.951,88.619,57.783,72.857,57.783"/>
<path d="M82.773,42.337h0.221c-0.133-0.191-0.157-0.444,0.093-0.56c0.232-0.114,0.277-0.355,0.204-0.55
	c-0.246-0.014-0.491-0.035-0.737-0.069c-0.025,0.041-0.056,0.082-0.084,0.138c-0.153,0.32,0.059,0.745,0.277,0.982
	C82.678,42.242,82.723,42.29,82.773,42.337"/>
<path d="M83.969,42.337V41.92c-0.134-0.092-0.358-0.092-0.509,0.177c-0.041,0.072-0.047,0.153-0.047,0.24H83.969z"/>
<path d="M81.709,41.851c0.023,0.02,0.043,0.037,0.063,0.051c-0.235-0.069-0.468-0.118-0.699-0.159
	c-0.461-0.175-0.887-0.653-0.704-1.105c-0.462-0.161-0.912-0.357-1.34-0.585c0.006,0.181,0.061,0.359,0.142,0.524
	c-0.13-0.137-0.368-0.306-0.635-0.198c-0.027,0.014-0.059,0.03-0.073,0.045c-0.133,0.087-0.184,0.263-0.106,0.413
	c0.079,0.156,0.273,0.222,0.433,0.139c0.14-0.069,0.208-0.224,0.167-0.369c0.079-0.006,0.171,0,0.261,0.048
	c0.24,0.431,0.686,0.793,1.072,0.984c0.021,0.014,0.058,0.028,0.083,0.038c-0.451-0.019-0.844,0.016-1.147,0.061
	c-0.143-0.143-0.322-0.269-0.511-0.383c-0.271-0.268-0.662-0.568-1.079-0.517c-0.108,0.01-0.19,0.039-0.267,0.086
	c-0.098,0-0.189,0.008-0.271,0.032c-0.045,0.004-0.087,0.021-0.122,0.033c0.004-0.029,0.009-0.057,0.016-0.087
	c0.124,0,0.293-0.11,0.381-0.169c0.381-0.267,1.039-0.867,0.592-1.044c-0.238-0.106-0.45-0.173-0.701-0.22
	c-0.18-0.047-0.555-0.173-0.726,0.038c-0.095,0.121,0.132,0.717,0.184,0.906c0.014,0.031,0.018,0.059,0.024,0.089
	c-0.024,0.006-0.054,0.01-0.083,0.013c-0.035-0.092-0.087-0.19-0.11-0.306c-0.09-0.263-0.094-0.485-0.132-0.668
	c-0.02-0.12-0.13-0.03-0.249-0.112c-0.216,0.235-0.369,0.489-0.507,0.762c-0.067,0.112-0.249,0.45-0.159,0.578
	c0.018,0.031,0.063,0.06,0.107,0.083c-0.052,0.018-0.107,0.036-0.16,0.048c-0.337,0.084-1.091,0.3-1.247,0.57
	c-0.231,0.389,0.123,0.642,0.412,0.869h1.279h0.816h0.11c0.017-0.017,0.031-0.043,0.051-0.065c0,0.01,0,0.022-0.009,0.034
	c0,0.014-0.003,0.019-0.003,0.031h1.111h1.35h0.553c0.637-0.1,1.216-0.093,1.748,0h1.071c-0.369-0.295-0.888-0.938-0.688-1.264
	c-0.316-0.055-0.631-0.13-0.935-0.216C81.157,41.248,81.44,41.631,81.709,41.851 M79.09,41.763c-0.028-0.029-0.059-0.061-0.091-0.1
	c-0.008-0.005-0.018-0.014-0.022-0.024c0.073,0.04,0.14,0.075,0.193,0.109C79.135,41.753,79.115,41.757,79.09,41.763"/>
<path d="M73.871,42.215c-0.096,0.014-0.152,0.056-0.193,0.121h0.715C74.273,42.234,74.121,42.163,73.871,42.215"/>
<path d="M88.897,28.139v-3.796c-0.095,0.137-0.174,0.273-0.246,0.377c-0.329,0.605-0.742,1.485-0.961,2.273L88.897,28.139z"/>
<path d="M86.534,25.791c0.022-0.25-0.014-0.58,0.065-0.842c0.043-0.145,0.099-0.404,0.07-0.518c-0.084-0.401-0.754,0.04-0.961,0.114
	c-0.092,0.037-0.294,0.075-0.436,0.151l1.228,1.165C86.52,25.847,86.524,25.826,86.534,25.791"/>
<path d="M86.743,25.411c-0.008,0.158-0.191,0.574,0.088,0.504c0.34,0.065,0.24,0.09,0.481,0.031c0.17-0.031,0.104-0.462,0.24-0.788
	c0.141-0.326,0.326-0.199,0.023-0.452c-0.314-0.283-0.484-0.44-0.696-0.279C86.686,24.582,86.756,25.211,86.743,25.411"/>
<path d="M86.972,24.179c0.075-0.093,0.051-0.222-0.04-0.292c-0.091-0.072-0.22-0.053-0.296,0.037
	c-0.071,0.093-0.051,0.225,0.043,0.297C86.772,24.293,86.906,24.272,86.972,24.179"/>
<path d="M60.499,18.991c0.1-0.034,0.194-0.071,0.302-0.098c-0.175-0.02-0.346-0.049-0.521-0.092
	C60.362,18.865,60.43,18.927,60.499,18.991"/>
<path d="M63.648,39.689c0.411,0.458,1.295,2.099,2.125,1.197c0.011-0.017,0.027-0.036,0.041-0.049
	c0.095,0.076,0.199,0.167,0.336,0.268c0.674,0.497,1.649,0.369,2.152-0.032c-0.411,0.381-0.853,0.552-1.529,0.562
	c-0.737,0.01-1.312-0.442-1.6-0.055c-0.098,0.129-0.075,0.583,0.436,0.756h1.113c0.478-0.095,0.913-0.291,1.257-0.544
	c-0.18,0.232-0.348,0.399-0.552,0.544h0.653c0.285-0.401,0.552-0.92,0.745-1.57c0.037-0.026,0.079-0.043,0.118-0.071
	c-0.22,0.643-0.405,1.179-0.647,1.641h0.607c0.129-0.464,0.197-1.018,0.183-1.745c0.051-0.047,0.1-0.097,0.137-0.141
	c-0.03,0.595-0.051,1.279-0.123,1.886h0.463c-0.008-0.56-0.086-1.211-0.267-1.971c0.077-0.116,0.128-0.242,0.113-0.373
	c0.087,0.07,0.192,0.123,0.304,0.169c0.471,0.963,1.002,1.676,1.506,2.175h1.098c-0.033-0.022-0.073-0.045-0.11-0.068
	c-0.441-0.326-1.594-1.258-2.386-2.074c0.065,0.017,0.139,0.029,0.218,0.04c1.176,1.462,2.467,1.945,3.103,1.998
	c0.827,0.061,0.764-0.43,0.633-0.587c-0.132-0.155-0.501-0.148-1.151-0.272c-0.4-0.074-1.392-0.546-2.393-1.136
	c0.051-0.003,0.094-0.003,0.139-0.003c1.464,0.988,2.752,0.992,3.29,0.717c0.544-0.277,0.57-0.729,0.308-0.827
	c-0.264-0.088-0.549,0.301-1.203,0.391c-0.195,0.026-0.532,0.007-1.016-0.076c0.682-0.031,1.372-0.252,1.653-0.588
	c0.847-0.998,0.344-1.401,0.134-1.45c-0.46-0.122-0.8,0.841-1.038,1.196c-0.2,0.289-0.703,0.465-1.28,0.501
	c0.597-0.118,1.245-0.601,1.428-1.305c0.179-0.688,0.151-0.991,0.022-1.108c0.014-0.014,0.031-0.023,0.045-0.042
	c0.676-0.864,0.256-1.474,0.165-2.413c-0.112-0.939,0-1.686,0.006-2.319c0.016-0.415-0.413-0.194-0.752-0.547
	c-0.9,0.653-1.561,1.406-2.216,2.243c-0.281,0.33-1.122,1.35-0.888,1.842c0.224,0.487,1.56,1.045,2.002,1.206
	c0.204,0.069,0.622,0.197,1.01,0.21c-0.083,0.13-0.135,0.312-0.139,0.571c-0.014,0.469-0.246,1.246-0.883,1.515
	c0.025-0.024,0.053-0.045,0.06-0.075c-0.418,0.247-0.898-0.309-1.159-0.523c-0.444-0.377-0.652-3.294-2.044-2.47
	c-1.406,0.816,0.623,2.293,0.656,2.881c0.019,0.331-0.069,1.028-0.527,1.211c0.037,0.002,0.087,0.002,0.132,0
	c-0.658,0.193-1.328-0.265-1.634-0.619c-0.092-0.106-0.18-0.185-0.267-0.244c0.779-1.667,1.378-4.88,0.36-4.592
	c-0.836,0.215-1.82,0.763-2.761,0.832c-0.484,0.031-1.258,0.162-1.647,0.358c-0.075,0.344-0.185,0.677-0.34,0.998
	C62.19,38.459,63.308,39.312,63.648,39.689"/>
<path d="M70.221,42.337c-0.008-0.068-0.018-0.134-0.039-0.208c0.039,0.072,0.067,0.14,0.108,0.208h0.649
	c-0.527-0.674-1.199-1.661-1.531-2.345c0.151,0.623,0.27,1.557,0.311,2.345H70.221z"/>
<path d="M79.239,17.737c0.383,2.138,3.03,1.941,4.522,0.748c0.878-0.709,0.928-1.562,0.743-2.366h-1.842
	C81.552,17.182,80.046,18.348,79.239,17.737"/>
<path d="M81.992,16.119h-3.48c0.088,0.336,0.234,0.68,0.595,1.016C79.742,17.687,80.941,17.017,81.992,16.119"/>
<path d="M78.504,17.182c-0.195-0.265-0.263-0.686-0.326-1.063h-1.376c0.481,0.625,0.408,1.158,1.065,1.796
	C78.182,17.697,78.717,17.48,78.504,17.182"/>
<path d="M64.291,20.725c0.299-0.068,0.487-0.361,0.417-0.658c-0.069-0.297-0.362-0.478-0.657-0.415
	c-0.294,0.068-0.485,0.362-0.417,0.658C63.701,20.608,63.993,20.791,64.291,20.725"/>
<path d="M67.578,16.119h-3.357C65.184,16.668,67.541,17.159,67.578,16.119"/>
<path d="M72.63,20.099c0.813,0.055,2.091-1.712,2.572-2.196c0.376-0.363,1.808-1.014,0.944-1.45c-0.097-0.13-0.175-0.24-0.244-0.334
	h-4.666c0.039,0.521,0.177,1.11,0.248,1.694C71.631,19.228,71.705,20.024,72.63,20.099"/>
<path d="M72.61,25.58c0.128,0.673,0.175,0.848,0.576,1.248c0.359,0.379,0.909-0.122,1.331-0.325c0.454-0.26,1.035-0.586,1.571-0.935
	v-2.518c-0.428-0.191-0.854-0.352-1.316-0.494c-0.627-0.218-1.85-0.77-2.478-0.118C71.906,22.833,72.486,24.933,72.61,25.58"/>
<path d="M70.263,26.543c0.356,0.087,1.369,0.354,1.657-0.108c0.592-0.919,0.33-0.674,0.155-1.609
	c-0.202-0.924-0.15-1.675-0.202-2.305c-0.018-0.417-0.435-0.153-0.8-0.482c-0.841,0.737-1.427,1.549-1.997,2.441
	c-0.251,0.352-0.996,1.442-0.727,1.91C68.62,26.854,69.803,26.421,70.263,26.543"/>
<path d="M72.087,21.921c0.39-0.076,0.648-0.448,0.569-0.835c-0.077-0.389-0.45-0.648-0.837-0.576
	c-0.389,0.075-0.647,0.452-0.578,0.839C71.322,21.736,71.694,21.992,72.087,21.921"/>
<path d="M64.39,29.212c0.421,0.025,1.07-0.879,1.319-1.128c0.194-0.187,0.929-0.517,0.477-0.745
	c-0.362-0.488-0.208-0.401-0.591-0.613c-0.255-0.152-1.016-0.594-1.56-0.327c-0.574,0.257-0.321,0.953-0.236,1.639
	C63.878,28.764,63.919,29.171,64.39,29.212"/>
<path d="M65.366,28.861c-0.234,0.139-0.598,0.406-0.708,0.589c-0.363,0.623,1.032,0.837,1.39,0.981
	c0.296,0.115,1.077,0.656,1.254,0.057c0.184-0.69-0.391-3.087-0.871-2.646C66.094,28.133,65.772,28.613,65.366,28.861"/>
<path d="M64.672,32.659c0.192,0.195,0.472-0.061,0.688-0.164c0.699-0.409,2.056-1.131,1.301-1.525
	c-0.394-0.217-0.757-0.371-1.172-0.497c-0.32-0.113-0.949-0.395-1.271-0.06c-0.199,0.201,0.095,1.275,0.165,1.608
	C64.445,32.364,64.469,32.455,64.672,32.659"/>
<path d="M63.18,32.516c0.178,0.042,0.698,0.179,0.848-0.057c0.303-0.474,0.169-0.348,0.08-0.823
	c-0.106-0.476-0.08-0.861-0.106-1.186c-0.01-0.21-0.224-0.076-0.411-0.241c-0.428,0.375-0.731,0.792-1.019,1.246
	c-0.072,0.089-0.187,0.263-0.283,0.452v0.609C62.51,32.61,62.978,32.459,63.18,32.516"/>
<path d="M63.526,29.379c0.438-0.458-0.047-2.15-0.087-2.867c-0.025-0.504-0.664,0.077-1.145,0.461v2.075
	C62.767,29.202,63.506,29.405,63.526,29.379"/>
<path d="M63.501,30.14c-0.256-0.073-0.222-0.403-0.034-0.605c-0.485-0.128-0.747-0.205-1.179-0.305v2.249
	C62.579,30.989,62.691,30.472,63.501,30.14"/>
<path d="M64.404,29.713c-0.04-0.199-0.234-0.327-0.432-0.293c-0.197,0.041-0.329,0.231-0.292,0.43c0.038,0.2,0.23,0.334,0.433,0.291
	C64.312,30.108,64.44,29.916,64.404,29.713"/>
<path d="M81.087,24.686c0.261,0.02,0.619-0.334,0.914-0.66v-1.35l-1.44,1.331C80.623,24.423,80.733,24.657,81.087,24.686"/>
<path d="M82,25.679v-1.305c-0.238,0.145-0.549,0.386-0.649,0.558C81.135,25.304,81.552,25.527,82,25.679"/>
<path d="M76.088,29.906c-0.098,0.052-0.186,0.108-0.275,0.153c-0.479,0.227-1.23,0.687-1.474,1.024
	c-0.613,0.859,0.755,1.45,1.749,1.829V29.906z"/>
<path d="M78.063,28.265c-0.499,0.367-1.008,0.914-1.562,1.345l5.114,4.72c0.132-0.025,0.262-0.081,0.382-0.157v-2.628
	c-0.603-0.947-1.545-1.871-2.065-2.346c0.473,0.399,1.259,0.941,2.065,1.075v-4.393c-0.34-0.125-0.816-0.269-1.084,0.008
	c-0.198,0.203,0.099,1.276,0.16,1.605c0.037,0.207,0.063,0.317,0.121,0.423c-0.385,0.29-0.471,0.814-0.213,1.313
	c-0.403,0.025-0.908-0.045-1.421-0.364c0.004,0.007,0.012,0.016,0.018,0.02c-0.018-0.013-0.027-0.02-0.027-0.02
	c0.708,0.888,1.653,2.599,0.961,2.656c-0.67,0.114-0.981,0.422-1.063,0.789C79.457,30.45,78.856,27.66,78.063,28.265"/>
<path d="M79.87,27.989c0.183,0.043,0.708,0.179,0.85-0.057c0.306-0.471,0.175-0.346,0.082-0.819
	c-0.102-0.474-0.079-0.861-0.102-1.185c-0.015-0.213-0.224-0.081-0.415-0.242c-0.43,0.373-0.735,0.788-1.022,1.242
	c-0.132,0.187-0.513,0.743-0.375,0.986C79.028,28.151,79.634,27.929,79.87,27.989"/>
<path d="M80.224,24.853c0.134-0.134,0.175-0.394,0.175-0.704l-0.646,0.601C80.004,24.823,80.209,24.873,80.224,24.853"/>
<path d="M78.608,27.42c0.668-0.598,0.513-1.364,1.588-1.804c-0.261-0.073-0.22-0.405-0.038-0.603
	c-0.214-0.053-0.377-0.1-0.536-0.141l-1.633,1.506C78.15,26.962,78.396,27.608,78.608,27.42"/>
<path d="M80.378,25.328c0.038,0.199,0.23,0.327,0.431,0.292c0.191-0.038,0.326-0.23,0.289-0.43
	c-0.036-0.201-0.234-0.331-0.431-0.289C80.469,24.936,80.331,25.13,80.378,25.328"/>
<path d="M76.088,25.993c-0.51,0.26-1.199,0.9-1.967,1.197c-1.158,0.399-1.244-0.35-1.199,0.999c0.016,1.419,0.027,2.22,0.939,2.378
	c0.818,0.128,2.239-1.516,2.759-1.954c0.406-0.331,1.891-0.845,1.063-1.358c-0.094-0.16-0.161-0.281-0.224-0.389l-1.372,1.273
	V25.993z"/>
<path d="M73.643,37.695c0.33,0.405,1.233,0,1.671-0.167c0.282-0.127,0.611-0.297,0.945-0.485c-0.114-0.401-0.175-0.815-0.175-1.258
	v-2.441c-0.098-0.043-0.204-0.091-0.312-0.134c-0.603-0.274-1.777-0.929-2.46-0.342c-0.421,0.357-0.031,2.498,0.031,3.155
	C73.412,36.708,73.285,37.254,73.643,37.695"/>
<path d="M69.125,29.566c0.4,0.24,2.965,1.241,3.027,1.181c0.93-0.823-0.096-1.55-0.037-2.946c0.043-1.208-2.266-1.411-3.197-0.93
	c-0.602,0.323-1.262,0.441-1.432,1.022C67.181,28.957,68.496,29.171,69.125,29.566"/>
<path d="M68.564,35.441c1.404-1.046,1.243-2.561,3.403-3.225c-0.488-0.191-0.358-0.822,0.039-1.179
	c-1.118-0.416-1.593-0.615-2.832-0.99c-0.529-0.173-1.02-1.225-1.553-0.222c-0.348,0.655,0.163,1.018-0.786,2.975
	C66.454,33.578,67.912,35.933,68.564,35.441"/>
<path d="M73.797,31.549c-0.036-0.392-0.39-0.684-0.782-0.646c-0.399,0.039-0.682,0.389-0.645,0.786
	c0.042,0.392,0.392,0.683,0.779,0.645C73.545,32.296,73.834,31.944,73.797,31.549"/>
<path d="M66.623,34.442c-0.21-1.171-0.013-0.892-0.497-1.599c-0.305-0.488-1.608,0.233-2.795,0.226
	c-0.625-0.031-0.883-0.232-1.044-0.259v2.975c0,0.142-0.006,0.281-0.026,0.421c0.869,0.015,2.318-0.715,2.862-0.89
	C65.625,35.157,67.193,35.225,66.623,34.442"/>
<path d="M64.227,41.168c-0.485-0.724-0.989-1.317-1.586-1.897c-0.267-0.275-0.656-0.733-1.105-1.02
	c-0.346,0.538-0.802,1.042-1.395,1.507c-0.199,0.159-0.399,0.301-0.6,0.428c-0.087,0.331-0.15,0.623-0.205,0.797
	c-0.153,0.536-0.385,0.937-0.382,1.354h4.994C64.404,42.05,64.585,41.667,64.227,41.168"/>
<path d="M76.739,38.935c-0.169,0.373,0.633,0.419,0.841,0.476c0.126,0.04,0.419,0.185,0.589,0.126
	c-0.426-0.295-0.787-0.615-1.082-0.965C76.965,38.662,76.786,38.828,76.739,38.935"/>
<path d="M76.175,38.182c0.078,0.403,0.126,0.635,0.395,0.632c0.138,0,0.291-0.177,0.427-0.354c-0.175-0.222-0.325-0.458-0.445-0.699
	c-0.031,0.023-0.059,0.047-0.087,0.067C76.153,38.001,76.088,37.793,76.175,38.182"/>
<path d="M75.919,38.109c-0.052-0.35-0.725-0.277-0.973-0.091c-0.157,0.128-0.34,0.199-0.35,0.372
	c-0.035,0.329,0.35,0.315,0.556,0.394c0.13,0.044,0.922,0.194,0.935,0.172C76.31,38.669,75.98,38.518,75.919,38.109"/>
<path d="M75.32,40.507c0.344-0.384,0.216-0.808,0.796-1.115c-0.15-0.031-0.146-0.216-0.047-0.341
	c-0.346-0.059-0.501-0.089-0.874-0.13c-0.161-0.02-0.362-0.297-0.461,0.021c-0.065,0.205,0.105,0.285-0.065,0.898
	C74.606,40.086,75.155,40.682,75.32,40.507"/>
<path d="M76.346,38.956c-0.11,0.035-0.171,0.149-0.139,0.261c0.029,0.114,0.147,0.175,0.258,0.141
	c0.11-0.032,0.179-0.151,0.142-0.262C76.576,38.99,76.462,38.923,76.346,38.956"/>
<path d="M85.992,20.697c-0.354,0-0.641,0.291-0.641,0.652c0,0.358,0.287,0.647,0.641,0.647c0.358,0,0.646-0.289,0.646-0.647
	C86.638,20.988,86.349,20.697,85.992,20.697"/>
<path d="M70.901,39.733c0.364,0,0.651-0.292,0.651-0.649c0-0.358-0.287-0.648-0.651-0.648c-0.352,0-0.646,0.29-0.646,0.648
	C70.255,39.442,70.55,39.733,70.901,39.733"/>
<path d="M87.092,20.413c-0.25,0-0.454,0.198-0.454,0.45c0,0.241,0.204,0.441,0.454,0.441c0.238,0,0.444-0.199,0.444-0.441
	C87.536,20.612,87.33,20.413,87.092,20.413"/>
<path d="M66.578,39.837c0,0.462,0.377,0.837,0.837,0.837c0.466,0,0.837-0.375,0.837-0.837c0-0.463-0.371-0.835-0.837-0.835
	C66.955,39.001,66.578,39.373,66.578,39.837"/>
<path d="M70.065,37.722c-0.246,0-0.447,0.203-0.447,0.446c0,0.243,0.2,0.45,0.447,0.45c0.251,0,0.444-0.207,0.444-0.45
	C70.509,37.925,70.316,37.722,70.065,37.722"/>
<path d="M67.363,36.207c0,0.249,0.2,0.448,0.444,0.448c0.247,0,0.446-0.2,0.446-0.448c0-0.245-0.199-0.444-0.446-0.444
	C67.563,35.763,67.363,35.962,67.363,36.207"/>
<path d="M87.898,19.906c-0.187,0-0.343,0.155-0.343,0.346c0,0.189,0.156,0.344,0.343,0.344c0.197,0,0.344-0.155,0.344-0.344
	C88.242,20.061,88.095,19.906,87.898,19.906"/>
<path d="M85.964,32.901c1.195,0,2.168-0.975,2.168-2.168c0-1.193-0.973-2.162-2.168-2.162c-1.193,0-2.162,0.969-2.162,2.162
	C83.802,31.926,84.771,32.901,85.964,32.901 M85.964,28.907c1.009,0,1.826,0.826,1.826,1.826c0,1.008-0.818,1.826-1.826,1.826
	c-1.002,0-1.824-0.818-1.824-1.826C84.14,29.733,84.962,28.907,85.964,28.907"/>
<path d="M86.485,31.963c0.049-0.023,0.246-0.114,0.289-0.135c0.074-0.059,0.132-0.133,0.178-0.232
	c0.054-0.104,0.079-0.218,0.079-0.332c0-0.154-0.045-0.289-0.125-0.393c-0.047-0.06-0.112-0.115-0.207-0.167l-0.103-0.058
	l0.091-0.074c0.016-0.02,0.037-0.034,0.054-0.043c0.034-0.026,0.071-0.051,0.08-0.075c0.059-0.095,0.092-0.201,0.092-0.314
	c0-0.116-0.033-0.233-0.101-0.342c-0.069-0.11-0.156-0.191-0.287-0.246c-0.106-0.051-0.262-0.074-0.457-0.074h-0.955v2.524h0.969
	L86.485,31.963z M85.498,29.826h0.465l0.358,0.033c0.073,0.024,0.124,0.06,0.159,0.12L86.49,30v0.024
	c0.004,0.002,0.034,0.135,0.034,0.135v0.017c0,0.087-0.008,0.15-0.048,0.201c-0.037,0.053-0.093,0.091-0.172,0.114l-0.022,0.004
	c-0.004,0-0.273,0.021-0.273,0.021h-0.43h-0.081V29.826z M85.498,31.655v-0.784h0.539l0.351,0.036
	c0.075,0.027,0.132,0.068,0.179,0.131c0.043,0.063,0.069,0.139,0.069,0.226v0.013l-0.032,0.144c0,0.025-0.009,0.037-0.11,0.145
	l-0.009,0.014l-0.2,0.065c-0.012,0-0.197,0.01-0.197,0.01h-0.509H85.498z"/>
<path d="M10.069,99.229c0,1.388,0.067,2.467,0.208,3.241c0.132,0.78,0.418,1.394,0.849,1.846c0.432,0.45,1.061,0.79,1.887,1.036
	c0.823,0.244,1.941,0.504,3.353,0.778v0.623c-1.478-0.067-2.942-0.124-4.385-0.153c-1.448-0.036-2.913-0.056-4.394-0.056
	c-1.27,0-2.533,0.02-3.793,0.056c-1.254,0.029-2.52,0.086-3.793,0.153v-0.623c1.238-0.101,2.211-0.293,2.915-0.568
	c0.705-0.277,1.25-0.713,1.631-1.301c0.373-0.583,0.615-1.351,0.721-2.307c0.102-0.951,0.149-2.153,0.149-3.604V81.02
	c0-1.454-0.047-2.661-0.149-3.606c-0.106-0.953-0.348-1.721-0.721-2.31c-0.381-0.587-0.926-1.024-1.631-1.302
	C2.211,73.526,1.238,73.336,0,73.238v-0.623c0.48,0.033,1.118,0.071,1.909,0.103c0.794,0.034,1.61,0.061,2.451,0.078
	c0.847,0.017,1.656,0.025,2.425,0.025h1.889h11.205c1.755,0,3.304-0.025,4.648-0.079c1.341-0.053,2.753-0.094,4.231-0.127
	c-0.064,0.721-0.116,1.444-0.153,2.151c-0.038,0.71-0.052,1.411-0.052,2.102c0,0.898,0.014,1.788,0.052,2.674
	c0.038,0.879,0.089,1.773,0.153,2.669h-0.825c-0.552-1.975-1.266-3.504-2.141-4.594c-0.879-1.086-1.916-1.883-3.1-2.384
	c-1.185-0.501-2.537-0.804-4.054-0.91c-1.513-0.106-3.167-0.153-4.955-0.153c-0.584,0-1.175,0.016-1.755,0.047
	c-0.585,0.039-1.207,0.053-1.859,0.053v12.869H14.2c2.065,0,3.663-0.432,4.801-1.297c1.138-0.863,2.046-2.284,2.734-4.253h0.621
	c-0.1,2.353-0.151,4.703-0.151,7.057c0,1.242,0.004,2.394,0.027,3.45c0.014,1.053,0.058,2.185,0.124,3.397h-0.621
	c-0.342-1.277-0.701-2.344-1.081-3.189c-0.381-0.853-0.837-1.533-1.372-2.052c-0.53-0.518-1.179-0.902-1.934-1.144
	c-0.757-0.238-1.686-0.41-2.791-0.519c-0.308-0.033-0.634-0.055-0.981-0.074c-0.341-0.016-0.708-0.026-1.083-0.026h-2.425V99.229z"
	/>
<path d="M31.789,106.13c1.233-0.101,2.202-0.293,2.889-0.568c0.686-0.277,1.211-0.713,1.572-1.301
	c0.364-0.583,0.584-1.351,0.673-2.307c0.086-0.951,0.129-2.153,0.129-3.604V81.02c0-1.454-0.043-2.661-0.129-3.606
	c-0.088-0.953-0.309-1.721-0.673-2.31c-0.362-0.587-0.903-1.024-1.625-1.302c-0.72-0.277-1.702-0.467-2.942-0.565v-0.623
	c1.444,0.071,2.85,0.12,4.205,0.153c1.358,0.035,2.765,0.053,4.208,0.053c1.138,0,2.276-0.018,3.408-0.053
	c1.138-0.033,2.257-0.082,3.359-0.153v0.623c-1.207,0.098-2.154,0.288-2.84,0.565c-0.69,0.278-1.207,0.714-1.549,1.302
	c-0.348,0.588-0.566,1.356-0.644,2.31c-0.093,0.945-0.132,2.152-0.132,3.606v17.329c0,1.45,0.039,2.653,0.132,3.604
	c0.079,0.956,0.309,1.724,0.67,2.307c0.362,0.588,0.905,1.024,1.624,1.301c0.722,0.276,1.724,0.467,2.995,0.568v0.623
	c-1.307-0.067-2.614-0.124-3.925-0.153c-1.307-0.036-2.616-0.056-3.922-0.056c-1.27,0-2.529,0.02-3.77,0.056
	c-1.24,0.029-2.48,0.086-3.713,0.153V106.13z"/>
<path d="M49.989,89.681c0-2.799,0.505-5.306,1.523-7.523c1.01-2.211,2.38-4.09,4.104-5.626c1.716-1.542,3.742-2.719,6.065-3.53
	c2.325-0.815,4.793-1.217,7.412-1.217c2.614,0,5.086,0.402,7.409,1.217c2.323,0.811,4.345,1.988,6.064,3.53
	c1.724,1.536,3.091,3.415,4.104,5.626c1.015,2.217,1.526,4.724,1.526,7.523c0,2.807-0.511,5.313-1.526,7.527
	c-1.013,2.213-2.379,4.088-4.104,5.625c-1.718,1.537-3.741,2.72-6.064,3.525c-2.323,0.814-4.795,1.223-7.409,1.223
	c-2.618,0-5.086-0.408-7.412-1.223c-2.323-0.805-4.349-1.988-6.065-3.525c-1.723-1.537-3.093-3.412-4.104-5.625
	C50.494,94.994,49.989,92.488,49.989,89.681 M55.458,89.681c0,2.113,0.311,4.135,0.926,6.073c0.625,1.936,1.519,3.636,2.687,5.108
	c1.171,1.474,2.598,2.651,4.286,3.53c1.688,0.88,3.598,1.32,5.735,1.32c2.128,0,4.04-0.441,5.731-1.32
	c1.69-0.879,3.116-2.057,4.284-3.53c1.168-1.472,2.064-3.171,2.683-5.108c0.619-1.938,0.929-3.96,0.929-6.073
	c0-2.109-0.311-4.131-0.929-6.069c-0.619-1.936-1.515-3.638-2.683-5.112c-1.168-1.47-2.594-2.643-4.284-3.526
	c-1.691-0.886-3.603-1.324-5.731-1.324c-2.137,0-4.047,0.439-5.735,1.324c-1.689,0.883-3.115,2.057-4.286,3.526
	c-1.168,1.474-2.062,3.176-2.687,5.112C55.769,85.551,55.458,87.572,55.458,89.681"/>
<path d="M126.707,106.545h-9.294c-2.159-2.388-4.17-4.835-6.011-7.339c-1.842-2.511-3.489-5.163-4.928-7.967
	c-0.344,0-0.782-0.03-1.325-0.102c-0.529-0.07-1.082-0.148-1.647-0.233c-0.57-0.084-1.116-0.192-1.651-0.312
	c-0.541-0.121-0.971-0.236-1.319-0.338v8.096c0,1.45,0.041,2.653,0.126,3.604c0.084,0.956,0.312,1.724,0.676,2.307
	c0.361,0.588,0.905,1.024,1.622,1.301c0.731,0.276,1.722,0.467,3,0.568v0.623c-1.315-0.073-2.619-0.124-3.927-0.153
	c-1.315-0.036-2.616-0.056-3.925-0.056c-1.27,0-2.53,0.02-3.772,0.056c-1.234,0.029-2.476,0.08-3.714,0.153v-0.623
	c1.238-0.101,2.203-0.293,2.893-0.568c0.688-0.277,1.212-0.713,1.572-1.301c0.363-0.583,0.582-1.351,0.666-2.307
	c0.092-0.951,0.132-2.153,0.132-3.604V81.02c0-1.454-0.04-2.661-0.132-3.606c-0.084-0.953-0.303-1.721-0.666-2.31
	c-0.36-0.587-0.885-1.024-1.572-1.302c-0.69-0.27-1.655-0.467-2.893-0.565v-0.623c1.099,0.071,2.203,0.12,3.302,0.153
	c1.1,0.035,2.205,0.053,3.309,0.053c0.482,0,1.081-0.025,1.805-0.079c0.72-0.053,1.489-0.112,2.3-0.178
	c0.805-0.071,1.622-0.132,2.448-0.185c0.83-0.051,1.566-0.075,2.219-0.075c1.486,0,3.001,0.189,4.549,0.567
	c1.543,0.38,2.937,0.988,4.183,1.817c1.236,0.834,2.248,1.882,3.046,3.166c0.788,1.277,1.187,2.802,1.187,4.566
	c0,1.212-0.22,2.277-0.646,3.216c-0.433,0.932-1.013,1.746-1.734,2.44c-0.715,0.689-1.568,1.261-2.557,1.711
	c-0.976,0.447-2.003,0.777-3.068,0.985c0.485,0.827,1.047,1.765,1.704,2.801c0.65,1.038,1.383,2.093,2.196,3.167
	c0.808,1.071,1.667,2.134,2.577,3.187c0.908,1.058,1.876,2.01,2.892,2.856c1.017,0.847,2.054,1.555,3.126,2.129
	c1.07,0.569,2.149,0.908,3.247,1.01V106.545z M100.533,88.491c1.549,0.584,3.156,0.885,4.799,0.885c2.689,0,4.769-0.625,6.254-1.875
	c1.474-1.242,2.215-3.263,2.215-6.063c0-1.146-0.214-2.172-0.646-3.092c-0.424-0.916-1.02-1.711-1.779-2.389
	c-0.763-0.67-1.625-1.19-2.612-1.553c-0.973-0.364-2-0.545-3.064-0.545c-0.867,0-1.708,0.036-2.539,0.102
	c-0.818,0.069-1.63,0.222-2.422,0.47c-0.071,1.659-0.121,3.336-0.159,5.032c-0.033,1.695-0.047,3.529-0.047,5.499V88.491z"/>
<path d="M129.563,106.13c1.24-0.101,2.205-0.293,2.895-0.568c0.688-0.277,1.209-0.713,1.576-1.301
	c0.358-0.583,0.582-1.351,0.669-2.307c0.087-0.951,0.133-2.153,0.133-3.604V81.02c0-1.454-0.046-2.661-0.133-3.606
	c-0.087-0.953-0.311-1.721-0.669-2.31c-0.367-0.587-0.908-1.024-1.623-1.302c-0.729-0.277-1.709-0.467-2.952-0.565v-0.623
	c1.445,0.071,2.846,0.12,4.208,0.153c1.362,0.035,2.763,0.053,4.214,0.053c1.136,0,2.269-0.018,3.403-0.053
	c1.14-0.033,2.256-0.082,3.353-0.153v0.623c-1.199,0.098-2.143,0.288-2.828,0.565c-0.698,0.278-1.215,0.714-1.551,1.302
	c-0.35,0.588-0.568,1.356-0.647,2.31c-0.088,0.945-0.133,2.152-0.133,3.606v17.329c0,1.45,0.045,2.653,0.133,3.604
	c0.079,0.956,0.301,1.724,0.674,2.307c0.35,0.588,0.892,1.024,1.62,1.301c0.726,0.276,1.722,0.467,2.992,0.568v0.623
	c-1.307-0.067-2.608-0.124-3.921-0.153c-1.313-0.036-2.616-0.056-3.917-0.056c-1.283,0-2.539,0.02-3.773,0.056
	c-1.24,0.029-2.482,0.086-3.722,0.153V106.13z"/>
<path d="M145.191,74.855c-1.78,0-3.24,1.45-3.24,3.239c0,1.784,1.461,3.241,3.24,3.241c1.791,0,3.243-1.457,3.243-3.241
	C148.434,76.306,146.982,74.855,145.191,74.855 M145.191,80.828c-1.505,0-2.733-1.23-2.733-2.734c0-1.508,1.228-2.738,2.733-2.738
	c1.513,0,2.741,1.23,2.741,2.738C147.932,79.598,146.704,80.828,145.191,80.828"/>
<path d="M146.298,78.043l-0.159-0.083l0.137-0.112c0.025-0.027,0.054-0.043,0.084-0.065c0.047-0.038,0.099-0.077,0.122-0.112
	c0.081-0.141,0.136-0.297,0.136-0.469c0-0.178-0.06-0.35-0.154-0.507c-0.096-0.169-0.236-0.291-0.416-0.372
	c-0.175-0.073-0.415-0.114-0.704-0.114h-1.425v3.785h1.448l0.613-0.066c0.067-0.028,0.36-0.162,0.426-0.197
	c0.12-0.085,0.197-0.197,0.271-0.348c0.081-0.157,0.126-0.322,0.126-0.5c0-0.226-0.073-0.428-0.191-0.586
	C146.542,78.202,146.433,78.121,146.298,78.043 M144.5,76.736h0.691l0.547,0.051c0.102,0.033,0.181,0.088,0.234,0.177l0.009,0.028
	v0.033c0.006,0.002,0.057,0.204,0.057,0.204l0.007,0.035c0,0.123-0.03,0.22-0.089,0.298c-0.05,0.075-0.141,0.136-0.255,0.166
	l-0.026,0.004c-0.018,0.002-0.415,0.033-0.415,0.033h-0.638H144.5V76.736z M146.204,78.909l-0.057,0.217
	c0,0.033-0.013,0.049-0.153,0.209l-0.018,0.026l-0.3,0.097c-0.018,0-0.299,0.013-0.299,0.013h-0.754H144.5v-1.176h0.808l0.521,0.056
	c0.121,0.041,0.206,0.102,0.271,0.196c0.067,0.099,0.104,0.209,0.104,0.334V78.909z"/>
<g>
	<path d="M52.343,113.695v2.196h-0.23c-0.184-0.682-0.48-1.184-0.886-1.506c-0.407-0.322-0.948-0.483-1.625-0.483
		c-0.879,0-1.575,0.301-2.089,0.904c-0.514,0.602-0.771,1.406-0.771,2.41c0,1.101,0.271,1.986,0.814,2.658
		c0.543,0.671,1.253,1.007,2.132,1.007c1.216,0,2.115-0.54,2.695-1.619l0.204,0.182c-0.26,0.586-0.678,1.049-1.256,1.39
		c-0.577,0.341-1.235,0.512-1.973,0.512c-0.698,0-1.345-0.157-1.94-0.471c-0.596-0.314-1.054-0.746-1.377-1.296
		c-0.323-0.55-0.484-1.183-0.484-1.898c0-1.171,0.378-2.141,1.133-2.909c0.756-0.767,1.709-1.151,2.86-1.151
		c0.387,0,0.876,0.065,1.47,0.195c0.334,0.075,0.564,0.113,0.691,0.113c0.198,0,0.336-0.078,0.415-0.232H52.343z"/>
	<path d="M53.833,117.447c0-1.092,0.395-2.003,1.186-2.733c0.791-0.73,1.777-1.095,2.958-1.095c1.147,0,2.117,0.37,2.91,1.111
		c0.793,0.741,1.19,1.646,1.19,2.717c0,1.092-0.4,2.014-1.2,2.768c-0.799,0.753-1.777,1.13-2.932,1.13
		c-1.151,0-2.124-0.377-2.919-1.13C54.23,119.462,53.833,118.539,53.833,117.447z M55.019,117.46c0,1.075,0.268,1.944,0.804,2.607
		c0.536,0.663,1.239,0.995,2.109,0.995c0.879,0,1.591-0.339,2.138-1.017c0.547-0.678,0.82-1.523,0.82-2.535
		c0-1.088-0.268-1.961-0.804-2.62c-0.536-0.66-1.23-0.989-2.082-0.989c-0.905,0-1.629,0.324-2.171,0.973
		C55.29,115.523,55.019,116.385,55.019,117.46z"/>
	<path d="M70.596,113.801h1.825v0.213c-0.58,0.013-0.87,0.339-0.87,0.979c0,0.054,0.002,0.111,0.007,0.169l0.389,4.537
		c0.044,0.484,0.131,0.805,0.261,0.965c0.13,0.16,0.363,0.254,0.702,0.284v0.213h-2.781v-0.213c0.294-0.046,0.503-0.139,0.624-0.278
		c0.122-0.139,0.182-0.351,0.182-0.637c0-0.059-0.002-0.124-0.007-0.196l-0.414-4.761l-2.648,6.085h-0.203l-2.613-6.07l-0.435,4.527
		c-0.004,0.071-0.006,0.138-0.006,0.201c0,0.635,0.335,1.012,1.006,1.129v0.213h-2.405v-0.213c0.321-0.042,0.552-0.15,0.695-0.323
		c0.143-0.173,0.24-0.517,0.293-1.032l0.468-5.064c-0.273-0.28-0.609-0.452-1.009-0.515v-0.213h1.959l2.473,5.792L70.596,113.801z"
		/>
	<path d="M73.791,113.801h2.82c0.923,0,1.653,0.195,2.191,0.584c0.538,0.389,0.807,0.891,0.807,1.506
		c0,0.611-0.235,1.081-0.705,1.409c-0.47,0.328-1.144,0.492-2.023,0.492c-0.338,0-0.734-0.025-1.186-0.075v2.062
		c0,0.444,0.063,0.75,0.188,0.918c0.125,0.168,0.355,0.252,0.689,0.252v0.213h-2.781v-0.213c0.334,0,0.563-0.088,0.689-0.264
		c0.125-0.176,0.188-0.469,0.188-0.88v-4.617c0-0.44-0.063-0.746-0.188-0.917c-0.126-0.172-0.355-0.258-0.689-0.258V113.801z
		 M76.651,114.084h-0.956v3.301c0.259,0.084,0.577,0.126,0.956,0.126c0.58,0,1.038-0.142,1.374-0.427s0.504-0.674,0.504-1.167
		c0-0.531-0.167-0.97-0.5-1.314C77.694,114.256,77.235,114.084,76.651,114.084z"/>
	<path d="M84.011,121.163v-0.213c0.443,0,0.665-0.147,0.665-0.44c0-0.084-0.02-0.179-0.059-0.283l-0.718-2.044h-2.481l-0.528,1.478
		c-0.132,0.373-0.198,0.644-0.198,0.811c0,0.31,0.204,0.47,0.611,0.478v0.213h-1.996v-0.213c0.286-0.038,0.508-0.128,0.666-0.27
		c0.159-0.143,0.319-0.438,0.482-0.887l2.138-6.072h0.795l2.244,6.342c0.132,0.374,0.269,0.614,0.412,0.723
		c0.143,0.109,0.373,0.164,0.689,0.164v0.213H84.011z M81.561,117.73h2.18l-1.096-3.119L81.561,117.73z"/>
	<path d="M93.184,114.015v-0.213h2.332v0.213c-0.373,0-0.632,0.084-0.778,0.251c-0.145,0.167-0.217,0.471-0.217,0.91v5.987h-0.237
		l-5.476-6.401v5.17c0,0.365,0.078,0.625,0.234,0.782c0.156,0.157,0.416,0.236,0.78,0.236v0.213h-2.346v-0.213
		c0.374,0,0.626-0.093,0.758-0.28c0.132-0.186,0.197-0.514,0.197-0.983v-4.309c0-0.464-0.089-0.799-0.267-1.002
		c-0.177-0.203-0.471-0.323-0.88-0.361v-0.213h1.984l4.856,5.73v-4.305c0-0.452-0.067-0.767-0.201-0.945
		C93.791,114.104,93.544,114.015,93.184,114.015z"/>
	<path d="M102.059,114.849l-1.739,2.611v2.32c0,0.449,0.06,0.756,0.181,0.921c0.12,0.165,0.343,0.248,0.669,0.248v0.213h-2.82
		v-0.213c0.382,0,0.636-0.088,0.761-0.264c0.125-0.176,0.188-0.478,0.188-0.905v-2.32l-1.648-2.441
		c-0.272-0.406-0.494-0.671-0.665-0.797c-0.172-0.126-0.408-0.195-0.712-0.207v-0.213h3.025v0.213c-0.532,0-0.797,0.115-0.797,0.345
		c0,0.104,0.052,0.234,0.158,0.389l1.528,2.23l1.224-1.848c0.18-0.276,0.27-0.512,0.27-0.709c0-0.272-0.171-0.407-0.512-0.407
		v-0.213h2.122v0.213c-0.286,0.017-0.506,0.076-0.662,0.179C102.474,114.296,102.284,114.514,102.059,114.849z"/>
</g>
</svg>
