<svg xmlns="http://www.w3.org/2000/svg" viewBox="0 0 148.434 121.192"><path d="M62.005 7.824c.143-.077.279-.171.403-.301a.583.583 0 0 0 .193-.418.856.856 0 0 0-.101-.431c-.098-.212-.239-.349-.426-.407a.747.747 0 0 0-.566.055 1.075 1.075 0 0 0-.263.185l.658 1.361c.044-.021.076-.035.102-.044m29.399 36.294c-.407-.36-.784-.572-1.138-.629-.349-.061-.623.028-.825.263-.185.208-.25.479-.175.81.077.334.334.703.795 1.098.423.375.813.586 1.158.633.34.045.611-.049.805-.268.194-.223.25-.501.163-.844-.093-.335-.353-.688-.783-1.063m-32.053 4.955a.62.62 0 0 0-.458.046.929.929 0 0 0-.324.299c-.135.194-.181.387-.135.575a.718.718 0 0 0 .334.465c.079.049.175.095.289.136l.847-1.254c-.045-.031-.067-.054-.093-.065a1.543 1.543 0 0 0-.46-.202m9.756-43.6c.643-.092.932-.413.848-.965-.038-.244-.12-.417-.246-.521a.555.555 0 0 0-.425-.124c-.11.016-.234.061-.389.134.014.189.033.387.067.593.022.171.07.464.145.883m-10.113 5.922c.332.135.623.114.872-.07.229-.163.343-.416.35-.754 0-.344-.175-.757-.529-1.248-.336-.46-.67-.75-.99-.868-.326-.12-.613-.095-.853.082-.242.175-.352.434-.342.783.014.349.189.752.525 1.214.32.44.64.729.967.861m38.623 18.814l-1.231-.564-.041.998c.152-.043.353-.112.621-.208.285-.102.503-.181.651-.226M52.414 43.714a.436.436 0 0 0-.203.305.397.397 0 0 0 .063.299.325.325 0 0 0 .22.134.356.356 0 0 0 .271-.073c.159-.11.244-.369.269-.764-.254-.046-.459-.014-.62.099m2.44-1.368c-.121-.171-.336-.3-.648-.394a4.493 4.493 0 0 0-.471 1.631c.343.1.62.073.836-.082.169-.121.293-.295.369-.524a.686.686 0 0 0-.086-.631M69.39 5.636a4.556 4.556 0 0 0-.253.055c.043.393.077.719.124.984.049.344.086.541.126.588.033.049.124.059.271.042.275-.042.46-.143.574-.305.11-.161.153-.368.117-.619a.924.924 0 0 0-.294-.592c-.161-.14-.387-.189-.665-.153m3.22 45.621c-.273 0-.519.127-.727.397-.207.273-.313.713-.315 1.319-.005.57.085.999.273 1.289.197.291.442.436.731.442.305.002.547-.141.746-.43.194-.285.294-.716.298-1.282.008-.546-.081-.971-.264-1.277-.178-.3-.43-.454-.742-.458"/><path d="M72.857 2.014c-15.013 0-27.177 12.162-27.177 27.171 0 14.999 12.164 27.169 27.177 27.169 15.001 0 27.16-12.169 27.16-27.169.001-15.01-12.158-27.171-27.16-27.171m25.136 24.154c.121-.054.184-.177.17-.363l-.009-.077c-.005-.065.019-.103.076-.106.052-.006.083.047.097.157l.224 3.103-.841.207-.043.01c-.052.005-.078-.016-.078-.051 0-.025.01-.053.051-.084.218-.158.381-.336.491-.529.114-.191.152-.49.124-.897-.018-.283-.065-.436-.13-.463-.059-.031-.519-.014-1.388.049.02.208.047.368.083.478a.51.51 0 0 0 .169.248c.079.06.22.104.419.137.053.01.08.031.086.061.004.058-.033.087-.1.093l-.906.045c-.315.017-.482.022-.505.014a.062.062 0 0 1-.04-.06c-.004-.049.031-.081.11-.094a.677.677 0 0 0 .397-.211c.098-.104.124-.34.104-.697l-1.051.075a1.702 1.702 0 0 0-.429.075.38.38 0 0 0-.172.145.75.75 0 0 0-.027.277.724.724 0 0 1-.004.177c-.01.023-.032.038-.069.039-.059.004-.09-.033-.101-.122-.007-.076-.007-.224-.011-.438 0-.183-.005-.322-.014-.413l-.096-.893c-.004-.089.023-.138.07-.141.059-.002.081.051.097.164.017.189.116.297.287.325.161.024.753 0 1.784-.079.661-.047 1.051-.102 1.175-.161m-2.031-4.897a.818.818 0 0 1 .403.471.794.794 0 0 1-.059.618.804.804 0 0 1-1.487-.128.743.743 0 0 1 .055-.618.771.771 0 0 1 .471-.397.774.774 0 0 1 .617.054m-2.137-6.701c-.023-.055-.013-.093.018-.118.051-.029.092-.014.127.045l.33.594 1.18 1.954c-.216.204-.439.406-.662.609-.043.027-.087.02-.108-.027-.017-.025-.017-.067.016-.128.137-.311.204-.558.2-.745-.009-.187-.088-.407-.251-.667a2.037 2.037 0 0 0-.285-.395c-.301.14-.623.315-.967.521l-.283.181.106.187c.069.113.146.204.224.268a.538.538 0 0 0 .332.091c.134-.006.218-.014.253-.024.063-.015.101-.004.128.031.022.045.018.077-.019.104-.008.006-.028.008-.042.014-.111.043-.414.214-.919.517a.79.79 0 0 0-.17.135c-.018.01-.028.018-.042.028-.04.028-.08.013-.116-.036-.023-.04.009-.093.08-.161a.65.65 0 0 0 .216-.429c.001-.163-.069-.368-.21-.619-.276.155-.456.262-.545.314-.364.222-.584.358-.647.413-.063.051-.09.128-.09.222 0 .101.049.23.152.401.373.613.815.898 1.322.859.065-.008.116.01.138.038.025.049.016.08-.016.107a.512.512 0 0 1-.113.044l-.787.263-.528-.878c-.15-.247-.279-.479-.399-.697a6.21 6.21 0 0 0-.296-.514 8.82 8.82 0 0 0-.391-.595c-.025-.034-.043-.058-.047-.075-.053-.077-.049-.126.004-.158.043-.027.09-.012.126.049.094.16.202.238.318.24.116.006.304-.075.565-.231l1.252-.739c.421-.258.682-.419.772-.49.093-.07.144-.135.15-.206a.764.764 0 0 0-.076-.297M56.987 41.205a19.825 19.825 0 0 1-4.045-12.02c0-4.479 1.486-8.61 3.976-11.938.826.095 1.648.399 2.467.912.736-.082 1.474-.114 2.37.12a.997.997 0 0 0-.155.384c-.005.025-.005.058-.01.086-.277.023-.538.07-.788.143.24.018.491.004.793-.082.01.13.049.266.128.383-.24.09-.47.201-.688.321.203.234.386.475.539.719.129-.242.301-.483.499-.727.08.045.179.069.274.084a5.783 5.783 0 0 0-.316 1.576c.171.482.259.985.259 1.51v.222c.109.307.249.621.423.937 1.23 2.146 3.492 2.555 4.163 4.191.513-1.34.558-2.256.32-2.986.207.371.41.572.605.391 1.305-1.169 1.002-2.665 3.093-3.52-.501-.141-.428-.784-.069-1.175-1.156-.312-1.637-.472-2.911-.733-.538-.122-1.009-.983-2.001-.399a.492.492 0 0 0-.249.268c-.942-.222-1.103-1.141-1.122-1.575.216.239.369.368.407.401.485.391.989.334 1.287.086.376.399 1.14.518 1.592.743.416.199 3.062.973 3.122.902.645-.679.249-2.741 0-4.31h-2.942c-.008.01-.028.023-.04.031-.45.291-1.305.902-1.709 1.437-.024-.028-.056-.047-.085-.071a.809.809 0 0 0-1.122.202c-.008.014-.016.032-.028.043-.055-.049-.098-.102-.153-.157a.544.544 0 0 0-.194-.823.555.555 0 0 0-.505.008 6.48 6.48 0 0 1-.393-.67h-.509c.069.209.145.403.226.589a1.4 1.4 0 0 1 .004.562.543.543 0 0 0-.551-.312c.164-.267.26-.58.281-.839h-.51c-.119.152-.263.222-.432.152a.58.58 0 0 0-.32-.061c-.021-.014-.038-.027-.058-.036a.544.544 0 0 0-.188-.054h-.101a.549.549 0 0 0-.201 1.035c.129.243.421.434.904.318.047-.012.088-.033.134-.051a.547.547 0 0 0 .158.47.813.813 0 0 0-.607.131c-.693-.714-1.313-1.391-1.959-1.902h-2.213c3.647-4.191 9.022-6.845 15.023-6.845 6.008 0 11.401 2.671 15.052 6.89a2.368 2.368 0 0 1-.571.403c.086-.202.146-.358.175-.448H85.74c.033.02.098.031.204.043-1.305 3.781-4.575 3.897-5.982 3.758-1.034-.368-2.198-1.33-2.198-1.33l-.006.013c-.33-.929-.762-1.537-1.152-1.173-.644.566-1.273 1.497-2.081 1.987-.454.267-1.164.795-1.378 1.158-.7 1.207 2.02 1.627 2.718 1.896.059.026.131.063.221.111v-4.277h.983l.635.421.134.09 1.521 1.014.244.161 2.209 1.472.188.116.279.268 2.061 1.963c.201.063.331.071.362.009.156-.384-.149-.995-.375-1.362.081.011.153.022.226.025.218.036.46.228.305.456-.124.179-.042.371.107.468a.254.254 0 0 0 .103.031c-.092.304-.175.734-.103.965l.162.149a.295.295 0 0 0 .12-.005c.242-.056.461-.133.682-.235.179-.074.553-.195.566-.461 0-.038-.037-.087-.076-.138.021-.008.045-.024.072-.035.029.027.052.051.075.075.09.086.124-.049.273-.051.032-.329.01-.616-.041-.924-.01-.037-.018-.1-.025-.163.049.022.088.045.134.073.067.307.208.571-.004 1.007.135-.069.246.086.246.239a.815.815 0 0 0 .112-.059c.021.022.039.045.063.065a.774.774 0 0 0-.144.088c-.008.357.354.285.643.574.252.25.755-.203.839-.499.05-.197.158-.36.063-.513-.08-.132-.191-.146-.312-.118.006-.097 0-.197-.025-.311-.07-.285-.3-.506-.574-.657a.126.126 0 0 0-.014-.031c-.067-.169-.485-.295-.727-.267.189-.063.37-.135.549-.216.575-.128 1.344.117 1.189.831a.841.841 0 0 0 .082.594v-1.765a2.47 2.47 0 0 0-.486-.004.662.662 0 0 0 .156-.195c.122-.088.234-.169.33-.248v-3.795a19.744 19.744 0 0 1 3.864 11.776c0 10.99-8.909 19.897-19.897 19.897a19.843 19.843 0 0 1-14.955-6.76.459.459 0 0 0 .251-.064c.814-.474.808-1.067.958-1.798-.712.404-1.417.653-2.127.745m6.759-21.631c.03.024.057.04.079.045a.32.32 0 0 0 .397-.139.324.324 0 0 0-.112-.442.332.332 0 0 0-.405.063.498.498 0 0 1-.098-.236 2.681 2.681 0 0 0 .231-1.441c-.001-.031-.01-.063-.015-.092.047.07.088.134.128.196.014.022.022.042.037.063.179.267.362.491.515.662-.132.771.057 1.792.519 2.221.263.248.556.393.828.458.158.375.336.77.413 1.13.089.468.36 1.586.678 2.417-.847-1.433-2.887-2.205-4.12-4.953.073-.022.156-.047.235-.086.215-.11.383-.287.509-.503-.039.191-.057.48.181.637m24.775.772c-.199.168-.342.334-.419.49-.045.088-.067.164-.091.244-1.031.831-2.115 1.128-3.136 1.134 1.409-.077-.354-1.673-2.475-2.101.47-.057.905-.146 1.297-.273v.004c.214-.061.511.024.462.295-.041.208.116.355.285.38.184.031.465-.18.275-.538-.104-.21-.393-.283-.621-.283.163-.061.324-.134.471-.209.281-.088.666 0 .618.354-.028.283.189.461.423.483.245.026.595-.283.314-.74-.179-.305-.653-.358-.973-.305.148-.087-.312.072-.177-.02.413-.193 1.63-.375 1.62.183-.006.44.359.682.725.674.374-.003.867-.525.362-1.192-.348-.448-1.132-.438-1.612-.285-.023.008-.051.015-.072.026.191-.164.36-.336.513-.504.232-.178.56-.282.841-.254a.56.56 0 0 0 .212.055c.179.077.316.226.367.477.097.463.474.68.857.694a.728.728 0 0 0-.179.176.809.809 0 0 0 .113 1.035m-2.639 2.821a.425.425 0 0 0-.026.102c-.015-.009-.038-.022-.049-.036-.144-.114-.242-.238-.383-.261-.047-.207-.252-.369-.448-.456.179.004.348.004.513-.003a.824.824 0 0 1 .202.055c-.066.063-.119.135-.106.208.039.22.155.304.297.391m-.017-.729c-.08-.017-.175-.036-.092-.051.045 0 .108 0 .179.008a.07.07 0 0 1-.037.014c-.014.007-.024.019-.05.029m-1.457-.244a5.799 5.799 0 0 1-.268-.024c-.009-.01-.009-.014-.009-.014.096.02.188.03.277.038m3.823-5.648a.25.25 0 0 0-.036.118.337.337 0 0 0 .214.344.413.413 0 0 1-.171.187 2.505 2.505 0 0 0-.836.115c-.037.015-.072.024-.1.038a3.106 3.106 0 0 0-.481.212.708.708 0 0 1-.078.054c.263-.369.448-.72.569-.995.244-.059.495-.163.731-.291.063.07.128.145.188.218m.092.654a.833.833 0 0 0 .321-.134c.084.108.165.216.247.33a1.211 1.211 0 0 0-.568-.196m2.458-5.757c.093-.104.138-.192.138-.262a.44.44 0 0 0-.091-.227c-.037-.057-.059-.094-.059-.112 0-.018.005-.04.025-.06.047-.037.09-.021.151.04l.568.704c.063.063.13.134.21.211.126.126.222.228.289.304.061.073.074.127.037.162-.037.031-.09.02-.137-.03a.376.376 0 0 0-.312-.137c-.108.01-.271.094-.502.265-.217.171-.454.365-.7.582-.409.35-.663.605-.771.765a.76.76 0 0 0-.113.534c.031.201.129.405.316.614.187.21.369.33.554.363.181.025.391-.024.618-.147.229-.13.603-.423 1.13-.883.3-.265.498-.476.582-.629.067-.15.061-.291-.024-.413-.063-.094-.073-.153-.041-.192.041-.034.095-.02.154.051.025.031.071.088.135.171.053.088.128.171.204.255a2.7 2.7 0 0 0 .244.26c.073.066.116.115.143.145.062.071.075.123.028.157-.028.027-.071.019-.126-.024a.381.381 0 0 0-.261-.106c-.109-.008-.247.04-.389.139-.153.106-.505.399-1.066.889-.372.326-.67.515-.9.587a1.042 1.042 0 0 1-.727-.049c-.25-.102-.492-.295-.73-.566a3.126 3.126 0 0 1-.426-.603c-.103-.189-.158-.362-.158-.52a.95.95 0 0 1 .1-.435c.07-.129.203-.281.399-.451l1.144-.985c.156-.134.278-.259.364-.367m-1.906-2.379c.483.377.745.817.794 1.319.045.498-.087.95-.403 1.347a1.86 1.86 0 0 1-.464.421 1.918 1.918 0 0 1-.571.253 2.62 2.62 0 0 1-.687.073 4.08 4.08 0 0 1-.764-.1l-.878-.201c.083.047.136.087.171.116a.995.995 0 0 1 .249.287c.067.12.155.309.253.57.067.183.124.293.148.334a.36.36 0 0 0 .119.124c.157.13.368.151.616.07.055-.019.099-.017.137.009.047.042.051.096.01.151-.042.051-.216.097-.531.139a1.062 1.062 0 0 1-.861-.239c-.245-.191-.436-.478-.575-.853-.095-.275-.171-.468-.21-.572a.777.777 0 0 0-.16-.23c-.08-.057-.155-.08-.224-.063-.077.014-.152.072-.242.177-.083.1-.164.155-.222.165-.069.012-.135-.01-.208-.073-.061-.047-.104-.105-.11-.178a.21.21 0 0 1 .043-.189c.179-.226.657-.232 1.421-.024.497.136.816.213.96.244a1.94 1.94 0 0 1-.382-.23 1.743 1.743 0 0 1-.521-.696 1.669 1.669 0 0 1-.119-.931c.049-.334.183-.64.409-.927.336-.423.78-.662 1.329-.722a1.943 1.943 0 0 1 1.473.429m-3.545-2.05c-.023-.061-.083-.132-.199-.212-.055-.042-.075-.083-.051-.128.033-.045.075-.049.135-.01.053.032.167.105.336.219.135.086.236.155.318.202l.757.421c.063.039.083.076.054.12-.024.042-.063.045-.128.018-.134-.063-.23-.084-.293-.079-.067.01-.147.07-.244.182-.1.114-.275.394-.538.836-.311.514-.529.915-.68 1.205-.149.289-.216.479-.206.577.012.092.069.175.185.242.083.049.106.093.083.134-.033.057-.094.061-.179.01-.024-.016-.058-.036-.104-.069a15.369 15.369 0 0 0-.605-.4 8.114 8.114 0 0 0-.556-.296c-.071-.031-.112-.055-.143-.067-.058-.037-.073-.078-.046-.128.022-.035.061-.045.114-.02.152.066.264.079.348.048.085-.028.204-.153.336-.372.152-.221.36-.566.638-1.047.302-.497.485-.839.576-1.018.075-.182.107-.303.092-.368m-4.938 1.467c.012-.051.059-.061.132-.031.15.063.278.08.383.049a.474.474 0 0 0 .272-.246c.078-.132.213-.431.412-.901.306-.734.548-1.346.693-1.829a4.348 4.348 0 0 0-.638-.227.78.78 0 0 0-.443.039 1.294 1.294 0 0 0-.461.289c-.058.053-.109.069-.144.055-.067-.028-.078-.065-.06-.118.009-.015.07-.124.181-.328.113-.205.208-.372.296-.499a83.69 83.69 0 0 0 1.988.883c.326.137.689.278 1.094.424a6.882 6.882 0 0 1 .524.214c-.013.077-.068.23-.137.46l-.135.426c-.03.067-.064.089-.132.065-.039-.017-.063-.076-.067-.177a1.737 1.737 0 0 0-.098-.47.828.828 0 0 0-.281-.349 3.648 3.648 0 0 0-.653-.337c-.145.254-.3.584-.469.982a45.48 45.48 0 0 0-.47 1.192c-.144.383-.218.619-.228.708-.011.088 0 .161.042.22.035.058.155.141.34.238.069.029.095.07.077.114-.019.049-.061.061-.119.039l-.075-.037-.531-.242a46.283 46.283 0 0 0-.766-.317l-.332-.125a3.626 3.626 0 0 1-.165-.073c-.033-.021-.05-.055-.03-.091M76.248 6.23l.328-1.469c.041-.206.069-.379.073-.517.012-.135-.008-.232-.049-.284a.41.41 0 0 0-.208-.13c-.059-.023-.101-.043-.108-.059-.024-.014-.024-.035-.016-.065.016-.051.051-.072.138-.055l.882.22c.081.021.181.036.293.051.173.024.312.047.413.068.088.022.134.055.12.111-.014.047-.053.064-.124.054-.135-.023-.246.004-.33.077-.088.07-.163.243-.24.511-.076.269-.156.562-.222.888-.114.525-.169.88-.158 1.073.014.191.09.355.225.495.146.144.35.246.622.303.271.061.489.049.654-.042.17-.086.299-.245.409-.483.114-.242.242-.696.387-1.378.091-.399.118-.684.091-.851-.034-.169-.123-.274-.27-.318-.106-.037-.157-.082-.143-.132.015-.059.069-.071.147-.055.043.01.116.033.211.065.107.031.206.053.324.082.102.022.212.04.35.06.097.012.165.021.2.029.087.022.127.059.116.11-.003.043-.051.061-.11.053a.432.432 0 0 0-.28.075c-.094.063-.171.175-.226.347-.063.172-.175.622-.325 1.345-.11.479-.228.817-.376 1.012-.141.193-.346.321-.614.394-.262.065-.564.058-.924-.019a3.074 3.074 0 0 1-.699-.231 1.166 1.166 0 0 1-.431-.33.939.939 0 0 1-.181-.405c-.026-.143-.008-.341.051-.6m-4.079-2.216c.399-.377.888-.56 1.47-.544.377.012.707.097.988.259.275.158.503.389.669.679.165.294.246.613.233.953-.017.528-.22.99-.632 1.383a1.947 1.947 0 0 1-1.481.574 1.948 1.948 0 0 1-1.342-.545c-.369-.348-.54-.807-.522-1.381a1.887 1.887 0 0 1 .617-1.378m-4.557-.027c.043-.017.165-.041.367-.067.38-.052.72-.118 1.044-.189.188-.043.34-.07.458-.088.34-.047.629-.014.849.108a.727.727 0 0 1 .399.572c.065.435-.22.796-.847 1.08.401.029.708.11.916.252a.812.812 0 0 1 .383.599.886.886 0 0 1-.124.61c-.109.192-.273.33-.468.419-.199.088-.487.161-.881.216l-.448.049a5.41 5.41 0 0 0-.399.042 7.49 7.49 0 0 0-.692.136c-.068.006-.115-.014-.122-.065-.004-.042.022-.071.083-.087a.87.87 0 0 0 .245-.1.275.275 0 0 0 .107-.142c.032-.065.032-.167.009-.297l-.164-1.311a37.55 37.55 0 0 0-.15-.97c-.049-.244-.086-.399-.124-.465-.027-.069-.066-.114-.11-.135-.051-.023-.12-.03-.202-.023a.308.308 0 0 1-.143-.006c-.026-.008-.038-.029-.046-.054-.003-.043.017-.07.06-.084m-7.526 2.85c.485-.227.883-.434 1.201-.619.145-.079.273-.146.393-.207.385-.187.727-.253 1.02-.206a.78.78 0 0 1 .618.442c.078.169.102.34.063.525-.041.181-.12.34-.249.48a1.943 1.943 0 0 1-.486.387c.246-.077.468-.1.673-.063.191.036.404.193.633.474.216.259.385.421.509.473a.51.51 0 0 0 .41-.006c.08-.034.142-.025.16.02a.078.078 0 0 1 .006.035.1.1 0 0 1 .047-.043c.146-.071.237-.146.27-.232.03-.079.008-.245-.069-.5-.069-.251-.191-.64-.362-1.165-.188-.548-.32-.913-.399-1.098-.086-.179-.157-.284-.214-.309-.065-.031-.163-.027-.289.006-.072.016-.116 0-.131-.053-.014-.045.009-.08.076-.102l.392-.112c.151-.042.271-.075.363-.105l.812-.295c.068-.023.114-.011.128.035.013.045-.006.082-.069.11-.134.062-.22.118-.258.171a.498.498 0 0 0-.024.299c.024.155.118.472.281.965.183.562.341.998.46 1.301.118.299.218.476.299.535.079.049.183.056.313.017.08-.031.134-.022.153.028.017.059-.02.109-.112.138-.029.008-.07.022-.118.037a12.42 12.42 0 0 0-.699.192c-.276.09-.47.167-.6.224-.061.029-.109.047-.134.057-.069.023-.108.008-.128-.043-.001-.015-.001-.035.006-.047-.014.039-.069.078-.16.122l-.993.445c-.156-.054-.309-.198-.476-.442-.207-.312-.371-.524-.486-.638a.614.614 0 0 0-.369-.185.817.817 0 0 0-.403.081c-.037.02-.086.047-.15.087.288.594.466.961.535 1.098.071.138.144.221.226.262.08.034.194.019.343-.042.074-.038.128-.028.151.018.022.046 0 .086-.069.117l-.791.358c-.105.05-.237.122-.394.208a4.965 4.965 0 0 1-.286.149c-.069.034-.114.028-.139-.021-.024-.045-.006-.086.059-.114a.537.537 0 0 0 .226-.201c.057-.086 0-.307-.169-.66l-.234-.472-.437-.916c-.23-.471-.384-.749-.482-.833-.088-.085-.224-.085-.41 0-.069.033-.118.023-.141-.024-.023-.047.008-.096.104-.143m-3.154 2.836c.083-.543.36-.987.826-1.323a2.08 2.08 0 0 1 .944-.401c.32-.047.637 0 .947.132.31.134.565.336.768.613.304.426.421.92.344 1.482a1.96 1.96 0 0 1-.823 1.354c-.437.311-.897.439-1.397.389-.504-.053-.924-.308-1.264-.775a1.89 1.89 0 0 1-.345-1.471m-2.488 1.584a5.93 5.93 0 0 1 .304-.273c.117-.102.21-.187.279-.25l.605-.617c.053-.055.095-.061.134-.024.029.034.024.076-.016.127-.094.114-.145.203-.155.262-.01.069.027.159.108.287.085.123.303.371.661.745.417.428.747.752.981.973.242.22.405.338.499.353.098.016.192-.024.287-.116.064-.066.116-.08.151-.043.047.046.034.104-.041.174-.018.02-.049.047-.088.082a13.64 13.64 0 0 0-.551.478 6.748 6.748 0 0 0-.438.456c-.042.055-.072.095-.1.118-.049.045-.095.051-.129.01-.028-.033-.022-.069.012-.114.1-.128.146-.236.141-.322-.012-.089-.1-.232-.273-.427a38.701 38.701 0 0 0-.837-.89c-.41-.419-.684-.694-.839-.822-.148-.122-.258-.187-.32-.187-.069.002-.155.043-.258.127-.057.047-.102.051-.137.014-.037-.033-.03-.074.02-.121m-2.421 2.881l1.961-2.411.753.428.033.022c.047.034.054.071.03.095-.015.021-.043.029-.096.021a1.83 1.83 0 0 0-.72.049c-.209.063-.444.251-.71.568-.175.22-.247.36-.222.423.022.063.369.367 1.041.917a2.02 2.02 0 0 0 .268-.4.447.447 0 0 0 .045-.299c-.018-.092-.087-.222-.205-.385-.038-.045-.042-.077-.022-.104.033-.039.084-.039.135.006l.69.584c.235.202.359.312.373.34a.06.06 0 0 1-.014.068c-.033.038-.075.036-.142-.005a.72.72 0 0 0-.435-.127c-.139.018-.326.161-.554.439l.813.667c.156.131.281.21.368.246.084.027.157.035.224.006a.833.833 0 0 0 .211-.178.525.525 0 0 1 .122-.122c.023-.012.049-.006.077.013.045.04.041.091-.01.157-.049.059-.15.171-.293.332a4.646 4.646 0 0 0-.273.307l-.541.705c-.054.072-.109.092-.15.055-.04-.033-.024-.09.041-.183.112-.149.124-.294.018-.424-.102-.135-.55-.527-1.345-1.174-.517-.423-.837-.652-.972-.697-.126-.042-.25.008-.367.153l-.047.059c-.041.055-.079.063-.13.028-.04-.034-.028-.094.045-.179m-1.474 4.525a.787.787 0 0 1 .46-.417.765.765 0 0 1 .621.032c.199.09.334.246.412.453a.787.787 0 0 1-.033.622.777.777 0 0 1-.456.416.78.78 0 0 1-.617-.036.765.765 0 0 1-.415-.455.774.774 0 0 1 .028-.615m-2.85 5.078c.043-.21.169-.471.369-.794a.496.496 0 0 0-.098-.093c-.051-.042-.075-.079-.061-.116.01-.049.055-.066.137-.061l.772.07.1.01c.049.01.067.037.054.09-.005.037-.019.059-.042.073a1.008 1.008 0 0 1-.189.059 1.133 1.133 0 0 0-.53.295c-.173.153-.281.321-.316.503a.676.676 0 0 0 .053.482.496.496 0 0 0 .346.261.46.46 0 0 0 .373-.092c.126-.091.264-.279.425-.573.249-.462.495-.759.736-.889a1.12 1.12 0 0 1 1.349.224c.151.168.256.347.315.547.064.2.064.44 0 .711a1.721 1.721 0 0 1-.173.472 3.163 3.163 0 0 1-.316.476c.036.045.08.09.146.132.067.043.096.09.086.136-.009.045-.064.063-.164.047l-1.02-.139c-.047-.008-.075-.01-.079-.012-.057-.012-.077-.045-.069-.1.012-.04.069-.073.164-.087.302-.053.564-.159.794-.307a.95.95 0 0 0 .421-.613.73.73 0 0 0-.073-.566.601.601 0 0 0-.399-.292.55.55 0 0 0-.454.09c-.14.098-.295.297-.47.593-.169.289-.316.499-.443.631a1.043 1.043 0 0 1-.456.278.94.94 0 0 1-.523.026.964.964 0 0 1-.66-.491c-.156-.272-.193-.6-.105-.981m-.442 3.643c.018-.355.031-.749.037-1.177.003-.151.004-.278.01-.373 0-.04.008-.1.018-.192.072-.009.231-.014.471-.022l.455-.016c.074.008.106.038.1.102 0 .046-.049.085-.139.128-.16.061-.297.144-.415.251a.88.88 0 0 0-.24.376c-.043.141-.068.387-.094.729.287.045.646.082 1.081.112.436.024.864.038 1.279.049.412.008.663.002.745-.02a.276.276 0 0 0 .193-.112c.047-.054.08-.191.11-.406.01-.069.037-.106.08-.106.055.004.08.041.079.104l-.01.077-.051.586c-.028.455-.042.733-.043.83l-.008.356c0 .029-.008.084-.015.174-.013.043-.038.063-.079.06-.047-.002-.077-.04-.069-.112.006-.164-.019-.295-.082-.384-.065-.088-.173-.148-.323-.173-.15-.03-.478-.061-.984-.093-.8-.049-1.452-.063-1.955-.043a3.361 3.361 0 0 0-.004.67.884.884 0 0 0 .184.417c.105.134.245.244.423.336.067.039.102.075.096.116 0 .064-.033.098-.088.093a17.715 17.715 0 0 0-.364-.056 5.765 5.765 0 0 1-.568-.118c.079-.971.138-1.693.17-2.163m.905 7.917c-.033.055-.041.153-.023.284.01.075-.01.112-.063.127-.049.012-.079-.016-.095-.085a8.809 8.809 0 0 1-.072-.401c-.027-.151-.045-.279-.069-.366l-.212-.841c-.018-.072 0-.113.049-.127.043-.006.07.019.095.082.051.14.102.23.149.27.051.042.152.057.302.051.146-.004.474-.061.977-.175a29.162 29.162 0 0 0 1.341-.334c.316-.093.505-.169.564-.246.061-.071.073-.175.049-.303-.014-.065-.014-.112.012-.133-.004 0-.004.002-.004.002-.054.005-.089-.048-.102-.158-.03-.188-.124-.297-.293-.318-.166-.02-.761.024-1.779.13-.66.069-1.058.135-1.175.196-.122.061-.173.183-.153.37l.008.079c.01.064-.013.103-.073.108-.052.004-.084-.047-.094-.155l-.327-3.093.836-.234.038-.006c.056-.01.081.008.089.047.002.023-.02.052-.061.082-.202.17-.362.35-.465.545-.111.197-.141.493-.095.898.025.279.07.435.137.462.061.027.521 0 1.386-.093a2.22 2.22 0 0 0-.093-.473.536.536 0 0 0-.176-.246c-.08-.051-.222-.095-.427-.122-.053-.01-.079-.03-.084-.055-.006-.059.026-.091.1-.1l.896-.073c.313-.029.484-.036.506-.029.026.012.037.029.042.063.005.045-.03.081-.102.093a.702.702 0 0 0-.395.223c-.091.108-.118.341-.083.703l1.046-.112c.205-.022.35-.049.431-.089.084-.035.139-.088.161-.15a.7.7 0 0 0 .022-.277 1.118 1.118 0 0 1 0-.171c.01-.026.033-.041.067-.047.061-.003.098.036.1.12.012.075.022.222.027.439.008.183.019.322.029.413l.12.888c.005.057-.002.1-.024.12.061-.01.1.031.128.126.004.027.01.069.02.119.055.352.094.589.123.715.063.279.12.482.163.613a.983.983 0 0 1 .043.144c.018.07 0 .11-.057.122-.038.011-.069-.012-.095-.069-.053-.153-.122-.247-.199-.289-.081-.037-.253-.035-.509.014-.257.045-.655.131-1.195.253-.566.128-.945.222-1.13.289-.191.062-.3.121-.332.18m1.762 4.296c-.499-.204-.867-.613-1.105-1.222a2.484 2.484 0 0 1-.139-.61 6.302 6.302 0 0 1 0-.675.314.314 0 0 0-.02-.122c-.01-.037-.049-.056-.104-.056-.077.003-.121-.017-.139-.061-.015-.043.026-.095.136-.15l.737-.366a.49.49 0 0 1 .084-.039c.053-.026.086-.008.108.039.018.043 0 .091-.051.144-.23.25-.392.517-.483.812-.095.287-.086.583.027.874.142.375.412.611.808.701.398.097.808.058 1.241-.11.479-.179.825-.446 1.044-.8.216-.348.259-.688.139-1.002a1.027 1.027 0 0 0-.25-.379c-.12-.116-.216-.18-.306-.197a.756.756 0 0 0-.33.061c-.293.114-.476.194-.543.247a.29.29 0 0 0-.104.176 1.38 1.38 0 0 0 .052.364c.025.067.01.108-.035.126-.051.02-.089 0-.112-.063l-.152-.399-.493-1.213c-.02-.051-.012-.086.041-.104.022-.011.043-.011.063.008.012.018.065.086.142.202.055.089.112.134.159.144.057.012.33-.071.824-.24.107-.037.17-.059.187-.061.013 0 .11.08.293.246.192.161.349.344.484.542.135.194.24.405.327.617.137.368.189.711.155 1.056a1.867 1.867 0 0 1-.341.917 1.696 1.696 0 0 1-.824.616 1.965 1.965 0 0 1-1.52-.023m3.775 4.168c-.081.429-.228.719-.45.875-.174.124-.375.163-.597.124a.848.848 0 0 1-.537-.352.748.748 0 0 1-.157-.543.544.544 0 0 1 .222-.403c.193-.134.486-.157.88-.055.027-.454.171-.961.439-1.528-.303.018-.557.095-.751.234-.163.114-.196.254-.096.421.037.07.037.121 0 .148-.043.03-.097 0-.152-.086l-.32-.47a3.262 3.262 0 0 0-.242-.307c-.038-.051-.069-.09-.083-.112-.041-.053-.037-.096.006-.124.031-.021.074-.007.134.042a.766.766 0 0 0 .266.163.689.689 0 0 0 .226.031c.063-.005.249-.035.559-.083a3.35 3.35 0 0 1 .532-.049c.265-.474.338-.8.218-.963a.416.416 0 0 0-.231-.164c-.056-.027-.095-.044-.102-.058-.037-.047-.032-.083.014-.114.043-.033.169.004.377.102.21.1.366.228.48.381a.597.597 0 0 1 .102.4 1.62 1.62 0 0 1-.139.504c.554.155.939.384 1.157.699.173.24.236.483.21.737-.031.252-.163.458-.391.621a1.203 1.203 0 0 1-.493.183c-.197.026-.56-.057-1.081-.254m3.699 4.036c-.045.18-.126.34-.24.463a.958.958 0 0 1-.761.322c-.312 0-.609-.137-.9-.401-.153-.146-.322-.383-.501-.715a.428.428 0 0 0-.124.031c-.061.027-.108.027-.135 0-.033-.031-.028-.086.02-.155l.448-.633.057-.08c.031-.037.068-.037.104-.002.031.025.041.049.041.073.005.027-.014.09-.043.194a1.22 1.22 0 0 0-.012.603.994.994 0 0 0 .275.533c.14.123.281.189.445.19a.498.498 0 0 0 .403-.166.48.48 0 0 0 .108-.366c-.017-.155-.108-.371-.283-.658-.277-.448-.409-.808-.397-1.081.006-.279.103-.51.279-.7.175-.195.369-.311.589-.358a1.38 1.38 0 0 1 .627.006c.204.045.412.163.617.358.124.104.226.235.322.385.097.151.181.322.254.511a.551.551 0 0 0 .181-.059c.077-.035.128-.042.164-.01.035.031.021.089-.046.174l-.627.809c-.033.038-.054.056-.055.065-.04.042-.077.042-.117 0-.03-.022-.03-.088.007-.183a2.05 2.05 0 0 0 .132-.837.98.98 0 0 0-.313-.671c-.167-.153-.344-.224-.531-.216-.189.003-.345.063-.454.189a.547.547 0 0 0-.151.44c.019.168.111.409.279.704.169.294.271.527.322.702.055.176.055.351.016.539m2.926 2.321c-.293.433-.452.71-.481.832-.028.125.045.241.208.357.063.045.08.09.055.134-.033.047-.092.039-.181-.02a21.318 21.318 0 0 0-1.14-.727 9.31 9.31 0 0 1-.372-.232c-.358-.242-.588-.499-.696-.777-.106-.279-.084-.531.077-.757a.777.777 0 0 1 .414-.318 1.06 1.06 0 0 1 .544-.027c.182.034.372.114.581.224a1.347 1.347 0 0 1-.391-.54c-.075-.193-.043-.455.086-.798.116-.311.169-.537.153-.674a.488.488 0 0 0-.212-.352c-.071-.055-.089-.103-.061-.144.033-.042.107-.029.222.051l.888.632c.028.156-.015.365-.147.635-.165.336-.266.584-.307.741-.035.16-.033.297.028.416a.731.731 0 0 0 .272.301c.034.023.085.056.15.095.373-.552.602-.893.683-1.022.082-.126.118-.238.107-.323-.006-.09-.078-.182-.206-.271-.068-.055-.087-.106-.058-.147.029-.04.076-.04.132 0l.708.503c.095.068.222.146.382.245.143.081.234.139.275.163.061.043.077.087.047.136-.027.041-.073.043-.128.003a.563.563 0 0 0-.289-.096c-.106-.004-.263.156-.485.478l-.291.44-.567.839zm3.096 2.698c.031.059.108.128.231.208.05.031.067.066.05.108-.024.055-.068.065-.132.033l-.607-.298-2.065-.969c.066-.291.137-.582.207-.875.025-.047.061-.061.108-.04.026.012.049.052.059.114.057.336.141.578.252.727.106.151.3.287.574.421.155.066.306.121.463.167.173-.291.336-.617.503-.975.029-.059.077-.161.142-.313l-.195-.09a.834.834 0 0 0-.34-.095c-.098-.011-.208.026-.324.109a2.983 2.983 0 0 0-.201.157c-.037.051-.079.064-.116.047-.049-.023-.061-.055-.043-.097.01-.007.012-.021.027-.034.069-.098.226-.413.466-.94a.867.867 0 0 0 .076-.206c.004-.023.004-.038.017-.046.021-.053.056-.059.11-.039.039.017.041.075.029.179a.603.603 0 0 0 .065.471c.081.138.255.272.51.394.144-.281.24-.47.279-.557a9.78 9.78 0 0 0 .305-.707c.023-.077.004-.159-.051-.24-.054-.078-.171-.158-.348-.241-.653-.306-1.183-.293-1.575.027-.056.041-.102.055-.139.041-.045-.022-.063-.053-.041-.097a.455.455 0 0 1 .063-.098l.509-.66.924.431c.267.124.502.243.725.36.228.114.399.199.529.258.144.066.364.158.664.273.034.017.063.027.077.035.077.033.113.081.079.134-.022.047-.061.058-.122.025-.171-.073-.299-.082-.401-.017-.098.063-.211.236-.336.511l-.629 1.309c-.206.454-.33.734-.368.841-.036.112-.038.192-.01.254m6.784 1.995c-.009.029-.022.049-.049.053a.589.589 0 0 1-.173-.026l-.694-.168a7.202 7.202 0 0 0-.34-.069 7.756 7.756 0 0 1-.473-.089c-.063-.01-.098-.047-.083-.102.01-.049.059-.069.142-.053a.523.523 0 0 0 .228-.035c.075-.041.116-.088.134-.165a.541.541 0 0 0-.004-.226c-.014-.1-.083-.453-.209-1.067l-.236-1.126-.961 1.472c.024.09.052.243.089.465.037.218.08.357.115.405a.497.497 0 0 0 .222.135c.063.027.087.06.077.106-.01.024-.022.042-.051.047a1.005 1.005 0 0 1-.248-.042l-.648-.165-.549-.104a4.158 4.158 0 0 1-.312-.081c-.022-.01-.028-.033-.022-.075.014-.049.051-.067.118-.049.118.026.216.016.287-.029a.331.331 0 0 0 .135-.189c.049-.226-.053-.988-.301-2.292-.162.232-.381.566-.654.996-.272.431-.437.68-.466.749a.728.728 0 0 0-.08.199c-.026.104-.006.185.047.248.049.064.11.1.169.117.091.028.136.063.128.111-.015.049-.061.063-.148.045l-.46-.118a7.632 7.632 0 0 0-.479-.091c-.073-.01-.125-.017-.157-.023-.071-.016-.099-.049-.084-.104.004-.045.049-.063.132-.051a.47.47 0 0 0 .208-.022.693.693 0 0 0 .257-.187c.114-.098.281-.33.521-.694l.747-1.13.752-1.159.201.045c.017.096.079.533.19 1.312.055.403.126.83.204 1.28l.735-1.146.667-1.041.201.047.339 1.698c.142.674.255 1.174.33 1.492.087.326.159.524.218.603a.653.653 0 0 0 .22.189c.048.031.077.062.068.104m3.777-.482c-.388.386-.87.574-1.446.57-.384-.004-.716-.082-1-.24a1.703 1.703 0 0 1-.673-.671 1.776 1.776 0 0 1-.255-.949c.005-.524.206-.992.601-1.393a1.959 1.959 0 0 1 1.47-.599c.53.002.983.179 1.356.518.373.34.562.802.548 1.376a1.89 1.89 0 0 1-.601 1.388m4.531-.041l-.932.122c-.146.02-.342.063-.596.116-.088.02-.155.034-.186.039-.081.014-.125-.007-.129-.058-.006-.034 0-.056.025-.073a.706.706 0 0 1 .183-.073c.114-.037.206-.08.242-.136a.39.39 0 0 0 .075-.257 9.933 9.933 0 0 0-.106-.781l-.279-1.7c-.041-.26-.091-.411-.139-.452-.055-.042-.139-.055-.274-.034-.3.047-.524.109-.664.181a1.124 1.124 0 0 0-.383.329c-.114.145-.225.375-.331.697-.025.067-.05.1-.086.104-.051.008-.073-.013-.087-.066-.015-.124-.015-.523 0-1.204a38.912 38.912 0 0 0 2.174-.32c.34-.054.623-.11.836-.164.045-.009.085-.021.114-.021.067-.014.106.01.11.065.007.024 0 .045-.014.057a.517.517 0 0 1-.129.054.568.568 0 0 0-.253.146.459.459 0 0 0-.091.251c-.01.104.019.369.084.781.063.421.147.914.231 1.486.046.231.087.394.142.494a.385.385 0 0 0 .175.2c.07.039.165.051.281.039.077-.012.118.014.126.069.009.058-.029.092-.119.109m3.618-1.146l-2.964.946-.393-.769-.023-.035c-.007-.053-.004-.086.037-.097.019-.01.051.004.088.031.211.173.419.291.631.358.212.059.505.027.898-.094.27-.087.409-.158.428-.227.014-.069-.113-.517-.381-1.34a1.891 1.891 0 0 0-.444.187.424.424 0 0 0-.197.226c-.037.088-.051.234-.037.438 0 .054-.007.086-.038.097-.053.015-.094-.01-.114-.08l-.261-.863c-.085-.301-.13-.462-.122-.491.006-.022.013-.04.049-.049.037-.014.078.013.114.082.07.161.17.275.293.341.13.068.364.042.703-.066l-.32-1.001c-.057-.193-.116-.332-.175-.401-.051-.075-.11-.118-.175-.13a.639.639 0 0 0-.275.033.524.524 0 0 1-.173.036c-.028-.002-.042-.022-.055-.056-.022-.058.013-.1.092-.121.075-.026.212-.065.429-.118.175-.047.306-.084.401-.108l.834-.302c.088-.028.141-.016.159.039.014.047-.029.091-.139.125-.173.07-.258.184-.249.355.02.165.181.739.495 1.715.201.634.343 1.002.429 1.112.084.105.216.132.395.073l.071-.023c.059-.023.108-.004.121.049.017.052-.028.091-.132.128m3.969-2.243c-.099.291-.314.534-.66.723-.19.104-.471.187-.837.248-.012.034-.012.074-.012.132.005.064-.009.105-.041.125-.045.028-.093.004-.141-.062l-.458-.627-.057-.077c-.025-.045-.016-.083.027-.104.041-.018.063-.021.084-.018.028.01.078.045.174.109.149.109.344.173.566.197a.944.944 0 0 0 .589-.094.706.706 0 0 0 .33-.359.496.496 0 0 0-.039-.433.456.456 0 0 0-.311-.218c-.151-.037-.385-.012-.711.061-.515.122-.9.134-1.156.036a1.071 1.071 0 0 1-.58-.486 1.1 1.1 0 0 1-.148-.674c.028-.224.095-.419.205-.6.107-.173.282-.334.532-.472.135-.077.295-.136.468-.181a2.77 2.77 0 0 1 .566-.072.878.878 0 0 0 .006-.195c-.016-.082 0-.135.039-.16.04-.025.086.01.152.095l.562.857c.029.038.042.063.047.069.028.051.017.086-.031.112-.035.023-.098 0-.176-.061a1.898 1.898 0 0 0-.753-.391.947.947 0 0 0-.737.085.78.78 0 0 0-.379.432.635.635 0 0 0 .047.494.54.54 0 0 0 .369.281c.167.037.421.025.759-.045.326-.061.582-.091.766-.084.181.008.348.061.511.161.167.098.281.22.366.369.146.262.161.533.062.827m4.144-2.698l-.735.543c-.063.049-.137.116-.222.189a2.66 2.66 0 0 1-.316.273c-.079.059-.13.073-.161.026-.034-.036-.024-.081.041-.13.1-.093.151-.191.142-.305 0-.11-.077-.28-.238-.511a14.455 14.455 0 0 0-.537-.739c-.336-.423-.575-.692-.728-.804a.745.745 0 0 0-.528-.142c-.205.014-.413.108-.632.279-.217.174-.345.35-.387.532-.041.183 0 .392.119.628.114.235.385.627.809 1.175.257.32.455.524.601.607.152.085.288.085.413.003.102-.061.165-.071.201-.03.031.043.01.095-.059.148-.029.034-.094.071-.175.128a2.091 2.091 0 0 0-.267.191c-.09.067-.182.141-.282.229a1.432 1.432 0 0 1-.143.136c-.079.061-.132.067-.167.023-.028-.034-.02-.075.035-.121a.444.444 0 0 0 .119-.262c.012-.108-.027-.242-.123-.395-.091-.157-.368-.528-.829-1.114-.304-.382-.483-.693-.54-.926a.995.995 0 0 1 .09-.719c.114-.246.316-.481.603-.708.216-.171.43-.305.615-.389.2-.087.381-.132.539-.126.159.01.304.049.428.123.126.069.267.212.431.417l.922 1.196c.129.163.239.295.343.386.101.096.189.141.258.146.069.003.139-.022.23-.079a.382.382 0 0 1 .116-.053c.019 0 .034.014.059.033.037.046.024.095-.045.142m1.906-2.016a2.076 2.076 0 0 1-.825.596c-.309.118-.62.145-.954.083a1.824 1.824 0 0 1-.878-.428c-.401-.346-.628-.804-.671-1.37a1.977 1.977 0 0 1 .501-1.503c.354-.399.775-.627 1.278-.688.498-.061.969.098 1.403.479.411.354.627.81.665 1.354.04.553-.139 1.041-.519 1.477m3.445-4.991l-.509.791a98.14 98.14 0 0 0-.289.533c-.046.082-.071.139-.087.171-.049.065-.092.085-.133.058-.028-.014-.04-.035-.03-.063 0-.027.016-.092.057-.187.047-.118.065-.21.047-.277-.007-.073-.056-.143-.151-.216-.094-.078-.311-.218-.663-.426l-1.476-.885c-.229-.13-.381-.19-.44-.182-.071.017-.13.077-.197.185-.159.266-.259.478-.296.631a1.28 1.28 0 0 0 .009.503c.035.181.144.417.32.704.034.057.042.1.024.135-.024.038-.063.048-.106.02-.106-.066-.408-.324-.92-.78.259-.391.645-1.014 1.158-1.865.175-.301.312-.54.407-.74.025-.051.041-.083.057-.107.037-.061.075-.077.126-.048.018.019.031.032.031.054s-.014.069-.042.135a.473.473 0 0 0-.051.283.415.415 0 0 0 .132.23c.081.077.291.222.648.444.369.215.799.478 1.296.774.203.12.352.189.459.218a.468.468 0 0 0 .275-.01.49.49 0 0 0 .202-.187c.05-.071.091-.091.142-.06.046.029.046.084 0 .164m1.84-4.268l-.364.835c-.031.081-.069.173-.098.282-.055.168-.096.299-.136.393-.041.09-.075.122-.132.104-.047-.017-.057-.067-.035-.134a.374.374 0 0 0-.022-.336c-.055-.095-.208-.206-.468-.328-.242-.118-.523-.24-.825-.368-.509-.197-.845-.309-1.034-.328a.724.724 0 0 0-.533.139c-.163.113-.293.299-.397.554-.105.262-.128.48-.078.659.063.177.199.338.417.485.218.148.642.348 1.289.605.38.152.661.232.827.23.174 0 .288-.073.356-.208.053-.1.107-.141.162-.118.049.017.052.072.021.157a1.237 1.237 0 0 1-.096.197 4.097 4.097 0 0 0-.141.298c-.033.098-.075.209-.108.334-.032.097-.053.161-.067.191-.035.092-.076.122-.13.102-.043-.01-.049-.055-.029-.119a.425.425 0 0 0-.027-.285.704.704 0 0 0-.307-.281c-.163-.09-.584-.274-1.27-.548-.46-.186-.763-.361-.936-.536a1.076 1.076 0 0 1-.285-.664c-.022-.276.042-.578.179-.916.098-.261.212-.478.34-.65.121-.171.258-.297.395-.372a.94.94 0 0 1 .43-.11c.141 0 .34.049.591.149l1.385.572c.196.077.359.134.498.163.134.025.23.025.293-.006a.391.391 0 0 0 .165-.18c.03-.061.054-.095.073-.102.015-.01.04-.01.063 0 .059.018.069.065.034.14m-2.684-4.349c.014.057.05.11.099.153.051.046.147.085.283.113l1.282.302c.405.091.72.155.965.199.238.041.405.061.478.057a.33.33 0 0 0 .163-.068.442.442 0 0 0 .087-.175.375.375 0 0 1 .06-.135c.014-.02.042-.024.073-.02.037.01.05.036.05.08 0 .045-.013.171-.06.369a9.999 9.999 0 0 0-.188 1.042c-.031.189-.054.344-.081.46-.07.338-.207.592-.405.758-.19.174-.413.228-.666.174-.431-.097-.676-.484-.723-1.17-.162.362-.348.621-.554.774a.84.84 0 0 1-.696.146.909.909 0 0 1-.523-.336 1.025 1.025 0 0 1-.229-.583c-.012-.212.025-.513.11-.898.016-.094.058-.24.106-.438.045-.164.079-.293.096-.388a4.42 4.42 0 0 0 .093-.509 1.44 1.44 0 0 1 .026-.187c.009-.017.013-.032.023-.049 0-.051.009-.141.029-.287.027-.194.045-.359.049-.493.014-.128.014-.297.014-.505a1.361 1.361 0 0 1 0-.311c0-.091.032-.128.083-.126.045 0 .063.033.067.094.01.231.094.352.253.362.079.002.215-.019.421-.078.201-.056.397-.121.565-.189.008-.121.012-.217.018-.285.02-.377.033-.674.043-.883-.435-.186-.723-.284-.869-.294a.276.276 0 0 0-.244.108.593.593 0 0 0-.116.257c-.004.07-.042.111-.092.104-.051-.003-.078-.043-.073-.12 0-.031.014-.11.032-.236.022-.168.029-.289.041-.362a2.57 2.57 0 0 0-.011-.424v-.087c0-.065.033-.102.09-.097.042 0 .069.026.077.073a.79.79 0 0 0 .106.269c.041.068.124.142.259.223.132.082.34.183.623.3.643.272 1.521.664 2.614 1.192l-.012.192c-.549.216-1.413.525-2.602.911-.533.179-.869.305-.985.38-.12.068-.197.196-.232.366 0 .025-.009.039-.017.053a.891.891 0 0 0 0 .222"/><path d="M94.604 33.603c-.055.014-.098.094-.132.243-.066.265-.037.476.081.644.109.161.291.273.533.322.256.057.472.036.663-.067.19-.104.312-.289.369-.57.018-.061.025-.143.045-.251-.387-.1-.703-.179-.966-.236-.342-.078-.536-.105-.593-.085m-8.009-21.702c.211.173.479.214.812.128.334-.085.681-.364 1.057-.838.357-.45.549-.843.575-1.192.033-.344-.077-.611-.306-.796-.232-.183-.513-.218-.849-.116-.329.108-.674.383-1.025.831-.339.426-.533.815-.574 1.168-.04.35.056.623.31.815m10.393 23.197c.24.054.426.037.576-.049a.526.526 0 0 0 .263-.352c.02-.11.03-.242.01-.407a7.016 7.016 0 0 0-.58-.149 17.359 17.359 0 0 0-.878-.172c-.144.634.06 1.008.609 1.129M73.487 7.111c.278.01.526-.121.735-.385.215-.265.326-.701.346-1.307.014-.572-.069-1.003-.255-1.296-.185-.295-.428-.446-.723-.453-.295-.01-.55.126-.747.414-.206.283-.309.708-.329 1.276-.009.55.057.974.243 1.279.174.306.423.465.73.472"/><path d="M72.857.997c-15.548 0-28.193 12.646-28.193 28.187 0 15.538 12.645 28.185 28.193 28.185 15.532 0 28.173-12.647 28.173-28.185C101.03 13.643 88.389.997 72.857.997m0 55.787c-15.224 0-27.603-12.386-27.603-27.6 0-15.222 12.38-27.604 27.603-27.604 15.216 0 27.59 12.382 27.59 27.604 0 15.215-12.374 27.6-27.59 27.6"/><path d="M72.857.137c-16.025 0-29.054 13.03-29.054 29.048 0 16.01 13.029 29.04 29.054 29.04 16.003 0 29.033-13.03 29.033-29.04C101.891 13.167 88.861.137 72.857.137m0 57.646c-15.776 0-28.607-12.832-28.607-28.598C44.25 13.415 57.082.583 72.857.583c15.762 0 28.592 12.832 28.592 28.602.001 15.766-12.83 28.598-28.592 28.598"/><path d="M82.773 42.337h.221c-.133-.191-.157-.444.093-.56.232-.114.277-.355.204-.55a9.176 9.176 0 0 1-.737-.069c-.025.041-.056.082-.084.138-.153.32.059.745.277.982-.069-.036-.024.012.026.059m1.196 0v-.417c-.134-.092-.358-.092-.509.177a.47.47 0 0 0-.047.24h.556zm-2.26-.486c.023.02.043.037.063.051a6.489 6.489 0 0 0-.699-.159c-.461-.175-.887-.653-.704-1.105a9.515 9.515 0 0 1-1.34-.585c.006.181.061.359.142.524-.13-.137-.368-.306-.635-.198-.027.014-.059.03-.073.045a.317.317 0 0 0-.106.413.32.32 0 0 0 .433.139.315.315 0 0 0 .167-.369.467.467 0 0 1 .261.048c.24.431.686.793 1.072.984.021.014.058.028.083.038a6.087 6.087 0 0 0-1.147.061 2.684 2.684 0 0 0-.511-.383c-.271-.268-.662-.568-1.079-.517a.594.594 0 0 0-.267.086.969.969 0 0 0-.271.032c-.045.004-.087.021-.122.033a.942.942 0 0 1 .016-.087c.124 0 .293-.11.381-.169.381-.267 1.039-.867.592-1.044a3 3 0 0 0-.701-.22c-.18-.047-.555-.173-.726.038-.095.121.132.717.184.906.014.031.018.059.024.089a.63.63 0 0 1-.083.013c-.035-.092-.087-.19-.11-.306-.09-.263-.094-.485-.132-.668-.02-.12-.13-.03-.249-.112a3.263 3.263 0 0 0-.507.762c-.067.112-.249.45-.159.578.018.031.063.06.107.083a1.543 1.543 0 0 1-.16.048c-.337.084-1.091.3-1.247.57-.231.389.123.642.412.869h2.205c.017-.017.031-.043.051-.065 0 .01 0 .022-.009.034 0 .014-.003.019-.003.031h3.014a5.303 5.303 0 0 1 1.748 0h1.071c-.369-.295-.888-.938-.688-1.264a9.335 9.335 0 0 1-.935-.216c.085.389.368.772.637.992m-2.619-.088c-.028-.029-.059-.061-.091-.1a.057.057 0 0 1-.022-.024c.073.04.14.075.193.109a.776.776 0 0 0-.08.015m-5.219.452a.252.252 0 0 0-.193.121h.715c-.12-.102-.272-.173-.522-.121m15.026-14.076v-3.796c-.095.137-.174.273-.246.377-.329.605-.742 1.485-.961 2.273l1.207 1.146zm-2.363-2.348c.022-.25-.014-.58.065-.842.043-.145.099-.404.07-.518-.084-.401-.754.04-.961.114-.092.037-.294.075-.436.151l1.228 1.165c.02-.014.024-.035.034-.07m.209-.38c-.008.158-.191.574.088.504.34.065.24.09.481.031.17-.031.104-.462.24-.788.141-.326.326-.199.023-.452-.314-.283-.484-.44-.696-.279-.193.155-.123.784-.136.984m.229-1.232a.204.204 0 0 0-.04-.292.213.213 0 0 0-.296.037.212.212 0 0 0 .043.297.206.206 0 0 0 .293-.042m-26.473-5.188c.1-.034.194-.071.302-.098a4.123 4.123 0 0 1-.521-.092c.082.064.15.126.219.19m3.149 20.698c.411.458 1.295 2.099 2.125 1.197a.28.28 0 0 1 .041-.049c.095.076.199.167.336.268.674.497 1.649.369 2.152-.032-.411.381-.853.552-1.529.562-.737.01-1.312-.442-1.6-.055-.098.129-.075.583.436.756h1.113a3.188 3.188 0 0 0 1.257-.544 2.55 2.55 0 0 1-.552.544h.653c.285-.401.552-.92.745-1.57.037-.026.079-.043.118-.071-.22.643-.405 1.179-.647 1.641h.607c.129-.464.197-1.018.183-1.745.051-.047.1-.097.137-.141-.03.595-.051 1.279-.123 1.886h.463a9.084 9.084 0 0 0-.267-1.971.565.565 0 0 0 .113-.373c.087.07.192.123.304.169.471.963 1.002 1.676 1.506 2.175h1.098c-.033-.022-.073-.045-.11-.068-.441-.326-1.594-1.258-2.386-2.074.065.017.139.029.218.04 1.176 1.462 2.467 1.945 3.103 1.998.827.061.764-.43.633-.587-.132-.155-.501-.148-1.151-.272-.4-.074-1.392-.546-2.393-1.136.051-.003.094-.003.139-.003 1.464.988 2.752.992 3.29.717.544-.277.57-.729.308-.827-.264-.088-.549.301-1.203.391-.195.026-.532.007-1.016-.076.682-.031 1.372-.252 1.653-.588.847-.998.344-1.401.134-1.45-.46-.122-.8.841-1.038 1.196-.2.289-.703.465-1.28.501.597-.118 1.245-.601 1.428-1.305.179-.688.151-.991.022-1.108.014-.014.031-.023.045-.042.676-.864.256-1.474.165-2.413-.112-.939 0-1.686.006-2.319.016-.415-.413-.194-.752-.547-.9.653-1.561 1.406-2.216 2.243-.281.33-1.122 1.35-.888 1.842.224.487 1.56 1.045 2.002 1.206.204.069.622.197 1.01.21-.083.13-.135.312-.139.571-.014.469-.246 1.246-.883 1.515.025-.024.053-.045.06-.075-.418.247-.898-.309-1.159-.523-.444-.377-.652-3.294-2.044-2.47-1.406.816.623 2.293.656 2.881.019.331-.069 1.028-.527 1.211.037.002.087.002.132 0-.658.193-1.328-.265-1.634-.619a1.39 1.39 0 0 0-.267-.244c.779-1.667 1.378-4.88.36-4.592-.836.215-1.82.763-2.761.832-.484.031-1.258.162-1.647.358a4.472 4.472 0 0 1-.34.998c.343.751 1.461 1.604 1.801 1.981"/><path d="M70.221 42.337a1.28 1.28 0 0 0-.039-.208c.039.072.067.14.108.208h.649c-.527-.674-1.199-1.661-1.531-2.345.151.623.27 1.557.311 2.345h.502zm9.018-24.6c.383 2.138 3.03 1.941 4.522.748.878-.709.928-1.562.743-2.366h-1.842c-1.11 1.063-2.616 2.229-3.423 1.618"/><path d="M81.992 16.119h-3.48c.088.336.234.68.595 1.016.635.552 1.834-.118 2.885-1.016m-3.488 1.063c-.195-.265-.263-.686-.326-1.063h-1.376c.481.625.408 1.158 1.065 1.796.315-.218.85-.435.637-.733m-14.213 3.543a.547.547 0 0 0 .417-.658.553.553 0 0 0-.657-.415.553.553 0 0 0-.417.658.548.548 0 0 0 .657.415m3.287-4.606h-3.357c.963.549 3.32 1.04 3.357 0m5.052 3.98c.813.055 2.091-1.712 2.572-2.196.376-.363 1.808-1.014.944-1.45-.097-.13-.175-.24-.244-.334h-4.666c.039.521.177 1.11.248 1.694.147 1.415.221 2.211 1.146 2.286m-.02 5.481c.128.673.175.848.576 1.248.359.379.909-.122 1.331-.325.454-.26 1.035-.586 1.571-.935V23.05a11.4 11.4 0 0 0-1.316-.494c-.627-.218-1.85-.77-2.478-.118-.388.395.192 2.495.316 3.142m-2.347.963c.356.087 1.369.354 1.657-.108.592-.919.33-.674.155-1.609-.202-.924-.15-1.675-.202-2.305-.018-.417-.435-.153-.8-.482-.841.737-1.427 1.549-1.997 2.441-.251.352-.996 1.442-.727 1.91.271.464 1.454.031 1.914.153m1.824-4.622a.71.71 0 0 0 .569-.835.724.724 0 0 0-.837-.576.728.728 0 0 0-.578.839.731.731 0 0 0 .846.572m-7.697 7.291c.421.025 1.07-.879 1.319-1.128.194-.187.929-.517.477-.745-.362-.488-.208-.401-.591-.613-.255-.152-1.016-.594-1.56-.327-.574.257-.321.953-.236 1.639.079.726.12 1.133.591 1.174m.976-.351c-.234.139-.598.406-.708.589-.363.623 1.032.837 1.39.981.296.115 1.077.656 1.254.057.184-.69-.391-3.087-.871-2.646-.337.291-.659.771-1.065 1.019m-.694 3.798c.192.195.472-.061.688-.164.699-.409 2.056-1.131 1.301-1.525a5.89 5.89 0 0 0-1.172-.497c-.32-.113-.949-.395-1.271-.06-.199.201.095 1.275.165 1.608.062.343.086.434.289.638m-1.492-.143c.178.042.698.179.848-.057.303-.474.169-.348.08-.823-.106-.476-.08-.861-.106-1.186-.01-.21-.224-.076-.411-.241-.428.375-.731.792-1.019 1.246a2.849 2.849 0 0 0-.283.452v.609c.221.094.689-.057.891 0m.346-3.137c.438-.458-.047-2.15-.087-2.867-.025-.504-.664.077-1.145.461v2.075c.473.154 1.212.357 1.232.331m-.025.761c-.256-.073-.222-.403-.034-.605-.485-.128-.747-.205-1.179-.305v2.249c.291-.49.403-1.007 1.213-1.339m.903-.427a.375.375 0 0 0-.432-.293.372.372 0 0 0-.292.43c.038.2.23.334.433.291a.362.362 0 0 0 .291-.428m16.683-5.027c.261.02.619-.334.914-.66v-1.35l-1.44 1.331c.062.416.172.65.526.679m.913.993v-1.305c-.238.145-.549.386-.649.558-.216.372.201.595.649.747m-5.912 4.227c-.098.052-.186.108-.275.153-.479.227-1.23.687-1.474 1.024-.613.859.755 1.45 1.749 1.829v-3.006zm1.975-1.641c-.499.367-1.008.914-1.562 1.345l5.114 4.72c.132-.025.262-.081.382-.157v-2.628c-.603-.947-1.545-1.871-2.065-2.346.473.399 1.259.941 2.065 1.075v-4.393c-.34-.125-.816-.269-1.084.008-.198.203.099 1.276.16 1.605.037.207.063.317.121.423-.385.29-.471.814-.213 1.313a2.38 2.38 0 0 1-1.421-.364.07.07 0 0 0 .018.02l-.027-.02c.708.888 1.653 2.599.961 2.656-.67.114-.981.422-1.063.789.008-1.861-.593-4.651-1.386-4.046"/><path d="M79.87 27.989c.183.043.708.179.85-.057.306-.471.175-.346.082-.819-.102-.474-.079-.861-.102-1.185-.015-.213-.224-.081-.415-.242-.43.373-.735.788-1.022 1.242-.132.187-.513.743-.375.986.14.237.746.015.982.075m.354-3.136c.134-.134.175-.394.175-.704l-.646.601c.251.073.456.123.471.103m-1.616 2.567c.668-.598.513-1.364 1.588-1.804-.261-.073-.22-.405-.038-.603-.214-.053-.377-.1-.536-.141l-1.633 1.506c.161.584.407 1.23.619 1.042m1.77-2.092a.37.37 0 0 0 .431.292.372.372 0 0 0 .289-.43.363.363 0 0 0-.431-.289.356.356 0 0 0-.289.427m-4.29.665c-.51.26-1.199.9-1.967 1.197-1.158.399-1.244-.35-1.199.999.016 1.419.027 2.22.939 2.378.818.128 2.239-1.516 2.759-1.954.406-.331 1.891-.845 1.063-1.358-.094-.16-.161-.281-.224-.389l-1.372 1.273v-2.146zm-2.445 11.702c.33.405 1.233 0 1.671-.167.282-.127.611-.297.945-.485a4.551 4.551 0 0 1-.175-1.258v-2.441c-.098-.043-.204-.091-.312-.134-.603-.274-1.777-.929-2.46-.342-.421.357-.031 2.498.031 3.155.069.685-.058 1.231.3 1.672m-4.518-8.129c.4.24 2.965 1.241 3.027 1.181.93-.823-.096-1.55-.037-2.946.043-1.208-2.266-1.411-3.197-.93-.602.323-1.262.441-1.432 1.022-.305 1.064 1.01 1.278 1.639 1.673m-.561 5.875c1.404-1.046 1.243-2.561 3.403-3.225-.488-.191-.358-.822.039-1.179-1.118-.416-1.593-.615-2.832-.99-.529-.173-1.02-1.225-1.553-.222-.348.655.163 1.018-.786 2.975-.381.778 1.077 3.133 1.729 2.641m5.233-3.892a.717.717 0 1 0-1.427.14.722.722 0 0 0 .779.645.72.72 0 0 0 .648-.785m-7.174 2.893c-.21-1.171-.013-.892-.497-1.599-.305-.488-1.608.233-2.795.226-.625-.031-.883-.232-1.044-.259v2.975c0 .142-.006.281-.026.421.869.015 2.318-.715 2.862-.89.502-.159 2.07-.091 1.5-.874m-2.396 6.726a11.463 11.463 0 0 0-1.586-1.897c-.267-.275-.656-.733-1.105-1.02a6.122 6.122 0 0 1-1.395 1.507 6.657 6.657 0 0 1-.6.428c-.087.331-.15.623-.205.797-.153.536-.385.937-.382 1.354h4.994c.456-.287.637-.67.279-1.169m12.512-2.233c-.169.373.633.419.841.476.126.04.419.185.589.126a5.482 5.482 0 0 1-1.082-.965c-.122.09-.301.256-.348.363m-.564-.753c.078.403.126.635.395.632.138 0 .291-.177.427-.354a4.054 4.054 0 0 1-.445-.699c-.031.023-.059.047-.087.067-.312.173-.377-.035-.29.354m-.256-.073c-.052-.35-.725-.277-.973-.091-.157.128-.34.199-.35.372-.035.329.35.315.556.394.13.044.922.194.935.172.223-.287-.107-.438-.168-.847m-.599 2.398c.344-.384.216-.808.796-1.115-.15-.031-.146-.216-.047-.341-.346-.059-.501-.089-.874-.13-.161-.02-.362-.297-.461.021-.065.205.105.285-.065.898-.063.246.486.842.651.667m1.026-1.551a.21.21 0 0 0-.139.261.202.202 0 0 0 .258.141.209.209 0 0 0 .142-.262.21.21 0 0 0-.261-.14m9.646-18.259a.646.646 0 0 0-.641.652.644.644 0 1 0 1.287 0 .648.648 0 0 0-.646-.652M70.901 39.733a.648.648 0 1 0 .006-1.296.648.648 0 0 0-.006 1.296m16.191-19.32a.45.45 0 0 0-.454.45.45.45 0 0 0 .898 0 .45.45 0 0 0-.444-.45M66.578 39.837c0 .462.377.837.837.837a.835.835 0 0 0 .837-.837.832.832 0 0 0-.837-.835.835.835 0 0 0-.837.835m3.487-2.115a.45.45 0 0 0-.447.446c0 .243.2.45.447.45a.447.447 0 0 0 .444-.45.443.443 0 0 0-.444-.446m-2.702-1.515a.446.446 0 1 0 .892.004.446.446 0 0 0-.892-.004m20.535-16.301a.346.346 0 0 0 0 .69.34.34 0 0 0 .344-.344.34.34 0 0 0-.344-.346m-1.934 12.995a2.172 2.172 0 0 0 2.168-2.168 2.167 2.167 0 0 0-2.168-2.162 2.163 2.163 0 0 0-2.162 2.162c0 1.193.969 2.168 2.162 2.168m0-3.994c1.009 0 1.826.826 1.826 1.826a1.827 1.827 0 0 1-1.826 1.826 1.829 1.829 0 0 1-1.824-1.826c0-1 .822-1.826 1.824-1.826"/><path d="M86.485 31.963l.289-.135a.62.62 0 0 0 .178-.232.718.718 0 0 0 .079-.332.636.636 0 0 0-.125-.393.65.65 0 0 0-.207-.167l-.103-.058.091-.074a.173.173 0 0 1 .054-.043c.034-.026.071-.051.08-.075a.59.59 0 0 0 .092-.314.643.643 0 0 0-.101-.342.595.595 0 0 0-.287-.246c-.106-.051-.262-.074-.457-.074h-.955v2.524h.969l.403-.039zm-.987-2.137h.465l.358.033c.073.024.124.06.159.12l.01.021v.024c.004.002.034.135.034.135v.017c0 .087-.008.15-.048.201a.302.302 0 0 1-.172.114l-.022.004-.273.021h-.511v-.69zm0 1.829v-.784h.539l.351.036a.368.368 0 0 1 .179.131.395.395 0 0 1 .069.226v.013l-.032.144c0 .025-.009.037-.11.145l-.009.014-.2.065-.197.01h-.59zM10.069 99.229c0 1.388.067 2.467.208 3.241.132.78.418 1.394.849 1.846.432.45 1.061.79 1.887 1.036.823.244 1.941.504 3.353.778v.623a174.588 174.588 0 0 0-4.385-.153 176.75 176.75 0 0 0-4.394-.056c-1.27 0-2.533.02-3.793.056-1.254.029-2.52.086-3.793.153v-.623c1.238-.101 2.211-.293 2.915-.568.705-.277 1.25-.713 1.631-1.301.373-.583.615-1.351.721-2.307.102-.951.149-2.153.149-3.604V81.02c0-1.454-.047-2.661-.149-3.606-.106-.953-.348-1.721-.721-2.31-.381-.587-.926-1.024-1.631-1.302-.705-.276-1.678-.466-2.916-.564v-.623c.48.033 1.118.071 1.909.103a108.413 108.413 0 0 0 4.876.103h13.094c1.755 0 3.304-.025 4.648-.079 1.341-.053 2.753-.094 4.231-.127a59.762 59.762 0 0 0-.153 2.151c-.038.71-.052 1.411-.052 2.102 0 .898.014 1.788.052 2.674.038.879.089 1.773.153 2.669h-.825c-.552-1.975-1.266-3.504-2.141-4.594-.879-1.086-1.916-1.883-3.1-2.384-1.185-.501-2.537-.804-4.054-.91a71.484 71.484 0 0 0-4.955-.153c-.584 0-1.175.016-1.755.047a28.18 28.18 0 0 1-1.859.053v12.869H14.2c2.065 0 3.663-.432 4.801-1.297 1.138-.863 2.046-2.284 2.734-4.253h.621c-.1 2.353-.151 4.703-.151 7.057 0 1.242.004 2.394.027 3.45.014 1.053.058 2.185.124 3.397h-.621c-.342-1.277-.701-2.344-1.081-3.189-.381-.853-.837-1.533-1.372-2.052a4.844 4.844 0 0 0-1.934-1.144c-.757-.238-1.686-.41-2.791-.519a19.084 19.084 0 0 0-.981-.074 23.26 23.26 0 0 0-1.083-.026h-2.425v10.74zm21.72 6.901c1.233-.101 2.202-.293 2.889-.568.686-.277 1.211-.713 1.572-1.301.364-.583.584-1.351.673-2.307.086-.951.129-2.153.129-3.604V81.02c0-1.454-.043-2.661-.129-3.606-.088-.953-.309-1.721-.673-2.31-.362-.587-.903-1.024-1.625-1.302-.72-.277-1.702-.467-2.942-.565v-.623c1.444.071 2.85.12 4.205.153 1.358.035 2.765.053 4.208.053 1.138 0 2.276-.018 3.408-.053a95.176 95.176 0 0 0 3.359-.153v.623c-1.207.098-2.154.288-2.84.565-.69.278-1.207.714-1.549 1.302-.348.588-.566 1.356-.644 2.31-.093.945-.132 2.152-.132 3.606v17.329c0 1.45.039 2.653.132 3.604.079.956.309 1.724.67 2.307.362.588.905 1.024 1.624 1.301.722.276 1.724.467 2.995.568v.623a134.899 134.899 0 0 0-3.925-.153 130.09 130.09 0 0 0-7.692 0c-1.24.029-2.48.086-3.713.153v-.622zm18.2-16.449c0-2.799.505-5.306 1.523-7.523 1.01-2.211 2.38-4.09 4.104-5.626 1.716-1.542 3.742-2.719 6.065-3.53 2.325-.815 4.793-1.217 7.412-1.217 2.614 0 5.086.402 7.409 1.217 2.323.811 4.345 1.988 6.064 3.53 1.724 1.536 3.091 3.415 4.104 5.626 1.015 2.217 1.526 4.724 1.526 7.523 0 2.807-.511 5.313-1.526 7.527-1.013 2.213-2.379 4.088-4.104 5.625-1.718 1.537-3.741 2.72-6.064 3.525-2.323.814-4.795 1.223-7.409 1.223-2.618 0-5.086-.408-7.412-1.223-2.323-.805-4.349-1.988-6.065-3.525-1.723-1.537-3.093-3.412-4.104-5.625-1.018-2.214-1.523-4.72-1.523-7.527m5.469 0c0 2.113.311 4.135.926 6.073.625 1.936 1.519 3.636 2.687 5.108a13.19 13.19 0 0 0 4.286 3.53c1.688.88 3.598 1.32 5.735 1.32 2.128 0 4.04-.441 5.731-1.32a13.143 13.143 0 0 0 4.284-3.53c1.168-1.472 2.064-3.171 2.683-5.108.619-1.938.929-3.96.929-6.073a19.85 19.85 0 0 0-.929-6.069c-.619-1.936-1.515-3.638-2.683-5.112a13.22 13.22 0 0 0-4.284-3.526c-1.691-.886-3.603-1.324-5.731-1.324-2.137 0-4.047.439-5.735 1.324a13.282 13.282 0 0 0-4.286 3.526c-1.168 1.474-2.062 3.176-2.687 5.112a19.946 19.946 0 0 0-.926 6.069m71.249 16.864h-9.294a93.937 93.937 0 0 1-6.011-7.339 58.967 58.967 0 0 1-4.928-7.967c-.344 0-.782-.03-1.325-.102a93.996 93.996 0 0 1-1.647-.233 22.478 22.478 0 0 1-1.651-.312 20.719 20.719 0 0 1-1.319-.338v8.096c0 1.45.041 2.653.126 3.604.084.956.312 1.724.676 2.307.361.588.905 1.024 1.622 1.301.731.276 1.722.467 3 .568v.623a117.833 117.833 0 0 0-3.927-.153 130.283 130.283 0 0 0-7.697 0c-1.234.029-2.476.08-3.714.153v-.623c1.238-.101 2.203-.293 2.893-.568.688-.277 1.212-.713 1.572-1.301.363-.583.582-1.351.666-2.307.092-.951.132-2.153.132-3.604V81.02c0-1.454-.04-2.661-.132-3.606-.084-.953-.303-1.721-.666-2.31-.36-.587-.885-1.024-1.572-1.302-.69-.27-1.655-.467-2.893-.565v-.623c1.099.071 2.203.12 3.302.153 1.1.035 2.205.053 3.309.053.482 0 1.081-.025 1.805-.079.72-.053 1.489-.112 2.3-.178a102.86 102.86 0 0 1 2.448-.185c.83-.051 1.566-.075 2.219-.075 1.486 0 3.001.189 4.549.567 1.543.38 2.937.988 4.183 1.817a10.369 10.369 0 0 1 3.046 3.166c.788 1.277 1.187 2.802 1.187 4.566 0 1.212-.22 2.277-.646 3.216a8.085 8.085 0 0 1-1.734 2.44 9.05 9.05 0 0 1-2.557 1.711c-.976.447-2.003.777-3.068.985a93.16 93.16 0 0 0 1.704 2.801 43.64 43.64 0 0 0 2.196 3.167 61.792 61.792 0 0 0 2.577 3.187 24.326 24.326 0 0 0 2.892 2.856 18.622 18.622 0 0 0 3.126 2.129c1.07.569 2.149.908 3.247 1.01v.624zm-26.174-18.054c1.549.584 3.156.885 4.799.885 2.689 0 4.769-.625 6.254-1.875 1.474-1.242 2.215-3.263 2.215-6.063 0-1.146-.214-2.172-.646-3.092a7.275 7.275 0 0 0-1.779-2.389 8.206 8.206 0 0 0-2.612-1.553c-.973-.364-2-.545-3.064-.545-.867 0-1.708.036-2.539.102-.818.069-1.63.222-2.422.47a247.386 247.386 0 0 0-.159 5.032 284.773 284.773 0 0 0-.047 5.499v3.529zm29.03 17.639c1.24-.101 2.205-.293 2.895-.568a3.216 3.216 0 0 0 1.576-1.301c.358-.583.582-1.351.669-2.307.087-.951.133-2.153.133-3.604V81.02c0-1.454-.046-2.661-.133-3.606-.087-.953-.311-1.721-.669-2.31-.367-.587-.908-1.024-1.623-1.302-.729-.277-1.709-.467-2.952-.565v-.623c1.445.071 2.846.12 4.208.153 1.362.035 2.763.053 4.214.053 1.136 0 2.269-.018 3.403-.053a94.07 94.07 0 0 0 3.353-.153v.623c-1.199.098-2.143.288-2.828.565-.698.278-1.215.714-1.551 1.302-.35.588-.568 1.356-.647 2.31-.088.945-.133 2.152-.133 3.606v17.329c0 1.45.045 2.653.133 3.604.079.956.301 1.724.674 2.307.35.588.892 1.024 1.62 1.301.726.276 1.722.467 2.992.568v.623a134.35 134.35 0 0 0-3.921-.153 129.238 129.238 0 0 0-7.69 0c-1.24.029-2.482.086-3.722.153v-.622z"/><path d="M145.191 74.855c-1.78 0-3.24 1.45-3.24 3.239a3.251 3.251 0 0 0 3.24 3.241 3.246 3.246 0 0 0 3.243-3.241 3.242 3.242 0 0 0-3.243-3.239m0 5.973a2.74 2.74 0 0 1-2.733-2.734 2.741 2.741 0 0 1 2.733-2.738 2.743 2.743 0 0 1 2.741 2.738 2.742 2.742 0 0 1-2.741 2.734"/><path d="M146.298 78.043l-.159-.083.137-.112c.025-.027.054-.043.084-.065.047-.038.099-.077.122-.112a.936.936 0 0 0 .136-.469c0-.178-.06-.35-.154-.507a.877.877 0 0 0-.416-.372 1.874 1.874 0 0 0-.704-.114h-1.425v3.785h1.448l.613-.066c.067-.028.36-.162.426-.197a.857.857 0 0 0 .271-.348c.081-.157.126-.322.126-.5a.974.974 0 0 0-.191-.586 1.01 1.01 0 0 0-.314-.254m-1.798-1.307h.691l.547.051a.4.4 0 0 1 .234.177l.009.028v.033c.006.002.057.204.057.204l.007.035c0 .123-.03.22-.089.298a.436.436 0 0 1-.255.166l-.026.004-.415.033h-.76v-1.029zm1.704 2.173l-.057.217c0 .033-.013.049-.153.209l-.018.026-.3.097-.299.013h-.877v-1.176h.808l.521.056a.506.506 0 0 1 .271.196.582.582 0 0 1 .104.334v.028zm-93.861 34.786v2.196h-.23c-.184-.682-.48-1.184-.886-1.506-.407-.322-.948-.483-1.625-.483-.879 0-1.575.301-2.089.904-.514.602-.771 1.406-.771 2.41 0 1.101.271 1.986.814 2.658.543.671 1.253 1.007 2.132 1.007 1.216 0 2.115-.54 2.695-1.619l.204.182a2.998 2.998 0 0 1-1.256 1.39c-.577.341-1.235.512-1.973.512a4.094 4.094 0 0 1-1.94-.471 3.387 3.387 0 0 1-1.377-1.296c-.323-.55-.484-1.183-.484-1.898 0-1.171.378-2.141 1.133-2.909.756-.767 1.709-1.151 2.86-1.151.387 0 .876.065 1.47.195.334.075.564.113.691.113.198 0 .336-.078.415-.232h.217zm1.49 3.752c0-1.092.395-2.003 1.186-2.733.791-.73 1.777-1.095 2.958-1.095 1.147 0 2.117.37 2.91 1.111.793.741 1.19 1.646 1.19 2.717 0 1.092-.4 2.014-1.2 2.768-.799.753-1.777 1.13-2.932 1.13-1.151 0-2.124-.377-2.919-1.13-.796-.753-1.193-1.676-1.193-2.768zm1.186.013c0 1.075.268 1.944.804 2.607.536.663 1.239.995 2.109.995.879 0 1.591-.339 2.138-1.017.547-.678.82-1.523.82-2.535 0-1.088-.268-1.961-.804-2.62-.536-.66-1.23-.989-2.082-.989-.905 0-1.629.324-2.171.973-.543.649-.814 1.511-.814 2.586zm15.577-3.659h1.825v.213c-.58.013-.87.339-.87.979 0 .054.002.111.007.169l.389 4.537c.044.484.131.805.261.965.13.16.363.254.702.284v.213h-2.781v-.213c.294-.046.503-.139.624-.278.122-.139.182-.351.182-.637 0-.059-.002-.124-.007-.196l-.414-4.761-2.648 6.085h-.203l-2.613-6.07-.435 4.527a3.583 3.583 0 0 0-.006.201c0 .635.335 1.012 1.006 1.129v.213H63.21v-.213c.321-.042.552-.15.695-.323.143-.173.24-.517.293-1.032l.468-5.064a1.751 1.751 0 0 0-1.009-.515v-.213h1.959l2.473 5.792 2.507-5.792zm3.195 0h2.82c.923 0 1.653.195 2.191.584.538.389.807.891.807 1.506 0 .611-.235 1.081-.705 1.409-.47.328-1.144.492-2.023.492-.338 0-.734-.025-1.186-.075v2.062c0 .444.063.75.188.918.125.168.355.252.689.252v.213h-2.781v-.213c.334 0 .563-.088.689-.264.125-.176.188-.469.188-.88v-4.617c0-.44-.063-.746-.188-.917-.126-.172-.355-.258-.689-.258v-.212zm2.86.283h-.956v3.301c.259.084.577.126.956.126.58 0 1.038-.142 1.374-.427s.504-.674.504-1.167c0-.531-.167-.97-.5-1.314-.335-.347-.794-.519-1.378-.519zm7.36 7.079v-.213c.443 0 .665-.147.665-.44a.82.82 0 0 0-.059-.283l-.718-2.044h-2.481l-.528 1.478c-.132.373-.198.644-.198.811 0 .31.204.47.611.478v.213h-1.996v-.213c.286-.038.508-.128.666-.27.159-.143.319-.438.482-.887l2.138-6.072h.795l2.244 6.342c.132.374.269.614.412.723.143.109.373.164.689.164v.213h-2.722zm-2.45-3.433h2.18l-1.096-3.119-1.084 3.119zm11.623-3.715v-.213h2.332v.213c-.373 0-.632.084-.778.251-.145.167-.217.471-.217.91v5.987h-.237l-5.476-6.401v5.17c0 .365.078.625.234.782.156.157.416.236.78.236v.213h-2.346v-.213c.374 0 .626-.093.758-.28.132-.186.197-.514.197-.983v-4.309c0-.464-.089-.799-.267-1.002-.177-.203-.471-.323-.88-.361v-.213h1.984l4.856 5.73v-4.305c0-.452-.067-.767-.201-.945-.132-.178-.379-.267-.739-.267zm8.875.834l-1.739 2.611v2.32c0 .449.06.756.181.921.12.165.343.248.669.248v.213h-2.82v-.213c.382 0 .636-.088.761-.264.125-.176.188-.478.188-.905v-2.32l-1.648-2.441c-.272-.406-.494-.671-.665-.797-.172-.126-.408-.195-.712-.207v-.213h3.025v.213c-.532 0-.797.115-.797.345 0 .104.052.234.158.389l1.528 2.23 1.224-1.848c.18-.276.27-.512.27-.709 0-.272-.171-.407-.512-.407v-.213h2.122v.213c-.286.017-.506.076-.662.179-.156.102-.346.32-.571.655z"/></svg>