<?xml version="1.0" encoding="utf-8"?>
<!-- Generator: Adobe Illustrator 18.1.0, SVG Export Plug-In . SVG Version: 6.00 Build 0)  -->
<svg version="1.1" id="Слой_1" xmlns="http://www.w3.org/2000/svg" xmlns:xlink="http://www.w3.org/1999/xlink" x="0px" y="0px"
	 viewBox="0 0 216.092 54.606" enable-background="new 0 0 216.092 54.606" xml:space="preserve">
<g>
	<g>
		<path fill="#B1B1B1" d="M59.491,13.741h106.361c-0.64-1.249-1.006-2.635-1.006-4.107H58.321
			C58.856,10.937,59.244,12.315,59.491,13.741z"/>
		<path fill="#B1B1B1" d="M193.675,9.633h-8.006c0,1.472-0.366,2.859-1.004,4.107h9.01c10.097,0,18.311,8.215,18.311,18.312
			s-8.214,18.311-18.311,18.311H42.531c-8.375,0-15.437-5.662-17.61-13.349h-4.238c2.267,9.976,11.193,17.452,21.847,17.452h151.144
			c12.36,0,22.417-10.054,22.417-22.415C216.092,19.69,206.035,9.633,193.675,9.633z"/>
	</g>
	<g>
		<path fill="#00625C" d="M75.661,23.578c2.406,0,3.319,1.493,3.775,3.152h7.385c-1.078-6.513-5.601-9.625-11.201-9.625
			c-3.444,0-6.058,1.161-8.215,3.32c-3.112,3.11-2.987,7.26-2.987,11.699c0,4.441-0.125,8.587,2.987,11.699
			c2.157,2.159,4.771,3.32,8.215,3.32c5.6,0,10.123-3.112,11.201-9.625h-7.385c-0.457,1.659-1.37,3.154-3.775,3.154
			c-1.328,0-2.324-0.542-2.863-1.246c-0.664-0.874-1.12-1.908-1.12-7.302s0.456-6.43,1.12-7.302
			C73.337,24.116,74.333,23.578,75.661,23.578z"/>
		<polygon fill="#00625C" points="87.645,23.827 94.906,23.827 94.906,46.894 102.166,46.894 102.166,23.827 109.426,23.827 
			109.426,17.354 87.645,17.354 		"/>
		<path fill="#00625C" d="M124.526,17.354h-11.701v29.54h7.26V36.357h4.441c5.89,0,10.08-3.984,10.08-9.501
			S130.373,17.354,124.526,17.354z M124.192,29.842h-4.107v-5.973h4.107c1.825,0,3.152,1.285,3.152,2.986
			C127.344,28.555,126.017,29.842,124.192,29.842z"/>
		<path fill="#00625C" d="M148.248,17.106c-3.359,0-6.098,1.078-8.215,3.32c-2.323,2.406-2.986,4.894-2.986,10.661v2.159
			c0,3.609,0.04,7.508,2.986,10.578c2.159,2.242,4.856,3.32,8.3,3.32c3.359,0,6.096-1.078,8.215-3.32
			c2.863-2.984,2.986-6.679,2.986-10.497V29.51c0-4.273-0.913-6.928-2.986-9.085C154.389,18.184,151.65,17.106,148.248,17.106z
			 M152.273,32.914c0,3.775-0.289,5.434-1.078,6.428c-0.664,0.832-1.742,1.332-2.903,1.332c-1.161,0-2.24-0.5-2.905-1.332
			c-0.787-0.993-1.078-2.652-1.078-6.428V30.88c0-2.78,0.291-4.979,1.078-6.015c0.666-0.832,1.702-1.287,2.905-1.287
			c1.204,0,2.24,0.455,2.903,1.287c0.789,1.036,1.078,3.235,1.078,6.015V32.914z"/>
		<path fill="#00625C" d="M175.336,15.944c3.195,0,7.013-1.41,7.138-6.307h-4.939c-0.085,1.659-1.038,2.199-2.199,2.199
			s-2.114-0.54-2.197-2.199H168.2C168.325,14.534,172.141,15.944,175.336,15.944z"/>
		<polygon fill="#00625C" points="180.441,17.354 170.98,33.452 170.98,17.354 163.72,17.354 163.72,46.894 170.067,46.894 
			179.526,30.795 179.526,46.894 186.786,46.894 186.786,17.354 		"/>
		<path fill="#00625C" d="M39.928,0H17.134C7.687,0,0,7.689,0,17.137c0,9.45,7.687,17.137,17.134,17.137h22.794
			c9.449,0,17.138-7.687,17.138-17.137C57.066,7.689,49.377,0,39.928,0z M25.662,11.618h-8.029v3.093h6.86v4.054h-6.86v3.248h8.029
			v4.054H13.085V7.564h12.576V11.618z M43.332,26.067h-4.547V15.982l-5.926,10.084h-3.975V7.564h4.547v10.084l5.925-10.084h3.976
			V26.067z"/>
	</g>
</g>
</svg>
