<svg xmlns="http://www.w3.org/2000/svg" viewBox="0 0 362.834 53.814"><path fill="#0B0204" d="M31.207 42.021v-.059c0 7.819-3.889 11.731-11.67 11.731h-7.789v-8.827h7.726c1.414 0 2.31-.147 2.683-.437.832-.626 1.249-1.368 1.249-3.033 0-1.706-.417-2.225-1.249-2.806-.373-.334-1.249-.499-2.62-.499h-7.803C3.911 38.091 0 34.201 0 26.42c0-7.823 3.891-11.734 11.672-11.734h17.6v8.679H11.734c-1.414 0-2.31.145-2.683.437-.832.625-1.25 1.449-1.25 3.114 0 1.706.417 2.292 1.25 2.874.373.334 1.247.499 2.622.499h7.801c7.823-.001 11.733 3.912 11.733 11.732m44.242-27.407c-5.502 0-9.084 1.684-11.443 3.946-2.358-2.262-5.94-3.946-11.442-3.946-16.016 0-15.38 15.888-15.38 15.888v23.26h8.897v-23.26s-.636-7.467 6.164-7.467c6.29 0 7.219 4.431 7.317 6.463a13.75 13.75 0 0 0-.003.893l-.009.111v11.636h8.904l.007-11.636-.009-.111c.006-.131.01-.439-.003-.893.098-2.032 1.027-6.463 7.317-6.463 6.8 0 6.165 7.467 6.165 7.467v23.26h8.897v-23.26c.001.001.636-15.888-15.379-15.888m61.641 18.627c-.135-11.04-9.117-19.951-20.19-19.951-11.157 0-20.202 9.045-20.202 20.202 0 11.158 9.045 20.201 20.202 20.201 4.188 0 8.08-1.274 11.306-3.457v3.457h8.898V33.245l-.014-.004zM116.9 44.796c-6.244 0-11.304-5.061-11.304-11.305s5.06-11.305 11.304-11.305c6.244 0 11.304 5.061 11.304 11.305 0 6.245-5.06 11.305-11.304 11.305m98.721-10.357c.135 11.04 9.118 19.951 20.19 19.951 11.156 0 20.202-9.045 20.202-20.203 0-11.157-9.046-20.201-20.202-20.201a20.109 20.109 0 0 0-11.306 3.457v-2.881h-8.897v19.872l.013.005zm20.19-11.555c6.244 0 11.304 5.061 11.304 11.304 0 6.245-5.06 11.305-11.304 11.305-6.243 0-11.305-5.06-11.305-11.305.001-6.243 5.062-11.304 11.305-11.304m-71.405-8.22c-2.203-.226-3.637 0-5.945 0-16.016 0-15.381 15.889-15.381 15.889v23.26h8.897v-23.26s-.621-7.863 12.428-7.059v-8.83zm14.877 8.798h12.428v-8.897h-21.33v8.897h.004v14.363s-.635 15.888 15.38 15.888c2.308 0 3.742.227 5.946 0v-8.83c-13.048.804-12.428-7.058-12.428-7.058V23.462zM282.189 13.29c-11.155 0-20.202 9.045-20.202 20.202 0 11.158 9.046 20.201 20.202 20.201 11.156 0 20.202-9.044 20.202-20.201s-9.046-20.202-20.202-20.202m0 31.506c-6.244 0-11.304-5.061-11.304-11.305s5.061-11.305 11.304-11.305c6.245 0 11.305 5.061 11.305 11.305 0 6.245-5.06 11.305-11.305 11.305m26.176-31.355h10.487l8.761 12.329 8.207-12.329h10.994l-13.981 20.074 13.981 20.028h-10.93l-8.294-12.394-8.357 12.394h-10.55l13.854-20.028z"/><path fill="#ED2D24" d="M.001 44.866h8.898v8.897H.001z"/><path fill="#4CB648" d="M59.558 44.866h8.897v8.897h-8.897z"/><path fill="#008CCA" d="M170.382 2.939h8.897v8.898h-8.897z"/><path fill="#F26B21" d="M215.608 2.939h8.897v8.898h-8.897z"/><path fill="#0B0204" d="M353.203 3.349c.556-.091 1.386-.16 2.306-.16 1.136 0 1.931.171 2.477.603.454.364.704.897.704 1.603 0 .977-.693 1.647-1.352 1.885v.034c.534.215.829.728 1.022 1.432.239.863.478 1.863.626 2.159h-1.773c-.125-.216-.307-.841-.534-1.784-.204-.954-.535-1.216-1.239-1.228h-.523v3.012h-1.715V3.349zm1.715 3.295h.682c.863 0 1.375-.432 1.375-1.103 0-.704-.477-1.056-1.273-1.068-.42 0-.658.034-.783.056v2.115z"/><path fill="#0B0204" d="M356.002.215a6.832 6.832 0 1 0 0 13.665 6.832 6.832 0 0 0 0-13.665m0 12.829a5.996 5.996 0 0 1-5.997-5.997 5.996 5.996 0 0 1 5.997-5.997 5.996 5.996 0 0 1 5.997 5.997 5.996 5.996 0 0 1-5.997 5.997"/></svg>