<?xml version="1.0" encoding="utf-8"?>
<!-- Generator: Adobe Illustrator 18.1.0, SVG Export Plug-In . SVG Version: 6.00 Build 0)  -->
<svg version="1.1" id="Слой_1" xmlns="http://www.w3.org/2000/svg" xmlns:xlink="http://www.w3.org/1999/xlink" x="0px" y="0px"
	 viewBox="0 0 362.834 53.814" enable-background="new 0 0 362.834 53.814" xml:space="preserve">
<g>
	<path d="M31.207,42.021v-0.059c0,7.819-3.889,11.731-11.67,11.731h-7.789v-8.827h7.726c1.414,0,2.31-0.147,2.683-0.437
		c0.832-0.626,1.249-1.368,1.249-3.033c0-1.706-0.417-2.225-1.249-2.806c-0.373-0.334-1.249-0.499-2.62-0.499h-7.803
		C3.911,38.091,0,34.201,0,26.42c0-7.823,3.891-11.734,11.672-11.734h17.6v8.679H11.734c-1.414,0-2.31,0.145-2.683,0.437
		c-0.832,0.625-1.25,1.449-1.25,3.114c0,1.706,0.417,2.292,1.25,2.874c0.373,0.334,1.247,0.499,2.622,0.499h7.801
		C27.297,30.288,31.207,34.201,31.207,42.021"/>
	<path d="M75.449,14.614c-5.502,0-9.084,1.684-11.443,3.946c-2.358-2.262-5.94-3.946-11.442-3.946
		c-16.016,0-15.38,15.888-15.38,15.888v23.26h8.897v-23.26c0,0-0.636-7.467,6.164-7.467c6.29,0,7.219,4.431,7.317,6.463
		c-0.013,0.454-0.009,0.762-0.003,0.893c-0.005,0.068-0.009,0.111-0.009,0.111v11.636h8.904l0.007-11.636
		c0,0-0.004-0.043-0.009-0.111c0.006-0.131,0.01-0.439-0.003-0.893c0.098-2.032,1.027-6.463,7.317-6.463
		c6.8,0,6.165,7.467,6.165,7.467v23.26h8.897v-23.26C90.829,30.503,91.464,14.614,75.449,14.614"/>
	<path d="M137.09,33.241c-0.135-11.04-9.117-19.951-20.19-19.951c-11.157,0-20.202,9.045-20.202,20.202
		c0,11.158,9.045,20.201,20.202,20.201c4.188,0,8.08-1.274,11.306-3.457v3.457h8.898V33.245L137.09,33.241z M116.9,44.796
		c-6.244,0-11.304-5.061-11.304-11.305c0-6.244,5.06-11.305,11.304-11.305c6.244,0,11.304,5.061,11.304,11.305
		C128.204,39.736,123.144,44.796,116.9,44.796"/>
	<path d="M215.621,34.439c0.135,11.04,9.118,19.951,20.19,19.951c11.156,0,20.202-9.045,20.202-20.203
		c0-11.157-9.046-20.201-20.202-20.201c-4.188,0-8.079,1.274-11.306,3.457v-2.881h-8.897v19.872L215.621,34.439z M235.811,22.884
		c6.244,0,11.304,5.061,11.304,11.304c0,6.245-5.06,11.305-11.304,11.305c-6.243,0-11.305-5.06-11.305-11.305
		C224.507,27.945,229.568,22.884,235.811,22.884"/>
	<path d="M164.406,14.664c-2.203-0.226-3.637,0-5.945,0c-16.016,0-15.381,15.889-15.381,15.889v23.26h8.897v-23.26
		c0,0-0.621-7.863,12.428-7.059V14.664z"/>
	<path d="M179.283,23.462h12.428v-8.897h-12.428h-8.898h-0.004v8.897h0.004v14.363c0,0-0.635,15.888,15.38,15.888
		c2.308,0,3.742,0.227,5.946,0v-8.83c-13.048,0.804-12.428-7.058-12.428-7.058V23.462z"/>
	<path d="M282.189,13.29c-11.155,0-20.202,9.045-20.202,20.202c0,11.158,9.046,20.201,20.202,20.201
		c11.156,0,20.202-9.044,20.202-20.201C302.391,22.335,293.345,13.29,282.189,13.29 M282.189,44.796
		c-6.244,0-11.304-5.061-11.304-11.305c0-6.244,5.061-11.305,11.304-11.305c6.245,0,11.305,5.061,11.305,11.305
		C293.494,39.736,288.434,44.796,282.189,44.796"/>
	<polygon points="308.365,13.441 318.852,13.441 327.613,25.77 335.82,13.441 346.814,13.441 332.833,33.515 346.814,53.543 
		335.884,53.543 327.59,41.149 319.233,53.543 308.683,53.543 322.537,33.515 	"/>
	<rect x="0.001" y="44.866" width="8.898" height="8.897"/>
	<rect x="59.558" y="44.866" width="8.897" height="8.897"/>
	<rect x="170.382" y="2.939" width="8.897" height="8.898"/>
	<rect x="215.608" y="2.939" width="8.897" height="8.898"/>
	<path d="M353.203,3.349c0.556-0.091,1.386-0.16,2.306-0.16c1.136,0,1.931,0.171,2.477,0.603c0.454,0.364,0.704,0.897,0.704,1.603
		c0,0.977-0.693,1.647-1.352,1.885v0.034c0.534,0.215,0.829,0.728,1.022,1.432c0.239,0.863,0.478,1.863,0.626,2.159h-1.773
		c-0.125-0.216-0.307-0.841-0.534-1.784c-0.204-0.954-0.535-1.216-1.239-1.228h-0.523v3.012h-1.715V3.349z M354.918,6.644h0.682
		c0.864,0,1.375-0.432,1.375-1.103c0-0.704-0.477-1.056-1.273-1.068c-0.42,0-0.658,0.034-0.783,0.056V6.644z"/>
	<path d="M356.002,0.215c-3.773,0-6.832,3.059-6.832,6.832s3.059,6.832,6.832,6.832s6.832-3.059,6.832-6.832
		S359.775,0.215,356.002,0.215 M356.002,13.044c-3.312,0-5.997-2.684-5.997-5.997c0-3.313,2.685-5.997,5.997-5.997
		c3.312,0,5.997,2.684,5.997,5.997C361.999,10.36,359.314,13.044,356.002,13.044"/>
</g>
</svg>
