<svg xmlns="http://www.w3.org/2000/svg" viewBox="0 0 335.193 106.258"><path d="M0 53.13C0 23.784 23.787 0 53.129 0c29.346 0 53.133 23.784 53.133 53.13 0 29.343-23.787 53.128-53.133 53.128a53.105 53.105 0 0 1-16.59-2.643c3.786-21.921 17.627-39.806 35.931-47.382a11.792 11.792 0 0 0 8.933 4.081c6.523 0 11.813-5.286 11.813-11.813 0-6.522-5.29-11.808-11.813-11.808-6.512 0-11.793 5.273-11.81 11.782-23.345 7.029-42.261 23.321-51.867 44.265a53.48 53.48 0 0 1-8.128-9.147c.565-20.389 10.656-38.217 25.761-48.73a11.79 11.79 0 0 0 8.83 3.962c6.521 0 11.809-5.286 11.809-11.808 0-6.523-5.288-11.813-11.809-11.813-6.525 0-11.81 5.289-11.81 11.813 0 .348.011.689.044 1.026C18.358 32.979 6.817 42.746.04 55.2A54.726 54.726 0 0 1 0 53.13m315.708 14.775V26.203c0-.549-.238-.784-.79-.784h-9.373c-.552 0-.788.234-.788.784v44.701c0 8.037 3.105 9.419 10.248 9.419.232 0 .404-.019.574-.186.156-.155.129-.562.129-.562v-11.67zm-176.593 0V26.203c0-.548-.238-.784-.79-.784h-9.373c-.551 0-.786.236-.786.784v44.701c0 8.036 3.105 9.421 10.248 9.421.229 0 .405-.021.572-.192.157-.151.129-.559.129-.559V67.905zm30.183 12.451c-.551 0-.788-.234-.788-.781V50.227c0-.315-.158-.47-.473-.47h-2.364c-.552 0-.788-.236-.788-.782v-6.496c0-.547.236-.781.788-.781h2.364c.315 0 .473-.158.473-.471v-2.738c0-9.155 4.255-13.069 13.392-13.069h5.941c.552 0 .789.234.789.782v7.067c0 .549-.237.785-.789.785h-4.051c-3.469 0-4.332.859-4.332 4.069v3.104c0 .314.156.471.47.471h5.018c.552 0 .789.234.789.781v6.496c0 .547-.237.782-.789.782h-5.018c-.314 0-.47.155-.47.47v29.348c0 .547-.237.781-.788.781h-9.374zm-20.844-46.365c-.551 0-.788-.234-.788-.785v-7.004c0-.548.237-.782.788-.782h9.453c.553 0 .788.234.788.782v7.004c0 .551-.235.785-.788.785h-9.453zm0 46.365c-.551 0-.788-.234-.788-.781V42.479c0-.547.237-.781.788-.781h9.453c.553 0 .788.234.788.781v37.096c0 .547-.235.781-.788.781h-9.453zm81.412-10.188c-.788-2.293-1.089-5.38-1.089-9.17 0-3.797.301-6.88 1.089-9.173 2.205-7.037 8.271-10.832 16.463-10.832 6.303 0 11.578 2.847 14.417 7.195.237.395.237.792-.158 1.107l-6.855 4.506c-.471.318-.866.238-1.18-.158-1.574-2.214-3.626-3.321-6.069-3.321-3.071 0-5.04 1.345-5.904 4.111-.474 1.344-.712 3.559-.712 6.565 0 3.001.238 5.217.712 6.56.864 2.767 2.833 4.111 5.904 4.111 2.442 0 4.495-1.108 6.069-3.322.314-.395.708-.473 1.18-.158l6.855 4.506c.395.316.395.714.158 1.107-2.838 4.349-8.114 7.195-14.417 7.195-8.192 0-14.258-3.794-16.463-10.829zm34.607-.079c-.866-2.69-1.245-5.693-1.245-9.091 0-3.559.3-6.643 1.164-9.173 2.208-6.878 8.274-10.83 16.388-10.832 8.27 0 14.256 4.032 16.466 10.754.864 2.688 1.018 6.639 1.018 11.78 0 .553-.315.79-.864.79h-22.643c-.315 0-.474.159-.474.475.081.789.036 1.5.275 2.132 1.022 3.401 3.7 5.054 7.877 5.062 3.062.007 5.492-.969 7.022-2.032 1.403-.974 1.381-1.326 2.164-.692l5.858 4.225c.525.39.473.711.079 1.106-4.018 4.27-9.375 6.404-16.228 6.404-8.586 0-14.65-3.952-16.857-10.908zm22.687-13.126c.318 0 .474-.156.474-.474 0-1.027-.156-1.975-.395-2.845-.944-2.766-2.873-4.19-6.181-4.19-2.953 0-5.636 1.425-6.581 4.19-.236.87-.393 1.818-.393 2.845 0 .318.158.474.473.474h12.603zm-97.705 13.126c-.869-2.69-1.244-5.693-1.244-9.091 0-3.559.297-6.643 1.164-9.173 2.208-6.878 8.274-10.83 16.387-10.832 8.27 0 14.258 4.032 16.466 10.754.864 2.688 1.018 6.639 1.018 11.78 0 .553-.314.79-.864.79H199.74c-.316 0-.473.159-.473.475.078.789.034 1.5.274 2.132 1.021 3.401 3.7 5.054 7.875 5.062 3.062.007 5.493-.969 7.025-2.032 1.4-.974 1.375-1.326 2.162-.692l5.86 4.225c.523.39.47.711.078 1.106-4.017 4.27-9.375 6.404-16.229 6.404-8.584 0-14.651-3.952-16.857-10.908zm22.691-13.126c.315 0 .47-.156.47-.474 0-1.027-.155-1.975-.393-2.845-.945-2.766-2.871-4.19-6.182-4.19-2.953 0-5.634 1.425-6.579 4.19-.237.87-.396 1.818-.396 2.845 0 .318.159.474.475.474h12.605zm123.045 10.942V26.203c0-.549-.236-.784-.788-.784h-9.373c-.552 0-.789.234-.789.784v44.701c0 8.037 3.107 9.419 10.249 9.419.23 0 .403-.019.573-.186.156-.155.127-.562.127-.562v-11.67z"/></svg>