<?xml version="1.0" encoding="utf-8"?>
<!-- Generator: Adobe Illustrator 18.1.0, SVG Export Plug-In . SVG Version: 6.00 Build 0)  -->
<svg version="1.1" id="Слой_1" xmlns="http://www.w3.org/2000/svg" xmlns:xlink="http://www.w3.org/1999/xlink" x="0px" y="0px"
	 viewBox="0 0 335.193 106.258" enable-background="new 0 0 335.193 106.258" xml:space="preserve">
<g>
	<g>
		<g>
			<path d="M0,53.13C0,23.784,23.787,0,53.129,0c29.346,0,53.133,23.784,53.133,53.13c0,29.343-23.787,53.128-53.133,53.128
				c-5.791,0-11.369-0.929-16.59-2.643c3.786-21.921,17.627-39.806,35.931-47.382c2.167,2.5,5.367,4.081,8.933,4.081
				c6.523,0,11.813-5.286,11.813-11.813c0-6.522-5.29-11.808-11.813-11.808c-6.512,0-11.793,5.273-11.81,11.782
				c-23.345,7.029-42.261,23.321-51.867,44.265c-3.045-2.722-5.774-5.793-8.128-9.147c0.565-20.389,10.656-38.217,25.761-48.73
				c2.162,2.43,5.319,3.962,8.83,3.962c6.521,0,11.809-5.286,11.809-11.808c0-6.523-5.288-11.813-11.809-11.813
				c-6.525,0-11.81,5.289-11.81,11.813c0,0.348,0.011,0.689,0.044,1.026C18.358,32.979,6.817,42.746,0.04,55.2
				C0.014,54.513,0,53.823,0,53.13"/>
		</g>
	</g>
	<g>
		<path d="M315.708,67.905v-3.201c0-0.312,0-38.501,0-38.501c0-0.549-0.238-0.784-0.79-0.784h-9.373
			c-0.552,0-0.788,0.234-0.788,0.784v44.701c0,8.037,3.105,9.419,10.248,9.419c0.232,0,0.404-0.019,0.574-0.186
			c0.156-0.155,0.129-0.562,0.129-0.562V67.905z"/>
		<path d="M139.115,67.905v-3.201c0-0.314,0-38.501,0-38.501c0-0.548-0.238-0.784-0.79-0.784h-9.373
			c-0.551,0-0.786,0.236-0.786,0.784v44.701c0,8.036,3.105,9.421,10.248,9.421c0.229,0,0.405-0.021,0.572-0.192
			c0.157-0.151,0.129-0.559,0.129-0.559V67.905z"/>
		<path d="M169.298,80.356c-0.551,0-0.788-0.234-0.788-0.781V50.227c0-0.315-0.158-0.47-0.473-0.47h-2.364
			c-0.552,0-0.788-0.236-0.788-0.782v-6.496c0-0.547,0.236-0.781,0.788-0.781h2.364c0.315,0,0.473-0.158,0.473-0.471v-2.738
			c0-9.155,4.255-13.069,13.392-13.069h5.941c0.552,0,0.789,0.234,0.789,0.782v7.067c0,0.549-0.237,0.785-0.789,0.785h-4.051
			c-3.469,0-4.332,0.859-4.332,4.069v3.104c0,0.314,0.156,0.471,0.47,0.471h5.018c0.552,0,0.789,0.234,0.789,0.781v6.496
			c0,0.547-0.237,0.782-0.789,0.782h-5.018c-0.314,0-0.47,0.155-0.47,0.47v29.348c0,0.547-0.237,0.781-0.788,0.781H169.298z"/>
		<path d="M148.454,33.991c-0.551,0-0.788-0.234-0.788-0.785v-7.004c0-0.548,0.237-0.782,0.788-0.782h9.453
			c0.553,0,0.788,0.234,0.788,0.782v7.004c0,0.551-0.235,0.785-0.788,0.785H148.454z M148.454,80.356
			c-0.551,0-0.788-0.234-0.788-0.781V42.479c0-0.547,0.237-0.781,0.788-0.781h9.453c0.553,0,0.788,0.234,0.788,0.781v37.096
			c0,0.547-0.235,0.781-0.788,0.781H148.454z"/>
		<path d="M229.866,70.168c-0.788-2.293-1.089-5.38-1.089-9.17c0-3.797,0.301-6.88,1.089-9.173
			c2.205-7.037,8.271-10.832,16.463-10.832c6.303,0,11.578,2.847,14.417,7.195c0.237,0.395,0.237,0.792-0.158,1.107l-6.855,4.506
			c-0.471,0.318-0.866,0.238-1.18-0.158c-1.574-2.214-3.626-3.321-6.069-3.321c-3.071,0-5.04,1.345-5.904,4.111
			c-0.474,1.344-0.712,3.559-0.712,6.565c0,3.001,0.238,5.217,0.712,6.56c0.864,2.767,2.833,4.111,5.904,4.111
			c2.442,0,4.495-1.108,6.069-3.322c0.314-0.395,0.708-0.473,1.18-0.158l6.855,4.506c0.395,0.316,0.395,0.714,0.158,1.107
			c-2.838,4.349-8.114,7.195-14.417,7.195C238.137,80.997,232.071,77.203,229.866,70.168z"/>
		<path d="M264.473,70.089c-0.866-2.69-1.245-5.693-1.245-9.091c0-3.559,0.3-6.643,1.164-9.173
			c2.208-6.878,8.274-10.83,16.388-10.832c8.27,0,14.256,4.032,16.466,10.754c0.864,2.688,1.018,6.639,1.018,11.78
			c0,0.553-0.315,0.79-0.864,0.79h-22.643c-0.315,0-0.474,0.159-0.474,0.475c0.081,0.789,0.036,1.5,0.275,2.132
			c1.022,3.401,3.7,5.054,7.877,5.062c3.062,0.007,5.492-0.969,7.022-2.032c1.403-0.974,1.381-1.326,2.164-0.692l5.858,4.225
			c0.525,0.39,0.473,0.711,0.079,1.106c-4.018,4.27-9.375,6.404-16.228,6.404C272.744,80.997,266.68,77.045,264.473,70.089z
			 M287.16,56.963c0.318,0,0.474-0.156,0.474-0.474c0-1.027-0.156-1.975-0.395-2.845c-0.944-2.766-2.873-4.19-6.181-4.19
			c-2.953,0-5.636,1.425-6.581,4.19c-0.236,0.87-0.393,1.818-0.393,2.845c0,0.318,0.158,0.474,0.473,0.474H287.16z"/>
		<path d="M189.455,70.089c-0.869-2.69-1.244-5.693-1.244-9.091c0-3.559,0.297-6.643,1.164-9.173
			c2.208-6.878,8.274-10.83,16.387-10.832c8.27,0,14.258,4.032,16.466,10.754c0.864,2.688,1.018,6.639,1.018,11.78
			c0,0.553-0.314,0.79-0.864,0.79H199.74c-0.316,0-0.473,0.159-0.473,0.475c0.078,0.789,0.034,1.5,0.274,2.132
			c1.021,3.401,3.7,5.054,7.875,5.062c3.062,0.007,5.493-0.969,7.025-2.032c1.4-0.974,1.375-1.326,2.162-0.692l5.86,4.225
			c0.523,0.39,0.47,0.711,0.078,1.106c-4.017,4.27-9.375,6.404-16.229,6.404C197.728,80.997,191.661,77.045,189.455,70.089z
			 M212.146,56.963c0.315,0,0.47-0.156,0.47-0.474c0-1.027-0.155-1.975-0.393-2.845c-0.945-2.766-2.871-4.19-6.182-4.19
			c-2.953,0-5.634,1.425-6.579,4.19c-0.237,0.87-0.396,1.818-0.396,2.845c0,0.318,0.159,0.474,0.475,0.474H212.146z"/>
		<path d="M335.191,67.905v-3.201c0-0.312,0-38.501,0-38.501c0-0.549-0.236-0.784-0.788-0.784h-9.373
			c-0.552,0-0.789,0.234-0.789,0.784v44.701c0,8.037,3.107,9.419,10.249,9.419c0.23,0,0.403-0.019,0.573-0.186
			c0.156-0.155,0.127-0.562,0.127-0.562V67.905z"/>
	</g>
</g>
</svg>
