<?xml version="1.0" encoding="utf-8"?>
<!-- Generator: Adobe Illustrator 18.1.0, SVG Export Plug-In . SVG Version: 6.00 Build 0)  -->
<svg version="1.1" id="Слой_1" xmlns="http://www.w3.org/2000/svg" xmlns:xlink="http://www.w3.org/1999/xlink" x="0px" y="0px"
	 viewBox="0 0 266.418 90.716" enable-background="new 0 0 266.418 90.716" xml:space="preserve">
<g>
	<path fill-rule="evenodd" clip-rule="evenodd" fill="#004A9A" d="M182.956,90.554h9.948V67.467l0.106-7.082
		c1.948-1.623,4.381-2.164,7.085-2.164c5.352-0.107,8.326,4.433,8.326,10.11v22.223h9.896V67.197
		c0-12.435-7.192-16.652-14.004-16.87c-7.138-0.216-14.221,2.002-21.411,3.84l0.054,8.76V90.554z"/>
	<rect x="227.747" y="50.292" fill-rule="evenodd" clip-rule="evenodd" fill="#004A9A" width="10.274" height="40.262"/>
	<path fill-rule="evenodd" clip-rule="evenodd" fill="#004A9A" d="M247.455,40.209v12.239v7.462v16.37
		c0,5.245,0.973,8.812,3.135,11.083c1.893,2.053,5.029,3.353,8.76,3.353c3.19,0,5.609-0.486,7.069-1.081V82.01
		c-1.135,0.326-1.985,0.487-3.879,0.487c-3.892,0-5.191-2.54-5.191-7.354V58.487h9.07v-8.212h-9.07V40.209H247.455z"/>
	<path fill-rule="evenodd" clip-rule="evenodd" fill="#004A9A" d="M173.529,66.277c0-8.379-3.706-15.996-16.627-15.996h-0.054
		c-4.972,0-9.245,1.026-12.327,2.325v7.299c2.759-1.623,6.814-2.758,10.652-2.758c0.595,0,1.189,0.055,1.675,0.11
		c5.624,0.593,6.765,4.1,6.765,6.425v0.65c-2.273-0.055-4.763,0.054-6.765,0.27c-10.578,1.075-16.705,5.198-16.705,12.646
		c0,7.158,4.954,13.296,20.147,13.296h13.24V66.277L173.529,66.277z M156.848,84.049L156.848,84.049
		c-3.838-0.541-7.243-1.876-7.243-6.202c0-3.839,3.081-5.785,7.243-6.65c2.163-0.431,4.33-0.595,6.765-0.542v13.718
		C162.192,84.373,159.39,84.373,156.848,84.049z"/>
	<path fill-rule="evenodd" clip-rule="evenodd" fill="#004A9A" d="M79.779,90.554h10.165V67.776c0-7.519,1.012-10.685,11.245-8.907
		v-7.462c-5.244-1.513-10.436-1.403-13.84,0c-4.543,1.894-7.571,5.789-7.571,12.653V90.554z"/>
	<path fill-rule="evenodd" clip-rule="evenodd" fill="#004A9A" d="M30.17,81.632c-1.893,0.704-4.218,1.298-7.462,1.298
		c-6.921,0-12.327-4.542-12.327-12.436c-0.053-7.082,4.542-12.544,12.327-12.544c3.514,0,5.84,0.703,7.462,1.405v-7.947
		c-2.216-0.649-5.029-1.081-7.786-1.081C8.272,50.328,0,59.356,0,70.927C0,82.93,8.166,90.716,20.707,90.716
		c3.839,0,7.138-0.649,9.463-1.352V81.632z"/>
	<path fill-rule="evenodd" clip-rule="evenodd" fill="#004A9A" d="M107.179,88.714c2.757,1.135,6.921,2.002,10.76,2.002
		c10.651,0,16.328-5.191,16.328-12.165c-0.053-5.731-3.459-9.3-10.703-11.84c-5.139-1.731-7.031-2.921-7.031-5.408
		c0-2.379,1.947-4.054,5.624-4.054c3.461,0,6.596,1.514,8.381,2.487v-7.298c-2.271-0.811-4.704-2.11-9.408-2.11
		c-9.299,0-14.329,5.299-14.329,12.113c-0.107,4.539,3.191,8.651,11.031,11.245c4.975,1.676,6.595,3.027,6.595,5.678
		c0,2.54-1.946,4.27-6.432,4.27c-3.569,0-8.489-1.513-10.814-2.866V88.714z"/>
	<path fill-rule="evenodd" clip-rule="evenodd" fill="#004A9A" d="M72.275,73.251c0.164-0.864,0.324-2.324,0.324-4.108
		c0-8.488-4.215-18.816-17.301-18.816h-1.08c-12.165,0.542-18.6,10.381-18.6,20.764c0,11.189,6.866,18.757,18.6,19.571
		c0.702,0,1.405,0.053,2.162,0.053c4.812,0,8.921-0.812,12.166-1.838v-7.246c-2.974,1.026-6.273,1.622-10.761,1.622
		c-1.242,0-2.433-0.108-3.567-0.324c-4.866-0.973-8.651-4-8.813-9.679h8.813H72.275L72.275,73.251z M45.405,66.44L45.405,66.44
		c0.378-3.895,2.866-9.193,8.813-9.464h0.486c6.759,0,8.435,5.894,8.327,9.464H45.405z"/>
	<path fill-rule="evenodd" clip-rule="evenodd" fill="#004A9A" d="M232.883,34.28c-3.406,0-5.675,2.433-5.675,5.569
		c0,3.028,2.216,5.407,5.623,5.407c3.513,0,5.731-2.379,5.731-5.407C238.506,36.714,236.343,34.28,232.883,34.28z"/>
	<path fill-rule="evenodd" clip-rule="evenodd" fill="#004A9A" d="M163.856,25.542c-0.59-0.492-0.809-1.226-0.696-1.838
		c0.081-0.443,0.123-0.895,0.123-1.363c0-1.548-0.462-2.987-1.267-4.179c-1.314-1.949-3.013-3.61-4.98-4.901
		c-5.3-3.487-11.34-5.936-17.833-7.08c-1.905-0.336-3.654-1.123-5.137-2.243c-2.546-1.925-5.559-3.273-8.839-3.832
		c-1.088-0.186-1.898-0.131-1.986,0.178c-0.025,0.083,0.006,0.179,0.086,0.284c1.1,1.434,2.149,2.942,3.007,4.543
		c-0.009-0.02,0.011,0.02,0,0c0.396,0.805,0.194,1.798-0.505,2.107c-16.355,7.238-24.593,23.408-24.602,38.031h0.164
		c4.599-15.575,19.006-26.939,36.072-26.939c7.135,0,13.797,2,19.487,5.437c0.868,0.524,1.385,1.105,1.231,1.467
		c-0.123,0.294-0.692,0.47-1.468,0.51c-0.375,0.019-0.752,0.028-1.133,0.028c-0.842,0-1.671-0.053-2.488-0.137
		c-2.31-0.241-4.712-0.393-7.175-0.455c-14.185-0.355-26.41,2.504-31.553,6.861l0.047,0.069c5.049-2.575,13.638-4.27,23.388-4.27
		c1.976,0,3.905,0.069,5.765,0.201c3.419,0.244,6.897,0.57,10.416,0.98c2.011,0.236,3.998,0.49,5.962,0.773
		c1.187,0.172,2.467,0.256,3.8,0.265c0.966,0.009,1.779-0.333,2.072-0.864C166.238,28.405,165.409,26.837,163.856,25.542z"/>
</g>
</svg>
