<svg xmlns="http://www.w3.org/2000/svg" viewBox="0 0 329.504 119.415"><path d="M126.785 92.93l-.039.039a.619.619 0 0 1-.857-.137s-2.961-4.326-3.059-4.461c-.098-.117-.234-.117-.351-.02a50.26 50.26 0 0 1-.877.838c-.117.098-.175.195-.175.429v2.863a.607.607 0 0 1-.604.605h-.058a.606.606 0 0 1-.604-.605v-8.123c0-.331.272-.603.604-.603h.058c.332 0 .604.272.604.603v3.156c0 .215.098.273.253.117.156-.137 3.798-3.506 3.798-3.506a.631.631 0 0 1 .858.039l.039.039a.615.615 0 0 1-.059.858s-2.532 2.278-2.649 2.376c-.098.097-.137.213-.019.37.136.175 3.253 4.286 3.253 4.286a.612.612 0 0 1-.116.837zm7.322-9.254a4.876 4.876 0 0 1 3.643 4.733c0 2.727-2.202 4.929-4.91 4.929-5.26 0-5.571-5.279-4.577-10.033.564-2.825 2.727-4.676 5.434-4.676 2.67 0 3.877 2.805.429 4.909-.078.04-.097.098-.019.138zm-4.734 1.46c.428-.603 1.13-1.09 1.909-1.364.799-.311 3.818-1.188 3.818-2.981 0-.565-.389-1.033-1.403-1.033-2.026 0-3.545 1.286-4.168 3.313-.156.506-.351 1.305-.409 1.908-.04.274.137.314.253.157zm7.13 3.274c0-2.026-1.636-3.721-3.663-3.721-2.026 0-3.662 1.695-3.662 3.721s1.636 3.76 3.662 3.76c2.027 0 3.663-1.734 3.663-3.76zm4.087-4.053v8.123a.608.608 0 0 1-.604.605h-.039a.606.606 0 0 1-.604-.605v-8.123c0-.331.272-.603.604-.603h.039c.331 0 .604.272.604.603zm8.492 0v.039a.608.608 0 0 1-.604.605h-2.084c-.098 0-.176.097-.176.194v7.285a.608.608 0 0 1-.604.605h-.058a.607.607 0 0 1-.604-.605v-7.285a.193.193 0 0 0-.194-.194h-2.065a.607.607 0 0 1-.604-.605v-.039c0-.331.272-.603.604-.603h5.785c.331 0 .604.272.604.603zm1.497 5.007v-4.987c0-.351.292-.624.623-.624h.058c.331 0 .604.272.604.624v4.909c0 1.967 1.11 2.844 2.493 2.844 1.792 0 2.649-.838 2.649-2.494v-5.259c0-.351.273-.624.624-.624h.039c.351 0 .624.272.624.624l.019 8.085a.628.628 0 0 1-.624.624h-.059c-.311 0-.603-.235-.603-.507v-.253c0-.078-.098-.117-.157-.039-.565.779-1.734 1.053-2.513 1.053-1.809-.001-3.777-.897-3.777-3.976zm35.822-.816c0 2.651-2.177 4.752-4.828 4.752-1.344 0-2.632-.512-3.389-1.515-.038-.058-.17-.094-.17.113v3.237a.574.574 0 0 1-.587.568h-.039a.557.557 0 0 1-.567-.568V84.572c0-.322.246-.587.567-.587h.039a.59.59 0 0 1 .587.587v.549c0 .246.17.19.245.094.739-.926 2.045-1.458 3.351-1.458a4.784 4.784 0 0 1 4.791 4.791zm-1.211 0c0-1.968-1.609-3.654-3.578-3.654-1.968 0-3.577 1.686-3.577 3.654s1.571 3.616 3.54 3.616c1.986 0 3.615-1.648 3.615-3.616zm11.979-.019c0 2.631-2.139 4.771-4.79 4.771a4.775 4.775 0 0 1-4.77-4.771 4.775 4.775 0 0 1 4.77-4.771 4.779 4.779 0 0 1 4.79 4.771zm-1.231 0c0-1.97-1.59-3.635-3.56-3.635-1.95 0-3.558 1.665-3.558 3.635 0 1.97 1.609 3.635 3.558 3.635 1.97 0 3.56-1.666 3.56-3.635zm10.446 2.12v1.174c0 .189-.056.303-.17.397a4.784 4.784 0 0 1-3.01 1.08c-2.651 0-4.771-2.159-4.771-4.79a4.747 4.747 0 0 1 4.771-4.752c1.135 0 2.234.342 3.029 1.061.075.075.151.19.151.378v1.042c0 .283-.113.416-.416.038-.662-.814-1.647-1.383-2.764-1.383-1.968 0-3.56 1.647-3.56 3.616 0 1.97 1.591 3.654 3.56 3.654 1.193 0 2.215-.662 2.878-1.571.114-.152.302-.266.302.056zm.975 1.799c.171-.341 3.938-8.482 3.938-8.482.132-.283.359-.283.51 0 0 0 3.749 8.141 3.881 8.425.151.321.039.662-.397.662h-.095c-.51 0-.661-.17-.832-.53 0 0-2.31-5.415-2.499-5.812-.058-.113-.171-.416-.228-.549-.113-.283-.094-.302-.19-.019-.038.095-.151.416-.207.549-.171.379-2.518 5.831-2.518 5.831-.209.435-.361.53-.833.53h-.113c-.265.001-.588-.265-.417-.605zm8.514-3.011V84.59a.61.61 0 0 1 .606-.606h.055c.323 0 .587.265.587.606v4.771c0 1.912 1.08 2.764 2.423 2.764 1.742 0 2.575-.814 2.575-2.423V84.59c0-.341.265-.606.606-.606h.038c.341 0 .606.265.606.606l.019 7.857a.61.61 0 0 1-.606.606h-.057c-.303 0-.587-.228-.587-.493v-.245c0-.077-.094-.114-.152-.038-.548.757-1.684 1.022-2.442 1.022-1.759.001-3.671-.87-3.671-3.862zm16.571-4.865v7.895a.59.59 0 0 1-.587.587h-.057a.59.59 0 0 1-.587-.587v-3.332a.17.17 0 0 0-.171-.171h-5.073a.172.172 0 0 0-.171.171v3.332a.59.59 0 0 1-.587.587h-.055a.59.59 0 0 1-.587-.587v-7.895a.59.59 0 0 1 .587-.587h.055a.59.59 0 0 1 .587.587v2.992c0 .094.077.17.171.17h5.073a.17.17 0 0 0 .171-.17v-2.992a.59.59 0 0 1 .587-.587h.056a.59.59 0 0 1 .588.587zm.937 4.865V84.59a.61.61 0 0 1 .606-.606h.057c.322 0 .587.265.587.606v4.771c0 1.912 1.08 2.764 2.423 2.764 1.741 0 2.574-.814 2.574-2.423V84.59c0-.341.266-.606.606-.606h.039c.341 0 .606.265.606.606l.019 7.857a.61.61 0 0 1-.606.606h-.058c-.303 0-.586-.228-.586-.493v-.245c0-.077-.095-.114-.152-.038-.549.757-1.685 1.022-2.442 1.022-1.761.001-3.673-.87-3.673-3.862zm35.296-5.24v7.383c0 1.325-.467 2.455-1.423 3.41-.779.779-1.694 1.207-2.746 1.364-.351.058-.818-.078-.877-.566-.058-.622.429-.778.76-.798.72-.039 1.403-.37 1.948-.916.585-.585.974-1.11 1.091-1.558.117-.429 0-1.13-.079-1.013-.915 1.129-2.357 1.675-3.681 1.675-2.942 0-4.929-1.871-4.929-4.89 0-2.922 2.221-4.929 4.929-4.929a4.93 4.93 0 0 1 3.603 1.559c.02.019.157.098.157-.176v-.546c0-.331.272-.603.603-.603h.058a.605.605 0 0 1 .586.604zm-1.246 4.091c0-2.046-1.715-3.76-3.76-3.76-2.027 0-3.663 1.812-3.663 3.76 0 2.222 1.48 3.721 3.663 3.721 2.045 0 3.76-1.695 3.76-3.721zm11.899-.233h-7.462c-.272 0-.331.078-.311.37.078.974.429 1.773 1.071 2.396.701.701 1.558 1.188 2.572 1.188.992 0 2.026-.527 2.473-1.071.449-.546.721-.74 1.17-.468.35.233.35.662.077.994a4.87 4.87 0 0 1-3.72 1.715c-1.364 0-2.514-.488-3.488-1.443-.955-.974-1.441-2.123-1.441-3.487 0-1.364.487-2.513 1.441-3.468.974-.974 2.124-1.423 3.488-1.423 1.363 0 2.513.449 3.486 1.423.683.681 1.091 1.519 1.227 2.494.041.293-.038.78-.583.78zm-.955-1.617a2.964 2.964 0 0 0-.605-.76c-.721-.72-1.578-1.149-2.571-1.149-1.014 0-1.871.429-2.591 1.149a4.585 4.585 0 0 0-.682.858c-.137.253-.039.272.272.272h6.001c.41 0 .293-.175.176-.37zm9.716 6.332l-.038.039a.62.62 0 0 1-.858-.137s-2.961-4.326-3.059-4.461c-.098-.117-.233-.117-.351-.02a49.51 49.51 0 0 1-.876.838c-.118.098-.176.195-.176.429v2.863a.607.607 0 0 1-.603.605h-.059a.606.606 0 0 1-.603-.605v-8.123c0-.331.272-.603.603-.603h.059c.331 0 .603.272.603.603v3.155c0 .216.098.273.253.118.156-.137 3.799-3.507 3.799-3.507a.633.633 0 0 1 .857.038l.04.04a.616.616 0 0 1-.059.857s-2.533 2.279-2.65 2.377c-.098.097-.137.213-.019.37.136.175 3.253 4.286 3.253 4.286a.613.613 0 0 1-.116.838zm10.595-4.501c0 2.707-2.202 4.909-4.929 4.909a4.914 4.914 0 0 1-4.908-4.909 4.914 4.914 0 0 1 4.908-4.91c2.727 0 4.929 2.202 4.929 4.91zm-1.266 0c0-2.027-1.636-3.741-3.663-3.741-2.006 0-3.662 1.714-3.662 3.741 0 2.026 1.656 3.74 3.662 3.74 2.027 0 3.663-1.714 3.663-3.74zm12.717.019c0 2.727-2.241 4.89-4.968 4.89-1.383 0-2.707-.526-3.487-1.558-.039-.059-.176-.098-.176.116v3.332a.591.591 0 0 1-.603.585h-.04a.573.573 0 0 1-.583-.585V84.197a.59.59 0 0 1 .583-.603h.04c.33 0 .603.272.603.603v.566c0 .253.176.194.253.097.76-.955 2.104-1.5 3.448-1.5a4.922 4.922 0 0 1 4.93 4.928zm-1.247 0c0-2.026-1.655-3.76-3.682-3.76-2.026 0-3.681 1.734-3.681 3.76s1.617 3.721 3.642 3.721c2.045 0 3.721-1.695 3.721-3.721z" fill="#6D6E71"/><path fill="#6D6E71" d="M328.908 74.959h-72.024c.777-1.48 1.259-2.368 1.444-2.654 7.215-11.567 13.875-17.352 19.986-17.352 1.234 0 1.853.486 1.853 1.462 0 2.275-1.789 5.005-5.363 8.189-3.769 3.38-7.311 5.071-10.626 5.071-.26 0-.878-.099-1.853-.295-.714 0-1.073.229-1.073.684.327.78 2.405 1.169 6.24 1.169 6.694 0 12.382-1.235 17.061-3.703 1.873-.989 3.353-1.847 4.477-2.585-.496 1.037-.773 2.033-.773 2.974 0 1.235.749 1.853 2.243 1.853 1.559 0 4.127-1.348 7.701-4.045s5.329-4.048 5.264-4.048c.065 0 .098.033.098.099-1.041 1.235-1.559 2.338-1.559 3.314 0 3.574 1.689 5.361 5.069 5.361 1.819 0 4.841-1.169 9.066-3.508 4.03-2.209 6.045-3.706 6.045-4.486 0-.259-.098-.389-.294-.389-.194 0-.389.097-.585.292-5.654 3.835-10.139 5.752-13.453 5.752-2.016 0-3.023-.91-3.023-2.73 0-1.04 1.398-3.477 4.193-7.312.844-1.169 1.267-1.917 1.267-2.242 0-.91-.325-1.365-.975-1.365-.26 0-.715.389-1.365 1.169-1.365 1.626-3.673 3.802-6.921 6.532-4.031 3.314-6.761 4.972-8.189 4.972-.456 0-.682-.226-.682-.681 0-1.235.909-2.763 2.73-4.583 5.654-5.655 10.3-8.482 13.941-8.482.064-.064.097-.13.097-.196 0-.193-.243-.469-.731-.827-.487-.358-.926-.568-1.317-.634-2.665 0-6.37 1.917-11.114 5.752-2.17 1.719-3.84 3.34-5.069 4.875-6.24 4.224-12.251 6.337-18.035 6.337 7.604-4.55 11.406-9.196 11.406-13.941 0-1.56-1.008-2.341-3.022-2.341-2.73 0-5.915 1.235-9.554 3.706-2.73 1.949-4.874 3.868-6.434 5.752-.39.389-.619.651-.682.78-.065-.064-.098-.13-.098-.196 0-.585 2.502-5.427 7.507-14.526 5.265-9.422 7.929-14.234 7.995-14.429.39-.389.585-.94.585-1.657 0-.389-.098-.648-.292-.78-.195-.13-.327-.193-.39-.193-.455 0-.961.445-1.463 1.365a8249.31 8249.31 0 0 0-16.728 30.722c-2.171 1.676-4.393 2.521-6.669 2.521-1.886 0-3.38-.618-4.485-1.853 2.014-3.314 3.023-6.4 3.023-9.26-.196-1.624-.878-2.438-2.047-2.438-1.17 0-2.276.714-3.316 2.143-1.169 1.693-1.754 3.706-1.754 6.047 0 2.013.617 3.703 1.852 5.068-2.34 2.666-4.647 3.998-6.922 3.998-1.559 0-2.34-1.106-2.34-3.314 0-3.38 1.624-6.891 4.875-10.53 2.664-2.989 4.777-4.646 6.337-4.972.39-.325.586-.585.586-.78 0-.648-.521-.976-1.561-.976-1.625 0-4.191 1.789-7.701 5.363-2.622 2.705-4.414 5.395-5.384 8.074-5.913 4.038-10.003 6.063-12.262 6.063-1.496 0-2.242-.813-2.242-2.437 0-1.756 1.949-5.556 5.85-11.407.454-.648.682-1.233.682-1.754 0-.844-.423-1.268-1.267-1.268-.456 0-1.17.488-2.145 1.462-1.95 2.536-4.307 4.99-7.069 7.362-2.763 2.374-5.931 4.403-9.505 6.094-2.016.91-3.284 1.365-3.802 1.365h-.586c-.585 0-1.04-.163-1.365-.488a6.003 6.003 0 0 1-.877-1.122c-.259-.422-.488-.794-.683-1.12-.194-.325-.454-.488-.78-.488-.39 0-.763.259-1.121.78-.356.521-.536 1.136-.536 1.853 0 1.235.375 2.032 1.121 2.388.748.358 1.577.568 2.487.634a6.207 6.207 0 0 0 2.436-.292c.78-.259 1.592-.618 2.437-1.073.844-.455 1.722-.943 2.633-1.464a43.269 43.269 0 0 1 3.022-1.558c2.274-1.301 3.914-2.341 4.923-3.121 1.007-.78 1.672-1.169 1.998-1.169.196 0 .292.13.292.389 0-.064-.081.099-.243.488a60.6 60.6 0 0 0-.586 1.462 13.534 13.534 0 0 0-.585 1.999 9.89 9.89 0 0 0-.244 2.096c0 2.082.91 3.121 2.73 3.121 2.567 0 7.522-2.416 14.803-7.189a13.229 13.229 0 0 0-.375 3.094c0 3.248 1.3 4.875 3.9 4.875 3.509 0 6.758-1.949 9.749-5.851 1.299.976 2.86 1.464 4.679 1.464 2.351 0 4.68-.791 6.99-2.346a5345.58 5345.58 0 0 0-5.434 10.068h-78.186c1.347-2.803 2.54-5.27 3.487-7.205-.136 1.622.23 2.743 1.129 3.332.941.618 2.096.844 3.46.684 1.365-.163 2.762-.603 4.193-1.318 1.429-.714 2.599-1.525 3.509-2.437 4.16-4.222 6.24-8.482 6.24-12.77 0-3.251-1.301-4.875-3.899-4.875-2.56 0-4.981 1.05-7.264 3.123l.488-.931a553.352 553.352 0 0 1 5.898-11.016c1.95-3.541 3.818-6.905 5.606-10.089a214.125 214.125 0 0 1 5.119-8.677c1.623-2.664 3.102-5.101 4.435-7.312 1.332-2.209 2.793-4.175 4.387-5.898 1.592-1.721 3.51-3.185 5.752-4.387 2.243-1.202 5.085-2.159 8.531-2.876.258-.325-.26-.844-1.561-1.561-1.949-1.037-4.518-.519-7.701 1.561-1.949 1.301-3.754 2.892-5.411 4.776-1.657 1.886-3.283 3.998-4.874 6.339a136.694 136.694 0 0 0-4.827 7.652 669.229 669.229 0 0 1-5.166 8.628c-4.637 7.686-9.21 15.779-13.721 24.269.157-1.651-.163-2.785-1.001-3.357-.911-.615-2.047-.844-3.412-.681-1.365.163-2.796.634-4.29 1.412-1.496.78-2.697 1.627-3.607 2.537-4.161 4.224-6.24 8.482-6.24 12.77 0 3.251 1.3 4.875 3.9 4.875 2.724 0 5.324-1.24 7.805-3.68a2871.422 2871.422 0 0 0-3.397 7.114h-73.265c.814-1.479 1.324-2.364 1.51-2.654 7.215-11.567 13.875-17.352 19.986-17.352 1.234 0 1.853.486 1.853 1.462 0 2.275-1.789 5.005-5.363 8.189-3.769 3.38-7.311 5.071-10.626 5.071-.26 0-.878-.099-1.853-.295-.714 0-1.073.229-1.073.684.326.78 2.404 1.169 6.24 1.169 6.694 0 12.382-1.235 17.061-3.703 1.873-.989 3.353-1.847 4.477-2.585-.496 1.037-.773 2.033-.773 2.974 0 1.235.748 1.853 2.243 1.853 1.559 0 4.126-1.348 7.701-4.045 3.574-2.697 5.329-4.048 5.264-4.048.065 0 .098.033.098.099-1.041 1.235-1.559 2.338-1.559 3.314 0 3.574 1.689 5.361 5.069 5.361 1.819 0 4.841-1.169 9.066-3.508 4.03-2.209 6.046-3.706 6.046-4.486 0-.259-.098-.389-.293-.389-.195 0-.389.097-.585.292-5.655 3.835-10.14 5.752-13.454 5.752-2.015 0-3.023-.91-3.023-2.73 0-1.04 1.398-3.477 4.192-7.312.844-1.169 1.267-1.917 1.267-2.242 0-.91-.325-1.365-.975-1.365-.26 0-.715.389-1.365 1.169-1.365 1.626-3.673 3.802-6.921 6.532-4.031 3.314-6.761 4.972-8.189 4.972-.456 0-.682-.226-.682-.681 0-1.235.909-2.763 2.73-4.583 5.654-5.655 10.3-8.482 13.941-8.482.064-.064.097-.13.097-.196 0-.193-.243-.469-.731-.827-.487-.358-.926-.568-1.317-.634-2.665 0-6.369 1.917-11.114 5.752-2.169 1.719-3.839 3.34-5.068 4.875-6.24 4.224-12.252 6.337-18.036 6.337 7.604-4.55 11.406-9.196 11.406-13.941 0-1.56-1.008-2.341-3.022-2.341-2.73 0-5.914 1.235-9.554 3.706-2.73 1.949-4.874 3.868-6.434 5.752-.39.389-.619.651-.683.78-.065-.064-.098-.13-.098-.196 0-.585 2.502-5.427 7.507-14.526 5.265-9.422 7.929-14.234 7.995-14.429.39-.389.585-.94.585-1.657 0-.389-.098-.648-.292-.78-.194-.13-.326-.193-.39-.193-.455 0-.959.445-1.463 1.365A24160.975 24160.975 0 0 0 99.25 74.966H74.587a.595.595 0 1 0 0 1.189h24.022c-13.484 25.76-21.147 40.119-21.891 41.783-.266.593-.34 1.086.37 1.377.462.207.805-.232 1.128-.579 1.434-1.537 20.441-39.23 22.262-42.581h73.351c-8.096 17.045-19.458 41.02-19.7 42.103-.171.764.105.945.378 1.044 1.005.364 1.335-.218 1.566-.617.291-.502 12.786-27.118 20.182-42.531h78.116c-12.258 22.792-19.852 37.49-22.107 41.965-.294.581.008.95.398 1.082.131.064.698.376 1.09-.291.319-.545 20.74-39.345 22.513-42.756h72.644a.597.597 0 1 0-.001-1.195zm-80.035-15.291c0-1.622.324-2.956.975-3.996.648-1.04 1.267-1.561 1.852-1.561.455 0 .682.325.682.976 0 2.6-.877 5.264-2.632 7.994-.584-.91-.877-2.048-.877-3.413zm-62.837-2.899a44.24 44.24 0 0 1 3.35-3.339c1.169-1.04 2.307-1.561 3.412-1.561.78 0 1.477.358 2.096 1.073.618.717.926 1.624.926 2.73 0 1.69-.521 3.51-1.559 5.46-1.041 1.95-2.374 3.835-3.998 5.653-.651.78-1.511 1.546-2.584 2.291-1.071.75-2.096 1.252-3.07 1.511-.975.259-1.772.163-2.389-.292-.618-.453-.829-1.494-.633-3.119 0-.648.112-1.414.341-2.291.053-.206.126-.415.189-.622l.055-.108c1.297-2.474 2.578-4.927 3.864-7.386zM175.395 68.59c-1.332.747-2.583 1.12-3.753 1.12-.78 0-1.398-.342-1.853-1.023-.455-.684-.682-1.575-.682-2.68 0-1.69.488-3.609 1.463-5.752a23.496 23.496 0 0 1 3.9-5.948c.648-.78 1.511-1.478 2.584-2.096 1.071-.618 2.111-.99 3.119-1.122 1.008-.13 1.836.083 2.487.634.648.552.877 1.641.683 3.265 0 .648-.114 1.409-.34 2.281a615.55 615.55 0 0 0-3.748 7.667c-.068.094-.133.197-.203.29-1.106 1.495-2.325 2.617-3.657 3.364z"/><path fill="#6D6E71" d="M108.604 59.712c-.013-.042-.042-.057-.085-.044l-.615.765c-.205.255-.433.518-.681.784a37.47 37.47 0 0 1-1.372 1.538 46.172 46.172 0 0 1-1.675 1.706c-.293.282-.704.639-1.235 1.067a34.59 34.59 0 0 1-1.701 1.285c-.603.428-1.216.823-1.839 1.186-.625.362-1.195.625-1.715.789-.606.191-1.257.052-1.951-.42a8.187 8.187 0 0 1-1.863-1.772l-.016.013a18.403 18.403 0 0 1-1.113-1.723c-1.071-1.914-1.888-3.802-2.45-5.662 3.323-2.928 7.52-5.884 12.588-8.871 2.535-1.464 3.802-2.563 3.802-3.294 0-.509-.48-.761-1.437-.761-.563 0-1.07.113-1.521.337-2.986 1.579-7.604 5.295-13.855 11.152v-.252c-.056-1.52 1.379-5.014 4.308-10.476 4.168-7.774 8.308-14.756 12.42-20.954 2.479-3.661 3.718-5.461 3.718-5.408 0-.561-.732-.844-2.196-.844-1.803 0-15.18 22.532-19.686 32.782-1.747.506-2.619 1.239-2.619 2.197 0 .283.168 1.155.507 2.618-2.704 5.182-7.409 13.56-7.688 14.364-.094.27.114.422.507.422 1.709 0 5.199-5.448 5.199-5.448 1.638-2.218 3.926-5.62 3.926-5.62.468 4.092 3.466 8.015 4.501 8.99.517.488 1.104.83 1.725 1.062.62.235 1.234.256 1.84.065.649-.205 1.372-.553 2.17-1.041.797-.489 1.6-1.038 2.407-1.649a33.176 33.176 0 0 0 2.238-1.847 24.69 24.69 0 0 0 1.664-1.63 53.093 53.093 0 0 0 1.941-2.109A44.5 44.5 0 0 0 108.369 61c.205-.254.319-.457.344-.606a.927.927 0 0 0-.025-.422l-.084-.26zM116.089.526c-1.977-1.052-4.58-.526-7.809 1.582-1.977 1.319-3.806 2.933-5.487 4.843-1.68 1.912-3.328 4.053-4.942 6.427a139.646 139.646 0 0 0-4.894 7.759 678.756 678.756 0 0 1-5.238 8.748 481.566 481.566 0 0 0-6.639 11.41c-.991 1.635-1.983 3.356-2.92 5.211-6.503 6.14-13.126 10.55-19.862 13.225-3.073 1.262-5.494 1.868-7.264 1.817-2.529-.072-3.749-1.666-3.66-4.785.104-3.624 1.665-9.526 4.681-17.708 3.014-8.095 4.593-14.629 4.735-19.603l.039-1.391c-.126-4.389-1.878-6.632-5.249-6.728-1.434-.041-3.049.419-4.847 1.38-2.568 1.361-6.06 3.96-10.47 7.798-5.275 4.49-7.935 7.577-7.984 9.262-.012.423.109.637.362.644.253.007.466-.114.643-.362 5.532-7.602 11.592-13.081 18.183-16.436 1.368-.72 2.644-1.064 3.825-1.029 2.611.074 3.878 1.545 3.796 4.41-.088 3.118-2.332 9.294-6.728 18.532-2.341 5.165-3.954 10.01-4.844 14.539-.301 1.68-.465 3.023-.493 4.035-.164 5.733 2.155 8.665 6.96 8.803 2.358.066 5.075-.53 8.149-1.793 6.058-2.44 12.286-6.438 18.689-11.991a3260.452 3260.452 0 0 1-7.532 15.601 2960.79 2960.79 0 0 0-7.532 15.601c-6.336 12.133-13.094 21.388-20.277 27.762-6.405 5.638-13.524 8.345-21.363 8.121-5.056-.145-9.401-1.618-13.031-4.42-3.961-3.149-5.871-7.086-5.738-11.804l.041-1.391c.014-.506-.147-.764-.484-.773-.253-.007-.429.283-.532.87a35.375 35.375 0 0 0-.245 1.955c-.06.631-.1 1.282-.12 1.957-.078 2.782.294 5.216 1.12 7.308.826 2.089 2 3.809 3.522 5.161 1.522 1.35 3.328 2.393 5.416 3.128 2.088.734 4.31 1.136 6.67 1.202 8.511.244 17.027-3.298 25.729-10.399 6.464-5.276 14.674-14.505 20.44-24.596 4.695-8.215 8.673-16.853 15.37-30.038C88.377 34.482 97.566 17.4 98.741 15.452c1.35-2.24 2.832-4.233 4.448-5.981 1.614-1.744 3.559-3.229 5.832-4.448 2.274-1.219 5.156-2.189 8.65-2.915.262-.33-.264-.856-1.582-1.582z"/></svg>