<?xml version="1.0" encoding="utf-8"?>
<!-- Generator: Adobe Illustrator 18.1.0, SVG Export Plug-In . SVG Version: 6.00 Build 0)  -->
<svg version="1.1" id="Шар_1" xmlns="http://www.w3.org/2000/svg" xmlns:xlink="http://www.w3.org/1999/xlink" x="0px" y="0px"
	 viewBox="0 0 329.504 119.415" enable-background="new 0 0 329.504 119.415" xml:space="preserve">
<g>
	<g>
		<path d="M126.785,92.93l-0.039,0.039c-0.273,0.194-0.663,0.136-0.857-0.137c0,0-2.961-4.326-3.059-4.461
			c-0.098-0.117-0.234-0.117-0.351-0.02c-0.078,0.079-0.624,0.605-0.877,0.838c-0.117,0.098-0.175,0.195-0.175,0.429
			c0,0.214,0,2.863,0,2.863c0,0.332-0.272,0.605-0.604,0.605h-0.058c-0.332,0-0.604-0.272-0.604-0.605v-8.123
			c0-0.331,0.272-0.603,0.604-0.603h0.058c0.332,0,0.604,0.272,0.604,0.603c0,0,0,2.922,0,3.156c0,0.215,0.098,0.273,0.253,0.117
			c0.156-0.137,3.798-3.506,3.798-3.506c0.254-0.215,0.624-0.195,0.858,0.039l0.039,0.039c0.214,0.253,0.194,0.624-0.059,0.858
			c0,0-2.532,2.278-2.649,2.376c-0.098,0.097-0.137,0.213-0.019,0.37c0.136,0.175,3.253,4.286,3.253,4.286
			C127.096,92.345,127.038,92.734,126.785,92.93z"/>
		<path d="M134.107,83.676c2.103,0.546,3.643,2.454,3.643,4.733c0,2.727-2.202,4.929-4.91,4.929c-5.26,0-5.571-5.279-4.577-10.033
			c0.564-2.825,2.727-4.676,5.434-4.676c2.67,0,3.877,2.805,0.429,4.909C134.048,83.578,134.029,83.636,134.107,83.676z
			 M129.373,85.136c0.428-0.603,1.13-1.09,1.909-1.364c0.799-0.311,3.818-1.188,3.818-2.981c0-0.565-0.389-1.033-1.403-1.033
			c-2.026,0-3.545,1.286-4.168,3.313c-0.156,0.506-0.351,1.305-0.409,1.908C129.08,85.253,129.257,85.293,129.373,85.136z
			 M136.503,88.41c0-2.026-1.636-3.721-3.663-3.721c-2.026,0-3.662,1.695-3.662,3.721c0,2.026,1.636,3.76,3.662,3.76
			C134.867,92.17,136.503,90.436,136.503,88.41z"/>
		<path d="M140.59,84.357v8.123c0,0.332-0.273,0.605-0.604,0.605h-0.039c-0.332,0-0.604-0.272-0.604-0.605v-8.123
			c0-0.331,0.272-0.603,0.604-0.603h0.039C140.317,83.754,140.59,84.026,140.59,84.357z"/>
		<path d="M149.082,84.357v0.039c0,0.331-0.273,0.605-0.604,0.605h-2.084c-0.098,0-0.176,0.097-0.176,0.194v7.285
			c0,0.332-0.273,0.605-0.604,0.605h-0.058c-0.331,0-0.604-0.272-0.604-0.605v-7.285c0-0.098-0.077-0.194-0.194-0.194h-2.065
			c-0.332,0-0.604-0.273-0.604-0.605v-0.039c0-0.331,0.272-0.603,0.604-0.603h5.785C148.809,83.754,149.082,84.026,149.082,84.357z"
			/>
		<path d="M150.579,89.364v-4.987c0-0.351,0.292-0.624,0.623-0.624h0.058c0.331,0,0.604,0.272,0.604,0.624v4.909
			c0,1.967,1.11,2.844,2.493,2.844c1.792,0,2.649-0.838,2.649-2.494c0-0.233,0-5.259,0-5.259c0-0.351,0.273-0.624,0.624-0.624h0.039
			c0.351,0,0.624,0.272,0.624,0.624l0.019,8.085c0,0.351-0.292,0.624-0.624,0.624h-0.059c-0.311,0-0.603-0.235-0.603-0.507
			c0-0.039,0-0.214,0-0.253c0-0.078-0.098-0.117-0.157-0.039c-0.565,0.779-1.734,1.053-2.513,1.053
			C152.547,93.339,150.579,92.443,150.579,89.364z"/>
	</g>
	<g>
		<path d="M186.401,88.548c0,2.651-2.177,4.752-4.828,4.752c-1.344,0-2.632-0.512-3.389-1.515c-0.038-0.058-0.17-0.094-0.17,0.113
			c0,0.133,0,3.237,0,3.237c0,0.323-0.266,0.568-0.587,0.568h-0.039c-0.321,0-0.567-0.245-0.567-0.568V84.572
			c0-0.322,0.246-0.587,0.567-0.587h0.039c0.321,0,0.587,0.265,0.587,0.587c0,0.246,0,0.53,0,0.549c0,0.246,0.17,0.19,0.245,0.094
			c0.739-0.926,2.045-1.458,3.351-1.458C184.262,83.757,186.401,85.897,186.401,88.548z M185.19,88.548
			c0-1.968-1.609-3.654-3.578-3.654c-1.968,0-3.577,1.686-3.577,3.654c0,1.968,1.571,3.616,3.54,3.616
			C183.561,92.164,185.19,90.516,185.19,88.548z"/>
		<path d="M197.169,88.529c0,2.631-2.139,4.771-4.79,4.771c-2.631,0-4.77-2.14-4.77-4.771c0-2.632,2.139-4.771,4.77-4.771
			C195.029,83.757,197.169,85.897,197.169,88.529z M195.938,88.529c0-1.97-1.59-3.635-3.56-3.635c-1.95,0-3.558,1.665-3.558,3.635
			c0,1.97,1.609,3.635,3.558,3.635C194.348,92.164,195.938,90.498,195.938,88.529z"/>
		<path d="M206.385,90.649c0,0.228,0,0.833,0,1.174c0,0.189-0.056,0.303-0.17,0.397c-0.814,0.664-1.875,1.08-3.01,1.08
			c-2.651,0-4.771-2.159-4.771-4.79c0-2.631,2.12-4.752,4.771-4.752c1.135,0,2.234,0.342,3.029,1.061
			c0.075,0.075,0.151,0.19,0.151,0.378c0,0.322,0,0.909,0,1.042c0,0.283-0.113,0.416-0.416,0.038
			c-0.662-0.814-1.647-1.383-2.764-1.383c-1.968,0-3.56,1.647-3.56,3.616c0,1.97,1.591,3.654,3.56,3.654
			c1.193,0,2.215-0.662,2.878-1.571C206.196,90.441,206.385,90.327,206.385,90.649z"/>
		<path d="M207.359,92.448c0.171-0.341,3.938-8.482,3.938-8.482c0.132-0.283,0.359-0.283,0.51,0c0,0,3.749,8.141,3.881,8.425
			c0.151,0.321,0.039,0.662-0.397,0.662h-0.095c-0.51,0-0.661-0.17-0.832-0.53c0,0-2.31-5.415-2.499-5.812
			c-0.058-0.113-0.171-0.416-0.228-0.549c-0.113-0.283-0.094-0.302-0.19-0.019c-0.038,0.095-0.151,0.416-0.207,0.549
			c-0.171,0.379-2.518,5.831-2.518,5.831c-0.209,0.435-0.361,0.53-0.833,0.53c0,0-0.058,0-0.113,0
			C207.511,93.054,207.188,92.788,207.359,92.448z"/>
		<path d="M215.873,89.437v-4.847c0-0.341,0.283-0.606,0.606-0.606h0.055c0.323,0,0.587,0.265,0.587,0.606v4.771
			c0,1.912,1.08,2.764,2.423,2.764c1.742,0,2.575-0.814,2.575-2.423c0-0.228,0-5.112,0-5.112c0-0.341,0.265-0.606,0.606-0.606h0.038
			c0.341,0,0.606,0.265,0.606,0.606l0.019,7.857c0,0.341-0.284,0.606-0.606,0.606h-0.057c-0.303,0-0.587-0.228-0.587-0.493
			c0-0.038,0-0.209,0-0.245c0-0.077-0.094-0.114-0.152-0.038c-0.548,0.757-1.684,1.022-2.442,1.022
			C217.785,93.3,215.873,92.429,215.873,89.437z"/>
		<path d="M232.444,84.572v7.895c0,0.322-0.265,0.587-0.587,0.587H231.8c-0.322,0-0.587-0.265-0.587-0.587v-3.332
			c0-0.094-0.075-0.171-0.171-0.171h-5.073c-0.094,0-0.171,0.077-0.171,0.171v3.332c0,0.322-0.264,0.587-0.587,0.587h-0.055
			c-0.323,0-0.587-0.265-0.587-0.587v-7.895c0-0.322,0.264-0.587,0.587-0.587h0.055c0.323,0,0.587,0.265,0.587,0.587v2.992
			c0,0.094,0.077,0.17,0.171,0.17h5.073c0.095,0,0.171-0.075,0.171-0.17v-2.992c0-0.322,0.265-0.587,0.587-0.587h0.056
			C232.179,83.985,232.444,84.25,232.444,84.572z"/>
		<path d="M233.381,89.437v-4.847c0-0.341,0.284-0.606,0.606-0.606h0.057c0.322,0,0.587,0.265,0.587,0.606v4.771
			c0,1.912,1.08,2.764,2.423,2.764c1.741,0,2.574-0.814,2.574-2.423c0-0.228,0-5.112,0-5.112c0-0.341,0.266-0.606,0.606-0.606h0.039
			c0.341,0,0.606,0.265,0.606,0.606l0.019,7.857c0,0.341-0.284,0.606-0.606,0.606h-0.058c-0.303,0-0.586-0.228-0.586-0.493
			c0-0.038,0-0.209,0-0.245c0-0.077-0.095-0.114-0.152-0.038c-0.549,0.757-1.685,1.022-2.442,1.022
			C235.293,93.3,233.381,92.429,233.381,89.437z"/>
	</g>
	<g>
		<g>
			<path d="M268.677,84.197v7.383c0,1.325-0.467,2.455-1.423,3.41c-0.779,0.779-1.694,1.207-2.746,1.364
				c-0.351,0.058-0.818-0.078-0.877-0.566c-0.058-0.622,0.429-0.778,0.76-0.798c0.72-0.039,1.403-0.37,1.948-0.916
				c0.585-0.585,0.974-1.11,1.091-1.558c0.117-0.429,0-1.13-0.079-1.013c-0.915,1.129-2.357,1.675-3.681,1.675
				c-2.942,0-4.929-1.871-4.929-4.89c0-2.922,2.221-4.929,4.929-4.929c1.324,0,2.63,0.527,3.603,1.559
				c0.02,0.019,0.157,0.098,0.157-0.176c0-0.02,0-0.526,0-0.546c0-0.331,0.272-0.603,0.603-0.603h0.058
				C268.404,83.594,268.677,83.866,268.677,84.197z M267.431,88.288c0-2.046-1.715-3.76-3.76-3.76c-2.027,0-3.663,1.812-3.663,3.76
				c0,2.222,1.48,3.721,3.663,3.721C265.716,92.009,267.431,90.314,267.431,88.288z"/>
			<path d="M279.33,88.055h-7.462c-0.272,0-0.331,0.078-0.311,0.37c0.078,0.974,0.429,1.773,1.071,2.396
				c0.701,0.701,1.558,1.188,2.572,1.188c0.992,0,2.026-0.527,2.473-1.071c0.449-0.546,0.721-0.74,1.17-0.468
				c0.35,0.233,0.35,0.662,0.077,0.994c-0.953,1.11-2.298,1.715-3.72,1.715c-1.364,0-2.514-0.488-3.488-1.443
				c-0.955-0.974-1.441-2.123-1.441-3.487c0-1.364,0.487-2.513,1.441-3.468c0.974-0.974,2.124-1.423,3.488-1.423
				c1.363,0,2.513,0.449,3.486,1.423c0.683,0.681,1.091,1.519,1.227,2.494C279.954,87.568,279.875,88.055,279.33,88.055z
				 M278.375,86.438c-0.137-0.253-0.332-0.507-0.605-0.76c-0.721-0.72-1.578-1.149-2.571-1.149c-1.014,0-1.871,0.429-2.591,1.149
				c-0.312,0.311-0.527,0.605-0.682,0.858c-0.137,0.253-0.039,0.272,0.272,0.272h6.001
				C278.609,86.808,278.492,86.633,278.375,86.438z"/>
			<path d="M288.091,92.77l-0.038,0.039c-0.273,0.194-0.664,0.136-0.858-0.137c0,0-2.961-4.326-3.059-4.461
				c-0.098-0.117-0.233-0.117-0.351-0.02c-0.077,0.079-0.624,0.605-0.876,0.838c-0.118,0.098-0.176,0.195-0.176,0.429
				c0,0.214,0,2.863,0,2.863c0,0.332-0.272,0.605-0.603,0.605h-0.059c-0.331,0-0.603-0.272-0.603-0.605v-8.123
				c0-0.331,0.272-0.603,0.603-0.603h0.059c0.331,0,0.603,0.272,0.603,0.603c0,0,0,2.922,0,3.155c0,0.216,0.098,0.273,0.253,0.118
				c0.156-0.137,3.799-3.507,3.799-3.507c0.253-0.214,0.624-0.194,0.857,0.038l0.04,0.04c0.213,0.253,0.193,0.624-0.059,0.857
				c0,0-2.533,2.279-2.65,2.377c-0.098,0.097-0.137,0.213-0.019,0.37c0.136,0.175,3.253,4.286,3.253,4.286
				C288.402,92.185,288.344,92.574,288.091,92.77z"/>
			<path d="M298.686,88.269c0,2.707-2.202,4.909-4.929,4.909c-2.706,0-4.908-2.202-4.908-4.909c0-2.709,2.202-4.91,4.908-4.91
				C296.484,83.359,298.686,85.561,298.686,88.269z M297.42,88.269c0-2.027-1.636-3.741-3.663-3.741
				c-2.006,0-3.662,1.714-3.662,3.741c0,2.026,1.656,3.74,3.662,3.74C295.784,92.009,297.42,90.295,297.42,88.269z"/>
			<path d="M310.137,88.288c0,2.727-2.241,4.89-4.968,4.89c-1.383,0-2.707-0.526-3.487-1.558c-0.039-0.059-0.176-0.098-0.176,0.116
				c0,0.138,0,3.332,0,3.332c0,0.331-0.273,0.585-0.603,0.585h-0.04c-0.33,0-0.583-0.253-0.583-0.585V84.197
				c0-0.331,0.253-0.603,0.583-0.603h0.04c0.33,0,0.603,0.272,0.603,0.603c0,0.253,0,0.546,0,0.566c0,0.253,0.176,0.194,0.253,0.097
				c0.76-0.955,2.104-1.5,3.448-1.5C307.935,83.359,310.137,85.561,310.137,88.288z M308.89,88.288c0-2.026-1.655-3.76-3.682-3.76
				c-2.026,0-3.681,1.734-3.681,3.76c0,2.026,1.617,3.721,3.642,3.721C307.214,92.009,308.89,90.314,308.89,88.288z"/>
		</g>
	</g>
	<path d="M328.908,74.959h-72.024c0.777-1.48,1.259-2.368,1.444-2.654c7.215-11.567,13.875-17.352,19.986-17.352
		c1.234,0,1.853,0.486,1.853,1.462c0,2.275-1.789,5.005-5.363,8.189c-3.769,3.38-7.311,5.071-10.626,5.071
		c-0.26,0-0.878-0.099-1.853-0.295c-0.714,0-1.073,0.229-1.073,0.684c0.326,0.78,2.404,1.169,6.24,1.169
		c6.694,0,12.382-1.235,17.061-3.703c1.873-0.989,3.353-1.847,4.477-2.585c-0.496,1.037-0.773,2.033-0.773,2.974
		c0,1.235,0.749,1.853,2.243,1.853c1.559,0,4.127-1.348,7.701-4.045c3.574-2.697,5.329-4.048,5.264-4.048
		c0.065,0,0.098,0.033,0.098,0.099c-1.041,1.235-1.559,2.338-1.559,3.314c0,3.574,1.689,5.361,5.069,5.361
		c1.819,0,4.841-1.169,9.066-3.508c4.03-2.209,6.045-3.706,6.045-4.486c0-0.259-0.098-0.389-0.294-0.389
		c-0.194,0-0.389,0.097-0.585,0.292c-5.654,3.835-10.139,5.752-13.453,5.752c-2.016,0-3.023-0.91-3.023-2.73
		c0-1.04,1.398-3.477,4.192-7.312c0.844-1.169,1.267-1.917,1.267-2.242c0-0.91-0.325-1.365-0.975-1.365
		c-0.26,0-0.715,0.389-1.365,1.169c-1.365,1.626-3.673,3.802-6.921,6.532c-4.031,3.314-6.761,4.972-8.189,4.972
		c-0.456,0-0.682-0.226-0.682-0.681c0-1.235,0.909-2.763,2.73-4.583c5.654-5.655,10.3-8.482,13.941-8.482
		c0.064-0.064,0.097-0.13,0.097-0.196c0-0.193-0.243-0.469-0.731-0.827c-0.487-0.358-0.926-0.568-1.317-0.634
		c-2.665,0-6.37,1.917-11.114,5.752c-2.17,1.719-3.84,3.34-5.069,4.875c-6.24,4.224-12.251,6.337-18.035,6.337
		c7.604-4.55,11.406-9.196,11.406-13.941c0-1.56-1.008-2.341-3.022-2.341c-2.73,0-5.915,1.235-9.554,3.706
		c-2.73,1.949-4.874,3.868-6.434,5.752c-0.39,0.389-0.619,0.651-0.682,0.78c-0.065-0.064-0.098-0.13-0.098-0.196
		c0-0.585,2.502-5.427,7.507-14.526c5.265-9.422,7.929-14.234,7.995-14.429c0.39-0.389,0.585-0.94,0.585-1.657
		c0-0.389-0.098-0.648-0.292-0.78c-0.195-0.13-0.327-0.193-0.39-0.193c-0.455,0-0.961,0.445-1.463,1.365
		c-6.427,11.748-11.96,21.918-16.728,30.722c-2.171,1.676-4.393,2.521-6.669,2.521c-1.886,0-3.38-0.618-4.485-1.853
		c2.014-3.314,3.023-6.4,3.023-9.26c-0.196-1.624-0.878-2.438-2.047-2.438c-1.17,0-2.276,0.714-3.316,2.143
		c-1.169,1.693-1.754,3.706-1.754,6.047c0,2.013,0.617,3.703,1.852,5.068c-2.34,2.666-4.647,3.998-6.922,3.998
		c-1.559,0-2.34-1.106-2.34-3.314c0-3.38,1.624-6.891,4.875-10.53c2.664-2.989,4.777-4.646,6.337-4.972
		c0.39-0.325,0.586-0.585,0.586-0.78c0-0.648-0.521-0.976-1.561-0.976c-1.625,0-4.191,1.789-7.701,5.363
		c-2.622,2.705-4.414,5.395-5.384,8.074c-5.913,4.038-10.003,6.063-12.262,6.063c-1.496,0-2.242-0.813-2.242-2.437
		c0-1.756,1.949-5.556,5.85-11.407c0.454-0.648,0.682-1.233,0.682-1.754c0-0.844-0.423-1.268-1.267-1.268
		c-0.456,0-1.17,0.488-2.145,1.462c-1.95,2.536-4.307,4.99-7.069,7.362c-2.763,2.374-5.931,4.403-9.505,6.094
		c-2.016,0.91-3.284,1.365-3.802,1.365h-0.586c-0.585,0-1.04-0.163-1.365-0.488c-0.325-0.325-0.618-0.698-0.877-1.122
		c-0.259-0.422-0.488-0.794-0.683-1.12c-0.194-0.325-0.454-0.488-0.78-0.488c-0.39,0-0.763,0.259-1.121,0.78
		c-0.356,0.521-0.536,1.136-0.536,1.853c0,1.235,0.375,2.032,1.121,2.388c0.748,0.358,1.577,0.568,2.487,0.634
		c0.844,0.064,1.657-0.035,2.436-0.292c0.78-0.259,1.592-0.618,2.437-1.073c0.844-0.455,1.722-0.943,2.633-1.464
		c0.909-0.519,1.915-1.037,3.022-1.558c2.274-1.301,3.914-2.341,4.923-3.121c1.007-0.78,1.672-1.169,1.998-1.169
		c0.196,0,0.292,0.13,0.292,0.389c0-0.064-0.081,0.099-0.243,0.488c-0.164,0.389-0.358,0.877-0.586,1.462
		c-0.227,0.587-0.423,1.254-0.585,1.999c-0.163,0.75-0.244,1.447-0.244,2.096c0,2.082,0.91,3.121,2.73,3.121
		c2.567,0,7.522-2.416,14.803-7.189c-0.248,1.034-0.375,2.065-0.375,3.094c0,3.248,1.3,4.875,3.9,4.875
		c3.509,0,6.758-1.949,9.749-5.851c1.299,0.976,2.86,1.464,4.679,1.464c2.351,0,4.68-0.791,6.989-2.346
		c-1.94,3.587-3.751,6.94-5.434,10.068h-78.186c1.347-2.803,2.54-5.27,3.487-7.205c-0.136,1.622,0.23,2.743,1.129,3.332
		c0.941,0.618,2.096,0.844,3.46,0.684c1.365-0.163,2.762-0.603,4.193-1.318c1.429-0.714,2.599-1.525,3.509-2.437
		c4.16-4.222,6.24-8.482,6.24-12.77c0-3.251-1.301-4.875-3.899-4.875c-2.56,0-4.981,1.05-7.264,3.123
		c0.161-0.309,0.326-0.622,0.488-0.931c1.981-3.802,3.949-7.473,5.898-11.016c1.95-3.541,3.818-6.905,5.606-10.089
		c1.787-3.185,3.494-6.077,5.119-8.677c1.623-2.664,3.102-5.101,4.435-7.312c1.332-2.209,2.793-4.175,4.387-5.898
		c1.592-1.721,3.51-3.185,5.752-4.387c2.243-1.202,5.085-2.159,8.531-2.876c0.258-0.325-0.26-0.844-1.561-1.561
		c-1.949-1.037-4.518-0.519-7.701,1.561c-1.949,1.301-3.754,2.892-5.411,4.776c-1.657,1.886-3.283,3.998-4.874,6.339
		c-1.594,2.338-3.202,4.891-4.827,7.652c-1.625,2.763-3.347,5.639-5.166,8.628c-4.637,7.686-9.21,15.779-13.721,24.269
		c0.157-1.651-0.163-2.785-1.001-3.357c-0.911-0.615-2.047-0.844-3.412-0.681c-1.365,0.163-2.796,0.634-4.29,1.412
		c-1.496,0.78-2.697,1.627-3.607,2.537c-4.161,4.224-6.24,8.482-6.24,12.77c0,3.251,1.3,4.875,3.9,4.875
		c2.724,0,5.324-1.24,7.805-3.68c-1.072,2.237-2.216,4.632-3.397,7.114h-73.265c0.814-1.479,1.324-2.364,1.51-2.654
		c7.215-11.567,13.875-17.352,19.986-17.352c1.234,0,1.853,0.486,1.853,1.462c0,2.275-1.789,5.005-5.363,8.189
		c-3.769,3.38-7.311,5.071-10.626,5.071c-0.26,0-0.878-0.099-1.853-0.295c-0.714,0-1.073,0.229-1.073,0.684
		c0.326,0.78,2.405,1.169,6.24,1.169c6.694,0,12.382-1.235,17.061-3.703c1.873-0.989,3.353-1.847,4.477-2.585
		c-0.496,1.037-0.773,2.033-0.773,2.974c0,1.235,0.748,1.853,2.243,1.853c1.559,0,4.126-1.348,7.701-4.045
		c3.574-2.697,5.329-4.048,5.264-4.048c0.065,0,0.098,0.033,0.098,0.099c-1.041,1.235-1.559,2.338-1.559,3.314
		c0,3.574,1.689,5.361,5.069,5.361c1.819,0,4.841-1.169,9.066-3.508c4.03-2.209,6.046-3.706,6.046-4.486
		c0-0.259-0.098-0.389-0.293-0.389c-0.195,0-0.389,0.097-0.585,0.292c-5.655,3.835-10.14,5.752-13.454,5.752
		c-2.015,0-3.023-0.91-3.023-2.73c0-1.04,1.398-3.477,4.192-7.312c0.844-1.169,1.267-1.917,1.267-2.242
		c0-0.91-0.325-1.365-0.975-1.365c-0.26,0-0.715,0.389-1.365,1.169c-1.365,1.626-3.673,3.802-6.921,6.532
		c-4.031,3.314-6.761,4.972-8.189,4.972c-0.456,0-0.682-0.226-0.682-0.681c0-1.235,0.909-2.763,2.73-4.583
		c5.654-5.655,10.3-8.482,13.941-8.482c0.064-0.064,0.097-0.13,0.097-0.196c0-0.193-0.243-0.469-0.731-0.827
		c-0.487-0.358-0.926-0.568-1.317-0.634c-2.665,0-6.369,1.917-11.114,5.752c-2.169,1.719-3.839,3.34-5.068,4.875
		c-6.24,4.224-12.252,6.337-18.036,6.337c7.604-4.55,11.406-9.196,11.406-13.941c0-1.56-1.008-2.341-3.022-2.341
		c-2.73,0-5.914,1.235-9.554,3.706c-2.73,1.949-4.874,3.868-6.434,5.752c-0.39,0.389-0.619,0.651-0.683,0.78
		c-0.065-0.064-0.098-0.13-0.098-0.196c0-0.585,2.502-5.427,7.507-14.526c5.265-9.422,7.929-14.234,7.995-14.429
		c0.39-0.389,0.585-0.94,0.585-1.657c0-0.389-0.098-0.648-0.292-0.78c-0.194-0.13-0.326-0.193-0.39-0.193
		c-0.455,0-0.959,0.445-1.463,1.365c-7.328,13.396-22.437,41.178-23.273,42.722H74.587c-0.329,0-0.595,0.266-0.595,0.595
		c0,0.328,0.266,0.594,0.595,0.594h24.022c-13.484,25.76-21.147,40.119-21.891,41.783c-0.266,0.593-0.34,1.086,0.37,1.377
		c0.462,0.207,0.805-0.232,1.128-0.579c1.434-1.537,20.441-39.23,22.262-42.581h73.351c-8.096,17.045-19.458,41.02-19.7,42.103
		c-0.171,0.764,0.105,0.945,0.378,1.044c1.005,0.364,1.335-0.218,1.566-0.617c0.291-0.502,12.786-27.118,20.182-42.531h78.116
		c-12.258,22.792-19.852,37.49-22.107,41.965c-0.294,0.581,0.008,0.95,0.398,1.082c0.131,0.064,0.698,0.376,1.09-0.291
		c0.319-0.545,20.74-39.345,22.513-42.756h72.644c0.329,0,0.595-0.266,0.595-0.594C329.504,75.225,329.237,74.959,328.908,74.959z
		 M248.873,59.668c0-1.622,0.324-2.956,0.975-3.996c0.648-1.04,1.267-1.561,1.852-1.561c0.455,0,0.682,0.325,0.682,0.976
		c0,2.6-0.877,5.264-2.632,7.994C249.166,62.171,248.873,61.033,248.873,59.668z M186.036,56.769
		c1.116-1.228,2.232-2.347,3.35-3.339c1.169-1.04,2.307-1.561,3.412-1.561c0.78,0,1.477,0.358,2.096,1.073
		c0.618,0.717,0.926,1.624,0.926,2.73c0,1.69-0.521,3.51-1.559,5.46c-1.041,1.95-2.374,3.835-3.998,5.653
		c-0.651,0.78-1.511,1.546-2.584,2.291c-1.071,0.75-2.096,1.252-3.07,1.511c-0.975,0.259-1.772,0.163-2.389-0.292
		c-0.618-0.453-0.829-1.494-0.633-3.119c0-0.648,0.112-1.414,0.341-2.291c0.053-0.206,0.126-0.415,0.189-0.622
		c0.017-0.033,0.039-0.078,0.055-0.108C183.469,61.681,184.75,59.228,186.036,56.769z M175.395,68.59
		c-1.332,0.747-2.583,1.12-3.753,1.12c-0.78,0-1.398-0.342-1.853-1.023c-0.455-0.684-0.682-1.575-0.682-2.68
		c0-1.69,0.488-3.609,1.463-5.752c0.975-2.145,2.275-4.128,3.9-5.948c0.648-0.78,1.511-1.478,2.584-2.096
		c1.071-0.618,2.111-0.99,3.119-1.122c1.008-0.13,1.836,0.083,2.487,0.634c0.648,0.552,0.877,1.641,0.683,3.265
		c0,0.648-0.114,1.409-0.34,2.281c-0.988,1.975-2.274,4.609-3.748,7.667c-0.068,0.094-0.133,0.197-0.203,0.29
		C177.946,66.721,176.727,67.843,175.395,68.59z"/>
	<path d="M108.604,59.712c-0.013-0.042-0.042-0.057-0.085-0.044c-0.204,0.255-0.41,0.51-0.615,0.765
		c-0.205,0.255-0.433,0.518-0.681,0.784c-0.381,0.455-0.838,0.968-1.372,1.538c-0.533,0.574-1.093,1.141-1.675,1.706
		c-0.293,0.282-0.704,0.639-1.235,1.067c-0.532,0.43-1.099,0.857-1.701,1.285c-0.603,0.428-1.216,0.823-1.839,1.186
		c-0.625,0.362-1.195,0.625-1.715,0.789c-0.606,0.191-1.257,0.052-1.951-0.42c-0.687-0.466-1.307-1.057-1.863-1.772
		c-0.005,0.004-0.011,0.008-0.016,0.013c-0.362-0.494-0.733-1.061-1.113-1.723c-1.071-1.914-1.888-3.802-2.45-5.662
		c3.323-2.928,7.52-5.884,12.588-8.871c2.535-1.464,3.802-2.563,3.802-3.294c0-0.509-0.48-0.761-1.437-0.761
		c-0.563,0-1.07,0.113-1.521,0.337c-2.986,1.579-7.604,5.295-13.855,11.152v-0.252c-0.056-1.52,1.379-5.014,4.308-10.476
		c4.168-7.774,8.308-14.756,12.42-20.954c2.479-3.661,3.718-5.461,3.718-5.408c0-0.561-0.732-0.844-2.196-0.844
		c-1.803,0-15.18,22.532-19.686,32.782c-1.747,0.506-2.619,1.239-2.619,2.197c0,0.283,0.168,1.155,0.507,2.618
		c-2.704,5.182-7.409,13.56-7.688,14.364c-0.094,0.27,0.114,0.422,0.507,0.422c1.709,0,5.199-5.448,5.199-5.448
		c1.638-2.218,3.926-5.62,3.926-5.62c0.468,4.092,3.466,8.015,4.501,8.99c0.517,0.488,1.104,0.83,1.725,1.062
		c0.62,0.235,1.234,0.256,1.84,0.065c0.649-0.205,1.372-0.553,2.17-1.041c0.797-0.489,1.6-1.038,2.407-1.649
		c0.807-0.612,1.553-1.226,2.238-1.847c0.685-0.62,1.239-1.163,1.664-1.63c0.788-0.819,1.436-1.522,1.941-2.109
		c0.505-0.588,1.043-1.256,1.617-2.009c0.205-0.254,0.319-0.457,0.344-0.606c0.024-0.151,0.015-0.291-0.025-0.422L108.604,59.712z"
		/>
	<path d="M116.089,0.526c-1.977-1.052-4.58-0.526-7.809,1.582c-1.977,1.319-3.806,2.933-5.487,4.843
		c-1.68,1.912-3.328,4.053-4.942,6.427c-1.615,2.372-3.247,4.96-4.894,7.759c-1.648,2.802-3.394,5.718-5.238,8.748
		c-2.229,3.696-4.439,7.524-6.639,11.41c-0.991,1.635-1.983,3.356-2.92,5.211c-6.503,6.14-13.126,10.55-19.862,13.225
		c-3.073,1.262-5.494,1.868-7.264,1.817c-2.529-0.072-3.749-1.666-3.66-4.785c0.104-3.624,1.665-9.526,4.681-17.708
		c3.014-8.095,4.593-14.629,4.735-19.603l0.039-1.391c-0.126-4.389-1.878-6.632-5.249-6.728c-1.434-0.041-3.049,0.419-4.847,1.38
		c-2.568,1.361-6.06,3.96-10.47,7.798c-5.275,4.49-7.935,7.577-7.984,9.262c-0.012,0.423,0.109,0.637,0.362,0.644
		c0.253,0.007,0.466-0.114,0.643-0.362c5.532-7.602,11.592-13.081,18.183-16.436c1.368-0.72,2.644-1.064,3.825-1.029
		c2.611,0.074,3.878,1.545,3.796,4.41C55,20.118,52.756,26.294,48.36,35.532c-2.341,5.165-3.954,10.01-4.844,14.539
		c-0.301,1.68-0.465,3.023-0.493,4.035c-0.164,5.733,2.155,8.665,6.96,8.803c2.358,0.066,5.075-0.53,8.149-1.793
		c6.058-2.44,12.286-6.438,18.689-11.991c-2.513,5.242-5.025,10.442-7.532,15.601c-2.509,5.157-5.019,10.358-7.532,15.601
		c-6.336,12.133-13.094,21.388-20.277,27.762c-6.405,5.638-13.524,8.345-21.363,8.121c-5.056-0.145-9.401-1.618-13.031-4.42
		c-3.961-3.149-5.871-7.086-5.738-11.804l0.041-1.391c0.014-0.506-0.147-0.764-0.484-0.773c-0.253-0.007-0.429,0.283-0.532,0.87
		c-0.103,0.672-0.184,1.324-0.245,1.955c-0.06,0.631-0.1,1.282-0.12,1.957c-0.078,2.782,0.294,5.216,1.12,7.308
		c0.826,2.089,2,3.809,3.522,5.161c1.522,1.35,3.328,2.393,5.416,3.128c2.088,0.734,4.31,1.136,6.67,1.202
		c8.511,0.244,17.027-3.298,25.729-10.399c6.464-5.276,14.674-14.505,20.44-24.596c4.695-8.215,8.673-16.853,15.37-30.038
		C88.377,34.482,97.566,17.4,98.741,15.452c1.35-2.24,2.832-4.233,4.448-5.981c1.614-1.744,3.559-3.229,5.832-4.448
		c2.274-1.219,5.156-2.189,8.65-2.915C117.933,1.778,117.407,1.252,116.089,0.526z"/>
</g>
</svg>
